<?xml version="1.0" standalone="no"?>
<!DOCTYPE svg PUBLIC "-//W3C//DTD SVG 1.1//EN" "http://www.w3.org/Graphics/SVG/1.1/DTD/svg11.dtd">
<svg xmlns="http://www.w3.org/2000/svg" id="b" viewBox="0 0 78.45 20.43" width="78.44999694824219" height="20.43000030517578"><defs><style>.d{fill:#feec00;}.e{fill:#4abbb7;}</style></defs><g id="c"><path d="M33.55,13.1c.88,1.53,1.76,3.06,2.66,4.63-.13.01-.21.03-.3.03-1.1,0-2.2,0-3.3,0-.22,0-.34-.07-.44-.27-.55-1.05-1.11-2.09-1.66-3.13q-.37-.7-1.23-.56v3.92h-3.27V4.98h.43c1.52,0,3.05-.02,4.57,0,1.28.02,2.46.36,3.44,1.26,1.71,1.56,1.74,5.54-.74,6.74-.05.02-.08.07-.14.11M29.29,8.18v2.75c.59,0,1.16,0,1.73,0,.77,0,1.19-.44,1.25-1.26.05-.82-.33-1.42-1.06-1.49-.63-.06-1.27-.01-1.92-.01"/><path d="M20.85,16h-4.65c-.16.5-.31.99-.49,1.47-.04.12-.2.28-.3.28-1.06.02-2.12.01-3.22.01.03-.13.04-.24.08-.33,1.42-4.04,2.85-8.08,4.27-12.13.08-.24.2-.34.46-.33,1.05.02,2.09.01,3.14,0,.21,0,.31.05.38.26,1.45,4.12,2.91,8.24,4.36,12.36.01.04.01.08.03.17h-1.46c-.56,0-1.12-.02-1.67,0-.31.02-.43-.1-.51-.38-.13-.47-.29-.93-.44-1.39M19.81,12.78c-.42-1.29-.83-2.55-1.24-3.81-.03,0-.05,0-.08,0-.41,1.26-.82,2.53-1.24,3.82h2.57Z"/><path d="M46.23,17.75c-.14,0-.26.02-.38.02-2.73,0-5.46,0-8.2,0-.29,0-.43-.04-.43-.39.01-4.01,0-8.02,0-12.03,0-.11.02-.21.03-.34h8.88v3.23h-5.57v1.63h4.02v2.94h-4.02v1.69h5.66v3.26Z"/><path d="M11.88,8.48c-1.04.3-2.05.61-3.08.87-.11.03-.32-.14-.42-.27-1.25-1.54-3.69-1.36-4.61.36-.35.65-.47,1.36-.43,2.09.02.42.1.84.22,1.24.34,1.05,1.04,1.76,2.17,1.9,1.19.14,2.18-.25,2.82-1.31.18-.3.33-.34.64-.24.92.28,1.85.53,2.81.8-.34,1.02-.88,1.87-1.66,2.55-1.89,1.64-4.05,1.97-6.36,1.14-2.23-.81-3.44-2.54-3.84-4.83-.35-2.03-.08-3.97,1.2-5.65,1.41-1.86,3.35-2.6,5.63-2.34,2.39.27,4.11,1.6,4.91,3.7"/><path class="d" d="M78.4,11.2c-.06,1.77-1.22,3.12-2.84,3.51-.26.06-.54.08-.81.08-1.08.01-2.15,0-3.22.02-.21,0-.48.12-.63.27-1.74,1.7-3.47,3.41-5.2,5.13-.07.06-.12.15-.17.22-.04-.02-.08-.04-.12-.06v-5.57c-1.32,0-2.65.16-3.67-.79-.09.04-.18.09-.26.15.43-.42,1.08-1.19,1.59-2.39-.01.06-.01.13,0,.18.11.38.64.43,1.06.43,1.02,0,2.04,0,3.06,0h.51v2.46c.14-.11.22-.17.29-.24.65-.64,1.31-1.27,1.94-1.93.22-.22.45-.3.75-.3,1.3.01,2.61.01,3.91,0,.93,0,1.52-.56,1.53-1.48.01-2.32.01-4.65,0-6.97,0-.93-.59-1.48-1.53-1.48-3.49,0-6.99,0-10.48,0-.95,0-1.51.57-1.51,1.53,0,.83.09,1.67-.02,2.49-.09.62.04,1.12.29,1.56l-.77-.89s-.67-.99-1.81-1.51c0-.5,0-1.02,0-1.54,0-.97.22-1.86.82-2.63C61.85.5,62.81,0,64.01,0c3.56,0,7.12,0,10.69,0,1.92,0,3.49,1.42,3.7,3.34.04.35.06.7.06,1.06,0,2.27.03,4.54-.04,6.81"/><path class="d" d="M69.34,8.88c-.47-.02-.84-.43-.83-.93.01-.51.42-.9.92-.88.48.02.83.43.81.94-.02.5-.41.88-.89.86"/><path class="d" d="M72.94,7.08c.48,0,.85.39.86.9,0,.52-.38.92-.89.91-.49-.01-.83-.39-.82-.92,0-.53.36-.89.85-.89"/><path class="d" d="M65.82,8.88c-.49,0-.85-.36-.86-.88-.01-.54.35-.93.86-.93.49,0,.84.38.85.9,0,.51-.36.9-.84.91"/><path class="e" d="M64.61,10.03l-.77-.9-.97-1.12-.77-.89s-.67-.99-1.81-1.51c-.26-.12-.54-.21-.85-.26,0,0-.97-.35-2.12-.59,0,0-.82-.13-1.32-1.3,0,0-.85-2.03-2.7-2.33,0,0-2.06-.34-2.97.66,0,0,0,0-.02.02,0,0,0,0,0,0-.18.18-1.15,1.17-1.36,1.28l-.82.47-.53.3s0,0,0,.01c.03.06.15.3.34.33l.84.19s1.25,1.47,1.3,2.14c0,0,.06.45-.21,1.54,0,0-.13,1.05.48,2.42,0,0,.89,1.7,1.25,2.06,0,0,.89.77,1.7.77l.9.09s.51.08.95.5l.66.6.04.03.23.21.34.31s.2.3.2.65c0,0,.01.71-.2,1.24,0,0-.03.31-.35.58-.12.1-.28.19-.48.26,0,0-.59.2-1,.23,0,0-.3.06-.29.29,0,0,0,.01.01.02h0c.03.05.14.16.51.1,0,0,1.05-.15,1.2-.15,0,0,.52-.05.67.3l.29.58s.05.08.1.12c.05.04.11.04.13-.12l-.05-.83v-.05s.68.07.8.1l.75.17s.09.02.16,0c.06-.02.11-.07.07-.19,0,0-.07-.09-.21-.18-.05-.03-.11-.06-.18-.09,0,0-.12-.06.2-.06h.73s.19-.01.05.17l-.12.2-.06.09s-.06.16.02.27c.01.02.03.04.06.06,0,0,.06.03.16,0h.02c.08-.04.17-.12.29-.27l.28-.36.09-.11s.16-.23.58.07c0,0,.18.1.38.19h0c.18.08.38.15.49.14,0,0,.15.04.27.03h0s.08,0,.11-.03c.05-.03.07-.07.06-.16,0-.01,0-.02,0-.04,0,0-.05-.16-.49-.23,0,0-.01,0-.04-.01h0c-.09-.03-.32-.11-.56-.28-.26-.18-.53-.46-.66-.89l.07-1.42v-.13s.06-.43.45-.76t0,0s.05-.04.09-.07c0,0,.19-.13.47-.4.43-.42,1.08-1.19,1.59-2.39.05-.11.1-.23.14-.35,0,0,.04-.11.15-.28.17-.28.53-.71,1.22-1.08.01,0,.03-.02.04-.02h0ZM59.03,17.62c-.05,0-.16,0-.27.02-.02,0-.04,0-.06,0-.17.01-.33.03-.33.03l-.48.12c-.58.13-.59-.12-.59-.12-.33-.33-.23-1.44-.23-1.44,0-.2.17-.66.28-.92.04-.11.07-.17.07-.17.11.05.22.09.34.12.44.13.89.15,1.27.15.55-.01.95-.1.95-.1v.21s-.01.02-.01.02l-.04.88c-.45,1.23-.89,1.19-.89,1.19"/></g></svg>