<svg width="80" height="80" viewBox="0 0 80 80" fill="none" xmlns="http://www.w3.org/2000/svg">
<path d="M62.0089 14.2456C62.2734 14.2623 62.5128 14.3514 62.78 14.3709C64.3084 14.4822 68.1723 14.1899 69.3777 14.8191C69.5392 14.9026 69.6561 15.0028 69.7758 15.1392C70.16 15.5846 71.2791 16.7538 71.7412 17.1157C71.9834 17.3078 72.2729 17.2856 72.5847 17.5862C74.0323 18.9781 74.1297 25.1193 74.3135 27.2044C75.1598 36.7807 76.0701 46.3989 76.6992 55.9892C76.8328 58.0381 77.0027 60.1538 77.0639 62.1944C77.1029 63.5334 77.4787 65.7465 75.9643 66.2393C74.1269 66.8378 71.3598 66.1975 69.4278 66.2142C68.9295 68.1991 69.6394 70.2897 67.4123 71.3058C64.5923 72.592 56.4524 72.1967 53.109 72.0603C43.0733 71.6483 32.5671 70.7658 22.5397 69.9056C18.1969 69.5325 13.3392 69.2041 9.0799 68.4357C5.9453 67.8706 3.00557 67.1941 3 63.397C4.5673 50.1905 5.80054 36.9255 7.6852 23.7635C7.97193 21.7647 8.53984 16.5172 9.39447 14.9611C10.4913 12.9623 14.4861 13.5747 16.3958 13.3631C16.8273 11.5843 17.256 9.62444 18.9319 8.61391C22.3532 6.55109 24.7891 10.0866 24.3882 13.2963L35.5458 13.5218C35.7462 13.4689 35.827 12.6171 35.9133 12.3415C37.7896 6.28384 44.3511 7.47532 43.6161 13.6527L54.114 13.8809C54.6345 11.4061 56.419 8.19634 59.4339 9.00365C60.7534 9.3572 62.0089 11.2001 62.0089 12.5196V14.2512V14.2456ZM18.4753 13.4105H22.2975C22.2975 13.4105 22.4757 13.2434 22.4757 13.2323V11.4395C22.4757 11.3894 22.0999 10.6851 22.0275 10.5737C20.939 8.95076 19.3634 10.2202 18.7899 11.5759C18.6646 11.8682 18.3111 12.8871 18.3139 13.1376C18.3139 13.2518 18.3779 13.3826 18.4726 13.4105H18.4753ZM37.5251 13.5274C38.2183 13.3214 41.3362 13.8587 41.712 13.5942C42.1797 13.2685 41.712 10.39 40.4426 10.1896C38.7138 9.91675 37.7617 12.1355 37.5251 13.5274ZM59.9795 14.2456C60.7089 10.6907 57.8193 9.15676 56.3383 12.9344C56.252 13.1571 55.8038 14.1259 56.213 14.1287L59.9795 14.2484V14.2456ZM35.4957 15.3202L18.2972 15.0808C18.2137 15.5986 18.3417 17.4498 19.1685 17.2132C19.4024 17.1464 19.6612 16.6675 19.9257 16.5311C21.4262 15.7489 22.1695 18.0483 20.1512 18.9057C17.6151 19.9831 16.3067 17.3412 16.3875 15.2005C14.9092 15.3397 12.9077 14.936 11.5102 15.4009C10.8532 15.618 10.7697 16.1915 10.6166 16.7761C10.0069 19.1034 9.87329 21.7787 9.46128 24.1588L67.6239 26.4277C67.8772 23.2708 68.3923 20.1167 68.3338 16.9431C68.2976 16.7511 68.2308 16.4894 68.022 16.417L55.801 15.9187C55.7898 16.378 55.7369 17.7421 56.1573 18.0149C56.458 18.2098 56.9034 17.2327 57.5381 17.2466C59.0358 17.2828 58.6711 19.5126 57.1205 19.9246C54.7209 20.5621 53.6324 17.7282 53.8913 15.799L37.4082 15.3202C37.3358 15.7322 37.4472 17.2382 37.784 17.4498C38.1904 17.7059 38.2684 17.2382 38.4187 17.113C40.0668 15.7739 41.3083 18.1625 39.3569 19.1201C36.7317 20.4062 35.2451 17.5779 35.4985 15.3202H35.4957ZM4.92085 63.6921C4.84847 64.3546 5.04334 65.0617 5.59453 65.4654C7.26483 66.6903 14.0323 67.2832 16.3262 67.5115C28.3774 68.7141 41.016 69.5827 53.109 70.0225C56.7001 70.1533 62.5657 70.66 65.9536 69.8471C66.6579 69.6773 67.0198 69.5994 67.2286 68.8533C67.4652 68.0098 67.5376 66.3645 67.6183 65.4208C68.6873 53.1887 69.3499 40.6698 69.89 28.3986C70.018 25.5006 70.3938 22.3243 70.2518 19.4347C70.2296 18.9753 70.0737 18.5355 70.1266 18.0678C69.9178 18.04 70.0152 18.3378 70.0096 18.4854C69.9874 19.0394 70.043 19.6045 70.0096 20.1585C69.542 27.4104 68.5593 34.665 67.8605 41.8974C67.159 49.1716 66.6579 56.4931 65.8283 63.7533C65.6168 65.6157 65.7755 67.5505 63.6792 68.174C60.7172 69.0537 53.9191 68.2715 50.6008 68.1156C39.4877 67.5922 28.1046 66.8963 17.0444 65.7243C14.166 65.4208 10.9478 65.1285 8.11947 64.6163C7.01986 64.4159 5.94252 64.143 4.92085 63.6948V63.6921ZM69.5336 64.285C70.391 64.3017 74.6949 64.7917 75.1542 64.4715C75.2683 64.3936 75.2683 64.2349 75.2739 64.1096C74.5111 51.9526 73.4588 39.8179 72.5207 27.6776C72.3787 25.8236 72.4232 23.9222 72.1449 22.0821C72.0947 21.7564 72.078 21.3026 71.8609 21.0521C71.7106 22.7363 71.8553 24.4428 71.808 26.1326C71.5046 36.5385 70.5442 47.0141 69.8927 57.4201C69.7508 59.7056 69.6784 61.9995 69.5336 64.285ZM67.3845 28.2177L9.22188 25.8291C8.02761 35.3944 6.91408 44.9652 5.87849 54.5527C5.68084 56.3761 5.27161 58.3638 5.16304 60.1677C5.05447 61.9716 5.16583 62.1108 6.83334 62.5563C9.42231 63.2494 13.1192 63.5139 15.853 63.809C27.6342 65.0701 39.7188 65.7883 51.5612 66.32C54.6902 66.462 58.3844 66.8768 61.48 66.6819C62.059 66.6457 63.3145 66.565 63.6152 66.0695C63.8351 65.7103 63.9799 63.848 64.0411 63.2717C64.3863 60.0592 64.5589 56.816 64.8791 53.5979C65.6725 45.6138 66.8834 37.318 67.3845 29.3507C67.4096 28.9749 67.3734 28.5935 67.3845 28.2177Z" fill="black"/>
<path d="M67.3898 28.2174C67.3759 28.5932 67.412 28.9746 67.3898 29.3504C66.8859 37.315 65.6749 45.6136 64.8843 53.5976C64.5642 56.8157 64.3944 60.0561 64.0464 63.2714C63.9851 63.8449 63.8376 65.7101 63.6205 66.0692C63.3198 66.5647 62.0643 66.6454 61.4853 66.6816C58.3869 66.8765 54.6955 66.4589 51.5665 66.3197C39.724 65.788 27.6422 65.0726 15.8582 63.8087C13.1245 63.5164 9.42758 63.2519 6.83861 62.556C5.17388 62.1106 5.06531 61.9268 5.16831 60.1674C5.27131 58.4081 5.68611 56.3731 5.88376 54.5524C6.91934 44.9677 8.03288 35.3941 9.22714 25.8289L67.3898 28.2174ZM29.9611 29.0887C29.8275 29.1026 29.6772 29.1945 29.5937 29.2975C29.2123 29.7568 29.2457 32.4516 28.9395 33.1921C28.9116 33.7683 29.6716 33.7711 30.0836 33.8157C30.5958 33.8713 31.3503 33.9326 31.8597 33.9493C32.5278 33.9744 33.736 34.1971 33.9225 33.387C34.0728 32.7328 34.2705 31.1098 34.3039 30.425C34.3262 29.9963 34.4292 29.3949 33.8836 29.2947L29.9611 29.0859V29.0887ZM38.2124 29.6761C38.1289 29.7012 38.051 29.7513 37.9981 29.8181C37.8895 29.9573 37.4329 32.9109 37.4135 33.2951C37.4023 33.5568 37.3522 33.9242 37.5192 34.1414C37.6445 34.3028 38.9251 34.4058 39.2647 34.4281C39.8549 34.4643 40.459 34.417 41.0547 34.4281C41.4138 34.4365 41.6282 34.6898 42.0207 34.4365C42.391 34.1971 42.5942 32.3653 42.6526 31.8447C42.7027 31.391 42.9338 30.3164 42.6137 30.0074C42.2935 29.6984 38.9056 29.7262 38.2152 29.6761H38.2124ZM51.4774 34.8791C51.5887 34.765 51.675 34.1831 51.7112 33.9771C51.7892 33.5373 52.1427 31.0318 52.0815 30.8119C52.0258 30.6198 51.7669 30.4027 51.5637 30.3693C50.5253 30.3498 49.5009 30.2774 48.4625 30.2468C47.9475 30.2329 47.4325 29.8988 46.9592 30.4194L46.3802 34.147C46.369 34.314 46.4303 34.559 46.5472 34.6731C46.7811 34.8986 50.439 35.0851 50.9707 35.0266C51.121 35.0099 51.3772 34.9849 51.4774 34.8791ZM56.7861 30.8732C56.6664 30.9957 56.5774 31.6526 56.5356 31.8781C56.4048 32.6075 56.1654 34.0439 56.1542 34.7343C56.1487 35.1018 56.324 35.4331 56.6998 35.4999C57.7187 35.6808 59.1107 35.6057 60.1657 35.6168C60.7002 35.6224 61.2598 35.9648 61.4073 35.0768C61.5437 34.2555 61.7664 32.6437 61.7776 31.8531C61.7887 31.1627 61.4769 31.0541 60.8645 30.9762C59.8623 30.8509 58.5427 30.7646 57.5294 30.7201C57.3262 30.7117 56.9253 30.7284 56.7861 30.8704V30.8732ZM12.4703 36.3601C12.4898 37.1257 11.7103 40.2408 12.0806 40.7112C12.1585 40.8087 12.2699 40.8588 12.3924 40.8755C13.5254 40.881 14.7308 41.087 15.8499 41.126C16.1032 41.1344 16.5765 41.1316 16.7518 40.9423C16.8827 40.8003 17.3337 37.649 17.3504 37.2314C17.3587 37.0227 17.3838 36.8055 17.239 36.6273C16.9523 36.271 15.2625 36.3712 14.7809 36.3406C14.341 36.3128 12.7153 35.962 12.4703 36.3629V36.3601ZM53.1421 36.477C52.6522 36.555 52.0703 37.5043 51.5637 37.546C51.238 37.5738 50.9345 37.418 50.6116 37.4096C49.3617 37.379 48.0282 37.3762 46.7866 37.2927C45.6313 37.2175 44.7266 36.4659 44.4705 38.0833C44.2533 39.4529 44.039 41.5854 43.9805 42.9661C43.9221 44.3469 44.1698 44.3135 45.4726 44.4583C47.0232 44.6309 48.7938 44.6448 50.3666 44.7005C51.0849 44.7255 51.998 45.1876 52.2123 44.0351C52.5352 42.3147 52.5464 40.3215 52.8415 38.5732C53.1588 38.036 54.3252 37.507 53.7824 36.7498C53.6683 36.5884 53.3425 36.4464 53.1449 36.4798L53.1421 36.477ZM20.24 41.3292C20.5072 41.5993 23.0851 41.5881 23.614 41.5965C24.0065 41.6021 24.3322 41.8944 24.747 41.5325C25.0282 41.2875 25.2871 39.0548 25.3316 38.5371C25.3901 37.8745 25.6573 37.0811 24.8027 36.9475C24.3851 36.8807 23.4859 36.8417 23.0183 36.8222C22.4142 36.7972 20.7272 36.5912 20.5796 37.2454C20.407 38.0053 20.1231 39.826 20.0924 40.5887C20.0841 40.7975 20.098 41.1845 20.2428 41.332L20.24 41.3292ZM29.0063 37.4486C28.2686 37.6351 28.5302 38.125 28.4412 38.654C28.3187 39.3833 27.9679 40.7669 27.9763 41.4183C27.9846 42.0224 28.3688 42.1143 28.8894 42.1783C29.7189 42.2785 31.5702 42.4205 32.3441 42.3175C32.8786 42.2451 32.8619 41.9695 32.9621 41.5018C33.1041 40.8282 33.3184 39.4557 33.3518 38.7848C33.3797 38.1974 33.3852 37.7632 32.6893 37.6601C31.5201 37.4848 30.1838 37.6351 29.0091 37.4486H29.0063ZM37.1378 38.1557C36.9291 38.2169 36.8678 38.3589 36.8233 38.5565C36.5672 39.6729 36.634 41.0063 36.3333 42.1393C36.3111 42.3815 36.5616 42.7045 36.7815 42.7657C37.0014 42.8269 37.8839 42.8965 38.1846 42.916C38.8304 42.955 40.0887 43.0302 40.6817 42.9912C40.8348 42.9801 41.1577 42.8603 41.2468 42.7434C41.5669 42.3203 41.5864 39.6756 41.823 39.0131C41.8286 38.5092 41.5252 38.3032 41.0575 38.2503C40.5898 38.1974 39.7714 38.1473 39.2675 38.1278C38.7998 38.1111 37.4997 38.0499 37.1378 38.1557ZM56.235 39.002C55.9176 39.0827 55.7951 39.2163 55.6921 39.5142C55.5167 40.0208 55.2356 42.1393 55.2077 42.7323C55.1882 43.1499 55.1131 43.651 55.6281 43.7428C56.6832 43.9321 58.011 43.8458 59.094 43.8597C59.6173 43.8653 60.2214 44.2411 60.4357 43.4199C60.6028 42.7796 60.7531 41.3988 60.8171 40.6973C60.8645 40.1795 61.0733 39.3416 60.3996 39.2107L56.235 39.002ZM15.7664 49.5694C15.8833 49.4497 15.9557 48.8818 15.9974 48.6646C16.1422 47.9214 16.3844 46.4237 16.3955 45.7082C16.4039 45.1821 16.1171 44.9928 15.616 44.9371C14.4747 44.8062 13.1718 44.9371 12.0249 44.7172C11.8968 44.7199 11.6908 44.7868 11.6101 44.8758C11.4097 45.1013 10.9169 48.9736 11.0728 49.2381C11.29 49.6084 13.8734 49.5777 14.4162 49.5972C14.7697 49.6084 15.4462 49.8951 15.7636 49.5694H15.7664ZM24.2459 45.8029C23.9146 45.4799 22.0022 45.5551 21.4704 45.5356C21.0362 45.5189 19.995 45.2127 19.647 45.5662C19.3492 45.8669 19.2796 48.8345 19.0318 49.4358C19.0151 49.6418 19.1153 49.8812 19.2545 50.0232C19.4355 50.2041 20.8218 50.2932 21.2255 50.321C21.7405 50.3544 22.7844 50.4268 23.2437 50.3962C23.3996 50.385 23.6307 50.3071 23.7365 50.1957C23.9091 50.0148 24.374 46.7605 24.3823 46.3012C24.3851 46.1481 24.3545 45.9142 24.2459 45.8084V45.8029ZM27.1689 50.6439C27.5002 50.9724 29.8581 50.8973 30.4288 50.9056C30.9995 50.914 31.7289 51.3427 32.01 50.4686C31.9098 49.6835 32.6976 46.9442 32.2856 46.4209C32.0629 46.1369 29.7384 46.1564 29.229 46.1314C28.6444 46.1035 27.7368 45.6553 27.5253 46.4598C27.3527 47.1168 27.0492 49.3411 27.027 50.0343C27.0214 50.2236 27.0298 50.5075 27.1662 50.6439H27.1689ZM36.0076 46.7577C35.7348 47.0305 35.6346 50.1429 35.3979 50.7358C35.4286 51.1116 35.6819 51.3232 36.0438 51.3789C37.2548 51.5654 38.6244 51.4011 39.8437 51.5904C39.9662 51.5765 40.2168 51.4318 40.2864 51.3343C40.4228 51.1367 40.8515 47.874 40.8376 47.4787C40.832 47.2978 40.7262 47.0584 40.5842 46.9581C40.2196 46.6993 38.1512 46.7466 37.5916 46.7271C37.1963 46.7132 36.35 46.4125 36.0076 46.7577ZM45.2583 47.1113C45.133 47.1447 45.0634 47.2254 45.0022 47.334C44.8602 47.5817 44.4649 50.5159 44.451 50.9669C44.4398 51.3761 44.4009 51.7658 44.8797 51.8605C45.6007 52.0052 46.9759 52.086 47.7359 52.1082C48.3372 52.1249 49.5398 52.2808 49.7041 51.5598C49.9574 50.463 49.8906 49.0961 50.1718 47.977C50.1662 47.8128 50.066 47.6124 49.9546 47.4982C49.7653 47.3089 48.6156 47.2449 48.2147 47.2087C47.2766 47.1252 46.202 47.114 45.2527 47.1113H45.2583ZM54.2807 52.317C54.573 52.6121 57.6464 52.5731 58.2588 52.5787C58.5929 52.5815 58.9798 52.8293 59.2693 52.523C59.4698 52.3115 59.8456 49.3105 59.8679 48.8178C59.9263 47.3924 58.6597 47.8712 57.6519 47.81C57.0701 47.7738 55.1743 47.4815 54.779 47.7933C54.6816 47.8712 54.6287 47.9826 54.6148 48.1079C54.6704 49.2799 54.2 50.5799 54.1415 51.7074C54.1332 51.8939 54.1471 52.1834 54.2807 52.317ZM15.1706 53.9205C14.6918 53.5753 11.8105 53.8286 11.07 53.5308C10.5829 53.5113 10.5244 53.9678 10.4492 54.3437C10.2989 55.1092 10.0901 56.657 10.0595 57.4198C10.0512 57.6648 10.0066 57.9292 10.1681 58.1436C10.4966 58.5751 13.08 58.5472 13.7063 58.5445C14.1517 58.5445 14.7781 58.8702 14.9507 58.1269C15.1205 57.3892 15.385 55.1426 15.3154 54.43C15.3015 54.2991 15.2625 53.9845 15.1706 53.9177V53.9205ZM18.862 54.3993C18.5084 54.5051 18.4973 55.0786 18.4361 55.4071C18.3024 56.1364 18.0658 57.6843 18.0547 58.383C18.0491 58.7449 18.2217 59.0817 18.6003 59.1486C19.4021 59.2933 20.8496 59.3601 21.6987 59.3935C22.2527 59.4158 22.7816 59.4854 22.932 58.8256C23.0906 58.1297 23.2187 56.8435 23.2994 56.0863C23.3384 55.7217 23.511 54.97 23.2604 54.7278C22.9542 54.4327 19.519 54.391 18.862 54.3966V54.3993ZM30.813 59.9586C30.9577 59.8111 31.2835 57.3446 31.3169 56.941C31.3475 56.5874 31.4895 55.6521 31.2612 55.4461C30.9633 55.1788 27.5002 55.0118 26.9546 55.0842C26.6539 55.1231 26.4869 55.1844 26.4257 55.5101C26.2085 56.6626 26.2586 58.0462 25.9608 59.2154C25.9663 59.3796 26.0665 59.58 26.1779 59.6942C26.5259 60.0422 28.7502 59.967 29.3543 59.9809C29.7468 59.9893 30.4901 60.2871 30.813 59.9586ZM35.3339 55.602L34.8078 56.0112C34.8022 57.2277 34.3234 58.6391 34.3011 59.8167C34.2984 59.9948 34.2928 60.1535 34.4153 60.3011C34.6936 60.6379 38.0927 60.7743 38.669 60.7075C38.8443 60.688 39.081 60.6574 39.2062 60.5266C39.39 60.3345 39.7825 57.4059 39.802 56.941C39.8521 55.7384 39.3259 55.9082 38.3098 55.808C37.3522 55.7161 36.2999 55.7773 35.3395 55.602H35.3339Z" fill="#FEFFFF"/>
<path d="M35.506 15.3202C35.2526 17.5779 36.742 20.4063 39.3643 19.1202C41.3158 18.1625 40.0742 15.774 38.4262 17.113C38.2731 17.2383 38.1951 17.706 37.7915 17.4499C37.4518 17.2383 37.3433 15.7322 37.4157 15.3202L53.8987 15.799C53.6398 17.7282 54.7283 20.5622 57.128 19.9247C58.6786 19.5127 59.0405 17.2828 57.5456 17.2466C56.9108 17.2327 56.4654 18.2098 56.1648 18.015C55.7472 17.7422 55.7973 16.3809 55.8084 15.9187L68.0295 16.4171C68.2383 16.4866 68.3051 16.7483 68.3413 16.9432C68.3997 20.1195 67.8847 23.2708 67.6314 26.4277L9.46875 24.1589C9.88076 21.7787 10.0144 19.1007 10.624 16.7762C10.7772 16.1916 10.8607 15.6181 11.5176 15.401C12.9151 14.9388 14.9167 15.3397 16.3949 15.2005C16.3142 17.3413 17.6226 19.9831 20.1587 18.9058C22.177 18.0484 21.4337 15.7489 19.9332 16.5312C19.6687 16.6676 19.4098 17.1492 19.176 17.2132C18.3492 17.4499 18.2211 15.5986 18.3046 15.0808L35.5032 15.3202H35.506Z" fill="#FEEC01"/>
<path d="M4.92855 63.6921C5.95022 64.1375 7.02756 64.4131 8.12717 64.6135C10.9555 65.1257 14.1709 65.418 17.0521 65.7215C28.1123 66.8935 39.4982 67.5894 50.6085 68.1128C53.9268 68.2687 60.7249 69.0509 63.6869 68.1713C65.7832 67.5477 65.6245 65.6157 65.836 63.7505C66.6656 56.4931 67.1667 49.1688 67.8682 41.8947C68.567 34.665 69.5469 27.4076 70.0173 20.1557C70.0535 19.6017 69.9951 19.0394 70.0173 18.4826C70.0229 18.3379 69.9283 18.0372 70.1343 18.065C70.0814 18.5327 70.2373 18.9726 70.2595 19.4319C70.4015 22.3215 70.0257 25.4979 69.8977 28.3958C69.3576 40.667 68.695 53.1859 67.626 65.418C67.5425 66.3618 67.4729 68.0042 67.2363 68.8505C67.0275 69.5966 66.6656 69.6745 65.9613 69.8443C62.5734 70.6572 56.7078 70.1506 53.1167 70.0197C41.0237 69.5827 28.3851 68.7113 16.3339 67.5087C14.04 67.2804 7.27253 66.6875 5.60223 65.4626C5.05103 65.0589 4.85617 64.3518 4.92855 63.6893V63.6921Z" fill="#FEFFFF"/>
<path d="M69.5391 64.2849C69.6838 61.9994 69.7562 59.7055 69.8982 57.42C70.5468 47.0168 71.51 36.5413 71.8135 26.1325C71.8636 24.4427 71.7188 22.7362 71.8663 21.052C72.0835 21.3025 72.1002 21.7563 72.1503 22.082C72.4287 23.9221 72.3814 25.8263 72.5261 27.6775C73.4643 39.8178 74.5166 51.9526 75.2793 64.1096C75.2738 64.2348 75.2738 64.3907 75.1596 64.4715C74.7003 64.7916 70.3993 64.2989 69.5391 64.2849Z" fill="#FEFFFF"/>
<path d="M53.1488 36.4773C53.3492 36.4467 53.6721 36.5887 53.7863 36.7474C54.3291 37.5074 53.1627 38.0335 52.8453 38.5708C52.553 40.3218 52.5391 42.3122 52.2162 44.0327C52.0018 45.1852 51.0887 44.723 50.3705 44.698C48.7976 44.6423 47.0271 44.6284 45.4765 44.4558C44.1737 44.311 43.9259 44.3639 43.9844 42.9637C44.0428 41.5634 44.2544 39.4477 44.4743 38.0808C44.7332 36.4634 45.638 37.2151 46.7905 37.2902C48.0349 37.3709 49.3655 37.3737 50.6155 37.4071C50.9384 37.4155 51.2418 37.5686 51.5676 37.5435C52.0742 37.5018 52.6532 36.5525 53.146 36.4746L53.1488 36.4773ZM50.5542 38.6098L45.7772 38.3703V39.6843C45.8941 39.8152 46.3534 39.0774 46.9742 39.3864C47.2916 39.5451 48.0404 41.0762 48.3439 40.9983C48.7614 40.4276 49.2681 39.9293 49.7748 39.4421C49.8917 39.3308 50.7491 38.7851 50.5542 38.6098ZM45.7187 39.804V39.9237C45.7967 39.8847 45.7967 39.843 45.7187 39.804ZM45.4181 43.1474L50.7964 43.4536C51.0776 43.2615 51.2307 40.564 51.2697 40.0406L48.5916 42.6741C47.9875 43.0221 47.7147 42.6547 47.3278 42.2538C47.1496 42.0701 45.766 40.0796 45.6602 40.1603C45.4932 41.143 45.4069 42.1508 45.4181 43.1474Z" fill="black"/>
<path d="M54.2817 52.3172C54.1481 52.1836 54.1342 51.894 54.1426 51.7075C54.1982 50.5801 54.6715 49.28 54.6158 48.108C54.6297 47.9855 54.6826 47.8714 54.7801 47.7935C55.1754 47.4817 57.0711 47.774 57.653 47.8102C58.6579 47.8714 59.9246 47.3926 59.8689 48.8179C59.8494 49.3107 59.4736 52.3088 59.2704 52.5232C58.9809 52.8294 58.5939 52.5817 58.2599 52.5789C57.6502 52.5733 54.5768 52.6123 54.2817 52.3172Z" fill="#FEEC01"/>
<path d="M45.2605 47.1116C46.2098 47.1116 47.2816 47.1255 48.2225 47.209C48.6206 47.2452 49.7731 47.3092 49.9624 47.4985C50.0738 47.6099 50.174 47.8131 50.1796 47.9773C49.8984 49.0964 49.9652 50.4633 49.7119 51.5601C49.5448 52.2811 48.3422 52.1253 47.7437 52.1086C46.9837 52.0863 45.6085 52.0028 44.8875 51.8608C44.4087 51.7661 44.4476 51.3764 44.4588 50.9672C44.4699 50.5134 44.868 47.5793 45.01 47.3343C45.0712 47.2285 45.1436 47.145 45.2661 47.1116H45.2605Z" fill="#FEEC01"/>
<path d="M56.2366 39.0022L60.4012 39.211C61.0749 39.3418 60.8634 40.1825 60.8188 40.6976C60.7548 41.3991 60.6044 42.7799 60.4374 43.4201C60.2231 44.2414 59.619 43.8656 59.0956 43.86C58.0127 43.8461 56.6848 43.9324 55.6297 43.7431C55.1147 43.6512 55.1927 43.1501 55.2094 42.7325C55.2372 42.1396 55.5184 40.0211 55.6938 39.5144C55.7968 39.2166 55.9193 39.0829 56.2366 39.0022Z" fill="#FEEC01"/>
<path d="M35.3361 55.6021C36.2965 55.7774 37.3488 55.7162 38.3064 55.8081C39.3253 55.9083 39.8515 55.7357 39.7986 56.9411C39.7791 57.406 39.3866 60.3346 39.2028 60.5267C39.0776 60.6575 38.8409 60.6853 38.6656 60.7076C38.0921 60.7744 34.6902 60.638 34.4118 60.3012C34.2921 60.1536 34.2949 59.9949 34.2977 59.8168C34.32 58.6392 34.7988 57.2306 34.8044 56.0113L35.3305 55.6021H35.3361Z" fill="#FEEC01"/>
<path d="M56.7961 30.8733C56.9353 30.7313 57.339 30.7146 57.5394 30.723C58.5527 30.7675 59.8723 30.8538 60.8744 30.9791C61.4897 31.057 61.7987 31.1628 61.7875 31.856C61.7764 32.6466 61.5537 34.2584 61.4173 35.0797C61.2697 35.9677 60.7102 35.6253 60.1757 35.6197C59.1234 35.6086 57.7287 35.6837 56.7098 35.5028C56.334 35.436 56.1586 35.1019 56.1642 34.7372C56.1753 34.0469 56.4147 32.6104 56.5456 31.881C56.5845 31.6555 56.6764 30.9986 56.7961 30.8761V30.8733Z" fill="#FEEC01"/>
<path d="M51.4813 34.8793C51.3811 34.9851 51.1222 35.0102 50.9746 35.0269C50.4429 35.0825 46.785 34.8988 46.5511 34.6733C46.4342 34.562 46.373 34.3142 46.3841 34.1472L46.9631 30.4196C47.4364 29.9018 47.9514 30.2331 48.4664 30.247C49.5048 30.2776 50.5292 30.35 51.5676 30.3695C51.7708 30.4029 52.0297 30.6201 52.0854 30.8121C52.1494 31.0321 51.7931 33.5347 51.7152 33.9774C51.679 34.1834 51.5927 34.7652 51.4813 34.8793Z" fill="#FEEC01"/>
<path d="M30.8132 59.9588C30.4874 60.2901 29.7442 59.9894 29.3544 59.9811C28.7531 59.9672 26.526 60.0395 26.1781 59.6943C26.0667 59.583 25.9665 59.3798 25.9609 59.2155C26.2588 58.0463 26.2087 56.6627 26.4258 55.5102C26.4871 55.1817 26.6541 55.1233 26.9548 55.0843C27.5032 55.0119 30.9663 55.179 31.2614 55.4462C31.4896 55.6522 31.3477 56.5876 31.317 56.9411C31.2836 57.3476 30.9579 59.814 30.8132 59.9588Z" fill="#FEEC01"/>
<path d="M27.1717 50.644C27.0352 50.5076 27.0269 50.2236 27.0325 50.0343C27.0547 49.3411 27.3554 47.1196 27.5308 46.4599C27.7424 45.6553 28.6527 46.1035 29.2345 46.1314C29.7439 46.1564 32.0684 46.1369 32.2911 46.4209C32.7031 46.9442 31.9153 49.6835 32.0155 50.4686C31.7344 51.3427 31.0328 50.9168 30.4343 50.9056C29.8358 50.8945 27.5057 50.9725 27.1744 50.644H27.1717Z" fill="#FEEC01"/>
<path d="M15.1711 53.9208C15.263 53.9876 15.302 54.2994 15.3159 54.433C15.3883 55.1456 15.1238 57.3922 14.9512 58.1299C14.7786 58.876 14.155 58.5475 13.7068 58.5475C13.0805 58.5475 10.4971 58.5781 10.1686 58.1466C10.0071 57.9323 10.0489 57.6678 10.06 57.4228C10.0906 56.6601 10.2994 55.1095 10.4497 54.3467C10.5249 53.9681 10.5834 53.5143 11.0705 53.5338C11.811 53.8317 14.6923 53.5783 15.1711 53.9235V53.9208Z" fill="#FEEC01"/>
<path d="M36.0081 46.758C36.3533 46.4156 37.1996 46.7134 37.5921 46.7274C38.1517 46.7468 40.22 46.6995 40.5847 46.9584C40.7267 47.0586 40.8325 47.298 40.8381 47.479C40.852 47.8743 40.4233 51.137 40.2869 51.3346C40.2173 51.432 39.9695 51.5768 39.8442 51.5907C38.6249 51.4014 37.2553 51.5629 36.0443 51.3791C35.6824 51.3235 35.4263 51.1091 35.3984 50.7361C35.6351 50.1431 35.7353 47.028 36.0081 46.758Z" fill="#FEEC01"/>
<path d="M37.1419 38.1559C37.5038 38.0501 38.8038 38.1113 39.2715 38.128C39.7754 38.1447 40.5716 38.1948 41.0615 38.2505C41.5515 38.3062 41.8326 38.5094 41.8271 39.0133C41.5904 39.6731 41.5709 42.3205 41.2508 42.7436C41.1617 42.8605 40.8388 42.983 40.6857 42.9914C40.0927 43.0304 38.8344 42.9552 38.1886 42.9162C37.8852 42.8967 37.011 42.8299 36.7855 42.7659C36.5601 42.7019 36.3151 42.3817 36.3374 42.1395C36.638 41.0093 36.5712 39.6731 36.8273 38.5567C36.8718 38.3591 36.9331 38.2171 37.1419 38.1559Z" fill="#FEEC01"/>
<path d="M18.87 54.3994C19.5242 54.3938 22.9622 54.4356 23.2684 54.7307C23.5189 54.9756 23.3464 55.7245 23.3074 56.0892C23.2267 56.8464 23.1014 58.1297 22.9399 58.8285C22.7896 59.4882 22.2607 59.4186 21.7067 59.3964C20.8576 59.363 19.41 59.2934 18.6083 59.1514C18.2269 59.0846 18.0571 58.7477 18.0626 58.3858C18.0738 57.6871 18.3104 56.1393 18.444 55.4099C18.5053 55.0786 18.5164 54.5079 18.87 54.4022V54.3994Z" fill="#FEEC01"/>
<path d="M15.7756 49.5695C15.4582 49.8952 14.7817 49.6085 14.4282 49.5973C13.8853 49.5779 11.3019 49.6085 11.0848 49.2382C10.9289 48.9738 11.4189 45.1015 11.6221 44.876C11.7028 44.7841 11.9088 44.7201 12.0369 44.7173C13.1838 44.9372 14.4867 44.8064 15.628 44.9372C16.1291 44.9929 16.4158 45.1822 16.4075 45.7083C16.3964 46.4238 16.1514 47.9215 16.0094 48.6648C15.9677 48.8791 15.8953 49.447 15.7784 49.5695H15.7756Z" fill="#FEEC01"/>
<path d="M12.473 36.3603C12.7179 35.9594 14.3437 36.3102 14.7835 36.338C15.2651 36.3686 16.9549 36.2684 17.2417 36.6247C17.3836 36.8029 17.3614 37.02 17.353 37.2288C17.3391 37.6464 16.8853 40.7977 16.7545 40.9397C16.5819 41.129 16.1059 41.1318 15.8525 41.1234C14.7334 41.0844 13.5253 40.8784 12.395 40.8729C12.2725 40.8562 12.1584 40.8061 12.0832 40.7086C11.7158 40.2382 12.4924 37.123 12.473 36.3575V36.3603Z" fill="#FEEC01"/>
<path d="M24.2478 45.8031C24.3564 45.9089 24.387 46.1428 24.3842 46.2959C24.3759 46.7552 23.911 50.0123 23.7384 50.1905C23.6326 50.3018 23.3987 50.3826 23.2456 50.3909C22.7863 50.4215 21.7423 50.3491 21.2273 50.3157C20.8237 50.2907 19.4373 50.1988 19.2564 50.0179C19.1144 49.8759 19.0142 49.6365 19.0337 49.4305C19.2842 48.8292 19.351 45.8616 19.6489 45.561C19.9969 45.2102 21.0408 45.5136 21.4723 45.5303C22.004 45.5526 23.9165 45.4747 24.2478 45.7976V45.8031Z" fill="#FEEC01"/>
<path d="M38.2167 29.6763C38.9071 29.7264 42.2895 29.693 42.6152 30.0075C42.9409 30.3221 42.7043 31.3911 42.6542 31.8449C42.5957 32.3655 42.3925 34.1972 42.0222 34.4366C41.6297 34.69 41.4181 34.4366 41.0562 34.4283C40.4633 34.4144 39.8592 34.4645 39.2662 34.4283C38.9266 34.406 37.6488 34.303 37.5208 34.1415C37.3509 33.9272 37.4038 33.5569 37.415 33.2953C37.4317 32.9083 37.891 29.9574 37.9996 29.8182C38.0525 29.7486 38.1332 29.6985 38.2139 29.6763H38.2167Z" fill="#FEEC01"/>
<path d="M20.246 41.3295C20.1012 41.182 20.0873 40.795 20.0956 40.5862C20.1263 39.8262 20.4102 38.0056 20.5828 37.2428C20.7331 36.5859 22.4174 36.7946 23.0215 36.8197C23.4891 36.8392 24.3883 36.8782 24.8059 36.945C25.6633 37.0814 25.3961 37.872 25.3348 38.5345C25.2875 39.0551 25.0286 41.285 24.7502 41.5299C24.3354 41.8918 24.0097 41.5995 23.6172 41.594C23.0883 41.5856 20.5104 41.594 20.2432 41.3267L20.246 41.3295Z" fill="#FEEC01"/>
<path d="M29.9599 29.0891L33.8823 29.2979C34.4252 29.3981 34.3222 29.9994 34.3027 30.4281C34.2693 31.113 34.0716 32.7359 33.9213 33.3901C33.7348 34.2002 32.5266 33.9747 31.8585 33.9525C31.349 33.933 30.5946 33.8745 30.0824 33.8188C29.6704 33.7743 28.9104 33.7715 28.9382 33.1953C29.2472 32.4548 29.2111 29.76 29.5924 29.3007C29.6787 29.1977 29.8263 29.1058 29.9599 29.0919V29.0891Z" fill="#FEEC01"/>
<path d="M29.0095 37.4487C30.1843 37.6352 31.5205 37.4849 32.6897 37.6603C33.3857 37.7661 33.3801 38.1976 33.3523 38.785C33.3189 39.4559 33.1045 40.8283 32.9626 41.502C32.8623 41.9697 32.879 42.2453 32.3445 42.3177C31.5706 42.4207 29.7194 42.2787 28.8898 42.1785C28.3692 42.1172 27.9851 42.0254 27.9767 41.4185C27.9684 40.7643 28.3191 39.3835 28.4416 38.6541C28.5307 38.1224 28.2718 37.6352 29.0067 37.4487H29.0095Z" fill="#FEEC01"/>
<path d="M45.415 43.1475C45.4039 42.1509 45.4902 41.1432 45.6572 40.1605C45.763 40.0797 47.1493 42.0702 47.3247 42.2539C47.7089 42.6548 47.9845 43.025 48.5886 42.6743L51.2666 40.0408C51.2305 40.5613 51.0746 43.2589 50.7934 43.4538L45.415 43.1475Z" fill="#FEFFFF"/>
<path d="M50.5555 38.6095C50.7532 38.7849 49.893 39.3305 49.7761 39.4419C49.2694 39.9291 48.76 40.4274 48.3452 40.9981C48.0417 41.0732 47.2929 39.5449 46.9755 39.3862C46.3547 39.0772 45.8954 39.8177 45.7812 39.6841V38.3701L50.5583 38.6095H50.5555Z" fill="#FEFFFF"/>
<path d="M45.7109 39.8037C45.7889 39.8427 45.7889 39.8844 45.7109 39.9234V39.8037Z" fill="#FEFFFF"/>
</svg>
