<svg width="150" height="72" viewBox="0 0 150 72" fill="none" xmlns="http://www.w3.org/2000/svg">
<rect width="150" height="72" fill="white" fill-opacity="0.01"/>
<g clip-path="url(#clip0_8331_2233)">
<path d="M83.5564 68.3574L22.1719 63.7744V55.0927L71.4801 41.9529L71.2 40.0645L71.1622 34.6262L84.4344 35.7312L87.568 36.8401V41.4837L88.2227 46.5133L85.5016 47.7357L80.4342 47.7962L79.1626 53.2383L81.2668 55.9442L84.8545 58.4382L85.5281 63.2105L83.5564 68.3574Z" fill="#4AC0B4"/>
<path d="M73.3404 39.5536L70.9146 31.0461C70.0517 29.5701 69.2305 30.2664 68.0459 30.4027C66.4829 30.5806 64.7988 30.1226 63.8338 28.8246C63.3304 28.1433 62.6909 26.5501 62.8876 25.7288C62.9104 25.6456 63.0844 25.6569 63.1109 25.5623C63.4932 24.1772 64.0419 23.2159 65.3665 22.4893C66.1385 22.0654 67.4215 22.0465 67.8188 21.3388C68.0497 20.9263 68.0156 20.6235 67.9513 20.177C67.8075 19.2081 66.4186 14.1975 66.025 13.4065C65.9909 13.3384 65.8585 13.3195 65.8358 13.2816C65.0183 11.817 64.3485 11.1888 62.5887 10.9958C42.3643 16.1086 22.1892 21.5697 2.04052 26.9815C0.583485 27.7384 -0.0863711 28.9267 0.0687933 30.5881L2.27515 38.5015C3.19857 40.1553 4.54207 38.9178 5.82501 38.8951C10.3059 38.8232 12.0694 44.5529 8.21303 46.8728C6.54785 47.8757 4.84483 47.062 5.42764 49.768C5.86286 51.7851 6.75978 55.3841 7.47884 57.2499C8.02002 58.6577 9.33702 59.513 10.8281 59.6001C19.8163 57.4316 28.7023 54.8316 37.6375 52.4474C48.2871 49.6052 59.527 47.115 70.0025 43.8679C72.3262 43.1489 73.5372 42.1952 73.3404 39.5498V39.5536ZM70.3204 41.5178C66.5208 42.5471 62.7211 43.5803 58.9253 44.6021C58.3614 44.7535 57.7105 44.8405 57.2979 44.9503C41.8648 49.0981 26.4354 53.2951 11.006 57.4618C10.2983 57.5602 9.69277 57.091 9.43542 56.4627L7.62265 49.4425C16.0394 46.6912 12.7279 35.0917 4.13713 36.9953C3.39158 34.664 2.71416 32.276 2.1654 29.9031C2.21082 29.555 2.49844 29.3014 2.752 29.0819C18.2874 24.7903 33.9098 20.6803 49.5057 16.5779C50.0658 16.4303 50.7318 16.3319 51.133 16.2297C52.2116 15.9459 53.2939 15.5069 54.3877 15.2382C56.893 14.9392 59.7314 13.5352 62.1572 13.24C63.0012 13.1378 63.6029 13.24 63.9246 14.0877L65.5671 20.1089C61.828 21.388 59.6897 25.1725 61.389 28.9494C62.7098 31.8862 65.9947 33.1124 69.0412 32.4047L71.2135 40.0683C71.2741 40.6284 70.9221 41.3815 70.328 41.5215L70.3204 41.5178Z" fill="#101111" stroke="black" stroke-width="0.0946124" stroke-miterlimit="10"/>
<path d="M86.1462 45.6466L86.7328 38.967C86.8236 38.0701 86.589 37.2488 85.6164 37.052L74.8305 36.0908C74.3991 35.9621 74.2553 34.2137 73.9374 33.7898L85.9229 34.8873C87.2134 35.0954 88.6629 36.2951 88.8899 37.6197C89.0451 38.5318 88.8975 39.7617 88.8256 40.7079C88.6969 42.3882 88.5418 44.92 88.239 46.5171C88.1406 47.0355 87.6562 47.7243 87.115 47.8341C86.4906 47.9627 86.044 47.7357 85.518 47.7394C81.4194 47.7773 79.3606 52.8031 82.725 55.4144C83.9323 56.353 84.6475 56.1108 85.9532 56.3719C86.5398 56.4892 87.0166 57.0947 87.0885 57.6813C87.2096 58.6766 86.9447 60.5538 86.8539 61.6361C86.7214 63.1613 86.5852 64.7773 86.3884 66.2873C86.097 68.4974 84.8216 69.8901 82.4866 69.8409L23.6642 64.4594C22.1844 64.115 20.8712 62.8736 20.7841 61.2842C20.7501 60.6408 21.0301 59.8953 20.8939 59.2065C21.174 59.1043 23.017 58.548 23.1116 58.6123C23.2554 58.7069 23.2251 58.8015 23.2214 58.9453C23.1873 59.8309 22.6613 61.2879 23.3538 61.9767C23.9253 62.5444 24.5989 62.3211 25.265 62.393C44.1421 64.4821 63.1478 65.5531 82.0324 67.6232C82.7212 67.6043 83.4327 67.8086 83.8868 67.1539C84.3107 66.5408 84.1101 65.9996 84.182 65.3563C84.4394 63.0515 84.621 60.7392 84.8784 58.4382C79.6179 58.0106 76.8742 51.8986 80.4543 47.7962C81.1885 46.9561 83.3684 45.6466 84.4697 45.6466H86.1575H86.1462Z" fill="#101111" stroke="black" stroke-width="0.0946124" stroke-miterlimit="10"/>
<path d="M71.3358 52.0651C71.6197 52.0386 71.9111 52.2202 72.0511 52.4624C72.4447 53.155 71.8165 55.6755 71.7748 56.58C70.9952 57.6775 69.8864 56.7843 70.2043 55.5884C70.5487 54.6802 70.0642 52.1786 71.3358 52.0613V52.0651Z" fill="#101111" stroke="black" stroke-width="0.0946124" stroke-miterlimit="10"/>
<path d="M70.4145 59.3881C70.9822 59.2708 71.4666 59.6644 71.4969 60.2358C71.1903 61.2804 71.4174 62.8017 71.0919 63.7933C70.8119 64.6523 69.4457 64.6031 69.51 63.025C69.5403 62.2795 69.6538 60.9965 69.7749 60.2661C69.8355 59.9028 70.0209 59.4676 70.4145 59.3881Z" fill="#101111" stroke="black" stroke-width="0.0946124" stroke-miterlimit="10"/>
<path d="M72.8752 45.0676C72.9016 46.4451 72.6859 47.8227 72.5232 49.1927C72.3113 49.8133 71.596 50.029 71.1267 49.5484C70.5515 48.9656 71.2175 46.7782 71.1456 45.9531L72.8752 45.0676Z" fill="#101111" stroke="black" stroke-width="0.0946124" stroke-miterlimit="10"/>
<path d="M51.1351 16.2297C51.2033 17.0245 52.5468 19.6698 51.2827 19.931C49.9544 20.2072 49.856 17.4483 49.5078 16.5779C50.0641 16.4303 50.734 16.3357 51.1351 16.2297Z" fill="#101111" stroke="black" stroke-width="0.0946124" stroke-miterlimit="10"/>
<path d="M58.9339 44.6021C58.37 44.7535 57.7191 44.8405 57.3066 44.9503C56.3983 42.6947 58.7939 42.2481 58.9339 44.6021Z" fill="#101111" stroke="black" stroke-width="0.0946124" stroke-miterlimit="10"/>
<path d="M52.7262 22.3076C52.8662 22.4363 53.7896 25.6191 53.8086 25.9445C53.8691 26.9474 52.6808 27.2691 52.2418 26.4554C51.7763 25.6001 51.6628 23.8706 51.2578 22.9131C51.2805 22.2395 52.2834 21.8913 52.7262 22.3076Z" fill="#101111" stroke="black" stroke-width="0.0946124" stroke-miterlimit="10"/>
<path d="M53.7757 29.1576C54.1655 29.0403 54.6424 29.1916 54.8278 29.5701C54.9905 29.9069 55.7626 32.6961 55.7815 33.0443C55.8345 33.9715 54.7029 34.191 54.2904 33.5968C54.1655 33.4189 53.2421 30.2513 53.2345 29.994C53.227 29.7025 53.4957 29.2408 53.7757 29.1576Z" fill="#101111" stroke="black" stroke-width="0.0946124" stroke-miterlimit="10"/>
<path d="M55.7441 36.1361C56.4177 35.9318 56.6524 36.42 56.8567 36.9536C57.0384 37.4228 57.7082 39.7352 57.7007 40.1288C57.678 40.9651 56.4858 41.2868 56.0431 40.212C55.8803 39.8222 55.1915 37.3093 55.1953 36.9838C55.1953 36.6924 55.4602 36.2232 55.7479 36.1399L55.7441 36.1361Z" fill="#101111" stroke="black" stroke-width="0.0946124" stroke-miterlimit="10"/>
<path d="M81.6856 13.8379C81.9127 14.065 82.0414 15.6923 82.1965 16.1767C82.4879 17.0926 83.0594 17.8003 83.9525 18.1522C84.471 18.3566 85.5382 18.3679 85.5382 19.0491C85.5382 19.7682 84.5694 19.6698 84.1153 19.7947C83.2146 20.0445 82.7112 20.4532 82.3138 21.3085C82.0868 21.7967 81.9392 22.8488 81.7197 23.1742C81.6213 23.3218 81.311 23.3748 81.1482 23.3521C80.5805 23.2726 80.5389 21.9594 80.3421 21.4561C79.9788 20.5251 79.2862 19.965 78.3212 19.7455C77.9655 19.666 77.2199 19.8325 77.0685 19.3368C76.7544 18.3112 77.9125 18.4247 78.605 18.1144C79.5171 17.7094 80.0431 17.0585 80.3346 16.1124C80.5238 15.4917 80.4746 14.591 80.6487 14.1482C80.8038 13.7584 81.3715 13.52 81.6856 13.8341V13.8379Z" fill="#060707"/>
<path d="M71.8793 23.8857C73.4802 25.6493 70.9862 28.3287 69.2113 26.5538C67.3607 24.7032 70.3466 22.1978 71.8793 23.8857Z" fill="#060707"/>
<path d="M82.2489 27.4659C83.7703 27.2843 84.0693 29.5814 82.6387 29.7896C80.8714 30.0469 80.9054 27.6286 82.2489 27.4659Z" fill="#060707"/>
<path d="M36.5379 43.5689L35.7961 40.2537L34.2899 40.5905C34.1802 40.6132 33.6011 40.5489 33.4535 40.5224C33.1848 40.4694 32.9578 40.3029 32.6853 40.2877C32.4582 40.6473 32.0911 41.0409 32.0495 41.4761C32.0154 41.8129 32.1517 42.7628 32.3636 43.0164C32.7685 43.497 33.5708 43.338 33.8168 43.584C34.078 43.8452 33.3362 43.8225 33.2265 43.8187C32.9388 43.8111 32.655 43.7127 32.3636 43.7354C32.1971 43.796 32.0949 44.5302 31.7656 44.515C31.6937 44.2804 31.6559 44.076 31.7505 43.8452L31.0466 44.0041C32.1365 44.6967 30.0778 44.322 29.9491 44.5188L30.1194 45.2871C29.4647 44.8026 29.6123 44.5377 28.6964 44.7951C28.4807 44.8556 27.6822 45.3325 27.6973 44.9313C27.7087 44.6096 28.844 44.5188 29.0559 43.8679C29.1808 43.4894 29.1392 42.5395 28.9121 42.2103C28.757 41.987 27.58 41.3815 27.2848 41.3096C26.509 41.1241 25.5477 41.4269 24.8249 41.1165C24.1777 40.8403 22.8683 39.2811 22.6109 38.6263C22.3233 37.8884 22.4861 37.4077 22.365 36.7568C22.3006 36.4162 21.3129 35.243 20.9912 35.1143C20.6165 34.963 20.1851 35.2127 19.8672 34.8986C20.0488 34.4445 20.5598 34.2477 20.8549 33.9336C21.1274 33.6422 21.3469 33.0934 21.6043 32.7604C22.4255 31.7007 24.2156 31.2996 25.3774 32.0148C26.1722 32.503 26.5468 33.6687 27.5005 33.7822C28.352 33.8844 29.2982 33.7481 30.1534 33.979L29.8166 32.4728C29.4609 30.8833 30.4789 29.3127 31.9965 28.8548C34.7932 28.0108 37.9836 27.6702 40.8257 26.902C42.3774 26.7582 43.6452 27.7535 44.088 29.2105C44.561 30.7697 45.1779 33.4984 45.4012 35.1068C45.6093 36.6092 44.807 38.1117 43.3197 38.5696C42.3509 38.8686 41.2496 38.9367 40.2845 39.2811L37.397 43.7203C37.1661 44.0722 36.6249 43.9776 36.5341 43.5651L36.5379 43.5689ZM37.8965 39.3984L39.1946 37.491C40.3035 37.105 41.7491 37.0596 42.8239 36.6622C43.2819 36.4919 43.5771 36.0188 43.5543 35.5306C42.9678 33.6951 42.8504 31.3488 42.2222 29.57C42.0141 28.9834 41.3858 28.8245 40.8295 28.904C38.1463 29.2862 35.3269 30.3042 32.6285 30.7395C32.0835 30.8871 31.6105 31.345 31.6597 31.9391C31.7429 32.9382 32.2349 34.1152 32.3712 35.137C32.6436 35.6063 34.2256 36.2648 34.3277 36.6508C34.3542 36.753 34.0136 36.9952 33.9228 37.1125C33.7222 37.3699 33.2757 38.0587 33.4422 38.3804C33.5406 38.5355 33.9758 38.6453 34.1234 38.615L37.1661 37.9338L37.4764 39.3189C37.5219 39.5233 37.7868 39.5725 37.9041 39.4022L37.8965 39.3984ZM31.6029 41.6615C30.9103 41.9794 30.2632 41.9378 29.5328 41.9983C29.476 42.5017 29.4117 43.603 29.8583 43.936C30.1989 44.1858 30.3313 43.9019 30.5319 43.8149C31.145 43.55 31.5878 43.5651 31.6672 42.7779C31.7051 42.4146 31.6445 42.0248 31.6029 41.6653V41.6615Z" fill="#101111"/>
<path d="M34.4361 33.6497C35.4768 33.1539 35.9688 34.8115 34.928 35.0121C34.0614 35.1786 33.823 33.9411 34.4361 33.6497Z" fill="#101111"/>
<path d="M37.2486 33.0216C38.3688 32.4842 38.7851 34.5505 37.4453 34.4067C36.8398 34.3423 36.6657 33.3016 37.2486 33.0216Z" fill="#101111"/>
<path d="M40.9898 33.4908C40.4638 34.3083 39.2187 33.3356 39.8431 32.5712C40.4373 31.8445 41.4705 32.7453 40.9898 33.4908Z" fill="#101111"/>
<path d="M26.0786 17.3802L28.7958 16.6536C29.2727 16.5249 29.6133 15.9724 29.4581 15.4879C29.3029 15.0035 28.8072 14.6894 28.2925 14.8257L25.5752 15.5523C25.0984 15.681 24.7578 16.2335 24.9129 16.7179C25.0681 17.2023 25.5639 17.5164 26.0786 17.3802Z" fill="#101111"/>
<path d="M19.4048 19.3292C19.8854 19.193 20.3661 19.034 20.8467 18.894C21.0775 18.8259 21.2895 18.667 21.4106 18.4588C21.5317 18.2507 21.5809 17.9555 21.5052 17.7284C21.4295 17.5013 21.2895 17.278 21.07 17.1645C20.8505 17.051 20.5893 16.998 20.3396 17.0699C19.8589 17.2099 19.3821 17.3689 18.8977 17.5051C18.6668 17.5694 18.4549 17.7322 18.3338 17.9403C18.2127 18.1485 18.1635 18.4437 18.2392 18.6707C18.3149 18.8978 18.4549 19.1211 18.6744 19.2346C18.8939 19.3482 19.155 19.4011 19.4048 19.3292Z" fill="#101111"/>
<path d="M1.12771 24.4913C4.01906 23.6738 6.8915 22.792 9.78285 21.9783C11.1226 21.5999 12.4661 21.2328 13.8096 20.8619C14.9827 20.5402 14.4832 18.7123 13.3062 19.0378C10.4073 19.8325 7.68245 21.0474 4.79488 21.8875C3.45896 22.2773 2.2517 22.6141 0.911991 22.9926C-0.257418 23.3218 -0.0492712 24.8243 1.12771 24.4913Z" fill="#101111"/>
</g>
<defs>
<clipPath id="clip0_8331_2233">
<rect width="89" height="58.9398" fill="white" transform="translate(0 10.9465)"/>
</clipPath>
</defs>
</svg>
