<svg width="80" height="80" viewBox="0 0 80 80" fill="none" xmlns="http://www.w3.org/2000/svg">
<path d="M52.138 16.6587C50.6937 23.4116 44.526 27.7792 40.6492 33.1758C40.624 33.0751 40.5611 32.987 40.4856 32.8958C37.9902 30.1204 35.5704 27.2852 33.2512 24.3713C31.1492 21.7375 28.5405 18.9244 27.3479 15.7336C26.0042 12.1243 28.0559 7.2595 32.5526 9.2734C35.7057 10.6926 37.6944 13.9714 38.1255 17.2912C38.2262 18.1408 39.315 18.2415 39.6958 17.5335C41.2912 14.5316 43.2547 10.7429 46.9553 10.0601C48.4878 9.76743 50.3381 10.0349 51.4143 11.2747C52.6698 12.719 52.503 14.9343 52.1349 16.6587H52.138Z" fill="#FEEC01"/>
<path d="M37.0322 53.8182C36.9126 51.4739 36.8622 49.1296 36.7206 46.7884C36.6262 45.2245 36.4626 43.6606 36.2581 42.1061C35.956 39.8059 34.7917 38.0217 32.869 36.719C31.8998 36.0613 30.8677 35.5295 29.8167 35.026C28.473 34.3841 27.1105 33.7705 25.7983 33.0625C24.0172 32.1027 22.5508 30.7245 21.1096 29.3273C21.0058 29.2267 20.9239 29.0725 20.8925 28.9309C20.7477 28.2638 20.6187 27.5935 20.4991 26.9201C20.1845 25.1328 19.9044 23.336 19.5583 21.555C19.4104 20.7966 19.1586 20.0571 18.9006 19.3271C18.7212 18.8236 18.3877 18.4051 17.9062 18.1314C17.4657 17.8828 17.022 17.8639 16.5751 18.1156C16.487 18.166 16.3958 18.2037 16.3234 18.2352C16.1094 17.6814 15.9332 17.1527 15.7003 16.6492C15.4549 16.1175 15.0678 15.6895 14.5455 15.4032C13.6612 14.9217 12.6763 15.3245 12.3837 16.2874C12.3302 16.4636 12.2955 16.6524 12.2955 16.8381C12.2955 17.1936 12.327 17.5524 12.349 17.9079C12.3648 18.1282 12.3868 18.3485 12.4088 18.5687L12.3113 18.5876C12.1162 18.1723 11.9368 17.7443 11.7228 17.3384C11.49 16.901 11.2603 16.4573 10.9613 16.064C10.7725 15.8154 10.4925 15.5951 10.2061 15.4661C9.38165 15.0948 8.42818 15.614 8.21106 16.5706C8.11036 17.0143 8.08204 17.5052 8.15127 17.9551C8.34322 19.1666 8.60125 20.3655 8.8467 21.5644C8.95054 22.0742 9.0953 22.5777 9.21802 23.0874C9.19599 23.0969 9.17396 23.1094 9.15194 23.1189C9.07012 23.0119 8.98516 22.9049 8.90334 22.7979C8.49112 22.2504 8.09148 21.6997 7.66667 21.1616C7.2985 20.6928 6.87054 20.2837 6.33559 20.0131C5.53317 19.604 4.71816 19.8274 4.26818 20.5669C4.03532 20.954 3.95979 21.3693 4.01958 21.8193C4.11398 22.5367 4.35943 23.2038 4.66781 23.8521C5.66219 25.9478 6.85166 27.9334 8.1261 29.8686C10.0204 32.751 11.9242 35.6271 14.0923 38.3175C14.1395 38.3773 14.2119 38.4402 14.2214 38.5063C14.2874 38.9594 14.5864 39.2426 14.9168 39.5132C15.0112 39.5888 15.0836 39.6958 15.1465 39.7996C15.7003 40.7027 16.4335 41.4296 17.3052 42.0212C18.1957 42.6253 19.1743 43.0627 20.1593 43.4907C21.0844 43.8903 22.0285 44.2616 22.919 44.7336C24.3445 45.492 25.1878 46.7035 25.3483 48.324C25.4395 49.2492 25.4993 50.1869 25.4616 51.112C25.3892 52.8333 25.2287 54.5514 25.1154 56.2726C24.999 58.0694 24.8763 59.8693 24.8039 61.6692C24.7819 62.2514 24.892 62.843 24.9801 63.4251C25.0493 63.8782 25.3483 64.0544 25.8329 64.0041C26.2829 63.9569 26.5472 63.6863 26.5503 63.2457C26.5503 63.0444 26.5157 62.843 26.5031 62.6416C26.4717 62.2325 26.4276 61.8266 26.5377 61.3546C29.6121 62.9216 32.6173 62.6825 35.6035 61.1815C35.6696 61.6441 35.7074 62.0972 35.8049 62.5346C35.9025 62.9877 36.0472 63.4345 36.192 63.8751C36.2581 64.0765 36.4154 64.2149 36.6514 64.2086C36.9063 64.1992 37.1077 64.0891 37.2052 63.8531C37.2587 63.7272 37.2776 63.5856 37.2902 63.4471C37.4444 61.7101 37.4098 59.97 37.3248 58.233C37.2524 56.7604 37.0951 55.2909 37.0196 53.8151L37.0322 53.8182ZM13.9854 16.9922C14.1207 17.1685 14.2025 17.2503 14.2591 17.3478C14.7626 18.2069 14.9892 19.1603 15.1843 20.1201C15.4266 21.3064 15.6122 22.5053 15.8419 23.6916C15.9175 24.0692 16.0465 24.4405 16.1881 24.7992C16.273 25.0101 16.4021 25.2177 16.5625 25.3814C16.8929 25.7181 17.3303 25.6016 17.4625 25.1422C17.5097 24.9849 17.5034 24.8024 17.4845 24.6356C17.387 23.7734 17.2643 22.9112 17.173 22.0459C17.1006 21.3662 17.1415 20.6928 17.2989 20.0288C17.3398 20.0194 17.3807 20.0099 17.4248 20.0036C17.5129 20.2963 17.6419 20.5826 17.6859 20.8816C17.9975 22.9741 18.5733 25.0101 19.0548 27.0649C19.0799 27.1687 19.0988 27.2788 19.1114 27.3858C19.1177 27.4299 19.0988 27.4739 19.0925 27.5211C17.173 26.445 17.0125 26.7219 16.0024 26.7533C15.8986 26.3883 15.8199 26.0044 15.6815 25.6488C15.2881 24.6387 14.8727 23.6318 14.4511 22.6343C14.3095 22.3039 14.2088 21.9798 14.1962 21.6116C14.1395 20.2459 14.0546 18.8803 13.9822 17.5177C13.9759 17.3824 13.9822 17.2503 13.9822 16.9985L13.9854 16.9922ZM9.86625 17.3258C9.92919 17.417 10.0047 17.4989 10.0519 17.5964C10.6592 18.9212 11.2823 20.2396 11.8644 21.577C12.7329 23.5689 13.614 25.5544 14.7311 27.4236C14.7626 27.4771 14.7846 27.5337 14.8255 27.6155C14.4699 28.1819 14.3944 28.8207 14.4668 29.5633C14.3315 29.4469 14.2497 29.3871 14.1867 29.3148C13.4158 28.4211 12.6448 27.5306 11.8833 26.6306C11.7889 26.5173 11.7134 26.3663 11.6914 26.2215C11.3358 23.9811 10.6781 21.8099 10.1778 19.604C10.011 18.8645 9.90401 18.1125 9.7687 17.3667C9.80332 17.3541 9.83478 17.3384 9.8694 17.3258H9.86625ZM25.2665 44.1169C24.6938 43.5851 24.0266 43.1792 23.3186 42.8519C22.3054 42.383 21.2764 41.9362 20.2568 41.4799C19.146 40.9828 18.1076 40.3629 17.1258 39.6454C16.9339 39.5038 16.786 39.3433 16.6853 39.1231C16.5783 38.8839 16.4367 38.6542 16.2793 38.4465C15.5336 37.4742 14.75 36.527 14.0263 35.539C12.1886 33.031 10.4232 30.4759 8.80894 27.8201C7.95302 26.4103 7.17263 24.9629 6.55272 23.4336C6.37965 23.0056 6.25063 22.5619 6.10273 22.1245C6.14049 22.1025 6.17825 22.0805 6.21287 22.0584C6.35447 22.2284 6.50237 22.392 6.63453 22.5714C7.13801 23.2636 7.65723 23.9433 8.12924 24.6545C9.80331 27.175 11.877 29.3273 14.171 31.2815C15.4958 32.4111 16.8174 33.5471 18.2712 34.5068C18.6803 34.7774 19.0296 35.0827 19.3285 35.4697C20.3858 36.8323 21.4494 38.1916 22.6956 39.3937C23.0071 39.6958 23.3155 40.0041 23.6459 40.2873C23.7466 40.3754 23.9637 40.4604 24.0455 40.4101C24.2029 40.3157 24.3413 40.1426 24.4074 39.9695C24.4577 39.8437 24.3917 39.6643 24.3508 39.5195C24.2092 39.0035 23.9606 38.5378 23.6301 38.1224C22.2833 36.4326 20.9491 34.7365 19.5803 33.0688C18.7999 32.1216 17.9597 31.2248 17.1478 30.306C16.7419 29.8434 16.4965 29.3242 16.572 28.6917C16.5783 28.6319 16.594 28.5721 16.6097 28.4966C16.9622 28.377 17.2926 28.4714 17.5821 28.6477C17.9912 28.8962 18.394 29.17 18.7527 29.4847C19.3097 29.9787 19.854 30.4948 20.3607 31.0392C22.3211 33.1506 24.6654 34.6799 27.3181 35.7718C28.366 36.2029 29.4013 36.6749 30.4083 37.1878C31.0124 37.4962 31.5851 37.8864 32.1201 38.3049C33.0924 39.0664 33.6966 40.0828 34.0239 41.2723C34.3543 42.4775 34.4896 43.7141 34.5777 44.9508C34.7634 47.5688 34.9459 50.19 35.1095 52.8113C35.1599 53.6325 35.1536 54.457 35.1693 55.2814C35.1693 55.3853 35.1473 55.4922 35.1315 55.6213C32.4725 55.9989 29.8261 56.2569 27.0979 55.9265C27.1577 55.3695 27.2112 54.8786 27.2615 54.3909C27.4472 52.5658 27.6611 50.7407 27.5007 48.9062C27.337 47.0496 26.6542 45.4133 25.2665 44.1232V44.1169ZM26.6416 59.8788C26.6888 59.3942 26.7391 58.8624 26.7926 58.3054C26.9877 58.3054 27.1419 58.3023 27.293 58.3054C28.7342 58.3463 30.1754 58.4565 31.6198 58.3337C32.8124 58.233 33.9987 58.1009 35.1221 57.654C35.163 57.6383 35.2102 57.6383 35.2983 57.6226C35.3361 58.2142 35.3707 58.7963 35.4084 59.369C32.5512 60.3791 29.6593 60.7441 26.6416 59.8756V59.8788Z" fill="black"/>
<path d="M75.9985 21.385C75.9418 20.1515 74.7461 19.4372 73.6667 20.0319C73.2545 20.2585 72.8738 20.5857 72.5591 20.9381C72.0745 21.4825 71.656 22.0835 71.2123 22.6625C71.0833 22.8325 70.9605 23.0087 70.8378 23.1786C70.8 23.0653 70.8158 22.9772 70.8378 22.8923C71.2532 21.3787 71.6119 19.8525 71.8416 18.3012C71.9329 17.6844 71.9895 17.0614 71.7913 16.4541C71.4325 15.3464 70.1896 14.9877 69.3305 15.7712C69.019 16.0576 68.7672 16.4352 68.5596 16.8097C68.2732 17.3226 68.0561 17.8764 67.8075 18.4113C67.7634 18.5026 67.7131 18.5907 67.6659 18.682C67.6155 18.512 67.6407 18.361 67.647 18.2099C67.669 17.6687 67.7603 17.118 67.6942 16.5862C67.5274 15.2835 66.2939 14.7926 65.2303 15.5604C64.7205 15.9286 64.3807 16.4226 64.1572 16.9985C63.9999 17.4012 63.8835 17.8229 63.7324 18.2855C63.6349 18.2288 63.5562 18.1816 63.4775 18.1376C62.9646 17.8323 62.4517 17.8858 61.9891 18.2225C61.7437 18.4019 61.5045 18.6348 61.3661 18.8991C61.1175 19.3774 60.8846 19.8808 60.7588 20.4032C60.4818 21.5329 60.2521 22.6783 60.0413 23.8237C59.777 25.2586 59.5252 26.6998 59.3238 28.1441C59.22 28.8804 58.9022 29.4154 58.3483 29.9063C57.1243 30.9887 55.9379 32.1184 54.4967 32.9082C53.2978 33.5627 52.0643 34.1543 50.8307 34.7459C49.443 35.4099 48.0427 36.0518 46.8061 36.9832C45.6008 37.8895 44.6505 38.994 44.1187 40.4257C43.8198 41.2313 43.6499 42.0683 43.5366 42.9148C43.3509 44.2899 43.332 45.6744 43.3478 47.0558C43.3698 49.0634 43.2722 51.0616 43.0992 53.0629C42.945 54.8282 42.7876 56.5935 42.6995 58.362C42.6303 59.7717 42.6586 61.1877 42.6555 62.6037C42.6555 62.9278 42.6838 63.2551 42.7247 63.5792C42.7751 63.9663 42.9859 64.1834 43.2943 64.2211C43.5838 64.2526 43.7726 64.1173 43.8985 63.6956C44.0526 63.1764 44.1754 62.6478 44.2918 62.116C44.3547 61.8202 44.3768 61.5118 44.4208 61.1751C44.7386 61.3325 45.025 61.4835 45.3176 61.6157C46.4662 62.1254 47.6777 62.3929 48.9207 62.5062C50.4311 62.6446 51.9038 62.5219 53.2537 61.729C53.323 61.688 53.4111 61.6755 53.5275 61.6408C53.5275 61.8548 53.5338 62.0247 53.5275 62.1947C53.5118 62.5502 53.4646 62.909 53.4709 63.2645C53.4803 63.7082 53.7541 63.9726 54.2009 64.0198C54.6792 64.0701 54.9561 63.9033 55.0285 63.4219C55.1229 62.8114 55.2047 62.1884 55.2047 61.5716C55.211 58.8938 54.8743 56.2379 54.6887 53.5727C54.5754 51.9144 54.4558 50.256 54.6257 48.5914C54.7957 46.952 55.5194 45.6587 56.9354 44.8028C57.6498 44.3686 58.405 44.0004 59.1508 43.6165C60.3811 42.9871 61.6304 42.3956 62.8451 41.7379C63.572 41.3446 64.195 40.7939 64.6796 40.1111C64.8967 39.8058 65.095 39.4974 65.3971 39.2646C65.5261 39.1639 65.6645 39.0034 65.6866 38.8555C65.7495 38.4716 66.0138 38.2293 66.2278 37.9524C68.9057 34.4784 71.3633 30.8534 73.6101 27.09C74.3024 25.932 74.9003 24.7173 75.4981 23.5059C75.8223 22.8513 76.0268 22.1433 75.9922 21.3944L75.9985 21.385ZM68.8994 19.8966C69.1952 19.2137 69.5162 18.5404 69.8308 17.8638C69.9127 17.6844 70.0165 17.5145 70.1109 17.3415C70.1455 17.3477 70.1801 17.354 70.2147 17.3603C70.2022 17.546 70.2147 17.7379 70.177 17.9173C69.8686 19.327 69.5508 20.7368 69.2393 22.1465C68.9403 23.4964 68.6508 24.8464 68.3519 26.1963C68.3235 26.3285 68.2889 26.4764 68.204 26.5739C67.4078 27.5085 66.6023 28.4336 65.7999 29.3619C65.7527 29.4154 65.6929 29.4594 65.5638 29.5727C65.6142 28.8207 65.5796 28.1913 65.1988 27.6155C65.4317 27.2095 65.6708 26.8099 65.8911 26.404C67.0397 24.302 67.9491 22.0898 68.8994 19.8966ZM60.935 27.263C61.2748 25.8439 61.6304 24.431 61.9514 23.0087C62.1213 22.2535 62.2283 21.4825 62.3825 20.7242C62.4328 20.4756 62.5398 20.2364 62.6657 20.0004C62.8797 20.5511 62.9111 21.1144 62.8671 21.6745C62.801 22.5115 62.6877 23.3422 62.5996 24.1761C62.5713 24.4373 62.543 24.7016 62.5367 24.9659C62.5304 25.2365 62.6468 25.46 62.908 25.5575C63.1818 25.6582 63.4083 25.5198 63.5499 25.2995C63.7167 25.0415 63.8898 24.7645 63.9622 24.475C64.173 23.6191 64.3586 22.7538 64.516 21.8853C64.7362 20.6486 64.9502 19.4088 65.3719 18.2194C65.5135 17.8135 65.6708 17.4075 66.0233 17.0173C66.0327 17.1936 66.0453 17.3068 66.0422 17.4201C65.9729 18.877 65.9068 20.3371 65.8282 21.794C65.8187 21.9734 65.7715 22.1591 65.7023 22.3258C65.2334 23.4901 64.7457 24.6513 64.2831 25.8187C64.1635 26.1176 64.1006 26.4386 64.0062 26.7784C62.8482 26.5424 61.8507 26.876 60.9035 27.6281C60.9161 27.4644 60.9129 27.3637 60.935 27.2725V27.263ZM53.1751 60.0549C52.1618 60.1934 51.1486 60.3664 50.129 60.4482C49.0969 60.5301 48.0931 60.2846 47.0924 60.0423C46.2931 59.8504 45.4939 59.6553 44.6316 59.4476C44.6348 58.8717 44.6726 58.2644 44.7607 57.6256C47.5204 58.5917 50.343 58.4281 53.216 58.2802C53.2789 58.8403 53.3387 59.3909 53.4016 59.9542C53.3072 59.9983 53.2443 60.0486 53.1719 60.0581L53.1751 60.0549ZM73.33 23.7828C72.4961 25.6802 71.4766 27.4739 70.3564 29.214C68.5029 32.0869 66.5393 34.8844 64.4562 37.5968C64.2674 37.8423 64.0597 38.0751 63.8677 38.3206C63.7167 38.5157 63.5216 38.7045 63.4429 38.9279C63.2982 39.337 63.0024 39.5541 62.6468 39.724C61.4416 40.303 60.2301 40.86 59.0312 41.4547C58.0431 41.9456 57.0456 42.4239 56.1047 42.9934C53.7604 44.4126 52.6622 46.5901 52.4985 49.2648C52.401 50.8508 52.5678 52.4336 52.7251 54.0101C52.7849 54.6111 52.8541 55.2153 52.9202 55.8352C52.4576 56.0397 51.9699 56.046 51.4979 56.0586C49.6161 56.0995 47.7375 56.0145 45.8715 55.7565C45.5631 55.7124 45.2578 55.6715 44.8897 55.6212C44.8897 55.4607 44.8802 55.3128 44.8897 55.1649C45.0061 53.7395 45.1005 52.314 45.2516 50.8948C45.3963 49.5575 45.3774 48.2264 45.2516 46.8954C45.132 45.6084 45.0407 44.3245 45.1194 43.0312C45.2327 41.1432 45.9596 39.5446 47.4385 38.3269C48.0427 37.8265 48.7319 37.4647 49.4462 37.1563C50.771 36.5836 52.0989 36.014 53.43 35.4476C55.9505 34.3777 58.0557 32.7446 59.928 30.7716C60.5133 30.1517 61.1647 29.5947 61.8066 29.0315C62.1465 28.7357 62.543 28.5123 63.0055 28.443C63.3989 28.3864 63.4744 28.4462 63.4775 28.8521C63.4838 29.343 63.3045 29.7647 62.9961 30.1328C62.4926 30.7244 61.9923 31.3191 61.4731 31.8981C60.1892 33.3173 58.9745 34.79 57.8354 36.3256C57.4735 36.8102 57.0739 37.2696 56.69 37.7353C56.2211 38.3017 55.8152 38.9059 55.6295 39.6296C55.5635 39.8876 55.5761 40.1205 55.7837 40.3156C55.9757 40.4949 56.0953 40.5044 56.3124 40.3471C56.4005 40.2841 56.4886 40.218 56.5641 40.1394C57.5082 39.1324 58.4679 38.1381 59.3899 37.1059C59.9469 36.4797 60.4378 35.7969 60.9664 35.1455C61.0734 35.0165 61.1962 34.8875 61.3378 34.7994C63.0087 33.7358 64.516 32.4645 65.9918 31.1524C67.2002 30.0793 68.4054 29.0032 69.4847 27.7948C70.6144 26.5267 71.5584 25.117 72.5402 23.7387C72.8989 23.2321 73.2797 22.7381 73.651 22.2409C73.7045 22.1717 73.7706 22.1087 73.8304 22.0458C73.7643 22.672 73.566 23.2384 73.3237 23.7891L73.33 23.7828Z" fill="black"/>
<path d="M53.1006 11.9071C52.1157 8.63768 48.6196 7.47654 45.5264 8.26952C42.3198 9.09081 40.287 11.7781 38.6822 14.5566C37.798 11.7152 35.9036 9.22926 33.2415 7.77548C30.0349 6.01962 26.498 6.89126 25.1228 10.4282C23.647 14.2294 25.9819 17.9142 28.1909 20.8815C31.4352 25.2492 34.9218 29.4406 38.5689 33.4935C38.8081 33.7579 39.1385 33.8208 39.4154 33.7453C38.8962 34.6043 40.136 35.6144 40.7024 34.7428C43.3677 30.6647 47.1281 27.4833 49.9192 23.5059C52.1534 20.312 54.2995 15.8908 53.1006 11.904V11.9071ZM51.5084 16.3377C50.0703 23.0685 43.9215 27.4235 40.0573 32.8013C40.0321 32.7006 39.9692 32.6125 39.8937 32.5244C37.4078 29.7584 34.9942 26.9327 32.6845 24.0282C30.5887 21.4007 27.9864 18.6002 26.8001 15.4188C25.4627 11.819 27.5081 6.97307 31.989 8.98067C35.1327 10.3935 37.1151 13.6661 37.5462 16.9733C37.6469 17.8198 38.7325 17.9205 39.1133 17.2125C40.7056 14.2199 42.6628 10.4439 46.3477 9.7642C47.8739 9.47471 49.7179 9.73903 50.7909 10.9757C52.0402 12.4137 51.8765 14.6259 51.5115 16.3408L51.5084 16.3377Z" fill="black"/>
<path d="M21.5404 4.97628C21.0935 4.42561 20.3446 4.34065 19.7971 4.78119C19.4981 5.02348 19.2621 5.76926 18.9852 6.72271C18.9065 6.98703 18.8153 7.308 18.7555 7.44645C18.6013 7.38352 18.2898 7.13493 18.1104 6.99333C17.9279 6.84858 17.7674 6.71956 17.6478 6.65663C17.223 6.42692 16.7668 6.20035 16.2916 6.17203C15.8636 6.14686 15.4388 6.30105 15.1588 6.57481C14.9196 6.81082 14.7969 7.1129 14.8095 7.4496C14.8346 8.17649 15.5962 8.79639 16.15 9.24637C16.2318 9.31245 16.3073 9.37539 16.3766 9.43517C17.2073 10.1369 18.1734 10.7505 19.2527 11.2634C19.3408 11.3735 19.4289 11.4868 19.517 11.6001C19.6366 11.7574 19.816 11.8456 20.0142 11.8456C20.0425 11.8456 20.0677 11.8456 20.096 11.8393C20.3289 11.8109 20.5303 11.663 20.6215 11.4522C21.1659 10.1778 21.5561 8.89709 21.7764 7.64155L21.7953 7.544C21.9337 6.76047 22.1257 5.69059 21.5435 4.97314L21.5404 4.97628Z" fill="black"/>
<path d="M64.9862 7.40004C64.6243 7.27103 63.866 7.45983 62.9093 7.72101C62.6419 7.79338 62.3178 7.88149 62.1699 7.90666C62.1415 7.74303 62.1919 7.34655 62.2171 7.11999C62.2454 6.88713 62.2706 6.68574 62.2611 6.55358C62.2359 6.06898 62.1887 5.56236 61.9653 5.14385C61.7608 4.76625 61.4115 4.48619 61.0276 4.38864C60.7003 4.30683 60.3794 4.36347 60.0993 4.54598C59.492 4.94876 59.363 5.92109 59.2686 6.6291C59.256 6.73294 59.2402 6.83049 59.2276 6.92174C59.064 8.00106 59.0451 9.14332 59.1741 10.3296C59.1269 10.4618 59.0766 10.5971 59.0231 10.7293C58.9413 10.9369 58.9791 11.1698 59.1207 11.346C59.2465 11.5034 59.4385 11.5946 59.6336 11.5946C59.665 11.5946 59.6934 11.5946 59.7248 11.5883C61.0968 11.3869 62.3901 11.0471 63.5765 10.5782L63.6709 10.5405C64.4103 10.251 65.4236 9.85133 65.7288 8.97969C65.9648 8.30944 65.6439 7.62661 64.9831 7.39375L64.9862 7.40004Z" fill="black"/>
<path d="M45.7862 0C45.3928 0 45.0624 0.144749 44.8295 0.418513C44.625 0.657663 44.5117 0.97548 44.5117 1.31533C44.5117 1.96669 44.9491 2.6275 45.7862 2.6275C46.6232 2.6275 47.0606 1.96669 47.0606 1.31218C47.0606 0.657663 46.6232 0 45.7862 0Z" fill="black"/>
<path d="M27.6632 25.1643C26.7066 25.1643 26.2031 25.9227 26.2031 26.6684C26.2031 27.4142 26.7035 28.1726 27.6632 28.1726C28.623 28.1726 29.1233 27.4142 29.1233 26.6684C29.1233 25.9227 28.623 25.1643 27.6632 25.1643Z" fill="black"/>
</svg>
