<svg width="80" height="80" viewBox="0 0 80 80" fill="none" xmlns="http://www.w3.org/2000/svg">
<path d="M33.9458 30.4037C34.8119 30.4574 38.5197 31.2572 39.2689 31.6017C39.7114 31.804 40.0212 32.1075 39.8031 32.6385C39.6703 32.9609 39.0729 33.081 38.8833 33.3908C38.4376 34.1147 38.9307 34.5509 37.837 35.4233C36.9614 36.1219 36.2375 35.9638 35.3904 36.3653C34.7898 36.6498 34.6982 37.2314 34.2493 37.5569C32.928 38.5116 31.8375 37.1176 31.651 35.8627C31.4898 34.7911 31.9671 33.8681 30.7723 33.3497C29.9504 32.9925 29.1855 33.0273 28.6196 32.1486L28.5375 33.2928C29.5679 34.0198 31.4329 35.2779 29.8872 36.4949C30.5289 37.263 31.7427 38.0975 31.9703 39.0995C32.024 39.3334 31.9608 39.5926 32.0335 39.8392C32.1062 40.0857 32.8427 40.7653 32.1978 41.0087C31.4835 41.2805 30.8702 40.1869 30.5826 40.4176C31.4361 41.6946 29.6343 41.6188 28.882 41.8906C28.2941 42.1056 27.9306 42.4217 27.5797 42.9306C26.9696 43.8188 27.0961 44.982 25.6167 44.4826C25.6199 45.1211 25.0952 46.0884 25.1331 46.6731C25.1552 47.0335 26.1035 47.6246 26.369 47.9976C26.9601 47.7542 27.1561 47.3622 27.8768 47.4128C28.5975 47.4634 30.845 48.5286 31.2748 49.0723C31.5467 49.4137 31.6257 49.8815 31.8375 50.1976C32.4128 51.0447 34.7645 50.9847 35.0964 52.347C35.343 53.3554 34.6381 53.3364 34.3062 53.9212C33.968 54.5186 34.0818 55.1192 33.5096 55.7545C32.9754 56.3488 32.299 56.3962 31.7806 56.8293C31.3381 57.1991 31.0725 57.9103 30.5573 58.375C30.2254 58.6721 29.5616 58.9629 29.3625 59.3011C28.9294 60.0471 29.7797 61.2325 28.3762 61.1756C26.2331 61.0902 26.1857 58.6879 26.4291 57.1074C26.5492 56.3267 27.1245 55.0907 27.0708 54.3922C26.9538 52.9255 24.2765 52.6631 25.0288 50.5421C25.1647 50.1597 25.7748 49.3884 25.7811 49.0818C25.7874 48.7499 25.1521 48.1999 24.9055 47.9565L21.2926 62.7086L38.2795 69.2708L40.6534 51.462C39.3511 51.3766 38.1815 50.8898 37.6094 49.6476C36.4145 47.0619 38.1752 45.9303 39.9422 44.4605C39.6198 43.8599 39.0761 43.0444 39.5471 42.3742C39.9169 41.8464 40.606 42.1783 40.7482 42.0423C40.7798 42.0107 40.7956 41.5524 41.1212 41.2616C41.3867 41.0213 42.316 40.6863 42.3856 40.5883C42.4804 40.4555 42.6479 39.5231 42.6195 39.3682C42.5847 39.1817 42.1928 39.0742 42.2149 38.638C42.2465 38.0627 42.7238 38.0279 42.885 37.6486C43.2422 36.8046 43.2359 35.3222 43.4888 34.396C44.0293 34.8986 44.7879 35.5655 44.671 36.3558C45.0977 36.0713 45.2715 36.4475 45.5718 36.713L44.4718 37.7276L44.0198 39.934C44.6172 40.3544 44.9649 37.6549 46.1092 37.6391L46.6149 38.1038L45.7741 39.2038C46.2135 39.0805 46.8425 38.8561 46.9974 39.4377L46.833 39.8455C46.5043 40.013 46.144 39.934 45.7994 40.0351C45.6761 40.0731 44.0261 41.0277 43.9534 41.1067C43.7922 41.2869 43.4919 43.0602 43.5804 43.174C44.5856 42.4406 44.9523 43.4932 45.5592 44.1033C46.2546 42.7061 48.1828 42.2699 49.1153 43.588C48.7517 44.6122 47.8193 43.3857 47.0511 43.7745C46.2988 44.157 47.5569 44.3656 47.7813 44.4857C48.4894 44.8682 48.7992 45.7975 47.794 45.9682C48.0879 46.2654 48.4325 46.5151 48.6948 46.8438C48.9572 47.1726 49.5609 48.4717 49.7759 48.5697C50.2753 48.7941 51.8748 47.7795 52.1719 47.2579C52.1592 47.0208 49.8201 46.4297 49.9181 45.807C50.3733 44.7671 51.546 46.1705 52.4975 46.3349C53.5532 46.5151 54.4067 46.0789 55.1558 47.1694C55.3486 47.4539 55.7374 48.8226 56.063 48.7309C56.142 48.7088 56.6731 47.555 56.8501 47.3148C57.1377 46.9228 57.5107 46.6004 57.9311 46.3665L58.4495 32.9704C57.8395 33.2928 56.142 33.7101 55.7501 34.2095C55.3044 34.7721 56.5119 35.3791 55.7216 35.7489C55.0104 36.0808 54.5995 35.0977 54.6185 34.5098C54.6785 32.7649 58.2472 32.4109 58.5001 31.6776C58.5254 31.608 58.5539 31.4152 58.4464 31.4152C57.1662 31.5543 57.3938 30.3658 58.5823 30.5238L58.8383 25.1787L57.3969 25.3399L58.026 23.7815C60.5263 23.4654 63.0772 24.2841 65.4953 24.8879C69.8637 25.9815 74.21 27.3439 78.5311 28.5577L78.7302 29.1014C77.8894 42.0739 78.9736 55.0338 79.8176 67.9526C79.9219 69.5616 79.8018 69.6754 78.2845 69.3688C75.4428 68.7966 72.5095 67.7946 69.6678 67.0929C65.7324 66.1256 61.7338 65.3986 57.8395 64.2828C52.5006 66.6409 46.6845 69.6185 40.9948 70.984C39.8315 71.2622 39.5787 71.2306 38.4534 70.867C35.618 69.9472 32.7636 68.5912 29.9567 67.5417C26.6219 66.2931 23.2523 65.1394 19.9112 63.9098C14.3258 65.4492 8.97433 67.9653 3.43318 69.6058C2.84841 69.7797 0.853848 70.4656 0.404993 70.2222C0.117346 70.0673 0.161599 69.5521 0.199531 69.2771C0.376544 68.038 1.05931 66.2995 1.38805 65.0161C3.87572 55.2646 5.97143 45.4214 8.34846 35.6414C8.76571 33.9282 9.16715 31.6649 9.7298 30.056C9.89101 29.5913 9.93842 29.408 10.4189 29.1962C12.1479 28.4344 14.7462 27.9066 16.6396 27.2586C19.7816 26.187 22.8414 24.8689 25.9929 23.8384C26.9127 23.5381 28.803 22.8048 29.6849 22.8712C30.7154 22.9502 33.4022 23.8795 34.5401 24.2272C35.7318 24.5876 36.9077 24.9985 38.0962 25.3652L38.997 27.0499L30.2949 24.6318L29.2013 29.604C29.3087 29.9232 31.6542 30.0181 31.6826 30.7546C31.7111 31.4911 30.7596 31.0738 30.5194 31.0865C30.1306 31.1086 29.2171 31.7123 29.9188 32.0695C31.18 32.7112 32.4444 32.2845 32.6941 34.279C32.7447 34.6773 32.6214 37.1113 33.4875 36.8489C33.9711 36.4696 34.2208 35.869 34.7772 35.5687C35.5643 35.1483 36.6042 35.2558 37.2933 34.6141C37.8401 34.1052 37.5746 33.5109 37.9476 32.9483C38.1278 32.6796 38.485 32.6006 38.6304 32.3414C36.5536 31.8862 34.4864 31.1781 32.3338 31.2066C31.8217 31.0738 32.0904 30.4606 32.2832 30.4543C32.8111 30.4353 33.4369 30.3626 33.949 30.3942L33.9458 30.4037ZM28.7872 24.4738C22.715 26.0416 17.0063 28.7284 11.0195 30.5776C8.18093 43.2277 5.31395 55.881 2.11507 68.4458C8.0134 66.6914 13.6367 64.15 19.5287 62.3894L19.7816 62.1934L23.5526 46.9418C23.4957 46.6605 21.969 46.4139 21.6308 46.278C21.3305 46.1579 20.7552 45.6901 20.6857 45.6743C20.4928 45.6363 20.2589 45.8292 19.8733 45.747C18.9503 45.5542 18.925 44.5237 18.6057 43.8757C18.2075 43.0602 17.6322 42.5133 17.6069 41.4923C17.5942 40.9708 17.8724 40.2564 17.8376 39.719C17.7681 38.6095 16.8799 37.9584 15.7957 38.1891C15.0212 38.3156 12.5272 40.0067 11.9678 39.9466C11.8698 39.9371 11.6517 39.836 11.5979 39.757C11.2123 39.1817 12.3818 38.7897 12.6948 38.5242C12.7833 38.4515 12.8971 38.521 12.8275 38.265C12.2522 38.2429 11.6106 38.1259 11.816 37.3768C11.9045 37.0575 12.5873 36.8742 12.6474 36.6403C12.7295 36.3242 12.1669 35.9733 12.6094 35.3506C12.9224 34.9144 14.8505 34.2601 15.4195 34.1811C17.0917 33.9471 18.9029 34.396 20.4423 33.5425C20.5655 33.3592 19.6994 32.9799 20.3348 32.2086C21.3747 30.9474 25.0414 31.6207 24.7506 33.3086C24.6337 33.9819 23.7391 34.4592 23.0911 34.4529C22.5727 34.4497 21.9374 34.0451 21.5107 34.0767C21.2388 34.0957 20.6572 34.5351 20.319 34.6647C18.6026 35.319 17.433 34.848 15.7672 35.0408C15.4132 35.0819 13.466 35.5719 13.4091 35.8532C14.1488 36.6782 13.8454 36.8995 13.0203 37.421C13.4376 37.5285 13.6778 37.6044 13.8801 38.009C15.2393 37.3799 16.5827 36.7541 17.9261 37.8003C19.6173 39.1185 18.4477 40.3165 18.7448 41.878C18.7922 42.1308 19.7911 44.2487 19.9586 44.4952C19.9934 44.5458 20.1325 44.7671 20.1704 44.6153C20.2937 44.1475 19.5762 43.2309 20.1925 43.0222C20.575 42.8926 20.6793 43.0096 20.8469 43.3099C21.3495 44.2107 21.144 45.7438 22.6518 45.6932C21.5296 44.6343 22.1587 42.8041 23.7138 42.7567C24.0078 42.7472 24.4156 42.9875 24.6052 42.7346L25.8854 37.7972C25.917 37.1871 24.4535 36.8837 24.6874 35.8374C24.8233 35.2336 25.3955 35.1293 25.7116 34.75C25.857 34.5762 25.9139 34.2316 26.0656 34.1147C26.3185 33.9187 26.7073 34.0451 26.7831 33.9756C26.8337 33.9313 27.1593 32.7428 26.6946 32.7618C26.3975 32.7744 26.0972 33.5994 25.4777 33.0368C24.9719 32.5784 25.7274 32.2434 25.7274 32.1897C25.3797 31.627 23.5179 31.45 23.6917 30.7293C23.8909 29.9011 25.1363 30.9316 25.2343 30.8178C25.1932 29.4649 26.8432 29.4112 27.842 29.3796L28.7903 24.4674L28.7872 24.4738ZM78.1391 67.9653C77.8262 62.9425 77.5259 57.9482 77.2762 52.9286C76.9127 45.6016 77.0233 38.2934 77.0454 30.9284C77.0454 30.5302 77.0296 30.1224 76.9854 29.7273L60.2797 25.245L60.0363 31.0738C60.0648 31.1781 60.678 31.2919 60.8898 31.4468C61.1522 31.6396 61.2849 32.0853 61.4113 32.1549C61.8381 32.3888 64.0128 32.2971 64.743 32.4963C65.1413 32.6037 65.3815 32.8629 65.3467 33.2928C66.0927 33.0494 66.6459 32.7871 67.4741 32.9072C68.1157 33.002 68.4287 33.5836 69.0514 33.7512C70.6255 34.1716 73.9856 34.2601 75.0951 35.3316C75.3259 35.5561 75.4713 35.7615 75.4618 36.0997C75.4397 36.9374 74.1468 36.7225 73.6189 36.969C73.2839 37.1271 73.0215 37.8351 72.3767 38.069C71.8298 38.2682 70.9163 37.9932 70.7867 38.736C70.7109 39.1595 70.9985 39.7633 70.3885 39.8739C69.5856 40.0193 69.5224 38.7929 69.8384 38.2776L69.6772 38.0374C69.1557 38.1986 67.0663 38.5716 66.7692 38.913C66.589 39.1185 67.3413 39.2607 67.4899 39.3492C67.8186 39.5483 68.2959 40.0004 68.1062 40.4208C67.9956 40.6642 67.5878 40.7084 67.5278 40.8001C67.4677 40.8917 67.4962 41.1857 67.4045 41.3817C66.9209 42.3869 66.1338 42.2099 65.7893 42.6682C65.3183 43.2909 65.5806 44.4763 64.076 44.3467C64.3921 46.376 63.5829 47.0082 61.8634 47.7036C63.1088 48.8573 61.8412 49.9605 60.4915 49.8088C60.5421 50.2166 60.4725 50.6907 60.5358 51.089C60.7602 52.5399 63.0708 52.5209 63.1752 53.2195C63.33 54.2562 61.051 53.1309 60.6749 52.897C60.1659 52.5746 59.4927 51.7212 59.4294 51.1111C59.3915 50.7444 59.5906 50.52 59.6128 50.2166C59.6254 50.0395 59.3757 48.87 59.1355 49.1892L58.636 62.8066L78.1454 67.9685L78.1391 67.9653ZM27.5512 30.4164C27.0392 30.2204 26.4449 30.3847 26.1288 30.8494C26.4576 31.0802 26.7104 31.3773 26.9949 31.646C27.0897 31.7345 27.0992 31.8009 27.2668 31.7534L27.5512 30.4164ZM21.1851 32.6385C21.1788 32.7586 21.1756 32.8661 21.2483 32.9736C21.302 33.0526 22.9236 33.5425 23.0817 33.5489C23.3851 33.5647 23.5779 33.375 23.7613 33.1569C23.088 32.5784 22.0322 32.3161 21.1882 32.6385H21.1851ZM60.0869 32.3667C59.9257 32.1991 59.8878 32.3888 59.872 32.5405C59.4326 37.459 59.6286 42.5323 59.1671 47.4634C59.2082 47.9059 60.9783 49.5812 61.3323 48.6108C59.6539 46.7585 61.7432 47.0113 62.7263 46.1516C63.3079 45.6458 62.9855 45.4246 62.9855 44.8904C62.9855 44.6027 63.1341 44.3467 63.0519 43.9895C62.995 43.7398 61.62 42.684 62.7263 42.5987C63.4786 42.5386 63.9938 43.4837 64.3732 43.3952C64.6861 43.3225 64.6576 42.7504 64.7746 42.4754C65.1065 41.7073 65.6565 41.878 66.137 41.4892C66.57 41.1415 66.4878 40.4713 66.8039 40.0193C64.8694 39.2828 65.5237 38.4325 67.0663 37.8446C68.6973 37.225 69.5382 37.1555 71.2198 37.2946C72.4905 37.3989 72.2344 36.5802 72.9994 36.1788C73.385 35.9765 73.698 36.0144 74.1089 35.9227C74.0899 35.6098 73.0342 35.3569 72.756 35.3C71.2862 35.0029 69.6519 34.8543 68.1695 34.5762C67.7712 34.5161 67.2718 33.8144 66.9683 33.7828C66.1496 33.6974 64.1393 35.6098 64.351 33.5489C63.5987 33.315 60.6211 33.4003 60.226 32.8471C60.1312 32.7144 60.0964 32.5279 60.0869 32.3635V32.3667ZM29.4099 35.6793C29.4352 35.4138 29.3625 35.24 29.2139 35.025C29.1159 34.8796 28.2498 34.0578 28.1329 34.1684L27.8515 35.6224L29.4099 35.6793ZM25.9961 36.5802C26.1731 36.6972 26.4259 35.5118 26.3943 35.3443L25.6452 35.9954L25.9961 36.5834V36.5802ZM29.5901 40.7874C29.5205 40.3702 29.0021 40.2406 29.3783 39.7854C29.7386 39.3524 30.9714 39.4946 30.9777 39.2386C30.6964 38.7866 30.3961 38.3377 30.0421 37.9394C29.8398 37.7118 28.8061 36.694 28.6133 36.5897C28.2941 36.4158 27.7377 36.6118 27.6903 36.9216C27.6492 37.1871 28.4395 38.1133 27.2794 38.2555L25.9107 43.4173C26.0593 43.5564 26.0277 43.6196 26.1889 43.4648C26.4702 43.1929 26.644 42.4659 26.9886 42.0613C27.5892 41.3596 28.6955 40.9392 29.5932 40.7811L29.5901 40.7874ZM42.1833 41.6725C41.4373 41.6788 41.785 42.4627 41.4373 42.7472C41.0359 43.0728 40.4511 42.763 40.3373 42.8515C40.0338 43.7145 41.4594 44.3467 41.9114 43.6196C42.0221 43.4395 42.2655 41.7578 42.1833 41.6725ZM24.3618 43.7524C22.7276 43.2783 22.636 44.8082 23.9225 45.434L24.3618 43.7524ZM44.6109 44.255C44.3643 44.2013 44.3106 44.5142 44.102 44.5837C43.8586 44.6659 43.5488 44.6059 43.2928 44.6343C43.258 44.8208 43.3592 44.8556 43.473 44.9599C43.5994 45.0737 44.3801 45.6996 44.4718 45.7312C45.123 45.9714 45.6856 45.5826 46.283 45.5415C46.5928 45.5194 46.9816 45.7027 47.3293 45.6016C47.5063 45.4372 46.3146 44.8176 46.1945 44.8018C46.027 44.7797 45.8816 45.0263 45.6761 45.0832C44.9965 45.2697 44.7879 44.8208 44.6141 44.2518L44.6109 44.255ZM41.6333 44.9188C40.606 45.1021 38.4755 46.6131 38.2479 47.6151C37.8939 49.1924 39.1709 50.7539 40.8209 50.4947L41.6333 44.9188ZM50.4681 49.4959C48.6632 49.8941 48.4451 48.1651 47.5411 47.1631C46.4032 45.9019 45.6856 46.9165 44.3359 46.6858L43.0051 45.8702L42.2876 50.7855C42.5974 50.7602 43.0873 51.0447 43.2959 51.2597C43.6057 51.5789 44.5477 54.0761 44.535 54.5376C44.5255 54.9106 44.3138 55.2488 44.3707 55.6281C44.456 56.1813 45.1799 57.1928 45.2336 57.8819C46.8773 58.1379 46.9342 56.9083 47.5127 55.9189C47.8951 55.2614 48.5368 55.0275 48.6253 54.1614C48.6664 53.7315 48.5558 53.2637 48.5874 52.837C48.6917 51.4841 50.4997 50.9088 50.4713 49.4895L50.4681 49.4959ZM57.8521 47.6751C56.9987 48.1366 57.103 50.166 55.8133 49.812C54.5995 49.4769 54.6343 47.4476 53.6449 47.2864C53.0949 47.1978 52.9558 47.8458 52.6492 48.143C52.3426 48.4433 51.5113 48.8415 51.4607 49.1829C51.3627 49.8499 51.5776 49.9984 51.1635 50.7286C50.8664 51.2533 49.7348 52.2617 49.6305 52.6284C49.4377 53.3269 49.9276 53.9402 49.5325 54.9011C49.3081 55.4448 48.7233 55.7893 48.4388 56.2413C48.1132 56.7597 48.0943 57.3445 47.6581 57.8755C46.9943 58.6879 45.4201 59.2758 44.5097 58.5994C43.9597 58.1885 44.102 57.6764 43.9092 57.1706C43.7606 56.7818 43.4571 56.4816 43.375 56.0137C43.258 55.331 43.5362 54.6703 43.3813 54.0476C43.2264 53.4249 42.5689 52.5493 42.4488 51.8444L42.1043 51.7907L39.8505 69.6596C40.1698 69.9599 46.3115 67.6208 47.1618 67.2889C50.5314 65.9771 54.0084 64.5451 57.1125 62.7086L57.8553 47.6751H57.8521ZM28.2783 60.1767C28.1771 59.5635 28.3257 58.9787 28.7303 58.5046C29.0717 58.1063 29.7228 57.8661 30.0231 57.5626C30.3929 57.1896 30.5194 56.5258 31.0789 56.077C31.5562 55.6913 32.318 55.568 32.7004 55.1192C33.045 54.7177 33.0418 54.1677 33.2694 53.7157C33.4749 53.308 33.851 53.0993 34.0185 52.6916C33.3421 51.6105 31.5783 51.9298 30.8513 50.7855C30.5763 50.3525 30.5731 49.7361 30.1148 49.3852C29.8366 49.1734 28.0096 48.3958 27.6935 48.4085C27.4248 48.418 27.2636 48.5191 27.1087 48.7277C27.0107 48.8605 26.0751 50.6875 26.0308 50.8393C25.7305 51.9013 27.0392 52.2554 27.5765 52.9192C28.7903 54.4269 27.7219 55.6597 27.4469 57.1991C27.2699 58.179 27.0297 59.8891 28.2783 60.1735V60.1767Z" fill="black"/>
<path d="M39.8262 71.3443C39.409 71.3443 39.036 71.24 38.3975 71.0345C36.6874 70.4814 34.952 69.7607 33.2704 69.0621C32.1609 68.6006 31.0135 68.1233 29.8945 67.706C28.0485 67.0138 26.1551 66.3405 24.3281 65.6893C22.874 65.171 21.3726 64.6368 19.8996 64.0962C16.9694 64.9086 14.0518 66.0054 11.2322 67.0675C8.70349 68.019 6.09254 69.002 3.47527 69.7765C3.39309 69.8017 3.28562 69.8334 3.15918 69.8744C1.68301 70.3359 0.693637 70.5857 0.320645 70.3802C0.0424812 70.2316 -0.0555083 69.8555 0.0298374 69.2644C0.140471 68.4805 0.447083 67.5132 0.747373 66.5744C0.927548 66.0023 1.1014 65.4649 1.22152 64.9845C2.66923 59.3074 4.00631 53.5039 5.29914 47.89C6.22846 43.863 7.18623 39.6969 8.18193 35.6097C8.30837 35.085 8.43481 34.5097 8.56441 33.9155C8.8647 32.5468 9.17447 31.1338 9.56643 30.0085L9.58539 29.9548C9.73712 29.5218 9.8193 29.2815 10.3472 29.0508C11.3998 28.5893 12.7716 28.21 14.0961 27.8433C14.9875 27.5967 15.8314 27.3628 16.5806 27.1099C18.0283 26.6168 19.4855 26.0605 20.8953 25.52C22.539 24.8941 24.2364 24.243 25.937 23.6898C26.1014 23.6361 26.2942 23.5697 26.506 23.497C27.5301 23.143 28.9336 22.6562 29.6954 22.7131C30.5235 22.7763 32.3379 23.3579 33.6624 23.7846C34.0227 23.8984 34.342 24.0027 34.5885 24.0786C35.2017 24.2651 35.8086 24.4642 36.4155 24.6634C36.9908 24.853 37.5661 25.0395 38.1446 25.2165L38.211 25.2355L39.3331 27.3281L30.4255 24.853L29.3888 29.5755C29.4899 29.6229 29.8471 29.7082 30.1158 29.7715C30.9218 29.9611 31.8353 30.1792 31.8575 30.7577C31.8669 30.96 31.8069 31.1149 31.6868 31.2223C31.4434 31.431 31.0419 31.3551 30.748 31.2982C30.6689 31.2824 30.5678 31.2634 30.5362 31.2666C30.3054 31.2792 29.8787 31.5479 29.8408 31.7407C29.8344 31.766 29.8218 31.8387 30.002 31.9304C30.3434 32.1042 30.6879 32.1959 31.023 32.2844C31.8733 32.512 32.6761 32.727 32.869 34.2663C32.8784 34.339 32.8816 34.4781 32.8879 34.652C32.9006 35.183 32.9322 36.4284 33.2704 36.675C33.302 36.6971 33.3431 36.7192 33.419 36.7034C33.5991 36.5549 33.7477 36.3747 33.9026 36.1819C34.127 35.9037 34.3578 35.6161 34.7055 35.4296C35.05 35.2431 35.4388 35.1546 35.815 35.0724C36.3302 34.9554 36.817 34.8448 37.1868 34.5002C37.4523 34.2537 37.4966 33.9882 37.544 33.6784C37.5851 33.4255 37.6293 33.141 37.8127 32.866C37.9202 32.7048 38.0719 32.6037 38.2078 32.5152C38.2426 32.493 38.2742 32.4709 38.3058 32.4488C37.8822 32.3508 37.4555 32.2433 37.0383 32.139C35.5115 31.7565 33.9405 31.3646 32.3411 31.3836H32.319L32.2968 31.3772C32.0092 31.3014 31.848 31.0801 31.8796 30.7956C31.9049 30.5585 32.0724 30.2993 32.2842 30.2899C32.4549 30.2835 32.6382 30.2709 32.8215 30.2614C33.2103 30.2361 33.6118 30.2108 33.9658 30.233C34.8856 30.2899 38.5871 31.0959 39.3489 31.4468C39.9843 31.7376 40.1929 32.1611 39.9685 32.7017C39.8768 32.9229 39.6492 33.0557 39.4279 33.1821C39.2667 33.2738 39.1024 33.3686 39.0328 33.4793C38.8842 33.7195 38.8526 33.9218 38.8179 34.1399C38.7546 34.5445 38.6883 34.9649 37.9486 35.556C37.3891 36.0049 36.8802 36.1187 36.3934 36.2293C36.0805 36.2988 35.7865 36.3684 35.4704 36.5169C35.167 36.6592 35.0121 36.8899 34.8446 37.1365C34.7118 37.3325 34.5727 37.5379 34.3546 37.6928C33.7224 38.148 33.1882 38.0721 32.85 37.9299C32.0787 37.6043 31.6046 36.6434 31.4908 35.8879C31.4434 35.5781 31.4497 35.2873 31.4529 35.0092C31.4623 34.3264 31.4718 33.8365 30.71 33.5046C30.4919 33.4097 30.2738 33.3433 30.062 33.277C29.5942 33.1316 29.1485 32.9956 28.7597 32.5942L28.7155 33.2074C29.4773 33.7448 30.6247 34.554 30.6468 35.4675C30.6563 35.8405 30.4824 36.1914 30.1284 36.5106C30.2959 36.6971 30.4951 36.8899 30.7037 37.0922C31.2948 37.6644 31.9649 38.3124 32.1356 39.0583C32.1641 39.1848 32.1641 39.3112 32.1641 39.4313C32.1641 39.5578 32.1641 39.6779 32.1957 39.7885C32.2052 39.8233 32.2715 39.9213 32.3221 39.994C32.4896 40.2405 32.6983 40.5471 32.6066 40.8348C32.5592 40.9834 32.4422 41.094 32.2557 41.1635C31.7563 41.3532 31.3201 41.0118 31.004 40.7653C30.9787 40.7463 30.9503 40.7242 30.9218 40.702C30.9914 40.9012 30.9945 41.0782 30.9281 41.2362C30.748 41.6693 30.1126 41.7926 29.55 41.9C29.3192 41.9443 29.0979 41.9885 28.9399 42.0454C28.4152 42.2351 28.0706 42.5101 27.7198 43.0253C27.5649 43.2498 27.4606 43.4963 27.3563 43.7365C27.0939 44.3498 26.8252 44.9788 25.7695 44.7038C25.7315 44.9914 25.6304 45.3139 25.5292 45.6268C25.4091 46.0061 25.2827 46.3981 25.2985 46.6636C25.308 46.8122 25.6904 47.1409 25.9465 47.359C26.1235 47.5107 26.2942 47.6593 26.4143 47.792C26.5502 47.7257 26.6672 47.653 26.7778 47.5803C27.0749 47.3874 27.3531 47.2073 27.8841 47.2452C28.6112 47.2958 30.9408 48.3863 31.4023 48.9679C31.5666 49.1765 31.6646 49.4136 31.7563 49.6475C31.8258 49.8182 31.8891 49.9794 31.9744 50.1027C32.183 50.4125 32.7109 50.599 33.2672 50.7981C34.0986 51.0921 35.0405 51.4271 35.2555 52.309C35.4451 53.0803 35.1101 53.3616 34.8193 53.6082C34.677 53.7283 34.5443 53.8389 34.4494 54.0096C34.3262 54.2309 34.2661 54.4522 34.2029 54.6892C34.1049 55.0686 34.0006 55.4605 33.6307 55.8746C33.302 56.2413 32.9322 56.4088 32.575 56.5732C32.3253 56.687 32.0882 56.7944 31.8859 56.9651C31.6868 57.1327 31.5192 57.3855 31.3422 57.6542C31.1462 57.9513 30.9471 58.258 30.6689 58.5045C30.5299 58.6278 30.3497 58.7447 30.1569 58.8649C29.8977 59.0292 29.6069 59.2157 29.5057 59.3896C29.3729 59.6203 29.3856 59.9175 29.3951 60.2083C29.4077 60.5433 29.4204 60.891 29.1928 61.1218C29.0252 61.2893 28.7566 61.362 28.3678 61.3462C27.6976 61.3209 27.1698 61.0744 26.7936 60.6223C26.0034 59.6614 26.1203 57.9924 26.2594 57.0821C26.31 56.7533 26.4333 56.3677 26.5629 55.9568C26.743 55.3847 26.9295 54.7904 26.9011 54.4079C26.8568 53.8706 26.4048 53.4976 25.9243 53.1024C25.2037 52.5113 24.3881 51.8412 24.8718 50.4883C24.935 50.3082 25.0804 50.0743 25.2321 49.8245C25.3901 49.5653 25.6114 49.2113 25.6114 49.0817C25.6114 48.8952 25.2353 48.5127 24.9982 48.2852L21.4895 62.6074L38.1383 69.0368L40.4616 51.6168C38.9822 51.4777 37.9707 50.8392 37.4523 49.7202C36.2954 47.2199 37.8095 45.984 39.4153 44.6754C39.5164 44.59 39.6208 44.5078 39.7251 44.4225L39.6903 44.3624C39.3647 43.7745 38.9222 42.9716 39.4058 42.2825C39.7061 41.8558 40.1771 41.8874 40.4584 41.9095C40.5058 41.9095 40.5659 41.9158 40.607 41.9158C40.6449 41.742 40.7239 41.3974 41.0052 41.1446C41.1759 40.9897 41.5458 40.8222 41.8713 40.6736C42.0262 40.6009 42.2222 40.5124 42.2601 40.4808C42.3107 40.3828 42.4688 39.5546 42.4498 39.406C42.4435 39.3902 42.3897 39.3397 42.355 39.3049C42.2222 39.1785 42.0262 38.992 42.0452 38.6379C42.0673 38.2207 42.2949 38.0279 42.4783 37.873C42.5857 37.7813 42.6806 37.7023 42.728 37.5885C42.9239 37.127 43.0093 36.4379 43.0915 35.7741C43.1547 35.2557 43.2148 34.7658 43.3254 34.3612L43.3981 34.0925L43.6636 34.339C44.1472 34.7879 44.7921 35.3853 44.8458 36.1029C45.1493 36.0428 45.3547 36.2609 45.5159 36.4316C45.5665 36.4853 45.6202 36.5422 45.6803 36.596L45.8194 36.7192L44.6214 37.8224L44.2231 39.7601C44.3432 39.6273 44.5013 39.2986 44.6245 39.0489C44.9596 38.3534 45.3768 37.4905 46.1007 37.481H46.1671L46.834 38.0943L46.1955 38.9287C46.4231 38.8845 46.657 38.8782 46.8467 38.9856C46.9953 39.0678 47.0964 39.2101 47.1501 39.4029L47.1659 39.4566L46.9542 39.975L46.8973 40.0035C46.6792 40.1141 46.4579 40.1299 46.2429 40.1457C46.0975 40.1552 45.9616 40.1678 45.8352 40.2058C45.6929 40.2627 44.1757 41.1414 44.0587 41.2394C43.9639 41.3816 43.7806 42.3995 43.7332 42.8863C44.4823 42.5133 44.9311 43.0854 45.2978 43.5564C45.3674 43.648 45.4401 43.7397 45.5128 43.8251C45.9332 43.1486 46.6412 42.7029 47.4157 42.6429C48.1458 42.586 48.8128 42.8989 49.2395 43.4995L49.2901 43.5722L49.2617 43.6544C49.1763 43.8946 49.053 44.0526 48.8855 44.1285C48.6168 44.2549 48.307 44.1412 48.0099 44.0305C47.7001 43.9167 47.3809 43.7966 47.1154 43.9357C47.0458 43.9705 47.0047 43.9989 46.9858 44.0179C47.0806 44.0969 47.3999 44.1949 47.5421 44.2391C47.6749 44.2802 47.7823 44.3118 47.8487 44.3466C48.3418 44.6121 48.6516 45.1021 48.582 45.5162C48.5568 45.6711 48.4588 45.9176 48.1142 46.063C48.1585 46.1009 48.2027 46.142 48.2438 46.18C48.4398 46.3538 48.6453 46.5372 48.816 46.7521C48.9361 46.9038 49.1036 47.2073 49.2806 47.5297C49.464 47.8616 49.7421 48.3642 49.8401 48.4306C50.191 48.5886 51.5344 47.7889 51.939 47.2895C51.8125 47.2199 51.5691 47.1156 51.3637 47.0303C50.564 46.6952 49.6568 46.3127 49.739 45.788L49.7516 45.7469C49.8559 45.5098 50.0045 45.3581 50.1941 45.2981C50.5798 45.1716 51.0349 45.4371 51.5186 45.7216C51.8568 45.9208 52.2077 46.1262 52.5143 46.18C52.8051 46.2305 53.0801 46.2305 53.3488 46.2305C54.0442 46.2305 54.6985 46.2337 55.2801 47.084C55.3528 47.1883 55.4318 47.3843 55.533 47.634C55.6373 47.8932 55.8459 48.4053 55.985 48.5444C56.0577 48.4211 56.1873 48.1714 56.2853 47.9785C56.4528 47.6561 56.6077 47.3495 56.6994 47.2262C56.9807 46.8469 57.341 46.5182 57.7488 46.278L58.2546 33.2517C58.0523 33.337 57.8057 33.4255 57.5497 33.5172C56.8985 33.7511 56.0893 34.0419 55.8649 34.3264C55.7416 34.4844 55.8048 34.6362 55.966 34.927C56.0798 35.1324 56.1999 35.3474 56.1272 35.5687C56.0798 35.7109 55.966 35.8247 55.7764 35.9132C55.514 36.0365 55.2548 36.0238 55.0272 35.8721C54.6353 35.6129 54.4203 34.9807 54.4361 34.5161C54.4772 33.3181 55.9218 32.7522 57.085 32.2971C57.635 32.0821 58.2577 31.8387 58.3273 31.6333C58.3273 31.6238 58.3336 31.6143 58.3336 31.6017C57.929 31.6238 57.6129 31.5132 57.4738 31.2824C57.3695 31.1149 57.379 30.9094 57.4928 30.7324C57.6255 30.5269 57.9353 30.3373 58.4094 30.3468L58.6465 25.3714L57.1229 25.5421L57.8942 23.6297L57.9922 23.6171C60.1859 23.3421 62.3954 23.9174 64.5322 24.4706C64.8641 24.5559 65.196 24.6444 65.5247 24.7266C68.4297 25.4536 71.363 26.3102 74.1984 27.1384C75.6303 27.5556 77.1096 27.9887 78.5637 28.3965L78.6459 28.4186L78.8861 29.0761V29.1108C78.1338 40.6546 78.924 52.3754 79.689 63.7106C79.7838 65.1204 79.8786 66.5333 79.9703 67.9431C80.024 68.7523 80.0335 69.2644 79.7459 69.5141C79.4614 69.7607 78.962 69.6848 78.2318 69.5362C76.5407 69.1948 74.7927 68.6954 73.1047 68.215C71.9541 67.8862 70.7624 67.5448 69.6087 67.2603C68.1009 66.8873 66.5552 66.5491 65.0632 66.2172C62.6831 65.6893 60.2207 65.1457 57.8342 64.4661C56.7531 64.9434 55.6752 65.4365 54.5373 65.958C50.1183 67.9779 45.5507 70.0641 41.0179 71.1546C40.4932 71.2811 40.1423 71.3443 39.8167 71.3443H39.8262ZM19.9122 63.739L19.9628 63.758C21.4516 64.3049 22.9689 64.8454 24.4387 65.3701C26.2689 66.0213 28.1591 66.6977 30.0115 67.3899C31.1368 67.8103 32.2873 68.2877 33.4 68.7492C35.0753 69.4446 36.8043 70.1621 38.5018 70.7121C39.5923 71.0661 39.8231 71.0977 40.9515 70.8259C45.4527 69.7448 50.0076 67.6618 54.4077 65.6514C55.5678 65.1204 56.6646 64.6209 57.7646 64.1342L57.8215 64.1089L57.8816 64.1247C60.2776 64.8106 62.7558 65.3575 65.1518 65.8885C66.6469 66.2204 68.1926 66.5618 69.7035 66.9316C70.8636 67.2161 72.0584 67.5575 73.2122 67.8894C74.8938 68.3698 76.6355 68.8661 78.314 69.2043C78.9904 69.3403 79.3887 69.3908 79.5372 69.2581C79.6921 69.1221 79.6953 68.6986 79.6447 67.9621C79.553 66.5523 79.4582 65.1425 79.3634 63.7327C78.5984 52.4007 77.8082 40.6799 78.5542 29.1235L78.3993 28.6936C76.9737 28.2921 75.5197 27.8686 74.1162 27.4577C71.2808 26.6295 68.3506 25.7729 65.4552 25.049C65.1265 24.9668 64.7946 24.8815 64.4595 24.793C62.3859 24.2524 60.2428 23.6961 58.1439 23.9332L57.6571 25.1375L59.0132 24.9858L58.7413 30.7134L58.558 30.6881C58.1313 30.6312 57.8752 30.7703 57.7867 30.9062C57.7615 30.9442 57.7267 31.02 57.7709 31.0959C57.8342 31.1971 58.0365 31.2887 58.4252 31.2476C58.5201 31.2476 58.5896 31.2824 58.6339 31.3456C58.7382 31.491 58.6592 31.7249 58.656 31.7344C58.5359 32.0853 57.9543 32.3129 57.2178 32.6037C56.1462 33.0241 54.8154 33.5456 54.7838 34.5192C54.7712 34.8827 54.945 35.398 55.2264 35.5813C55.3528 35.6666 55.4919 35.6698 55.6468 35.5971C55.7163 35.5655 55.8017 35.5149 55.8206 35.4549C55.8459 35.3727 55.7637 35.2241 55.6847 35.0819C55.5393 34.8195 55.337 34.4592 55.6152 34.1083C55.8996 33.7448 56.6899 33.4635 57.4517 33.1885C57.8183 33.0557 58.1661 32.9324 58.3684 32.8249L58.6276 32.689L58.0933 46.4708L58.0112 46.5182C57.6097 46.7426 57.2557 47.0524 56.9839 47.4191C56.908 47.5202 56.7436 47.8426 56.5982 48.1271C56.2505 48.8036 56.2094 48.8668 56.1051 48.8984C55.7384 48.9995 55.4919 48.3958 55.2327 47.7573C55.1505 47.555 55.0652 47.3464 55.0146 47.2705C54.5341 46.5656 54.0157 46.5656 53.3582 46.5624C53.0769 46.5624 52.783 46.5624 52.4669 46.5055C52.1002 46.4423 51.7209 46.2211 51.3574 46.0061C50.9622 45.7722 50.5545 45.532 50.3079 45.6142C50.2163 45.6426 50.1436 45.7216 50.0803 45.8544C50.0835 46.1167 51.0413 46.5182 51.5059 46.7142C52.1318 46.9765 52.3309 47.0682 52.3404 47.2547V47.3053L52.3183 47.3464C52.0085 47.89 50.3332 49.009 49.7073 48.7277C49.5461 48.655 49.366 48.3547 48.9961 47.6846C48.8318 47.3874 48.6642 47.0808 48.5599 46.9512C48.4082 46.7584 48.2217 46.594 48.0289 46.4202C47.9056 46.3127 47.7855 46.2021 47.6717 46.0883L47.4441 45.8575L47.7634 45.8038C47.9688 45.769 48.2217 45.6805 48.2596 45.4529C48.3039 45.1874 48.0573 44.8302 47.7001 44.6374C47.6654 44.6185 47.5547 44.5837 47.4568 44.5552C47.0711 44.4351 46.6697 44.315 46.6475 44.0368C46.6286 43.8061 46.8909 43.6733 46.9763 43.6291C47.3746 43.4268 47.7823 43.5753 48.1427 43.7081C48.3861 43.7966 48.6168 43.882 48.7591 43.8156C48.8223 43.784 48.8792 43.7176 48.9266 43.6133C48.5662 43.1518 48.0478 42.9242 47.4599 42.9716C46.7361 43.0285 46.0501 43.5026 45.7151 44.1791L45.6108 44.3909L45.4464 44.2233C45.3041 44.0811 45.1745 43.9167 45.0513 43.7555C44.5803 43.1549 44.3084 42.861 43.6889 43.3098L43.5561 43.4047L43.455 43.275C43.2716 43.0411 43.6826 41.1604 43.8375 40.9897C43.9449 40.8727 45.6329 39.9055 45.7593 39.8675C45.9237 39.8201 46.0849 39.8075 46.2398 39.7948C46.4073 39.7822 46.5654 39.7696 46.7108 39.7127L46.8277 39.425C46.7993 39.3491 46.7582 39.2954 46.7013 39.2638C46.5211 39.1627 46.1829 39.2606 45.9142 39.3365L45.3421 39.4977L46.3978 38.1164L46.0596 37.8066C45.576 37.8698 45.2283 38.5937 44.9438 39.1785C44.7067 39.6684 44.5202 40.0572 44.2452 40.1299C44.1725 40.1489 44.0556 40.1552 43.9323 40.0667L43.8406 40.0035L44.3274 37.6328L45.3357 36.7034C45.3199 36.6845 45.301 36.6687 45.2852 36.6497C45.0576 36.4095 44.9849 36.3494 44.7763 36.4885L44.4602 36.7003L44.5171 36.3241C44.6087 35.7141 44.0872 35.1672 43.6004 34.712C43.534 35.0376 43.4898 35.4106 43.4423 35.8026C43.357 36.4916 43.2717 37.2029 43.0567 37.7086C42.9777 37.8983 42.8354 38.0152 42.7122 38.1195C42.5446 38.2586 42.4119 38.3693 42.3992 38.6411C42.3897 38.8402 42.4941 38.9414 42.6047 39.0457C42.69 39.1247 42.7754 39.2069 42.7975 39.3302C42.8354 39.5293 42.6584 40.5061 42.5352 40.6799C42.4814 40.7558 42.3613 40.8127 42.0262 40.9644C41.7544 41.0877 41.3782 41.2584 41.2455 41.3785C41.04 41.565 40.98 41.8463 40.9515 41.9822C40.9357 42.0644 40.9231 42.1118 40.8788 42.1561C40.7777 42.2541 40.6259 42.2414 40.4521 42.2288C40.1328 42.2066 39.8768 42.2098 39.6998 42.4595C39.3363 42.9779 39.6903 43.6164 40.0032 44.1822L40.1708 44.4889L40.0664 44.5774C39.9274 44.6943 39.7851 44.8081 39.6492 44.9219C38.0213 46.2527 36.7348 47.3021 37.7811 49.5653C38.2647 50.6085 39.2414 51.1869 40.686 51.2817L40.8662 51.2944L38.4386 69.4951L21.1134 62.8034L24.8307 47.6214L25.1562 47.9375C25.5893 48.3452 25.9749 48.7403 25.9686 49.0754C25.9654 49.284 25.8042 49.559 25.5387 49.9889C25.4028 50.2102 25.2605 50.4409 25.2068 50.5863C24.8054 51.7148 25.4629 52.2553 26.1583 52.8274C26.6703 53.2479 27.2045 53.6872 27.2583 54.3637C27.293 54.8157 27.0971 55.4384 26.9074 56.0421C26.781 56.4404 26.664 56.8166 26.6166 57.1169C26.4838 57.9703 26.37 59.5287 27.0781 60.3884C27.3879 60.7646 27.8336 60.9669 28.4025 60.989C28.687 61.0017 28.8798 60.9574 28.9747 60.8626C29.1011 60.7361 29.0916 60.4896 29.079 60.2019C29.0663 59.8795 29.0537 59.516 29.2339 59.1999C29.3761 58.9565 29.689 58.7542 29.9957 58.5614C30.1758 58.4476 30.3434 58.337 30.4635 58.2327C30.71 58.0114 30.8997 57.7238 31.0799 57.4456C31.2695 57.1548 31.4497 56.8798 31.6899 56.6806C31.9302 56.4815 32.1957 56.3582 32.4549 56.2413C32.7963 56.0864 33.1187 55.9378 33.4 55.6249C33.7161 55.274 33.8046 54.9358 33.8963 54.5818C33.9626 54.3352 34.029 54.0792 34.1744 53.82C34.3009 53.5956 34.4716 53.4533 34.6233 53.3269C34.9046 53.093 35.0879 52.9381 34.9489 52.3691C34.7782 51.6642 33.9626 51.3766 33.1756 51.0984C32.5655 50.8803 31.9871 50.678 31.7152 50.2766C31.6109 50.1217 31.535 49.9352 31.4623 49.7582C31.3802 49.5495 31.2916 49.3346 31.1589 49.1639C30.7543 48.6518 28.5163 47.615 27.881 47.5708C27.4637 47.5392 27.2488 47.6783 26.9801 47.8521C26.8315 47.9469 26.664 48.0544 26.4491 48.1429L26.3258 48.1935L26.2468 48.086C26.1551 47.9564 25.9433 47.7762 25.7442 47.6056C25.3617 47.2768 24.9982 46.9639 24.9792 46.6762C24.9571 46.3443 25.0867 45.9429 25.2226 45.5162C25.3427 45.1463 25.4628 44.7639 25.4628 44.4762V44.2391L25.6873 44.315C26.6198 44.6311 26.7873 44.2423 27.0655 43.5975C27.1698 43.3572 27.2867 43.0822 27.4606 42.8294C27.8525 42.2604 28.254 41.9411 28.8451 41.7262C29.0284 41.6598 29.2623 41.6155 29.5057 41.5681C29.9609 41.4796 30.5267 41.369 30.6373 41.1035C30.6942 40.9676 30.6373 40.7653 30.4635 40.5061L30.3781 40.3765L30.4982 40.2785C30.7227 40.0983 30.9819 40.3006 31.2316 40.4966C31.5161 40.7178 31.8353 40.9707 32.1577 40.8443C32.2431 40.8127 32.2905 40.7716 32.3063 40.7273C32.3474 40.5977 32.1767 40.3448 32.0629 40.1773C31.9807 40.0572 31.9175 39.9624 31.8922 39.877C31.8448 39.719 31.848 39.5641 31.848 39.425C31.848 39.3175 31.848 39.2164 31.829 39.1279C31.6836 38.4799 31.0767 37.8951 30.4919 37.3293C30.2296 37.0764 29.9798 36.8362 29.7807 36.596L29.6701 36.4632L29.806 36.3557C30.1695 36.0712 30.3402 35.7836 30.3307 35.4738C30.3117 34.7247 29.2433 33.9755 28.5385 33.4761L28.3867 33.3686L28.51 31.6238L28.785 32.0505C29.1612 32.6353 29.6353 32.7807 30.1821 32.9514C30.4003 33.0178 30.6278 33.0905 30.8649 33.1916C31.8322 33.6089 31.8227 34.2916 31.81 35.0092C31.8069 35.2747 31.8006 35.5497 31.8448 35.8342C31.9681 36.6465 32.4422 37.3799 33.0017 37.6169C33.3779 37.775 33.773 37.7086 34.1808 37.4178C34.3483 37.2977 34.4652 37.1238 34.5885 36.9437C34.7655 36.6845 34.9615 36.3937 35.3471 36.2103C35.698 36.046 36.0236 35.9701 36.3397 35.8974C36.8138 35.7899 37.2595 35.6888 37.7589 35.2873C38.3943 34.7784 38.448 34.456 38.5049 34.083C38.5397 33.8554 38.5808 33.5931 38.7641 33.2991C38.8779 33.1158 39.0802 32.9988 39.2762 32.885C39.4469 32.787 39.6239 32.6859 39.6713 32.5689C39.7756 32.316 39.8041 32.0189 39.2225 31.7502C38.5018 31.4183 34.8351 30.6186 33.9595 30.5649C33.6276 30.5459 33.2356 30.5712 32.8595 30.5933C32.6698 30.606 32.4865 30.6186 32.3126 30.6249C32.2968 30.6407 32.2178 30.7672 32.2304 30.8873C32.2368 30.9347 32.2589 31.0042 32.3759 31.039C34.0037 31.0295 35.5969 31.4183 37.1362 31.804C37.6452 31.9304 38.173 32.0632 38.6883 32.177L38.9095 32.2244L38.7989 32.4235C38.7041 32.591 38.5523 32.6922 38.4069 32.787C38.2868 32.866 38.1762 32.9387 38.1067 33.0431C37.9644 33.258 37.9265 33.4856 37.8885 33.7227C37.838 34.0451 37.7779 34.4117 37.4271 34.7373C36.9908 35.1419 36.4377 35.2684 35.9003 35.3885C35.5305 35.4707 35.1828 35.5528 34.8762 35.7141C34.5885 35.8689 34.3894 36.1155 34.1744 36.381C34.0069 36.5896 33.833 36.8046 33.6118 36.9784L33.558 37.0069C33.3842 37.0606 33.223 37.0353 33.0871 36.9373C32.6509 36.6212 32.5876 35.5908 32.5655 34.652C32.5623 34.4908 32.5592 34.3643 32.5497 34.2979C32.3853 32.983 31.7848 32.8218 30.9503 32.6005C30.6184 32.512 30.239 32.4109 29.8661 32.2212C29.5057 32.0379 29.4994 31.7913 29.5278 31.6617C29.6132 31.254 30.2327 30.9379 30.5362 30.9189C30.612 30.9157 30.7069 30.9315 30.8301 30.9568C31.0324 30.9948 31.3675 31.058 31.4876 30.9568C31.5287 30.9221 31.5477 30.8557 31.5414 30.7608C31.5287 30.4384 30.6089 30.2203 30.0589 30.0876C29.4393 29.939 29.139 29.86 29.0695 29.6577L29.0537 29.6134L30.1948 24.42L38.6883 26.7812L38.0055 25.5073C37.446 25.3367 36.8928 25.1533 36.3365 24.9731C35.7296 24.774 35.1259 24.578 34.5158 24.3915C34.2693 24.3157 33.9468 24.2145 33.5865 24.0976C32.2779 23.6772 30.4856 23.1019 29.6985 23.0418C29.0126 22.9912 27.587 23.4812 26.645 23.8068C26.4301 23.8826 26.2341 23.949 26.0698 24.0027C24.3786 24.5559 22.6844 25.2039 21.0438 25.8298C19.6309 26.3703 18.1705 26.9266 16.7165 27.4229C15.9579 27.6821 15.1107 27.916 14.213 28.1625C12.8981 28.5261 11.542 28.899 10.5084 29.3542C10.1133 29.5281 10.0722 29.6514 9.92994 30.0591L9.91097 30.1128C9.52533 31.2192 9.21872 32.6226 8.91843 33.9787C8.78883 34.573 8.6624 35.1514 8.5328 35.6793C7.54026 39.7632 6.57933 43.9262 5.65317 47.9533C4.36034 53.5671 3.0201 59.3738 1.57238 65.054C1.44594 65.5439 1.27525 66.0876 1.09192 66.6629C0.797949 67.5859 0.494497 68.5405 0.387025 69.296C0.326967 69.7132 0.37122 69.9946 0.50398 70.0673C0.826397 70.2411 2.46377 69.729 3.08016 69.5362C3.20975 69.4951 3.32039 69.4604 3.40257 69.4351C6.00403 68.6638 8.61182 67.6839 11.1343 66.7325C13.9791 65.6609 16.9188 64.5546 19.8838 63.739L19.9375 63.7264L19.9122 63.739ZM39.9368 69.8302C39.8357 69.8302 39.7662 69.8144 39.7314 69.7828L39.6682 69.7227L41.9567 51.5978L42.592 51.699L42.611 51.8191C42.6711 52.1763 42.8892 52.5967 43.101 53.0045C43.2875 53.3648 43.4645 53.7062 43.5403 54.0128C43.6288 54.3668 43.5877 54.724 43.5498 55.0686C43.5182 55.372 43.4834 55.6849 43.5372 55.9916C43.5814 56.2444 43.6984 56.4436 43.8248 56.6585C43.9102 56.8008 43.9987 56.9493 44.0619 57.1169C44.1314 57.2939 44.1599 57.4677 44.1883 57.6352C44.2452 57.9671 44.2895 58.2327 44.6087 58.4697C45.4559 59.1019 46.9384 58.495 47.5263 57.7775C47.7539 57.4993 47.8582 57.2054 47.9688 56.8956C48.0542 56.6522 48.1427 56.3993 48.2944 56.1591C48.424 55.9536 48.6105 55.7703 48.7875 55.5933C49.0183 55.3657 49.2585 55.1286 49.3754 54.8441C49.5841 54.3352 49.524 53.9306 49.4671 53.5418C49.4229 53.2384 49.3754 52.9254 49.4671 52.5935C49.5272 52.3723 49.8085 52.0562 50.2605 51.5631C50.5671 51.228 50.8832 50.8835 51.0128 50.6559C51.2657 50.2102 51.2625 50.0205 51.2594 49.7329C51.2594 49.578 51.2562 49.4041 51.291 49.1671C51.3352 48.8731 51.7019 48.6234 52.0907 48.3579C52.2677 48.2377 52.4321 48.1239 52.5301 48.0291C52.6091 47.9501 52.6818 47.8395 52.7545 47.7193C52.941 47.4191 53.1781 47.0461 53.668 47.1282C54.2338 47.2199 54.5025 47.7984 54.7649 48.3579C55.0272 48.9205 55.3022 49.5053 55.8554 49.657C56.4528 49.8214 56.6709 49.3947 56.9744 48.6803C57.1704 48.2219 57.3727 47.7478 57.7678 47.536L58.0301 47.3938L57.2683 62.816L57.1893 62.8635C53.9525 64.779 50.3427 66.2394 47.2134 67.4563C45.2789 68.2086 40.9705 69.8397 39.9305 69.8397L39.9368 69.8302ZM42.2475 51.9866L40.0348 69.5204C40.8535 69.4572 44.9438 67.9716 47.0964 67.1339C50.1878 65.9327 53.7502 64.4914 56.9459 62.6106L57.6635 48.0734C57.5149 48.2725 57.4011 48.5412 57.2873 48.8067C57.0155 49.4389 56.6804 50.226 55.7669 49.9763C55.062 49.7834 54.7427 49.0975 54.4614 48.4938C54.218 47.9691 54.0062 47.517 53.6174 47.4538C53.3582 47.4127 53.2318 47.5929 53.0422 47.8932C52.96 48.026 52.8746 48.1619 52.7671 48.2662C52.6502 48.3831 52.47 48.5033 52.2835 48.6329C52.0306 48.8036 51.6513 49.0628 51.6292 49.2113C51.5976 49.4231 51.6008 49.5748 51.6008 49.7234C51.6039 50.0268 51.6071 50.2924 51.31 50.8171C51.1614 51.0794 50.8295 51.4398 50.5134 51.7875C50.2131 52.1162 49.8401 52.524 49.7959 52.6789C49.7232 52.9412 49.7611 53.1941 49.8053 53.4881C49.8686 53.9053 49.9381 54.3763 49.6915 54.9706C49.5493 55.3183 49.2838 55.5775 49.0309 55.8303C48.8571 56.001 48.6927 56.1622 48.5852 56.3361C48.4525 56.5447 48.3734 56.7691 48.2912 57.0031C48.1774 57.3286 48.0573 57.6637 47.795 57.9861C47.0427 58.9091 45.3674 59.4496 44.4159 58.7384C43.9892 58.4192 43.9228 58.0304 43.8659 57.689C43.8406 57.5309 43.8153 57.3824 43.7584 57.2338C43.7047 57.0947 43.6288 56.9651 43.5467 56.826C43.4107 56.5953 43.2717 56.3582 43.2148 56.0453C43.1547 55.6913 43.1895 55.3562 43.2274 55.0275C43.2622 54.6956 43.2969 54.3826 43.2274 54.0887C43.161 53.8231 42.9935 53.4976 42.8165 53.1562C42.6142 52.7674 42.4087 52.3691 42.317 51.993L42.2601 51.9835L42.2475 51.9866ZM1.87899 68.6923L1.9517 68.4046C5.09684 56.0611 7.9575 43.4521 10.8561 30.5427L10.8782 30.4479L10.9731 30.4195C13.5334 29.6292 16.0843 28.6683 18.553 27.739C21.853 26.4967 25.2669 25.2102 28.7471 24.3125L29.0063 24.2461L27.9821 29.5534H27.8462C26.5913 29.5976 25.368 29.7272 25.4028 30.8209V30.8873L25.3617 30.9379C25.2447 31.0706 25.0867 30.9884 24.8243 30.8557C24.5746 30.7292 24.1605 30.5143 23.9709 30.6028C23.9519 30.6123 23.8887 30.6407 23.8571 30.7798C23.7907 31.0548 24.3312 31.2729 24.8085 31.4657C25.2669 31.6522 25.6968 31.8261 25.8738 32.1106L25.8991 32.1517V32.1991C25.8991 32.2939 25.8295 32.3445 25.7537 32.3982C25.6652 32.4614 25.4818 32.5942 25.4755 32.7175C25.4723 32.7775 25.5134 32.8439 25.5924 32.9198C25.8833 33.1853 26.0287 33.0747 26.2815 32.8407C26.4111 32.7206 26.5313 32.61 26.6893 32.6037C26.86 32.5974 26.9928 32.689 27.0591 32.8534C27.2014 33.2106 27.0054 34.0135 26.8948 34.1115C26.8189 34.1778 26.7177 34.1778 26.5913 34.1747C26.4554 34.1747 26.2815 34.1683 26.1709 34.2569C26.1235 34.2948 26.0729 34.4181 26.0287 34.5161C25.9781 34.6393 25.9243 34.7658 25.8422 34.8638C25.7126 35.0186 25.5514 35.1293 25.3965 35.2368C25.1436 35.4106 24.9223 35.5623 24.8528 35.8816C24.739 36.3905 25.1183 36.6971 25.4818 36.9942C25.7853 37.2408 26.0729 37.4747 26.0539 37.8129L26.0476 37.8477L24.739 42.8452C24.5462 43.098 24.2427 43.0317 23.9993 42.9748C23.895 42.9526 23.797 42.9337 23.718 42.9305C23.0763 42.9495 22.5643 43.3035 22.3493 43.8756C22.1249 44.4667 22.2829 45.1179 22.7666 45.5762L23.0605 45.8544L22.6559 45.867C21.4516 45.9113 21.2114 45.0294 20.9996 44.2518C20.9174 43.9515 20.8321 43.6417 20.6961 43.3983C20.5476 43.136 20.516 43.0949 20.241 43.1865C20.0639 43.2466 20.0576 43.3857 20.2188 43.8914C20.3042 44.157 20.3895 44.4351 20.3295 44.6627C20.2947 44.7986 20.1999 44.8302 20.1588 44.8366C20.0007 44.865 19.8901 44.7038 19.8237 44.6058C19.6404 44.3371 18.6289 42.2003 18.5751 41.9158C18.4677 41.3469 18.5404 40.8411 18.6131 40.3512C18.7458 39.4535 18.8501 38.7422 17.8197 37.9394C16.5585 36.9563 15.2941 37.5442 13.957 38.1638L13.8084 38.2333L13.7294 38.0911C13.5587 37.7529 13.3754 37.6928 12.9771 37.5917L12.5978 37.4968L12.9265 37.2882C13.3627 37.01 13.6282 36.8299 13.6535 36.6434C13.6725 36.4948 13.5555 36.283 13.2805 35.9733L13.2236 35.91L13.2395 35.8278C13.3343 35.3411 15.7208 34.8827 15.7429 34.8796C16.3783 34.8069 16.9378 34.8258 17.4814 34.848C18.3697 34.8796 19.2105 34.9112 20.2568 34.5129C20.3832 34.4655 20.5634 34.3612 20.7341 34.2569C21.0249 34.0862 21.2967 33.9281 21.4959 33.9123C21.7456 33.8933 22.0237 33.9945 22.3209 34.0988C22.5864 34.1905 22.8582 34.2885 23.089 34.2916H23.0985C23.6927 34.2916 24.483 33.8459 24.5809 33.2864C24.6947 32.6195 24.072 32.2244 23.6896 32.0505C22.6622 31.5795 21.0628 31.5953 20.4622 32.3224C20.1145 32.7459 20.3042 32.9893 20.4717 33.2074C20.5665 33.3307 20.6867 33.4856 20.5792 33.6436L20.5571 33.6784L20.5223 33.6974C19.476 34.279 18.3096 34.279 17.1812 34.2758C16.6059 34.2758 16.0084 34.2758 15.4426 34.3548C14.8421 34.4402 13.0087 35.0913 12.7463 35.4549C12.5188 35.7741 12.6136 35.9859 12.7147 36.2103C12.7811 36.3589 12.8538 36.5138 12.8096 36.6845C12.7653 36.8583 12.582 36.969 12.3702 37.0954C12.209 37.1934 12.0035 37.3167 11.9751 37.4241C11.9213 37.6169 11.9308 37.756 12.0035 37.854C12.1458 38.05 12.544 38.0879 12.8317 38.0974L12.955 38.1037L12.9897 38.2207C13.034 38.3756 13.0561 38.5652 12.8285 38.6443C12.7147 38.7296 12.5788 38.8055 12.4176 38.8971C12.1331 39.0552 11.7443 39.2764 11.6937 39.4851C11.6843 39.5198 11.6811 39.5767 11.738 39.6621C11.7696 39.6969 11.9245 39.7696 11.9846 39.7759C12.2279 39.8043 13.1225 39.3112 13.8432 38.9193C14.6303 38.4894 15.3731 38.0848 15.7682 38.0184C16.3403 37.8951 16.8904 38.0026 17.3108 38.3218C17.7217 38.6348 17.9714 39.1247 18.0062 39.7032C18.0251 40.0098 17.9556 40.3512 17.886 40.6862C17.826 40.9802 17.7691 41.2552 17.7754 41.486C17.7912 42.1687 18.0757 42.6365 18.3792 43.1296C18.5056 43.3414 18.6384 43.5564 18.7585 43.7998C18.847 43.9799 18.9134 44.1886 18.9797 44.3877C19.1568 44.9377 19.3243 45.4561 19.9091 45.5794C20.0956 45.6173 20.2378 45.5794 20.3737 45.5415C20.4907 45.5098 20.6013 45.4782 20.7214 45.5035C20.7815 45.5162 20.8384 45.5541 21.0438 45.7027C21.2367 45.8417 21.5306 46.0504 21.6982 46.1167C21.7898 46.1547 22.0143 46.2084 22.2513 46.2653C23.2123 46.4961 23.6674 46.632 23.7212 46.9038L23.7275 46.9418L19.9343 62.285L19.5803 62.5442C16.6501 63.4198 13.7389 64.5072 10.9225 65.5566C8.07446 66.6187 5.13161 67.7187 2.16348 68.6006L1.87899 68.6859V68.6923ZM11.1659 30.7103C8.29889 43.4868 5.46351 55.9726 2.35314 68.1991C5.2138 67.3362 8.05549 66.2741 10.8055 65.2468C13.6188 64.1974 16.5237 63.1132 19.4539 62.2344L19.6341 62.0954L23.3766 46.9639C23.2439 46.8564 22.5232 46.6857 22.1723 46.6004C21.9005 46.534 21.6855 46.4834 21.5717 46.4392C21.3663 46.357 21.066 46.1452 20.8479 45.9871C20.7625 45.9271 20.655 45.8512 20.6266 45.8354C20.6266 45.8354 20.5412 45.8544 20.4622 45.8765C20.3105 45.9176 20.105 45.9745 19.8395 45.9176C19.0619 45.7564 18.847 45.0863 18.6573 44.4983C18.5941 44.2992 18.534 44.1127 18.455 43.9547C18.3444 43.7271 18.2148 43.5153 18.0915 43.313C17.7817 42.8009 17.4593 42.273 17.4404 41.5018C17.434 41.2331 17.4973 40.9265 17.5573 40.6262C17.6205 40.3164 17.6869 39.994 17.6711 39.7316C17.6395 39.2512 17.4404 38.8497 17.1085 38.5968C16.7702 38.3376 16.3151 38.2555 15.8314 38.3566C15.4837 38.4135 14.7346 38.8244 14.0044 39.2227C12.9423 39.8043 12.2754 40.1552 11.9498 40.1204C11.8297 40.1078 11.5515 39.9971 11.4567 39.8581C11.3587 39.7127 11.3302 39.5641 11.365 39.4155C11.4504 39.0615 11.8929 38.8118 12.2501 38.6126C12.3702 38.5463 12.4871 38.4799 12.5567 38.4262C12.2374 38.3914 11.9055 38.3029 11.7317 38.0626C11.5989 37.8793 11.5705 37.6359 11.6495 37.3419C11.7159 37.1049 11.9687 36.95 12.1963 36.8141C12.2943 36.754 12.4619 36.6529 12.484 36.6054C12.4966 36.5517 12.4555 36.4569 12.4081 36.3557C12.2975 36.1123 12.13 35.7425 12.4713 35.262C12.8348 34.7563 14.8389 34.102 15.3952 34.0229C15.9832 33.9408 16.5932 33.9408 17.1812 33.9408C18.2685 33.9408 19.3053 33.9408 20.2441 33.4635C20.2315 33.4477 20.2188 33.4287 20.2062 33.416C20.0355 33.1979 19.6815 32.7428 20.2062 32.1106C20.9237 31.2413 22.6939 31.2223 23.835 31.7471C24.6347 32.1137 25.0298 32.6985 24.9192 33.3465C24.7927 34.0862 23.8602 34.6298 23.1048 34.6298H23.0921C22.8045 34.6298 22.5042 34.5224 22.2134 34.4181C21.951 34.3264 21.7013 34.2379 21.5243 34.2505C21.4042 34.26 21.1292 34.4212 20.9079 34.5477C20.7151 34.6615 20.5318 34.7689 20.38 34.8258C19.2705 35.2494 18.3981 35.2146 17.472 35.183C16.9441 35.164 16.3941 35.1419 15.7872 35.2146C15.3826 35.262 13.9918 35.6445 13.6377 35.8626C13.9191 36.2008 14.0265 36.4537 13.9949 36.6876C13.957 36.9595 13.7326 37.1586 13.4228 37.3704C13.6409 37.4526 13.8116 37.5695 13.957 37.7971C15.2909 37.1807 16.6628 36.6023 18.0346 37.6738C19.22 38.5968 19.0841 39.5135 18.9545 40.3986C18.8881 40.8601 18.8154 41.3405 18.9134 41.8526C18.945 42.0202 19.6119 43.4679 19.9407 44.1159C19.928 44.0748 19.9154 44.0337 19.9027 43.9926C19.7763 43.5943 19.6056 43.0475 20.1398 42.8673C20.6487 42.6966 20.8226 42.921 20.9964 43.234C21.1513 43.5121 21.243 43.844 21.3315 44.1633C21.5053 44.7955 21.6571 45.355 22.2608 45.4972C21.9036 44.982 21.8151 44.3466 22.0395 43.7555C22.3019 43.0633 22.9436 42.6176 23.7148 42.5923C23.8381 42.5891 23.9582 42.6176 24.0784 42.6429C24.268 42.684 24.3913 42.7092 24.4577 42.6555L25.722 37.7782C25.7189 37.6138 25.5008 37.4368 25.2732 37.2534C24.8686 36.9247 24.366 36.5169 24.5272 35.8057C24.6284 35.3569 24.9381 35.1419 25.21 34.9554C25.3522 34.8574 25.4881 34.7658 25.5861 34.6457C25.6367 34.5856 25.681 34.4813 25.722 34.3833C25.7853 34.2316 25.8516 34.0767 25.9686 33.985C26.1741 33.827 26.4301 33.8301 26.6008 33.8333C26.6229 33.8333 26.6482 33.8333 26.6672 33.8333C26.7304 33.6373 26.8347 33.1031 26.7367 32.9482C26.7304 32.9356 26.7241 32.9324 26.7051 32.9324C26.6703 32.9324 26.5692 33.0272 26.5123 33.081C26.2973 33.277 25.8991 33.6468 25.368 33.1632C25.2068 33.0178 25.131 32.8566 25.1404 32.6922C25.1531 32.452 25.3459 32.2781 25.4881 32.1706C25.3111 32.0221 24.9824 31.8893 24.6853 31.7692C24.0815 31.5258 23.3987 31.2476 23.5315 30.6913C23.5789 30.4922 23.6801 30.3594 23.835 30.2867C24.1763 30.1287 24.6442 30.372 24.9855 30.5459C25.0172 30.5617 25.0488 30.5775 25.0804 30.5933C25.21 29.3542 26.7557 29.2468 27.7071 29.2151L28.5795 24.6981C25.2068 25.5895 21.8878 26.8381 18.6763 28.0456C16.2329 28.9654 13.7073 29.9169 11.169 30.7039L11.1659 30.7103ZM78.3234 68.1897L58.4569 62.9362L58.9626 49.1323L58.9942 49.0912C59.1143 48.93 59.2597 48.9679 59.3008 48.9837C59.6422 49.1102 59.7813 50.1343 59.775 50.2291C59.7655 50.3809 59.7212 50.5073 59.677 50.6306C59.6233 50.7791 59.5758 50.9214 59.5916 51.0952C59.6485 51.6421 60.2776 52.4513 60.758 52.7547C61.2353 53.055 62.6262 53.6556 62.9549 53.4438C62.9739 53.4312 63.0244 53.3996 63.0023 53.2478C62.9739 53.0582 62.5598 52.8907 62.1615 52.7326C61.425 52.4386 60.5115 52.0688 60.3629 51.1174C60.3281 50.8961 60.3313 50.6559 60.3345 50.4251C60.3345 50.2228 60.3408 50.0142 60.3187 49.8309L60.2934 49.6191L60.5052 49.6444C61.2164 49.7266 61.9181 49.4294 62.1362 48.9553C62.2974 48.6044 62.1615 48.2156 61.7474 47.83L61.5514 47.6498L61.798 47.5487C63.5239 46.8501 64.2003 46.2558 63.9095 44.3751L63.8779 44.1633L64.0928 44.1822C65.0222 44.2581 65.1644 43.8219 65.3446 43.2687C65.4236 43.0285 65.5026 42.7788 65.6575 42.5702C65.8187 42.3584 66.0431 42.2635 66.2802 42.1656C66.6279 42.0202 66.9883 41.8716 67.2569 41.3121C67.2949 41.2299 67.3107 41.1098 67.3202 41.0055C67.3328 40.8854 67.3423 40.7874 67.3929 40.7147C67.4434 40.6357 67.5351 40.6009 67.6489 40.5535C67.7627 40.5092 67.9176 40.446 67.9587 40.3575C68.0946 40.0572 67.6932 39.6716 67.4087 39.5009C67.3834 39.4851 67.2822 39.4535 67.2095 39.4282C66.8682 39.3175 66.6406 39.229 66.59 39.0457C66.5679 38.9635 66.59 38.8782 66.65 38.8086C66.8808 38.5431 67.7753 38.3218 68.9196 38.0595C69.2294 37.9899 69.4949 37.9267 69.634 37.8856L69.7541 37.8477L70.0481 38.2839L69.9912 38.3756C69.8142 38.6632 69.7731 39.2701 69.9754 39.5673C70.067 39.7032 70.1935 39.7506 70.3673 39.719C70.6297 39.6716 70.6455 39.5325 70.6234 39.15C70.6139 39.0046 70.6044 38.856 70.6297 38.717C70.7435 38.0816 71.3156 38.0405 71.7803 38.0057C71.9857 37.9899 72.1785 37.9773 72.3303 37.9204C72.6685 37.7971 72.8961 37.5158 73.0952 37.2661C73.2501 37.0733 73.386 36.9057 73.5567 36.8267C73.7464 36.7382 73.9993 36.7034 74.2711 36.6687C74.8875 36.5865 75.2921 36.5043 75.3016 36.106C75.3079 35.831 75.1973 35.6666 74.9855 35.4612C74.2616 34.7626 72.482 34.4971 70.911 34.2632C70.1935 34.1557 69.517 34.0577 69.0176 33.9218C68.6952 33.8365 68.4549 33.6531 68.2242 33.4793C67.984 33.2991 67.7595 33.1284 67.4592 33.0841C66.7986 32.9862 66.334 33.1474 65.746 33.3465C65.6385 33.3844 65.5247 33.4224 65.4078 33.4603L65.1644 33.5393L65.1865 33.2864C65.215 32.9672 65.0569 32.7649 64.7092 32.6669C64.3836 32.5784 63.7293 32.5499 63.0971 32.5215C62.1678 32.4804 61.5862 32.4456 61.3428 32.3097C61.2448 32.256 61.1816 32.1422 61.0994 31.9936C61.0204 31.8514 60.9224 31.6775 60.8023 31.589C60.7201 31.529 60.5241 31.4626 60.3661 31.412C60.0816 31.3172 59.9235 31.2666 59.8856 31.1244L59.8793 31.0991L60.1322 25.0332L77.1507 29.6008L77.1634 29.7146C77.2045 30.0876 77.2266 30.4858 77.2234 30.9347C77.2203 32.1201 77.2139 33.3054 77.2076 34.4908C77.1792 40.5345 77.1507 46.7837 77.4542 52.9254C77.7134 58.1916 78.0358 63.4798 78.3171 67.9621L78.3329 68.196L78.3234 68.1897ZM58.8046 62.677L77.9568 67.744C77.6786 63.3123 77.3657 58.1126 77.1096 52.9381C76.8062 46.7869 76.8346 40.5313 76.8631 34.4844C76.8694 33.2991 76.8757 32.1169 76.8789 30.9284C76.8789 30.5364 76.8662 30.1856 76.8315 29.86L60.4419 25.4631L60.2112 30.9948C60.2744 31.0232 60.385 31.058 60.4641 31.0833C60.6632 31.1496 60.8687 31.216 60.9951 31.3109C61.1721 31.4436 61.2922 31.6522 61.3871 31.8229C61.425 31.8925 61.4819 31.9905 61.5072 32.0126C61.6937 32.1137 62.446 32.1485 63.1098 32.177C63.7609 32.2054 64.4342 32.237 64.7946 32.335C65.2087 32.4488 65.4615 32.708 65.5153 33.062C65.5564 33.0494 65.5943 33.0336 65.6354 33.0209C66.2423 32.8123 66.767 32.6321 67.5067 32.7428C67.8891 32.7997 68.161 33.0051 68.4233 33.2043C68.6383 33.3655 68.8437 33.5204 69.1029 33.5899C69.5834 33.7195 70.2535 33.8175 70.9584 33.9218C72.58 34.162 74.4197 34.437 75.2194 35.2115C75.4786 35.4643 75.6493 35.7109 75.6398 36.106C75.6208 36.8235 74.8654 36.9215 74.3154 36.9942C74.072 37.0259 73.8444 37.0575 73.7021 37.1238C73.601 37.1713 73.484 37.3167 73.3607 37.4684C73.1426 37.7371 72.874 38.0721 72.4472 38.227C72.2513 38.2966 72.0268 38.3155 71.8056 38.3313C71.3093 38.3661 71.028 38.404 70.9647 38.7644C70.9458 38.8655 70.9553 38.9888 70.9647 39.1184C70.9837 39.444 71.0153 39.9339 70.4337 40.0382C70.1303 40.092 69.8711 39.9908 69.7035 39.7474C69.438 39.3618 69.4633 38.6948 69.6561 38.2871L69.6182 38.2302C69.4633 38.2713 69.2452 38.3218 68.9986 38.3787C68.3854 38.5178 67.2886 38.7707 66.9725 38.9698C67.0673 39.0172 67.2285 39.071 67.317 39.0994C67.4466 39.1437 67.532 39.169 67.5857 39.2037C67.9555 39.425 68.5118 39.9466 68.2685 40.4871C68.1705 40.702 67.9334 40.7969 67.7753 40.8601C67.7437 40.8727 67.7026 40.8885 67.6774 40.9012C67.671 40.9328 67.6647 40.9897 67.6584 41.0339C67.6457 41.1604 67.6268 41.3184 67.5636 41.4512C67.238 42.1276 66.7796 42.3173 66.413 42.469C66.2012 42.5575 66.0368 42.6239 65.9325 42.7661C65.8124 42.9273 65.7429 43.1391 65.6701 43.3636C65.5026 43.8851 65.3066 44.5331 64.2793 44.5205C64.5069 46.3601 63.7704 47.0777 62.1647 47.7604C62.6736 48.3389 62.5693 48.832 62.4523 49.088C62.1963 49.6507 61.4661 50.0047 60.6822 49.9857C60.6885 50.1312 60.6853 50.2797 60.6822 50.4251C60.679 50.6527 60.6758 50.8645 60.7043 51.0573C60.8244 51.8191 61.6052 52.132 62.2974 52.4102C62.8285 52.6251 63.29 52.8085 63.3469 53.191C63.3911 53.4944 63.2647 53.6461 63.1509 53.7188C62.5155 54.1329 60.6095 53.0455 60.5905 53.0329C60.0247 52.6757 59.3356 51.7812 59.2661 51.1237C59.2408 50.874 59.3072 50.6812 59.3672 50.5105C59.4051 50.403 59.4399 50.3018 59.4462 50.2007C59.4526 50.1027 59.3767 49.7582 59.2945 49.5179L58.8109 62.677H58.8046ZM28.4879 60.3979L28.2445 60.341C26.7778 60.006 27.1445 57.9482 27.2836 57.1706C27.3626 56.7375 27.4985 56.3298 27.6313 55.9378C27.9758 54.9232 28.2729 54.0476 27.4479 53.0234C27.293 52.8306 27.0591 52.6599 26.8126 52.4829C26.2594 52.0846 25.6335 51.6294 25.8738 50.7918C25.9212 50.6274 26.86 48.7846 26.9801 48.6234C27.1729 48.3642 27.3847 48.2504 27.6913 48.2377C28.0928 48.2314 29.9609 49.0533 30.2232 49.2492C30.5488 49.4958 30.6721 49.8593 30.7827 50.1817C30.8459 50.3682 30.9092 50.5452 31.0008 50.6938C31.3359 51.2217 31.9175 51.4082 32.5371 51.6073C33.1598 51.8065 33.8046 52.0151 34.1713 52.5999L34.2187 52.6726L34.1871 52.7516C34.0891 52.995 33.9279 53.1688 33.773 53.3395C33.6434 53.4818 33.5201 53.6177 33.4316 53.7884C33.3494 53.9527 33.2988 54.1361 33.2451 54.3289C33.1598 54.6355 33.0713 54.9548 32.8405 55.2234C32.6003 55.5048 32.2431 55.6628 31.8985 55.8209C31.6362 55.9378 31.3896 56.0485 31.1968 56.2033C30.8997 56.4436 30.7322 56.7502 30.5709 57.0505C30.4445 57.2812 30.3276 57.5025 30.1537 57.6763C30.0051 57.8281 29.7934 57.9545 29.5689 58.0904C29.3097 58.2485 29.041 58.4097 28.8672 58.612C28.5005 59.0419 28.3583 59.5729 28.4531 60.1482L28.4942 60.3948L28.4879 60.3979ZM27.7071 48.5791H27.7008C27.4953 48.5886 27.3784 48.6518 27.2456 48.8288C27.1476 48.9679 26.2436 50.7381 26.193 50.8866C26.0192 51.4967 26.4775 51.8286 27.0054 52.2111C27.2583 52.3944 27.5206 52.5841 27.7071 52.8148C28.6491 53.9812 28.2919 55.0306 27.9474 56.0485C27.8178 56.4309 27.685 56.8229 27.6123 57.2306C27.4195 58.3054 27.312 59.5508 28.0801 59.9301C28.0485 59.358 28.2287 58.8332 28.6017 58.3939C28.8103 58.1505 29.1137 57.9671 29.3856 57.8028C29.5911 57.6795 29.7839 57.5625 29.904 57.4424C30.0431 57.3033 30.1505 57.1042 30.2643 56.8924C30.435 56.5795 30.6247 56.2255 30.9755 55.9441C31.2031 55.7608 31.4813 55.6375 31.75 55.5143C32.0756 55.3689 32.3853 55.2298 32.575 55.0053C32.7583 54.7936 32.831 54.5249 32.9101 54.2404C32.9669 54.0412 33.0238 53.8326 33.1218 53.6366C33.2293 53.4249 33.3747 53.2637 33.5138 53.1119C33.6339 52.9792 33.7477 52.8559 33.8267 52.7042C33.517 52.2774 32.9859 52.1067 32.4264 51.9266C31.7784 51.718 31.1083 51.503 30.71 50.874C30.5962 50.6938 30.5267 50.4883 30.4572 50.2924C30.3528 49.9889 30.2549 49.7044 30.0115 49.5211C29.7428 49.3156 27.9853 48.576 27.704 48.576L27.7071 48.5791ZM45.6455 58.0873C45.5128 58.0873 45.3674 58.0746 45.2093 58.0525L45.0766 58.0304L45.0671 57.8976C45.0386 57.5499 44.8079 57.0758 44.6024 56.6554C44.4191 56.2824 44.2484 55.9283 44.2041 55.6533C44.1662 55.4005 44.2263 55.176 44.2863 54.9579C44.3274 54.8094 44.3653 54.6703 44.3685 54.5312C44.3811 54.1108 43.455 51.6642 43.1768 51.3766C42.9777 51.1711 42.5383 50.9372 42.3012 50.953L42.0895 50.9688L42.8734 45.592L44.397 46.5245C44.849 46.594 45.2251 46.5182 45.5886 46.4455C46.2556 46.3096 46.8846 46.1831 47.6685 47.0492C47.9341 47.3432 48.1395 47.6941 48.3387 48.0323C48.8318 48.8668 49.2553 49.5906 50.4344 49.3283L50.6335 49.284V49.4895C50.6556 50.2955 50.1436 50.836 49.6473 51.3608C49.2111 51.8223 48.8002 52.2585 48.7559 52.8496C48.7401 53.0424 48.7559 53.2447 48.7749 53.4596C48.7938 53.6967 48.816 53.9401 48.7907 54.1772C48.7306 54.7872 48.4177 55.116 48.1142 55.4352C47.953 55.6059 47.7855 55.7798 47.6559 56.001C47.5358 56.2097 47.4346 56.4309 47.3398 56.649C47.0237 57.3539 46.7013 58.0841 45.6424 58.0841L45.6455 58.0873ZM45.3863 57.7332C46.4358 57.8534 46.6886 57.2875 47.0332 56.5163C47.1343 56.2918 47.2355 56.0611 47.3682 55.8367C47.5168 55.5806 47.697 55.391 47.874 55.2076C48.1616 54.9042 48.4114 54.6418 48.4588 54.1487C48.4777 53.9401 48.4588 53.722 48.443 53.4912C48.424 53.2731 48.405 53.0487 48.424 52.8274C48.4777 52.1194 48.9519 51.6168 49.4071 51.1332C49.8275 50.6875 50.2289 50.2639 50.2953 49.6981C49.0372 49.8783 48.5378 49.028 48.051 48.203C47.8614 47.8774 47.6622 47.5455 47.4188 47.2737C46.7645 46.5466 46.2998 46.6415 45.6582 46.7742C45.2725 46.8532 44.8395 46.9418 44.3084 46.8501L44.2484 46.828L43.1357 46.1452L42.4814 50.6274C42.8291 50.6906 43.2306 50.9467 43.4171 51.1395C43.7553 51.4872 44.7194 54.0318 44.7036 54.5375C44.6972 54.7177 44.653 54.8821 44.6119 55.0433C44.5613 55.2361 44.5107 55.4163 44.5392 55.5996C44.574 55.8209 44.7352 56.1528 44.9059 56.5036C45.1113 56.9209 45.3199 57.3508 45.3863 57.7301V57.7332ZM40.4647 50.6906C39.8072 50.6906 39.1877 50.422 38.723 49.9257C38.1351 49.2967 37.898 48.4211 38.0877 47.5771C38.3406 46.4613 40.5564 44.9377 41.6058 44.7512L41.8366 44.7101L40.9736 50.6401L40.8504 50.659C40.7208 50.678 40.5943 50.6906 40.4679 50.6906H40.4647ZM41.432 45.14C40.3573 45.4719 38.6029 46.8185 38.4164 47.6498C38.2521 48.3831 38.4575 49.1449 38.9696 49.6918C39.4184 50.1691 40.0348 50.403 40.6733 50.3398L41.432 45.14ZM60.935 49.0786C60.9003 49.0786 60.8655 49.0786 60.8307 49.0722C60.1164 48.9806 59.0416 47.8995 59.0037 47.4791C59.2376 44.9504 59.3008 42.371 59.3641 39.877C59.4241 37.4557 59.4873 34.9523 59.7054 32.5247C59.7149 32.4298 59.7339 32.2054 59.9014 32.1453C59.971 32.1201 60.0784 32.1201 60.208 32.2465L60.2523 32.2907V32.354C60.2681 32.5341 60.306 32.6669 60.3661 32.7522C60.5715 33.0367 61.956 33.141 62.8759 33.2106C63.5397 33.2612 64.1118 33.3022 64.4058 33.3939L64.5385 33.435L64.5259 33.5741C64.4848 33.9597 64.529 34.2189 64.6492 34.3043C64.8546 34.4497 65.3951 34.1936 65.8314 33.9882C66.2676 33.7827 66.6785 33.5899 66.9914 33.6215C67.1906 33.6405 67.3897 33.8175 67.6205 34.0198C67.8196 34.1936 68.0409 34.3896 68.2021 34.4149C68.9006 34.5477 69.6403 34.6488 70.3547 34.75C71.1702 34.8638 72.011 34.9807 72.7949 35.1419C73.3418 35.2526 74.2585 35.5023 74.2837 35.9195L74.2932 36.0618L74.1541 36.0934C74.0087 36.125 73.876 36.1439 73.7464 36.1597C73.5125 36.1882 73.3133 36.2135 73.0857 36.3336C72.836 36.4664 72.7127 36.6465 72.58 36.8394C72.3461 37.1839 72.1058 37.5442 71.2145 37.4684C69.5708 37.3325 68.7521 37.3925 67.1337 38.0089C66.2897 38.3313 65.7871 38.7106 65.7871 39.0299C65.7871 39.3049 66.1727 39.602 66.8745 39.8707L67.0768 39.9466L66.9503 40.1236C66.8302 40.2943 66.7733 40.5092 66.7133 40.7368C66.6279 41.0592 66.5394 41.3943 66.2518 41.6282C66.0558 41.7862 65.8472 41.8621 65.6638 41.9285C65.3604 42.0391 65.1201 42.1276 64.9368 42.548C64.9052 42.6176 64.8862 42.7282 64.8641 42.842C64.8072 43.1328 64.7408 43.4932 64.4184 43.5659C64.175 43.6228 63.9506 43.4394 63.6946 43.2308C63.4196 43.0032 63.1098 42.7472 62.7463 42.7756C62.5535 42.7914 62.4839 42.8357 62.4776 42.8578C62.427 42.9779 62.7905 43.3888 62.9264 43.5406C63.1066 43.7429 63.2014 43.8567 63.2267 43.961C63.2868 44.217 63.2425 44.4256 63.2046 44.6121C63.1825 44.7133 63.1635 44.8081 63.1635 44.8998C63.1635 45.0357 63.1888 45.1495 63.2109 45.2601C63.2741 45.5667 63.3342 45.8607 62.8474 46.2874C62.5282 46.5656 62.1109 46.7331 61.7442 46.8785C61.3333 47.0429 60.9445 47.1978 60.8908 47.4412C60.8402 47.6656 61.033 48.0228 61.4692 48.5064L61.5388 48.5823L61.504 48.6771C61.406 48.9426 61.21 49.0849 60.9445 49.0849L60.935 49.0786ZM60.0184 32.8186C59.8224 35.1514 59.7592 37.5537 59.7023 39.8833C59.6391 42.3837 59.5727 44.9693 59.3388 47.4791C59.3577 47.6719 60.2776 48.6582 60.875 48.7372C61.0014 48.753 61.0804 48.7245 61.1373 48.6392C60.6632 48.0987 60.4799 47.6877 60.5557 47.3558C60.6506 46.9386 61.1184 46.7521 61.6146 46.5561C61.975 46.4139 62.348 46.2653 62.623 46.0251C62.9644 45.7279 62.9359 45.592 62.879 45.3233C62.8537 45.2032 62.8253 45.0641 62.8253 44.8935C62.8253 44.767 62.8506 44.6501 62.8727 44.5363C62.9075 44.3719 62.9391 44.217 62.898 44.0305C62.8822 43.9926 62.7621 43.8598 62.6736 43.7587C62.3764 43.4236 62.0382 43.0411 62.1647 42.725C62.269 42.469 62.6103 42.4406 62.721 42.4311C63.2141 42.3931 63.5997 42.7092 63.9095 42.9621C64.0644 43.0917 64.2572 43.2466 64.3426 43.2308C64.45 43.2055 64.4943 42.9653 64.5322 42.7725C64.5575 42.6397 64.5828 42.5133 64.627 42.4089C64.8673 41.8558 65.2276 41.723 65.5469 41.6061C65.7207 41.5428 65.8851 41.4828 66.0368 41.3595C66.2391 41.1983 66.3087 40.9296 66.3845 40.6451C66.4319 40.465 66.4825 40.2785 66.5647 40.1078C65.8219 39.7948 65.4457 39.4313 65.4457 39.0267C65.4457 38.4167 66.296 37.9615 67.0104 37.6896C68.6762 37.0543 69.5676 36.9911 71.2397 37.1302C71.9288 37.1871 72.0869 36.9595 72.2987 36.6465C72.4409 36.4379 72.599 36.2008 72.9245 36.0301C73.209 35.8816 73.4587 35.85 73.7021 35.8184C73.7306 35.8152 73.759 35.812 73.7875 35.8089C73.5789 35.6983 73.1837 35.5592 72.7286 35.4675C71.9541 35.3095 71.1165 35.1925 70.3073 35.0819C69.5866 34.9807 68.8437 34.8764 68.1452 34.7468C67.8923 34.7089 67.6394 34.4876 67.396 34.2727C67.2411 34.1367 67.0483 33.966 66.9567 33.9566C66.7354 33.9344 66.3466 34.1178 65.9736 34.2916C65.4046 34.5603 64.8199 34.8385 64.4532 34.5761C64.2414 34.4275 64.1529 34.1336 64.1782 33.6816C63.8842 33.6215 63.3816 33.5836 62.8537 33.5456C61.3681 33.435 60.3724 33.3339 60.0974 32.9482C60.0689 32.9103 60.0468 32.8692 60.0247 32.8218L60.0184 32.8186ZM44.9122 45.9777C44.751 45.9777 44.5866 45.9524 44.4128 45.8892C44.2705 45.8354 43.4202 45.14 43.3602 45.0831C43.3412 45.0673 43.3254 45.0547 43.3096 45.0389C43.2179 44.9662 43.082 44.8524 43.1294 44.6027L43.1515 44.4825L43.2748 44.4667C43.3854 44.4541 43.5024 44.4541 43.6162 44.4572C43.7774 44.4572 43.9291 44.4636 44.0492 44.4225C44.0935 44.4067 44.1346 44.3561 44.182 44.3024C44.2705 44.198 44.4064 44.0337 44.6498 44.0874L44.7478 44.1095L44.7763 44.2044C44.9628 44.8113 45.1303 45.0578 45.6329 44.9219C45.6929 44.9061 45.7593 44.8524 45.8257 44.8018C45.9332 44.7164 46.0596 44.6153 46.2208 44.6374C46.3441 44.6532 47.4062 45.1716 47.5073 45.4877C47.5358 45.5762 47.5136 45.6647 47.4473 45.7279L47.4188 45.7564L47.3809 45.769C47.1375 45.8386 46.8878 45.7943 46.6697 45.7532C46.5338 45.7279 46.4073 45.7058 46.2998 45.7121C46.1039 45.7248 45.911 45.7785 45.7056 45.8386C45.4527 45.9113 45.1935 45.984 44.9185 45.984L44.9122 45.9777ZM43.5403 44.7955C43.5403 44.7955 43.5719 44.8208 43.5877 44.8334C43.7268 44.9598 44.4412 45.5256 44.5424 45.5762C44.9027 45.7058 45.2472 45.611 45.6108 45.5098C45.8225 45.4498 46.0438 45.3897 46.2746 45.3739C46.4231 45.3644 46.578 45.3929 46.7266 45.4182C46.834 45.4371 46.9415 45.4561 47.0458 45.4624C46.7898 45.2728 46.2777 44.9978 46.1671 44.9693C46.1544 44.9693 46.0786 45.0294 46.0375 45.0641C45.9521 45.1337 45.851 45.2127 45.7246 45.2475C44.9217 45.4687 44.6435 44.8808 44.5044 44.4541C44.4886 44.4699 44.4697 44.492 44.4444 44.5205C44.378 44.5995 44.2958 44.6975 44.163 44.7417C43.986 44.8018 43.7964 44.7986 43.613 44.7955C43.5909 44.7955 43.5656 44.7955 43.5435 44.7955H43.5403ZM24.0341 45.6774L23.8508 45.5857C23.0416 45.1906 22.7444 44.4699 22.9246 44.0021C23.0668 43.6354 23.5315 43.3351 24.4134 43.5911L24.5715 43.6354L24.0373 45.6742L24.0341 45.6774ZM23.8033 43.8345C23.5157 43.8345 23.3102 43.9325 23.2375 44.1253C23.1269 44.413 23.3197 44.8713 23.8128 45.1843L24.1542 43.8788C24.0278 43.8503 23.9077 43.8377 23.8002 43.8377L23.8033 43.8345ZM41.3087 44.1064C41.119 44.1064 40.9294 44.059 40.7619 43.9799C40.3383 43.7776 39.9937 43.3319 40.1834 42.7977L40.1992 42.7503L40.2403 42.7187C40.3383 42.6429 40.4679 42.665 40.6291 42.6934C40.8535 42.7345 41.1348 42.7819 41.3371 42.6176C41.4225 42.548 41.4478 42.3963 41.4731 42.2383C41.5205 41.9474 41.59 41.5112 42.1874 41.5049H42.2601L42.3107 41.5555C42.5162 41.7673 42.1242 43.607 42.061 43.7081C41.884 43.9926 41.5995 44.1064 41.3119 44.1064H41.3087ZM40.4742 43.0127C40.4236 43.3225 40.667 43.5627 40.9073 43.6765C41.1949 43.8124 41.5869 43.8282 41.7702 43.5311C41.8492 43.3794 42.0168 42.2667 42.0326 41.8589C41.8713 41.9032 41.8429 42.0391 41.8018 42.292C41.7702 42.4975 41.7323 42.7282 41.5458 42.8799C41.2234 43.1423 40.8124 43.0696 40.5659 43.0285C40.5374 43.0222 40.5027 43.0159 40.471 43.0127H40.4742ZM26.0603 43.7271H26.0508C25.956 43.7239 25.9022 43.6607 25.858 43.6101C25.8422 43.5911 25.82 43.5659 25.7916 43.5406L25.7189 43.471L27.1445 38.1006L27.2583 38.0879C27.4258 38.0658 27.6407 38.0152 27.7134 37.8919C27.7988 37.7465 27.7008 37.4968 27.6186 37.2945C27.5554 37.1365 27.5048 37.01 27.5206 36.8962C27.5459 36.7224 27.6787 36.5612 27.881 36.46C28.1497 36.3273 28.4658 36.3178 28.6902 36.4379C28.9209 36.5612 29.9893 37.6264 30.1632 37.8224C30.5551 38.2618 30.8776 38.758 31.1178 39.1437L31.1431 39.1848V39.2354C31.1368 39.4946 30.827 39.5356 30.435 39.5894C30.1063 39.6336 29.6606 39.6969 29.5025 39.8833C29.3508 40.0667 29.3919 40.1204 29.5278 40.3006C29.6132 40.4144 29.7207 40.5566 29.7523 40.7526L29.7775 40.917L29.6132 40.9454C28.785 41.0908 27.6913 41.486 27.1097 42.1687C26.9517 42.3552 26.8284 42.6239 26.7083 42.8831C26.5818 43.1613 26.4617 43.4236 26.2973 43.5817C26.2278 43.648 26.1519 43.7207 26.0539 43.7207L26.0603 43.7271ZM27.4132 38.4072L26.1172 43.294C26.2152 43.1707 26.31 42.9653 26.408 42.7503C26.5376 42.469 26.6703 42.1782 26.86 41.9569C27.568 41.1256 28.7913 40.7811 29.3666 40.6609C29.3382 40.6104 29.3002 40.563 29.2655 40.5155C29.1232 40.3259 28.9304 40.0698 29.2528 39.681C29.4931 39.3902 29.9957 39.3239 30.3971 39.267C30.5172 39.2512 30.6658 39.229 30.7606 39.2069C30.5393 38.8529 30.2517 38.4293 29.9198 38.0563C29.6985 37.8066 28.6933 36.8267 28.5353 36.7445C28.412 36.6781 28.2002 36.6876 28.0359 36.7698C27.9347 36.8204 27.8683 36.8899 27.8589 36.9531C27.8589 36.9848 27.9031 37.0954 27.9347 37.1776C28.0359 37.4336 28.1749 37.7845 28.0043 38.0721C27.8999 38.246 27.7071 38.3598 27.4132 38.4135V38.4072ZM26.0223 36.754C25.9812 36.754 25.9402 36.7414 25.9054 36.7192L25.8738 36.6971L25.4281 35.9543L26.506 35.0218L26.5597 35.3095C26.5913 35.4801 26.4017 36.5422 26.1456 36.7161C26.1077 36.7414 26.0634 36.754 26.0192 36.754H26.0223ZM25.8643 36.027L26.0287 36.2988C26.0824 36.1566 26.1393 35.9448 26.1804 35.752L25.8675 36.0238L25.8643 36.027ZM29.5626 35.8531L27.6502 35.7836L27.979 34.083L28.0169 34.0451C28.0612 34.0008 28.1244 33.9819 28.1908 33.9882C28.4847 34.0198 29.2686 34.8037 29.354 34.927C29.5152 35.1609 29.6069 35.3727 29.5784 35.6919L29.5626 35.85V35.8531ZM28.0548 35.4612L29.2402 35.5054C29.2244 35.3663 29.1675 35.2589 29.0727 35.1198C29 35.0123 28.51 34.554 28.2603 34.3865L28.0517 35.4612H28.0548ZM23.1206 33.7195C23.1206 33.7195 23.089 33.7195 23.0732 33.7195C23.0574 33.7195 21.2398 33.2612 21.1102 33.0683C21.0059 32.9135 21.0122 32.7649 21.0186 32.6321L21.0249 32.5215L21.1292 32.4804C21.9858 32.1517 23.1143 32.3761 23.8729 33.0272L23.9993 33.1347L23.895 33.2612C23.7117 33.4824 23.4873 33.7163 23.1237 33.7163L23.1206 33.7195ZM21.3757 32.8534C21.6065 32.964 22.9341 33.3655 23.0921 33.3813C23.2597 33.3908 23.3798 33.3181 23.5157 33.179C22.8867 32.7143 22.0364 32.5468 21.3536 32.7617C21.3536 32.7997 21.3599 32.8281 21.3757 32.8566V32.8534ZM27.1729 31.9367C27.0496 31.9367 26.9801 31.8767 26.9169 31.8071C26.9042 31.7945 26.8916 31.7818 26.879 31.766C26.7968 31.687 26.7146 31.6048 26.6324 31.5226C26.4364 31.3267 26.2531 31.1402 26.0318 30.9853L25.8959 30.8904L25.9907 30.7545C26.3479 30.233 27.0149 30.0307 27.6123 30.2583L27.7482 30.3088L27.4132 31.8861L27.3152 31.9146C27.2614 31.9304 27.2172 31.9367 27.1761 31.9367H27.1729ZM26.37 30.8177C26.5534 30.9631 26.7146 31.1275 26.8726 31.2856C26.9517 31.3646 27.0307 31.4436 27.1097 31.5195C27.1192 31.529 27.1287 31.5384 27.1382 31.5479L27.3531 30.5301C26.9928 30.4447 26.6166 30.5554 26.3669 30.8177H26.37Z" fill="black"/>
<path d="M53.5446 9.97134C51.9356 8.59632 48.1615 7.76499 46.0879 8.05896C43.7014 8.3877 41.1916 9.98398 39.9493 12.0291C35.7358 18.9358 41.0335 27.3787 45.2976 32.8724C45.6643 33.3339 47.6367 35.8817 47.9275 35.9923C48.2184 36.1029 48.3796 36.0776 48.6324 35.9322C49.0592 35.6888 50.8008 32.8029 51.177 32.1928C54.9638 25.9689 60.6535 16.0878 53.5414 9.9745L53.5446 9.97134ZM47.9623 33.3466L45.3925 30.2646C45.2344 29.2784 44.3209 28.4376 43.7488 27.5715C41.7637 24.5876 39.3013 19.9441 39.924 16.2774C40.4234 13.2429 41.9597 10.7837 44.931 9.6995C46.7232 9.04202 49.998 9.39605 51.6796 10.3222C52.1063 10.553 51.9609 10.7616 52.1537 10.9923C52.3371 11.2009 52.9819 11.5771 53.2127 11.7952C57.6348 16.0467 54.4201 21.9419 52.0905 26.3514C50.823 28.7379 49.3753 31.0422 47.9592 33.3434L47.9623 33.3466Z" fill="black"/>
<path d="M53.2151 11.7984C52.9843 11.5803 52.3395 11.201 52.1561 10.9955C51.9602 10.7648 52.1087 10.5562 51.682 10.3254C50.0004 9.39925 46.7256 9.04523 44.9334 9.70271C41.9621 10.7869 40.4258 13.2461 39.9264 16.2806C39.3037 19.9473 41.7661 24.5876 43.7512 27.5747C44.3233 28.4408 45.2368 29.2816 45.3949 30.2679L47.9647 33.3498C49.3777 31.0486 50.8285 28.7443 52.0961 26.3578C54.4225 21.9482 57.6404 16.0531 53.2182 11.8016L53.2151 11.7984ZM46.5644 13.0628C52.3742 12.1746 53.0823 21.0284 47.636 21.5183C42.275 22.0178 41.6428 13.8056 46.5644 13.0628ZM49.9403 28.3175C49.7823 28.5609 49.5009 29.1836 49.1596 29.0477C49.1121 29.0224 49.0015 28.915 48.9889 28.8517C48.9415 28.5831 49.7823 27.5968 49.9877 27.2934C50.4145 26.6233 50.9265 25.577 51.388 25.0144C51.486 24.8911 51.5334 24.7583 51.7168 24.7962C51.8622 24.929 50.1584 27.9762 49.9372 28.3175H49.9403ZM52.6935 24.0534C52.6334 24.006 52.9843 22.6278 53.4616 22.8238C53.5596 22.9218 53.1455 24.3474 52.6935 24.0534ZM54.2171 17.4755C53.8283 17.172 53.999 16.66 53.9136 16.2459C53.5975 14.6022 52.8041 13.126 51.5145 12.0545C51.3912 11.9565 51.0024 11.7731 50.9771 11.751C50.563 11.0809 51.8179 11.7889 52.0139 11.9343C53.5375 13.0565 54.4383 15.1395 54.3656 17.0266C54.353 17.21 54.4036 17.3554 54.2202 17.4786L54.2171 17.4755Z" fill="#FEEC01"/>
<path d="M10.1419 18.2687C10.2241 18.1739 11.7381 17.7472 12.089 17.5607C12.8065 17.1814 13.0626 16.7641 13.2902 15.996C13.4419 15.4808 13.4451 14.4314 13.581 14.1184C13.6885 13.8687 14.0709 13.7138 14.2922 13.9288C14.6652 14.2859 14.5514 16.0245 15.2911 16.8937C16.1034 17.8452 17.2414 17.5702 17.9937 18.0254C19.0652 18.6765 16.7704 18.9768 16.4859 19.0779C15.6261 19.3751 15.2436 19.8303 14.9781 20.6805C14.8169 21.2053 14.8422 22.6941 14.2258 22.6625C13.7011 22.634 13.7422 21.613 13.6158 21.2306C13.3913 20.5415 13.0341 19.8176 12.3514 19.4762C11.8709 19.236 9.44014 19.0969 10.1419 18.2687Z" fill="black"/>
<path d="M14.2413 22.83C14.2413 22.83 14.2192 22.83 14.2097 22.83C13.6881 22.8016 13.5901 22.1473 13.5206 21.6668C13.4985 21.5151 13.4763 21.3697 13.4479 21.2811C13.1666 20.4119 12.7904 19.8872 12.2689 19.628C12.1551 19.5711 11.8769 19.5142 11.5798 19.451C10.8464 19.2992 10.0119 19.1254 9.86338 18.6892C9.82228 18.5722 9.81596 18.3857 10.0056 18.1613C10.0688 18.0886 10.189 18.0412 10.9444 17.7915C11.3648 17.6524 11.839 17.4975 12.0033 17.4121C12.6956 17.0455 12.9137 16.6472 13.1223 15.9486C13.1919 15.7084 13.2298 15.3354 13.2677 14.9751C13.3088 14.5768 13.3436 14.2322 13.4194 14.0521C13.5016 13.8624 13.6913 13.7138 13.9062 13.6696C14.0927 13.6316 14.2761 13.6822 14.4057 13.8055C14.6016 13.9952 14.6743 14.3998 14.766 14.915C14.8766 15.5377 15.0157 16.3153 15.414 16.7831C15.8755 17.3236 16.4571 17.4374 17.0198 17.5449C17.3991 17.6176 17.7594 17.6903 18.0724 17.88C18.3442 18.0443 18.4643 18.2245 18.4327 18.411C18.3663 18.8093 17.6298 18.9958 16.8143 19.1696C16.6815 19.1981 16.5772 19.2202 16.533 19.236C15.7554 19.5047 15.3887 19.8967 15.1327 20.728C15.0916 20.8576 15.0631 21.0725 15.0315 21.297C14.9367 21.9797 14.8166 22.8269 14.2413 22.8269V22.83ZM10.2522 18.3952C10.189 18.4711 10.1668 18.5343 10.1826 18.5817C10.268 18.8346 11.1341 19.0147 11.6493 19.1222C11.9939 19.1949 12.2689 19.2518 12.4206 19.3277C13.2203 19.726 13.5743 20.5763 13.7703 21.18C13.8082 21.297 13.8304 21.4518 13.8557 21.6194C13.9094 21.9829 13.9821 22.4823 14.2286 22.495C14.5226 22.5139 14.6301 21.7553 14.6996 21.2559C14.7344 21.0061 14.766 20.788 14.8134 20.6332C15.1042 19.6912 15.5404 19.2265 16.4255 18.9199C16.4792 18.901 16.5962 18.8757 16.7479 18.8441C17.8385 18.6133 18.0882 18.4521 18.104 18.3604C18.104 18.3478 18.0755 18.2782 17.9017 18.1739C17.6393 18.0127 17.3074 17.9495 16.9597 17.8831C16.3686 17.7693 15.6985 17.6366 15.1611 17.0075C14.7028 16.4702 14.5542 15.6452 14.4373 14.9814C14.3646 14.5799 14.2919 14.169 14.1749 14.0552C14.1117 13.9952 14.0327 13.9952 13.9758 14.0078C13.8715 14.0299 13.7703 14.1058 13.7324 14.1911C13.6755 14.3239 13.6407 14.6748 13.6059 15.013C13.568 15.3891 13.5301 15.7779 13.4511 16.0466C13.2266 16.8052 12.9579 17.2952 12.1677 17.7124C11.9781 17.8136 11.5102 17.9653 11.0551 18.1139C10.739 18.2182 10.347 18.3478 10.2553 18.3952H10.2522Z" fill="black"/>
<path d="M40.2638 38.7548C41.3038 38.3629 42.2647 40.6862 40.9719 41.0276C39.9604 41.2931 39.0216 40.3859 39.7612 40.1077C40.1879 39.9465 40.4471 40.4365 40.6874 40.114C40.719 39.8454 39.5842 39.014 40.267 38.758L40.2638 38.7548Z" fill="black"/>
<path d="M50.9055 36.9152L52.0909 35.0154C52.3595 34.8985 52.8621 34.8922 53.0866 34.7341C53.2541 34.6172 53.2225 34.1778 53.5481 34.064C54.4268 33.7574 54.5122 34.7499 54.0159 35.2525C53.4943 35.7804 52.5776 35.7298 51.9549 36.0175C51.5219 36.2198 51.2753 36.6433 50.9023 36.9152H50.9055Z" fill="black"/>
<path d="M50.3868 41.8465C50.646 41.7833 50.9842 41.8054 51.0791 42.1025C51.2087 42.5135 50.7977 42.5925 50.8072 42.8454C50.823 43.2247 51.844 44.0781 51.0949 44.3342C49.8526 44.7641 49.094 42.1658 50.3868 41.8433V41.8465Z" fill="black"/>
<path d="M7.93178 23.4561C9.18352 23.1495 9.65134 25.2736 8.08034 25.2167C7.04355 25.1788 7.00878 23.6837 7.93178 23.4561Z" fill="black"/>
<path d="M8.14535 25.3842C8.12322 25.3842 8.10109 25.3842 8.07897 25.3842C7.47206 25.362 7.15597 24.91 7.11172 24.4675C7.06114 23.9902 7.31718 23.4307 7.89563 23.2885C8.32552 23.1842 8.7238 23.3169 8.98932 23.652C9.26749 24.0028 9.3307 24.4865 9.14421 24.8531C9.04306 25.0554 8.7807 25.3842 8.14851 25.3842H8.14535ZM7.9715 23.6204C7.56057 23.7215 7.40885 24.1135 7.44362 24.4359C7.47206 24.7204 7.65856 25.0333 8.08845 25.0491C8.45828 25.0618 8.72064 24.9448 8.84076 24.7046C8.96719 24.4549 8.91662 24.1103 8.7238 23.8638C8.61633 23.731 8.37926 23.5192 7.97466 23.6204H7.9715Z" fill="black"/>
<path d="M22.2423 16.2806C23.6774 15.9013 23.9081 17.7093 22.7828 17.9749C21.6575 18.2404 21.2592 16.543 22.2423 16.2806Z" fill="black"/>
<path d="M22.5357 18.171C21.9983 18.171 21.6475 17.7695 21.54 17.3428C21.4167 16.8528 21.6032 16.2744 22.1912 16.1163C22.8423 15.9456 23.209 16.1954 23.367 16.3597C23.6231 16.6221 23.7179 17.0267 23.6104 17.3965C23.4998 17.7727 23.209 18.0445 22.8139 18.1362C22.7159 18.1583 22.6242 18.171 22.5357 18.171ZM22.6084 16.3977C22.5073 16.3977 22.3966 16.4135 22.2797 16.4451C21.8846 16.5494 21.7897 16.9413 21.8687 17.2638C21.9573 17.6178 22.2607 17.9244 22.738 17.8106C23.013 17.7474 23.2122 17.5609 23.288 17.3049C23.3607 17.0488 23.3007 16.7738 23.13 16.5968C23.0035 16.4672 22.8234 16.4008 22.6084 16.4008V16.3977Z" fill="black"/>
<path d="M37.5235 36.6374C37.7195 36.571 39.0629 36.6247 39.2683 36.6816C39.6287 36.7796 39.5591 37.5098 38.9744 37.5604C38.7847 37.5762 38.595 37.4655 38.418 37.4719C38.0356 37.4813 37.631 37.6615 37.3022 37.4086C37.0146 37.1842 37.2548 36.7322 37.5235 36.6405V36.6374Z" fill="black"/>
<path d="M26.8363 45.4657C28.2998 44.9758 29.2165 46.4298 27.282 46.3223C26.5013 46.2781 26.2452 45.6648 26.8363 45.4657Z" fill="black"/>
<path d="M29.564 46.9861C29.21 47.3433 28.5051 47.0082 28.8433 46.4772C29.1089 46.06 29.9497 46.5973 29.564 46.9861Z" fill="black"/>
<path d="M66.2756 53.9591C66.99 53.8675 67.4704 54.6166 67.9762 54.977C68.3523 55.0623 68.523 54.1836 69.2817 54.6008C69.6167 54.7841 70.6598 56.8925 71.0423 57.3224C71.3616 58.0336 70.1478 60.5687 69.5567 60.7741C68.1153 61.2767 67.5431 59.5287 66.5506 59.3802C65.3399 59.2 63.0483 60.9606 62.5962 58.7827C62.5362 58.4983 62.3276 57.354 62.3244 57.1296C62.3054 56.0011 63.7848 55.941 64.5055 55.4258C65.0776 55.0149 65.5264 54.0571 66.2787 53.9591H66.2756ZM63.7247 58.7764C64.025 59.102 65.577 58.4414 66.0923 58.4003C67.6063 58.2738 68.6242 59.8575 69.0161 59.8448C69.3954 59.8322 70.0308 58.0905 69.996 57.7617C69.9613 57.4583 69.0256 55.7703 68.8138 55.6692C68.6431 55.587 68.4598 55.8367 68.2133 55.8747C67.1733 56.039 66.5569 54.8884 66.3009 54.9422C65.5296 55.9758 64.6414 56.529 63.4276 56.9431L63.7247 58.7764Z" fill="black"/>
<path d="M65.2302 45.2854C65.0153 44.3244 66.3524 44.3782 66.8771 43.6796C67.2279 43.2118 67.2912 42.2919 67.7052 41.8747C68.2647 41.3089 69.3047 41.4922 68.9475 42.2793C68.878 42.431 68.5555 42.5511 68.4101 42.7471C68.1636 43.079 68.094 43.6701 67.8633 44.0621C67.4366 44.7891 66.0805 45.652 65.2334 45.2885L65.2302 45.2854Z" fill="black"/>
<path d="M68.1609 53.2004C67.8131 52.7642 66.6025 52.5461 66.2959 52.2647C65.983 51.9771 66.1568 51.5282 66.5962 51.4682C67.2505 51.3797 68.9068 52.6061 69.6528 52.8084C69.9278 53.0234 69.9278 53.6745 69.5485 53.7978C69.3399 53.8642 67.8732 54.0317 67.7373 53.9464C67.5792 53.8452 67.5824 53.586 67.6646 53.4406L68.1577 53.2035L68.1609 53.2004Z" fill="black"/>
<path d="M73.1612 59.2505C72.8988 59.2821 72.8135 59.0102 72.823 58.7795C73.3034 58.0651 74.5583 58.7542 74.2296 59.5444C74.1885 59.6424 72.8767 61.049 72.7819 61.0964C72.2477 61.3651 71.6597 60.989 71.9253 60.4074C72.0232 60.1924 73.0727 59.7056 73.1643 59.2536L73.1612 59.2505Z" fill="black"/>
<path d="M63.1404 50.3936C63.5419 50.3051 63.9149 50.5169 63.8611 50.9562C63.8327 51.1901 63.6051 51.2723 63.564 51.4399C63.4565 51.8603 63.681 52.5462 62.8686 52.4988C61.56 52.4229 62.2427 50.5896 63.1436 50.3936H63.1404Z" fill="black"/>
<path d="M64.3924 49.6412C64.2912 49.5432 64.2248 49.1639 64.1015 48.9742C63.8613 48.6012 63.2449 48.0923 63.5105 47.6624C64.0731 46.7521 65.1067 48.9142 65.4702 49.2461L65.4228 49.5211C65.2806 49.834 64.5978 49.834 64.3924 49.6412Z" fill="black"/>
<path d="M65.0796 51.6704C65.1713 51.7557 65.2471 51.9928 65.2187 52.1161C64.9627 52.7135 63.7963 52.7293 63.8879 51.9675C63.9448 51.5187 64.8109 51.427 65.0764 51.6704H65.0796Z" fill="black"/>
<path d="M50.9142 53.5005C52.6211 53.1149 51.597 56.7247 50.3768 56.5635C48.986 56.3833 49.947 53.7186 50.9142 53.5005Z" fill="black"/>
<path d="M46.5653 13.0628C41.6437 13.8056 42.2759 22.0178 47.6369 21.5183C53.0832 21.0316 52.3752 12.1746 46.5653 13.0628ZM46.8214 19.1792C44.4475 18.6798 44.5423 15.1459 47.03 14.7444C50.4659 14.1976 50.2226 19.8746 46.8214 19.1792Z" fill="black"/>
<path d="M54.3593 17.0233C54.3466 17.2067 54.3972 17.3521 54.2139 17.4754C53.8251 17.1719 53.9958 16.6598 53.9104 16.2457C53.5943 14.6021 52.8009 13.1259 51.5113 12.0543C51.388 11.9563 50.9992 11.773 50.9739 11.7509C50.5598 11.0808 51.8147 11.7888 52.0107 11.9342C53.5343 13.0563 54.4351 15.1394 54.3624 17.0265L54.3593 17.0233Z" fill="black"/>
<path d="M51.7174 24.7961C51.8628 24.9289 50.159 27.9761 49.9378 28.3174C49.7797 28.5608 49.4984 29.1835 49.157 29.0476C49.1096 29.0223 48.9989 28.9149 48.9863 28.8516C48.9389 28.583 49.7797 27.5967 49.9852 27.2933C50.4119 26.6232 50.924 25.5769 51.3855 25.0143C51.4835 24.891 51.5309 24.7582 51.7142 24.7961H51.7174Z" fill="black"/>
<path d="M47.4386 31.4752C46.8317 31.058 47.3564 29.4775 48.194 30.1539C48.7061 30.5712 48.0866 31.9083 47.4386 31.4752Z" fill="black"/>
<path d="M52.6942 24.0534C52.6341 24.006 52.985 22.6278 53.4623 22.8238C53.5603 22.9217 53.1462 24.3473 52.6942 24.0534Z" fill="black"/>
</svg>
