<svg width="80" height="80" viewBox="0 0 80 80" fill="none" xmlns="http://www.w3.org/2000/svg">
<path d="M70.9196 47.675C70.8308 47.1533 70.4978 46.8055 70.1093 46.4873C69.7764 46.2284 69.4434 45.9805 69.1104 45.7363C67.0238 44.1417 65.592 42.0588 64.4895 39.7132C63.5904 37.83 62.7506 35.932 61.637 34.1525C61.4927 33.9046 61.4779 33.7196 61.6814 33.5161C61.7961 33.4014 61.8849 33.2571 61.9848 33.124C63.1132 31.7181 64.1269 30.2271 64.8816 28.577C65.4736 27.2747 65.925 25.9132 66.2579 24.5073C66.5909 23.0755 66.8092 21.6252 66.8647 20.149C66.9091 18.8874 66.9387 17.5999 66.8943 16.342C66.8351 15.1692 66.6908 13.9964 66.5465 12.8236C66.4318 11.8395 66.2135 10.8701 65.8214 9.94151C65.6031 9.40505 65.3441 8.89819 64.8964 8.53562C64.101 7.88447 63.2168 7.89926 62.3029 8.26184C61.3336 8.63921 60.4938 9.26076 59.6687 9.88231C57.7856 11.3141 55.9912 12.8643 54.2671 14.5033C51.718 16.9081 49.3724 19.4683 47.5189 22.454C47.2303 22.9016 46.9232 23.0348 46.4052 22.946C45.3175 22.7425 44.2187 22.6131 43.131 22.454C41.0036 22.121 38.8874 22.1802 36.7749 22.4836C35.6465 22.6574 34.5143 22.8017 33.3859 22.9756C33.212 23.0052 33.0825 22.9312 32.979 22.8017C32.9198 22.7129 32.8643 22.6279 32.8051 22.5539C31.8801 21.2812 31.0255 19.9604 30.0377 18.7616C27.1704 15.2728 23.9109 12.1724 20.3074 9.44945C19.5268 8.86859 18.7276 8.29143 17.7731 8.00286C16.3265 7.56999 15.3276 8.03245 14.7171 9.27556C14.3546 10.0007 14.1104 10.7813 13.9217 11.5509C13.5295 13.1455 13.3704 14.7807 13.3001 16.416C13.1706 19.5423 13.3297 22.6574 14.2288 25.6838C14.7652 27.493 15.5311 29.2171 16.5596 30.7968C17.1256 31.6367 17.7472 32.4321 18.3392 33.2423C18.5217 33.4841 18.5414 33.7356 18.3984 33.9971C18.0358 34.6334 17.6436 35.2587 17.3106 35.9098C16.5559 37.386 15.864 38.877 15.1241 40.3569C14.066 42.4288 12.5898 44.1787 10.751 45.6142C10.3034 45.9768 9.8261 46.2802 9.40433 46.6575C8.97147 47.0497 8.86787 47.5825 8.99736 48.1485C9.14165 48.6998 9.57822 48.9884 10.0555 49.2214C10.9545 49.6543 11.8646 50.0613 12.7489 50.5385C13.6479 51.0158 14.5025 51.5819 15.3683 52.1035C15.4127 52.1331 15.4275 52.1775 15.483 52.233C15.1204 52.307 14.8022 52.3625 14.484 52.4513C14.1807 52.5401 13.8625 52.6104 13.5554 52.7399C12.686 53.1024 12.427 54.0274 12.9339 54.8265C13.326 55.4333 13.9032 55.7958 14.5284 56.0733C15.15 56.3323 15.7864 56.5358 16.4264 56.7393C16.7002 56.8281 16.715 56.8281 16.6003 57.0722C16.3413 57.6383 16.5004 58.16 17.0221 58.4189C17.1367 58.4781 17.2403 58.5336 17.355 58.5632C18.7461 59.0109 20.1335 59.4475 21.5246 59.8951C23.134 60.4168 24.7693 60.8941 26.3454 61.4749C28.0546 62.0965 29.6455 62.9511 31.1957 63.8649C31.4843 64.0388 31.7765 64.1979 31.9615 64.4865C32.5535 65.3559 33.2934 65.848 34.1333 66.4695C34.9435 67.0763 35.3801 67.7718 36.4197 68.09C37.3335 68.3786 38.3325 68.6265 39.287 68.6413C40.6781 68.6561 41.9804 68.2935 43.2827 67.8458C44.7034 67.339 45.9613 66.2957 46.9602 65.1968C47.308 64.8047 47.7704 64.4569 48.2218 64.1831C48.8138 63.8353 49.4242 63.5172 50.031 63.199C51.5516 62.4035 53.1313 61.7376 54.7666 61.1863C55.7803 60.8534 56.8088 60.55 57.8374 60.2466C58.6032 60.0135 59.3876 59.8248 60.1534 59.5955C60.9636 59.3476 61.7739 59.0738 62.5878 58.8C62.9356 58.6705 63.2834 58.541 63.5016 58.2081C63.7754 57.8159 63.6015 57.4422 63.472 57.0352C63.5423 56.9908 63.6311 56.9502 63.7199 56.9206C64.212 56.7615 64.7041 56.6172 65.1961 56.4433C65.9361 56.1695 66.602 55.7921 67.0941 55.1706C67.6453 54.475 67.5417 53.5908 66.8203 53.0839C66.5465 52.8953 66.1839 52.7806 65.851 52.677C65.4588 52.5623 65.0555 52.4883 64.5931 52.3884C64.7226 52.2885 64.7965 52.1997 64.8964 52.1405C65.6512 51.6633 66.417 51.186 67.1829 50.7087C68.0375 50.1871 68.9772 49.8393 69.9059 49.4619C70.6865 49.1437 71.0491 48.5222 70.9196 47.6935V47.675ZM30.9811 61.4305C30.7924 61.3417 30.6185 61.2862 30.4742 61.2122C29.0831 60.4723 27.6514 59.8063 26.1604 59.2847C24.7989 58.8074 23.4226 58.3856 22.0611 57.9676C21.0474 57.6642 20.0336 57.4163 19.0199 57.1425C18.9755 57.1277 18.9496 57.1129 18.92 57.0981C18.92 57.0685 18.9052 57.0537 18.9052 57.0389C19.0051 57.0094 19.1087 56.965 19.2234 56.9391C20.0484 56.78 20.9031 56.6505 21.7281 56.4618C22.2202 56.3471 22.6974 56.1584 23.1599 55.9697C23.4337 55.8698 23.6224 55.6516 23.6372 55.3186C23.6372 55.03 23.5225 54.8117 23.2598 54.697C23.1303 54.6378 22.9712 54.623 22.838 54.6378C22.0426 54.7673 21.2582 54.9264 20.4628 55.0448C18.9866 55.2779 17.5363 55.1188 16.1341 54.6822C15.7864 54.5823 15.4386 54.4639 15.0908 54.3493C15.0464 54.3345 15.0205 54.3049 14.9317 54.2642C15.0316 54.2346 15.0908 54.2198 15.15 54.205C16.715 54.1162 18.2356 53.7573 19.7709 53.4095C20.0891 53.3355 20.3925 53.206 20.4961 52.8435C20.6404 52.3514 20.263 51.8445 19.7007 51.8149C19.3233 51.7853 18.9348 51.8297 18.5574 51.8741C18.3244 51.9037 18.1357 51.8593 17.9211 51.7151C16.8482 50.9603 15.779 50.2241 14.6912 49.4841C14.3879 49.2806 14.0697 49.1215 13.7071 48.9181C13.8366 48.8737 13.9402 48.8441 14.0401 48.833C15.6495 48.4556 17.2551 48.3705 18.8756 48.7442C20.9882 49.2362 22.8861 50.176 24.6398 51.4672C26.9558 53.1764 28.7946 55.3038 30.1857 57.8233C30.4446 58.2858 30.6925 58.763 30.9256 59.2292C30.9552 59.2736 30.9959 59.3291 30.9959 59.3735C30.9959 60.0394 30.9959 60.7054 30.9811 61.4305ZM66.0397 49.2362C64.767 50.1057 63.4757 50.9455 62.2178 51.8297C61.9293 52.0332 61.6666 52.0887 61.3336 52.0332C60.9858 51.9888 60.6233 51.974 60.2755 51.974C60.1164 51.974 59.9573 52.048 59.813 52.1183C59.5651 52.233 59.4061 52.4217 59.4061 52.7103C59.4061 53.0137 59.5355 53.2615 59.8278 53.3762C60.1756 53.5205 60.553 53.6352 60.9266 53.724C62.0551 54.0126 63.2131 54.2605 64.3859 54.3604C64.5894 54.3751 64.7928 54.3899 64.9926 54.4047V54.4787C64.9334 54.5083 64.8631 54.5527 64.7891 54.5786C63.3981 55.1003 61.9959 55.3741 60.516 55.3038C59.5022 55.2594 58.5181 55.0855 57.534 54.8709C57.3601 54.8413 57.1862 54.7858 57.0123 54.7858C56.6794 54.7858 56.4463 54.9745 56.376 55.2187C56.302 55.4925 56.4056 55.8402 56.6794 55.9845C57.0863 56.1732 57.5044 56.3767 57.9262 56.4766C58.7216 56.6801 59.5318 56.8244 60.3458 56.9835C60.6085 57.0426 60.8674 57.0981 61.1412 57.1425V57.2313C61.082 57.2609 61.0117 57.3164 60.9525 57.3312C59.3173 57.7789 57.6783 58.2155 56.0578 58.6779C54.2338 59.1996 52.4802 59.8951 50.7561 60.6758C50.1901 60.9348 49.6425 61.2122 49.0912 61.4712C49.0468 61.486 49.0209 61.486 48.9617 61.5008C48.9469 61.4416 48.9321 61.3861 48.9321 61.3417C48.9174 60.8053 48.9321 60.2688 48.9026 59.736C48.8878 59.4771 48.9617 59.2736 49.0764 59.0553C49.8867 57.5199 50.8856 56.0881 52.014 54.7673C53.3015 53.2467 54.8073 51.9444 56.487 50.8715C57.6598 50.1316 58.9214 49.584 60.2533 49.177C61.4557 48.7997 62.7025 48.5962 63.9604 48.7146C64.6708 48.7738 65.3663 48.9477 66.0619 49.0624C66.0915 49.0624 66.121 49.092 66.1617 49.1363C66.1025 49.1807 66.073 49.2103 66.0323 49.2362H66.0397ZM67.7193 47.342C67.501 47.3272 67.2976 47.342 67.0978 47.2976C65.7363 47.0941 64.36 46.9202 62.9837 47.0386C61.7258 47.1385 60.4642 47.342 59.2618 47.749C53.2386 49.7172 53.7603 50.5274 51.5737 52.788C50.3861 53.9904 49.3428 55.3223 48.4327 56.7541C48.3735 56.854 48.2884 56.9428 48.1737 57.0574C46.9417 55.1743 46.1907 53.1764 46.1907 50.9307C46.1907 49.8171 46.2055 48.6295 46.3201 47.5418C46.4496 46.3986 46.9417 45.3848 47.3931 44.3119C47.8851 43.1243 48.8249 41.8775 50.1013 41.489C49.8978 41.5038 49.6795 41.4446 49.4797 41.4742C49.1023 41.5334 48.7398 41.6481 48.4068 41.7924C47.308 42.2993 46.5976 43.1835 46.076 44.2268C45.3508 45.703 44.8884 47.268 44.6553 48.8885C44.3926 50.7716 44.4814 52.6252 45.0881 54.4195C45.3619 55.2298 45.7837 56.0141 46.1611 56.78C46.6383 57.7197 47.0601 58.6779 47.1748 59.7323C47.3191 61.1086 46.9269 62.3406 46.1167 63.4543C45.3915 64.4532 44.4518 65.1931 43.279 65.5964C42.687 65.7999 42.0618 65.8998 41.455 65.6556C41.122 65.5113 40.889 65.3078 40.8335 64.9452C40.7188 64.3533 40.8187 63.8464 41.3255 63.4691C42.2948 62.7291 43.0792 61.819 43.6563 60.7609C43.8154 60.4575 43.9449 60.1245 43.9893 59.7915C44.104 58.8925 43.771 58.4152 42.9164 58.1563C41.455 57.7234 39.9788 57.5643 38.4582 57.7641C37.8663 57.8529 37.2706 57.9972 36.7194 58.3006C35.9387 58.7334 35.676 59.6029 36.083 60.4131C36.6047 61.486 37.3705 62.3813 38.2252 63.2212C38.399 63.3803 38.5729 63.5394 38.732 63.7132C39.1797 64.1609 39.1649 64.6974 38.991 65.2338C38.8615 65.6556 38.4841 65.7999 38.0772 65.8258C37.3668 65.885 36.7009 65.7111 36.0941 65.3929C34.4884 64.5531 33.4007 63.2656 32.9087 61.5119C32.6053 60.4686 32.6756 59.4253 33.0529 58.4115C33.3415 57.6457 33.7189 56.9058 34.1111 56.1806C34.8917 54.734 35.3135 53.169 35.443 51.5338C35.5873 49.7098 35.3135 47.9413 34.7622 46.2062C34.3552 44.9446 33.8225 43.7311 32.9235 42.7173C32.3167 42.0514 31.5768 41.6037 30.7073 41.4557C31.5176 41.7295 32.2279 43.3833 32.461 43.9049C32.9679 45.1221 33.2009 46.4244 33.5043 47.712C33.8077 48.9995 33.8965 50.3462 33.7929 51.667C33.6782 52.9989 33.2712 54.2457 32.6645 55.4333C32.4462 55.855 32.202 56.2435 31.9541 56.6653C31.9097 56.7393 31.8542 56.8096 31.7654 56.9243C31.6212 56.7356 31.4917 56.5913 31.4029 56.4322C29.8379 53.9423 27.8992 51.8556 25.5943 50.1612C25.3908 50.0465 25.1873 49.9133 25.0135 49.769C24.3179 49.2917 23.6076 48.8441 22.8565 48.4371C20.2482 47.046 17.4697 46.5687 14.5284 46.9165C13.7737 47.0164 13.0227 47.0904 12.2679 47.1644C12.2679 47.1496 12.2531 47.12 12.2383 47.1052C12.2975 47.0201 12.3382 46.9461 12.4122 46.8721C13.1078 46.1618 13.8181 45.4662 14.484 44.73C15.3831 43.7015 16.1045 42.573 16.715 41.3558C17.4956 39.8057 18.2356 38.2148 19.0162 36.6498C20.3481 34.0008 22.1721 31.7403 24.4918 29.8867C25.2021 29.3206 25.9828 28.8434 26.7227 28.3217C26.9262 28.1774 27.1556 28.0331 27.2888 27.8297C27.5219 27.4819 27.4479 27.1045 27.1741 26.8307C26.5525 26.1944 26.3343 25.3841 26.1012 24.585C25.7238 23.3974 25.4352 22.195 25.0431 21.0074C24.6213 19.7902 23.9442 18.7061 23.1747 17.6628C22.0611 16.157 20.8291 14.7511 19.3788 13.5487C19.0458 13.2602 18.6536 13.0271 18.2504 12.868C17.5548 12.5942 17.0184 12.9272 16.8445 13.6782C16.4671 15.2987 16.4375 16.9525 16.5115 18.6026C16.5707 19.9049 16.7594 21.1813 17.0776 22.4392C17.54 24.2335 18.1505 25.9724 19.1494 27.5522C19.7007 28.4068 20.3222 29.2023 20.9179 30.0421C21.2508 30.5046 21.2952 30.4343 20.8883 30.8967C20.5701 31.2741 20.2371 31.6367 19.8449 32.0695C19.4528 31.5923 19.0643 31.1853 18.7313 30.7228C17.3994 28.9137 16.4449 26.9158 15.8344 24.7404C14.9946 21.7288 14.8503 18.6581 15.1093 15.5725C15.2092 14.3109 15.3831 13.0826 15.7161 11.8802C15.8455 11.4029 16.0194 10.9404 16.2673 10.5039C16.6003 9.90821 17.122 9.77872 17.7583 10.0562C18.4834 10.3744 19.0902 10.8516 19.7118 11.3289C22.5938 13.5598 25.2132 16.0349 27.6329 18.7431C29.1534 20.482 30.5445 22.3208 31.7321 24.3186C31.8616 24.5369 32.0355 24.7256 32.2094 24.9254C32.3833 25.0993 32.5868 25.1585 32.8162 25.0993C33.2379 24.9846 33.656 24.8514 34.0778 24.7663C35.2654 24.548 36.4382 24.3038 37.6258 24.1299C39.3055 23.8821 40.9999 23.8821 42.6796 24.1447C43.9671 24.3482 45.2435 24.6072 46.5162 24.8551C46.8196 24.9143 47.0971 25.0142 47.3857 25.0882C47.689 25.1733 47.9369 25.0734 48.1108 24.8551C48.2995 24.6368 48.4586 24.4074 48.5881 24.1595C49.587 22.38 50.8338 20.7854 52.1805 19.2648C54.2227 16.9488 56.4685 14.8177 58.8548 12.8495C59.8241 12.0688 60.8526 11.3289 61.8664 10.5779C62.1142 10.3892 62.4324 10.2597 62.7358 10.1709C63.4757 9.93781 64.0529 10.3004 64.3008 11.0847C64.7928 12.6349 65.0111 14.211 65.1406 15.8204C65.2701 17.6443 65.2294 19.4683 65.0259 21.2812C64.8816 22.6574 64.5931 23.9893 64.1861 25.2916C63.694 26.9417 62.9985 28.5215 62.044 29.9533C61.5963 30.6488 61.0302 31.2852 60.5086 31.9363C60.3791 32.1102 60.2348 32.1546 60.0757 31.9659C59.7427 31.6034 59.395 31.2408 59.0768 30.893C58.9325 30.7487 58.9473 30.6044 59.062 30.4454C59.554 29.8238 60.0609 29.2134 60.5086 28.577C61.5223 27.1304 62.2326 25.5506 62.7395 23.871C63.6089 21.0037 63.8679 18.0624 63.6089 15.0804C63.5645 14.6476 63.4794 14.211 63.3759 13.7781C63.1724 12.9383 62.462 12.7792 61.7554 13.0826C61.1042 13.3712 60.5678 13.8484 60.0609 14.3553C58.5699 15.776 57.2824 17.3668 56.1503 19.1057C55.5694 19.99 55.181 20.9593 54.8776 21.9582C54.5446 23.0718 54.2412 24.1891 53.8935 25.3027C53.7196 25.8688 53.5161 26.4164 53.0684 26.8381C52.9389 26.9528 52.8354 27.0971 52.7799 27.2451C52.6208 27.6077 52.6911 27.9406 53.0277 28.1737C53.4199 28.4623 53.838 28.7102 54.2449 28.984C56.2132 30.3307 57.867 32.0103 59.2692 33.9379C60.5012 35.6324 61.4409 37.5007 62.2955 39.3987C62.9467 40.8194 63.6274 42.2364 64.4969 43.5535C65.2923 44.7855 66.2653 45.8695 67.3494 46.8684C67.4936 46.9831 67.6231 47.1274 67.7563 47.2606C67.7563 47.2902 67.7415 47.305 67.7267 47.3346L67.7193 47.342Z" fill="black"/>
<path d="M47.8789 37.6687C47.9639 37.4755 48.018 37.2629 48.1378 37.0968C49.042 35.8989 49.9579 34.7087 50.8737 33.5185C50.9471 33.4219 51.0476 33.3407 51.1442 33.2673C51.4611 33.0316 51.8243 33.0509 52.1412 33.3214C52.4349 33.5687 52.516 33.9435 52.3421 34.2797C52.2687 34.4188 52.176 34.5425 52.0794 34.6662C51.2563 35.7095 50.4293 36.7529 49.6024 37.7885C49.4014 38.0397 49.2005 38.2947 48.8604 38.3759C48.389 38.4879 47.933 38.1517 47.8828 37.6648L47.8789 37.6687Z" fill="black"/>
<path d="M31.736 38.3718C31.3342 38.3834 31.11 38.2134 30.9284 37.9931C30.457 37.4289 30.001 36.8532 29.5373 36.2851C29.089 35.7364 28.6292 35.1954 28.1809 34.6467C27.9916 34.411 27.7945 34.1791 27.8138 33.839C27.8447 33.3406 28.4591 32.9503 28.9035 33.186C29.1083 33.2942 29.3016 33.4565 29.4484 33.642C30.3797 34.8206 31.2955 36.0069 32.2152 37.1932C32.2268 37.2048 32.2345 37.2203 32.2461 37.2319C32.4046 37.4599 32.4934 37.7033 32.3736 37.9738C32.2732 38.1979 31.9409 38.3718 31.7399 38.3718H31.736Z" fill="black"/>
<path d="M33.893 33.5453C33.5684 33.5569 33.3288 33.3946 33.1781 33.1357C32.9153 32.6798 32.6835 32.2083 32.4439 31.7407C32.1734 31.2152 31.9029 30.6858 31.6479 30.1525C31.5242 29.8936 31.4701 29.6115 31.6556 29.3526C31.8295 29.113 32.0845 28.9855 32.3666 29.0667C32.556 29.1246 32.7724 29.256 32.869 29.4183C33.2593 30.0675 33.6148 30.736 33.9703 31.4045C34.1674 31.7755 34.349 32.1542 34.5113 32.5406C34.72 33.0353 34.3954 33.5454 33.893 33.5492V33.5453Z" fill="black"/>
<path d="M46.4507 33.5918C45.9367 33.5841 45.6199 33.0934 45.8169 32.591C46.0256 32.0655 46.2613 31.5515 46.5048 31.0376C46.7212 30.5777 46.953 30.1256 47.1926 29.6735C47.2661 29.5382 47.3704 29.4146 47.4786 29.3064C47.7336 29.0591 48.1201 29.005 48.3635 29.1673C48.6301 29.345 48.7731 29.7585 48.6224 30.0754C48.1239 31.1187 47.61 32.1543 47.0883 33.19C46.9608 33.445 46.7405 33.6073 46.4507 33.5918Z" fill="black"/>
<path d="M48.4169 11.8553C47.7213 11.5539 47.0876 12.0678 46.45 12.1876C44.6338 12.6861 42.6244 11.9017 41.5037 10.553C39.417 8.08764 39.4016 4.41272 41.3685 1.94732C41.581 1.64591 41.8979 1.37154 41.9597 1.0083C41.9906 0.250907 41.0207 -0.0659631 40.3406 0.0113222C37.6936 0.39002 35.4407 1.99369 34.1384 4.03402C32.0517 7.28773 32.2643 11.7316 34.9113 14.7419C36.6348 16.7397 39.5252 17.9802 42.292 17.6169C45.2096 17.3 47.7368 15.5302 49.0545 13.2001C49.4332 12.7016 49.0545 11.9905 48.4208 11.8553H48.4169ZM44.1507 15.3486C41.8361 16.4963 38.6905 16.0132 36.8589 14.2125C33.5163 11.1288 33.9839 5.69566 37.5081 2.99067C37.9757 3.2032 38.4162 3.5819 38.2346 4.11131C37.8713 5.94297 37.9911 7.87897 38.7949 9.63334C39.6257 11.4921 41.2912 13.173 43.4668 13.7758C43.8764 13.942 44.5874 13.9884 44.5565 14.5178C44.5565 14.8192 44.4676 15.1979 44.1469 15.3486H44.1507Z" fill="black"/>
<path d="M45.7514 14.1585C45.7514 14.4599 44.4646 15.1941 44.1439 15.3487C41.8292 16.4963 38.6837 16.0133 36.852 14.2126C35.7352 13.1151 34.9624 11.7858 34.6919 10.2285C34.4214 8.6712 34.6416 7.19119 35.2638 5.81937C35.5266 5.23973 35.8589 4.69487 36.2569 4.20411C36.4617 3.94907 36.6858 3.70948 36.9216 3.48536C37.5205 2.92117 38.2625 2.51929 38.9078 2.0208C38.9967 1.95511 39.1126 2.04785 39.0701 2.14832C38.8498 2.63908 38.6334 3.12985 38.4286 3.62834C38.332 3.86406 38.2238 4.09591 38.1813 4.34322C38.1388 4.59054 38.104 4.84171 38.077 5.09289C37.9765 6.10146 38.0306 7.12549 38.2625 8.11475C38.3861 8.63642 38.56 9.14651 38.7803 9.6334C39.6111 11.4921 41.2766 13.1731 43.4522 13.7759C43.8618 13.9421 45.7707 13.6329 45.7398 14.1623L45.7514 14.1585Z" fill="#FEEC01"/>
<path d="M10.7778 34.5423C10.716 34.5423 10.6425 34.5578 10.5653 34.5423C10.488 34.5423 10.43 34.5423 10.3682 34.5114C10.0513 34.3452 9.73444 34.1636 9.40212 34.0129C8.79543 33.7424 8.43219 33.271 8.31239 32.6372C8.20806 32.0615 8.11532 31.4895 8.02644 30.9138C8.01098 30.7785 7.99552 30.6433 7.94915 30.5196C7.87187 30.3071 7.67865 30.1873 7.43521 30.2027C7.20721 30.2027 7.02559 30.338 6.95217 30.566C6.93672 30.6278 6.92126 30.7012 6.9058 30.7785C6.7551 31.2616 6.6353 31.7446 6.45368 32.2315C6.18318 33.0043 5.63832 33.5608 4.9273 33.9704C4.74568 34.0747 4.56406 34.152 4.36698 34.2409C4.13899 34.3607 3.98828 34.5423 3.98828 34.8167C3.98828 35.1645 4.21627 35.435 4.57951 35.4813C4.67226 35.4968 4.77659 35.4968 4.85001 35.5432C5.44124 35.8291 5.98611 36.1769 6.42277 36.6638C6.73964 37.0116 7.014 37.3903 7.08742 37.8579C7.13379 38.2056 7.22267 38.538 7.31541 38.8703C7.37724 39.1137 7.52795 39.249 7.76753 39.2335C8.01098 39.2335 8.1926 39.0674 8.21965 38.8239C8.23511 38.7196 8.23511 38.5959 8.23511 38.4916C8.20419 37.5101 8.55198 36.6908 9.42917 36.2078C9.9122 35.9373 10.3836 35.6166 10.913 35.4659C11.1565 35.3886 11.2763 35.149 11.2299 34.9056C11.199 34.693 11.0328 34.5578 10.7778 34.5423Z" fill="black"/>
<path d="M75.5471 34.7821C75.4698 34.7821 75.3964 34.7975 75.3191 34.7821C75.2573 34.7821 75.1839 34.7821 75.122 34.7512C74.8052 34.585 74.4883 34.4034 74.1521 34.2527C73.5454 33.9822 73.1861 33.5107 73.0624 32.877C72.9581 32.3012 72.8653 31.7293 72.7764 31.1535C72.761 31.0183 72.7455 30.883 72.6992 30.7594C72.6219 30.5468 72.4287 30.427 72.1852 30.4425C71.9572 30.4425 71.791 30.5777 71.7022 30.8057C71.6867 30.8676 71.6713 30.941 71.6558 31.0183C71.5051 31.5013 71.3853 31.9998 71.2037 32.4712C70.9332 33.2441 70.3883 33.8005 69.6773 34.2102C69.4957 34.3145 69.3141 34.3918 69.117 34.4807C68.889 34.6004 68.7383 34.7821 68.7383 35.0564C68.7383 35.4197 68.9663 35.6747 69.3295 35.7211C69.4223 35.7365 69.5266 35.7365 69.6 35.7829C70.1912 36.0689 70.7361 36.4166 71.1728 36.9035C71.4896 37.2513 71.764 37.63 71.8374 38.0976C71.8838 38.4454 71.9727 38.7777 72.0654 39.11C72.1272 39.3535 72.2779 39.4887 72.5175 39.4733C72.761 39.4733 72.9426 39.3071 72.9697 39.0637C72.9851 38.9593 72.9851 38.8357 72.9851 38.7313C72.9542 37.7498 73.302 36.9306 74.1946 36.4476C74.6622 36.1771 75.1336 35.8563 75.663 35.7056C75.9065 35.6283 76.0263 35.3888 75.9799 35.1453C75.949 34.9328 75.7828 34.7975 75.5433 34.7821H75.5471Z" fill="black"/>
<path d="M12.1915 31.9881C12.5973 31.9881 12.9837 31.6326 12.9644 31.2152C12.945 30.7979 12.6243 30.4424 12.1915 30.4424C11.7858 30.4424 11.3993 30.7979 11.4187 31.2152C11.438 31.6326 11.7587 31.9881 12.1915 31.9881Z" fill="black"/>
<path d="M67.3985 32.1929C67.8043 32.1929 68.1907 31.8374 68.1714 31.4201C68.1521 31.0027 67.8313 30.6472 67.3985 30.6472C66.9928 30.6472 66.6064 31.0027 66.6257 31.4201C66.645 31.8374 66.9658 32.1929 67.3985 32.1929Z" fill="black"/>
<path d="M29.1905 48.2646C31.9303 48.2646 31.9342 44.01 29.1905 44.01C26.4469 44.01 26.4469 48.2646 29.1905 48.2646Z" fill="black"/>
<path d="M49.7765 48.1447C52.5162 48.1447 52.5201 43.8901 49.7765 43.8901C47.0328 43.8901 47.0328 48.1447 49.7765 48.1447Z" fill="black"/>
</svg>
