<svg width="150" height="72" viewBox="0 0 150 72" fill="none" xmlns="http://www.w3.org/2000/svg">
<g clip-path="url(#clip0_8331_2130)">
<rect width="150" height="72" fill="white" fill-opacity="0.01"/>
<path d="M148.806 54.6287C140.756 54.4215 134.799 49.271 129.21 44.2351C126.02 41.3608 120.041 34.5746 115.809 34.1633C112.591 33.8509 108.955 35.0895 105.729 35.3438C105.4 35.5667 105.652 38.9716 105.602 39.6136C105.629 39.7549 105.74 39.7832 105.846 39.8475C106.061 39.9794 109.583 41.1442 109.792 41.1348C110.459 41.1034 111.425 38.5682 112.406 38.8272C113.525 39.1239 112.352 41.1049 112.084 41.7737C112.933 41.9793 113.762 42.3074 114.616 42.4958C115.685 42.7312 118.383 42.8694 119.107 43.2383C119.845 43.6135 119.872 44.8222 119.184 45.1503C117.633 45.8912 111.699 44.1315 109.863 43.5993C106.951 42.7564 100.416 40.0736 97.6779 41.0908C96.521 41.5209 96.1238 42.6433 96.5021 43.7971C97.3891 46.4846 105.265 48.1941 107.794 49.3165C115.318 52.6586 116.861 60.8608 126.929 62.2171C127.468 62.2893 128.717 62.0193 128.876 62.6644C129.188 63.9297 125.291 63.7272 124.534 63.6613C121.336 63.385 118.226 61.3788 115.886 59.3051C112.586 56.379 110.029 52.2913 105.579 50.9774V53.6743C106.528 53.1766 106.995 54.1515 106.61 54.9442C106.397 55.3853 105.389 55.3163 105.58 56.0509C108.166 55.7636 110.969 57.222 112.17 59.5327C112.538 60.2407 112.657 61.5687 111.561 61.2626C111.356 61.2061 109.352 58.8561 108.425 58.3617C108.023 58.1482 106.164 57.525 105.786 57.503C105.472 57.4841 104.988 58.5893 104.549 58.5893H98.1253L99.2885 59.2502C103.949 61.3866 109.098 62.0899 113.949 63.6204C116.567 64.4462 119.025 65.6204 121.724 66.3142C127.67 67.8448 134.987 67.6501 140.67 69.7301C142.114 70.2591 141.863 71.876 140.397 72.0408C133.979 70.1947 127.028 70.2591 120.649 68.4994C117.876 67.7364 115.283 66.4492 112.594 65.6109C106.128 63.6016 99.2022 62.9125 93.5996 58.594L73.9364 58.5908C73.825 58.6222 73.6774 58.583 73.5173 58.4998C73.0306 58.2502 72.4326 57.6113 72.4326 57.3978V46.6918H70.3714C70.3385 46.2805 70.2443 45.8128 70.1328 45.3591C70.2286 45.3607 70.3259 45.3591 70.4279 45.3512C71.2866 45.2916 72.0009 44.7076 72.6162 44.4219C73.3116 44.4627 73.949 44.5899 74.3132 44.9023C74.467 45.4721 74.6114 46.0984 74.6538 46.6306C74.6852 47.0325 74.7072 47.4375 74.7213 47.8488C74.6962 48.7938 74.6397 49.7576 74.646 50.4248C74.6507 51.015 74.646 51.5676 74.646 52.1563V52.9255L74.6522 56.2063H103.359V50.1799C100.207 49.2255 94.3343 47.3637 93.9952 43.4455C93.5431 38.2212 99.5161 37.8555 103.2 39.0783V29.2452L93.3673 29.4053C95.9417 34.9702 89.2372 40.0202 84.4838 36.146C82.688 34.6814 82.1872 32.9075 82.6597 30.669C82.7618 30.1855 83.3693 29.2452 82.6613 29.2452H74.8108V33.4977C74.7935 35.0911 74.7354 36.6389 74.6538 37.5918C74.6522 37.62 74.5219 37.7158 74.5078 37.8445C74.4435 38.3955 74.4984 38.8523 74.3069 39.3656C73.9929 39.6749 73.4608 39.8554 72.8925 39.9543C72.1453 39.7973 71.4703 38.8601 70.1548 38.8539C70.1909 38.5493 70.1846 38.2448 70.2239 37.9057C70.238 37.777 70.3683 37.6828 70.3699 37.653H72.431V29.0097C72.431 28.8465 72.6743 27.79 72.7685 27.6016C72.9443 27.2516 73.3211 27.0443 73.7606 26.9219C74.3399 26.7571 75.029 26.7335 75.5141 26.7037C77.7714 26.5671 81.7053 26.6786 83.9266 27.0286C84.9093 27.184 86.0458 27.4713 86.0474 28.6942C86.0474 29.5026 84.9862 30.3079 84.8417 31.4319C84.2217 36.2355 92.3438 36.4741 91.4239 31.1101C91.2371 30.0238 89.3345 27.8936 91.4568 27.2625C92.427 26.9737 94.7079 26.9078 95.8146 26.8638C97.6088 26.7932 99.4235 26.8999 101.219 26.8764C102.398 26.8591 103.847 26.3301 104.933 27.115C105.156 27.2751 105.574 27.8292 105.574 28.06V33.0551C109.363 32.5763 113.55 31.0489 117.343 31.9923C119.454 32.5151 121.583 34.0848 123.253 35.438C129.884 40.8051 135.86 49.1266 144.429 51.3745C145.759 51.723 148.459 51.9051 149.465 52.365C150.638 52.9003 150.224 54.6664 148.801 54.6303L148.806 54.6287Z" fill="black"/>
<path d="M70.1339 45.3905H70.1418C70.2328 45.3921 70.3286 45.3905 70.4259 45.3827C71.2752 45.323 71.9831 44.7453 72.5922 44.4628C72.6189 44.4502 72.644 44.4377 72.6707 44.4282C72.7837 44.378 72.8936 44.3403 73.0004 44.3215C73.4478 44.2399 73.746 44.4487 74.1385 44.4518C74.1746 44.5805 74.2123 44.7139 74.2484 44.8521C74.2562 44.8803 74.2641 44.9102 74.2719 44.9384C74.4242 45.502 74.567 46.1221 74.6094 46.6495C74.6408 47.0467 74.6628 47.4485 74.6769 47.8551C74.6879 48.1518 74.6926 48.45 74.6942 48.7499C74.702 49.6651 74.6785 50.5944 74.6471 51.5268C74.633 51.9774 74.6173 52.4295 74.6031 52.88C74.5576 54.3007 74.5262 55.715 74.6 57.0776C74.4728 57.704 74.0945 58.1969 73.4839 58.3962C73.465 58.4025 73.4446 58.4088 73.4242 58.4151H42.3596C40.6643 58.1466 41.1964 55.3885 41.1776 54.095C41.1744 53.8941 41.0159 53.734 41.0159 53.7136C41.0081 52.9255 41.1713 51.8125 41.1729 50.8879C41.176 49.3197 41.1713 47.7452 41.1729 46.1786C41.9107 46.0294 42.6971 45.998 43.3706 45.8646V56.0682H72.2547V47.2774C70.0445 47.976 67.7871 47.6275 66.2095 45.8662C62.3336 41.5367 66.7997 34.8007 72.2547 37.0738V29.4603C72.2547 29.3457 72.0648 29.2892 71.9345 29.2892C67.9912 29.2766 64.0306 29.4854 60.0841 29.3865C56.5301 28.8198 58.9115 26.9753 59.1878 25.3412C59.8314 21.525 54.378 20.3178 53.0719 23.6207C52.185 25.8639 53.9572 26.5311 53.7406 28.2107C53.6794 28.6785 52.9133 29.3818 52.5539 29.3818H43.5276V35.661C42.7442 35.7897 41.9593 35.9938 41.1729 36.1319C41.2294 34.0441 41.0975 31.9374 41.1729 29.8527C41.1917 29.341 41.1682 28.0679 41.3299 27.655C41.3785 27.531 42.2513 26.9361 42.5041 27.0224L51.0626 27.0256C48.3625 21.828 55.1676 16.9993 59.541 20.5094C61.5111 22.0901 62.026 24.7054 61.1092 27.0271H73.4321C73.4321 27.0271 73.4462 27.0271 73.454 27.0287C73.5451 27.0334 73.6377 27.0726 73.7272 27.1386C74.1526 27.4431 74.5403 28.2908 74.5937 28.688C74.6957 29.4336 74.7475 30.6015 74.7632 31.8746C74.7695 32.4539 74.7695 33.0551 74.7632 33.6501C74.746 35.1995 74.6895 36.7049 74.6125 37.6499L74.6078 37.7017C74.6063 37.7205 74.5513 37.7661 74.5105 37.832C74.487 37.8665 74.4681 37.9073 74.4634 37.9513C74.4022 38.4678 74.4493 38.901 74.2907 39.3798C74.2829 39.4049 74.2735 39.43 74.2641 39.4567C74.2311 39.5493 74.1887 39.6451 74.1369 39.7424C73.8512 39.7032 73.4839 40.1082 72.9737 40.0564C72.936 40.0532 72.8999 40.047 72.8638 40.0391C72.1244 39.8837 71.4557 38.956 70.1543 38.9497C70.0978 38.9497 70.0413 38.9512 69.9832 38.9544C66.0289 39.1757 66.39 45.3481 70.1324 45.3905H70.1339Z" fill="black"/>
<path d="M66.2061 45.8661C67.7837 47.6274 70.0411 47.9759 72.2513 47.2774V56.0682H43.3672V45.8646C46.1991 45.2979 49.7248 44.9321 51.9257 42.8851C54.588 40.4096 53.8769 36.6091 50.425 35.4317C48.0561 34.6249 45.8851 35.2716 43.5242 35.6609V29.3818H52.5505C52.9099 29.3818 53.676 28.6785 53.7372 28.2107C53.9539 26.531 52.1816 25.8639 53.0685 23.6206C54.3746 20.3178 59.828 21.525 59.1844 25.3411C58.9081 26.9753 56.5267 28.8198 60.0807 29.3865C64.0272 29.4854 67.9878 29.2766 71.9311 29.2892C72.0614 29.2892 72.2513 29.3457 72.2513 29.4603V37.0737C66.7963 34.8007 62.3303 41.5367 66.2061 45.8661Z" fill="#4ABBB7"/>
<path d="M51.9223 42.8851C49.7214 44.9321 46.1957 45.2979 43.3638 45.8646C42.6903 45.998 41.9039 46.0294 41.1661 46.1785C35.6435 47.2899 34.463 49.4829 30.0692 52.1123C27.3158 53.7606 24.126 54.9756 20.8388 54.6538C19.9189 54.5628 16.4528 53.7214 18.3617 52.6445C22.4934 53.3164 25.9721 52.0025 29.3801 49.8534C33.0973 47.5097 34.8476 45.3167 39.4377 44.2132C42.4093 43.4989 47.5425 43.2838 49.9475 41.5367C51.3901 40.488 51.792 38.4709 49.8847 37.6954C46.6917 36.3956 36.9747 39.9355 32.1602 39.251C31.2309 39.1192 28.873 38.6639 30.1053 37.2354C30.6312 36.6248 33.6358 37.1428 34.6577 37.08C37.7565 36.8869 36.105 36.6169 36.4614 34.8007C36.802 33.0739 38.5712 35.7802 38.342 36.6028C39.2729 36.4066 40.2289 36.2936 41.1661 36.1319C41.9525 35.9937 42.7374 35.7897 43.5207 35.6609C45.8817 35.2716 48.0527 34.6249 50.4215 35.4318C53.8735 36.6091 54.5846 40.4096 51.9223 42.8851Z" fill="black"/>
<path d="M41.3296 27.6535C41.1679 28.0679 41.1914 29.341 41.1726 29.8512L35.278 28.746C30.9061 28.7256 23.1686 35.2277 18.9883 37.4144C14.111 39.9653 10.1614 40.3656 4.66867 40.0611C3.91831 40.0187 1.10054 39.7283 0.587215 39.4332C-0.331112 38.9057 -0.170993 37.3673 1.05815 37.2229C2.18683 37.0895 4.33901 37.6311 5.61839 37.6986C17.3071 38.317 20.3006 32.771 29.4509 28.0977C33.7271 25.9141 36.8462 26.0554 41.3296 27.6535Z" fill="black"/>
<path d="M41.0142 53.7119C38.0112 55.2927 35.2389 57.2534 32.0617 58.4951C22.566 62.2045 11.9322 59.9283 2.00175 59.9942C0.557543 59.8906 0.221608 57.8201 1.84477 57.6317C4.06602 57.3758 7.66084 57.6929 10.0171 57.7855C15.4972 58.0022 20.4593 58.6913 25.9724 57.7432C30.2015 57.0163 33.8465 55.0981 37.5591 53.0809C37.5905 52.8125 37.0143 52.9082 36.848 52.9192C36.2907 52.96 34.7397 53.4686 35.2844 52.2991C35.3723 52.1092 36.2279 51.3416 36.4524 51.2678C37.3142 50.9899 37.9955 51.6948 38.8871 51.6728C39.6704 51.6539 40.4396 51.1171 41.1696 50.8832C41.168 51.8078 41.0048 52.9208 41.0126 53.7088L41.0142 53.7119Z" fill="black"/>
<path d="M134.705 23.3419C135.961 23.1473 135.964 26.3355 136.313 27.326C136.716 28.4736 137.542 29.6289 138.674 30.1454C139.582 30.5598 141.408 30.4279 141.458 31.5864C141.51 32.7591 139.408 32.6727 138.565 33.0212C137.4 33.5016 136.747 34.3367 136.316 35.4811C136.065 36.1451 135.831 38.0917 135.379 38.3099C133.776 39.0806 133.708 36.3523 133.368 35.4544C132.906 34.2378 131.845 33.0809 130.522 32.8062C129.715 32.6398 128.085 32.9584 128.002 31.7058C127.925 30.5237 129.983 30.4907 130.884 30.0496C132.324 29.3464 132.945 28.2287 133.38 26.7374C133.653 25.8018 133.625 23.5114 134.707 23.3435L134.705 23.3419ZM137.259 31.3259C136.076 30.9491 135.3 29.7498 134.828 28.6557C134.195 29.7875 133.478 30.8675 132.236 31.4028C132.722 31.6555 133.253 31.9632 133.653 32.3415C133.939 32.61 134.685 33.8375 134.983 33.8375C135.218 33.4105 135.424 32.938 135.763 32.5738C136.168 32.1406 136.785 31.9412 137.163 31.6492C137.317 31.5299 137.286 31.5174 137.261 31.3274L137.259 31.3259Z" fill="black"/>
<path d="M45.721 7.46377C45.9331 7.66547 46.0567 9.12666 46.2006 9.56074C46.474 10.3815 47.009 11.0145 47.8495 11.3315C48.3349 11.5146 49.3359 11.5239 49.3359 12.1355C49.3359 12.7796 48.4254 12.6913 48.0003 12.8047C47.1549 13.0287 46.6831 13.3959 46.3086 14.1627C46.0946 14.6005 45.9555 15.544 45.7502 15.8368C45.6568 15.9697 45.365 16.0152 45.2142 15.9957C44.6821 15.926 44.6432 14.7483 44.4574 14.2947C44.1159 13.461 43.4671 12.9581 42.5595 12.762C42.2278 12.6904 41.5274 12.841 41.3853 12.3967C41.0915 11.4783 42.1772 11.5787 42.828 11.3017C43.6831 10.9373 44.1782 10.3545 44.4516 9.50683C44.6306 8.95191 44.5829 8.14231 44.7473 7.74448C44.8922 7.39406 45.4253 7.18213 45.721 7.46377Z" fill="black"/>
<path d="M86.9353 18.0132C89.4234 17.7338 89.7546 21.9926 86.7281 21.6002C84.7878 21.349 84.893 18.2424 86.9353 18.0132Z" fill="black"/>
<path d="M73.1309 7.87011C74.6709 9.56706 72.2707 12.1447 70.5643 10.4383C68.7826 8.65658 71.6585 6.24695 73.1309 7.87011Z" fill="black"/>
<path d="M25.1912 20.0781C28.5349 19.3089 27.9211 24.5049 25.017 23.3245C23.5272 22.7185 23.7501 20.4094 25.1912 20.0781Z" fill="black"/>
<path d="M109.432 22.0152C111.668 21.7468 112.109 25.1234 110.009 25.4311C107.411 25.811 107.458 22.2538 109.432 22.0152Z" fill="black"/>
</g>
<defs>
<clipPath id="clip0_8331_2130">
<rect width="150" height="72" fill="white"/>
</clipPath>
</defs>
</svg>
