<svg width="80" height="80" viewBox="0 0 80 80" fill="none" xmlns="http://www.w3.org/2000/svg">
<path d="M29.7008 57.3747C28.2286 58.3634 27.357 59.8612 26.2474 61.2089C25.1561 62.5309 23.9109 63.7761 22.3692 64.5598C21.1204 65.197 19.0147 65.6877 18.198 64.1057C17.44 62.6371 18.7254 60.7292 19.5896 59.6049C20.626 58.2609 22.014 57.1549 22.8929 55.6937C23.7974 54.1923 23.9439 52.4271 25.1964 51.1051C26.2144 50.0284 27.5548 49.4351 28.2579 48.0692C28.9281 46.7618 29.3639 44.6597 29.0416 43.2132C26.9908 43.9566 25.0792 44.7476 22.9039 45.1102C20.9739 45.4324 18.9854 45.546 17.0298 45.3921C13.2138 45.0918 9.58467 43.627 7.11273 40.6131C4.465 37.383 3.58975 33.0837 4.17203 29.0004C4.43571 27.151 4.96672 25.2394 5.95183 23.6317C7.23724 21.537 8.73872 22.3829 10.0095 23.9393C12.6682 27.195 14.5102 31.1721 17.6377 34.0432C20.5821 36.7422 24.5298 36.9765 28.2762 35.9841C30.3417 35.4385 31.8651 34.3545 33.3922 32.9189C34.8461 31.5529 36.6112 30.6118 38.413 29.7914C42.3095 28.0153 46.4294 26.7409 49.9268 24.181C51.6516 22.9213 53.2886 21.222 54.1565 19.2481C55.0721 17.1717 54.9549 14.8243 55.0757 12.605C55.1966 10.3894 55.2698 8.28737 56.1597 6.22192C56.46 5.52612 56.8922 4.72411 57.7601 5.14892C58.6683 5.59204 59.0711 7.08985 60.0123 7.42311C60.514 5.77148 62.5209 -0.183152 64.1835 3.88548C64.7438 5.25878 65.0001 6.88111 65.8058 8.14455C66.3551 9.01247 67.7577 9.71927 68.6586 10.2393C69.8158 10.9058 71.0317 11.6382 72.394 11.6748C73.4633 11.7041 75.2248 11.0889 75.7705 12.3377C76.9533 15.044 73.2656 17.3768 71.5187 18.5999C70.3468 19.4203 69.1237 20.2296 68.069 21.2001C67.0143 22.1669 66.7946 23.2106 66.6334 24.5802C66.476 25.9169 66.0805 27.5978 66.3002 28.9272C66.5126 30.2016 68.1679 31.0476 69.142 31.6957C71.8666 33.5085 73.1374 35.9951 73.0275 39.2837C72.9579 41.3272 72.3281 45.535 69.9513 46.2344C66.5492 47.2342 67.3732 41.7703 66.9264 40.0015C66.6408 38.8662 66.0548 37.4966 64.839 37.0901C63.9637 36.7971 62.389 37.2915 62.2938 38.3828C62.2425 38.9797 62.9017 39.606 63.1434 40.104C63.4767 40.7925 63.6964 41.5213 63.7806 42.283C63.9454 43.8101 63.5353 45.2823 62.9237 46.6702C61.825 49.1678 60.1185 51.7203 57.6466 53.0277C56.7786 53.4855 55.3357 54.1739 54.3982 53.555C53.1238 52.7128 54.1236 51.1527 54.6619 50.2005C55.4236 48.8492 56.2879 47.5455 57.002 46.1722C57.6136 44.9966 57.8663 43.6343 56.6907 42.6895C54.5081 40.939 51.0181 43.2168 48.9783 44.147C47.843 44.6634 46.5356 44.9454 46.1474 46.2527C45.7043 47.7359 45.6421 49.2301 44.9609 50.651C43.5437 53.6026 40.8959 55.8329 38.0981 57.4332C36.6405 58.2682 35.9191 58.9164 35.3771 60.5241C34.8571 62.0549 34.0331 63.4245 32.9637 64.6367C32.0885 65.6328 26.002 70.4631 25.9801 66.7094C25.9691 64.9809 27.2179 63.3732 28.0931 61.9853C29.0489 60.4728 29.4115 59.1435 29.6971 57.382L29.7008 57.3747ZM69.6803 16.9556C71.1415 16.1866 71.9142 15.7178 72.4855 14.0699C70.6288 13.971 69.0175 12.8431 67.3842 11.9642C65.7472 11.0852 63.7257 10.4297 62.0777 11.2903C62.3304 11.7737 62.5904 12.2974 62.5099 12.8357C62.4293 13.3741 61.836 13.8575 61.3453 13.6158C61.1219 13.5059 60.9828 13.2825 60.8582 13.0701C59.9464 11.5577 59.0382 10.0415 58.1263 8.52907C57.8846 10.492 58.4266 12.5391 59.6095 14.1248C59.972 14.6119 60.4188 15.1978 60.1954 15.7618C60.005 16.2379 59.3934 16.4246 58.899 16.3038C58.401 16.1829 57.9945 15.835 57.6099 15.5018C56.9288 20.9108 52.666 25.3017 47.8174 27.7992C44.6313 29.4399 41.1413 30.447 38.0102 32.1901C34.879 33.9333 32.0079 36.6726 31.3817 40.1992C31.0045 42.3159 31.4696 44.5352 30.9203 46.6153C30.5065 48.19 29.5397 49.556 28.5948 50.8853C25.8079 54.7965 23.0247 58.7077 20.2378 62.6188C22.0103 62.6371 23.5411 61.37 24.6361 59.9748C25.731 58.5795 26.5806 56.9718 27.9173 55.8036C30.2355 53.7748 33.6522 53.3756 35.9521 51.3321C39.1637 48.4793 39.1454 43.5794 40.3063 39.4448C40.4308 38.9981 40.6799 38.467 41.145 38.4561C41.7309 38.4414 41.9433 39.2178 41.9506 39.8037C41.9763 41.6897 41.8371 43.5794 41.5295 45.4397C45.1587 43.7771 48.7878 42.1145 52.417 40.4519C51.0217 38.8149 50.4505 36.5115 50.9155 34.4131C51.0657 33.7392 51.7615 32.9482 52.2852 33.395C52.4536 33.5378 52.5159 33.7649 52.5598 33.9809C52.8089 35.2334 52.6734 36.5957 53.263 37.7273C54.4898 40.0711 58.1556 40.2542 59.3275 42.6272C60.0343 44.0555 59.5545 45.7913 58.7855 47.1866C58.0201 48.5819 56.9727 49.838 56.46 51.3468C58.8551 49.9515 60.6751 47.5931 61.4186 44.9234C61.6786 43.9895 61.8104 42.9898 61.576 42.0486C61.1659 40.386 59.734 39.2068 58.7415 37.8115C57.1192 35.5263 56.6761 32.4501 57.588 29.8024C57.826 29.1139 58.4156 28.3266 59.1077 28.5573C59.8658 28.81 59.7596 29.894 59.6058 30.6777C59.2103 32.6735 59.5142 34.8012 60.4554 36.603C62.2572 35.032 62.9859 32.5673 63.2826 30.1943C63.5756 27.8249 63.5243 25.3969 64.1432 23.0897C64.4838 21.8263 65.066 20.5995 65.923 19.5997C66.3405 19.1126 66.8239 18.6805 67.3695 18.3473C67.9518 17.992 68.8637 17.3658 69.6767 16.963M8.47871 38.1008C8.48603 39.866 11.3059 41.3638 12.6938 42.023C14.6641 42.9568 16.9273 43.2901 19.0952 43.2864C21.4024 43.2828 23.6985 42.847 25.8812 42.1145C26.8443 41.7923 28.4813 41.3455 29.1844 40.5691C29.7337 39.9649 29.785 38.6245 30.0597 37.7895C26.859 38.5842 23.834 39.0933 20.6004 38.1082C19.2088 37.6833 17.8977 37.0168 16.7515 36.1196C16.1619 35.6582 15.6748 35.0393 15.0413 34.6438C14.437 34.2666 13.7156 34.1237 13.0344 33.9516C13.0747 34.6731 14.0268 36.1159 13.1076 36.5847C12.1848 37.0535 11.3022 35.8816 10.427 35.834C10.4746 36.4639 10.7895 37.5881 10.3391 38.1374C9.83003 38.7637 9.07563 38.3352 8.47871 38.1045V38.1008ZM43.7634 46.6446C41.8554 47.7469 40.6762 49.252 39.4201 51.0208C38.0505 52.9471 36.1718 54.1593 34.0368 55.1115C32.9308 55.6058 32.2972 56.0819 31.7736 57.2025C31.3341 58.1437 31.2902 59.1581 30.9899 60.1396C30.3563 62.216 28.3202 63.7578 27.9027 65.8671C28.756 66.2663 30.1842 64.7868 30.7298 64.2375C31.4659 63.4977 32.1068 62.6481 32.6268 61.7436C33.7438 59.799 33.7987 57.631 35.8166 56.3053C37.8381 54.9796 39.8998 53.8663 41.4855 51.9913C42.5988 50.6729 44.0966 48.4793 43.7597 46.6409L43.7634 46.6446ZM7.89643 25.1478C6.92596 26.9386 6.42425 29.0334 6.39861 31.0695C6.38763 32.029 6.43157 33.0654 6.73553 33.9846C6.95892 34.6474 7.62543 35.9951 8.47871 35.9804C8.92915 35.3213 8.05024 34.2373 8.85224 33.6733C9.5627 33.1753 10.4929 34.1311 11.2253 34.2263C11.0825 33.6403 10.6833 32.7541 11.1594 32.2194C11.6867 31.6262 12.6279 32.1792 13.2395 32.3916C12.7341 30.978 11.5476 29.7255 10.6833 28.5134C10.0388 27.6088 9.06099 25.4115 7.89276 25.1478H7.89643ZM69.5705 43.6123C69.5998 43.616 69.6291 43.6197 69.6584 43.627C70.8559 41.5359 71.3686 38.8442 70.6105 36.5115C69.9257 34.4021 67.809 32.8933 65.7509 32.2817C65.3151 33.406 64.861 34.0944 66.0475 34.8269C66.9154 35.3615 67.7248 35.8852 68.2741 36.7715C69.4423 38.6611 69.3544 41.4627 69.5705 43.6123ZM62.378 9.29812C62.7882 9.15163 63.1398 9.02346 63.5463 8.87697C63.2826 8.14821 63.1031 7.2693 62.5758 6.69068C62.3341 7.56227 61.9569 8.43752 62.3744 9.30178L62.378 9.29812Z" fill="black"/>
<path d="M65.1846 13.1654C66.1624 12.7992 66.719 14.4838 65.6057 14.6962C64.5693 14.894 64.1738 13.5426 65.1846 13.1654Z" fill="black"/>
<path d="M38.2368 19.2777C39.7566 19.2886 39.5551 21.5482 38.1562 21.6251C36.5998 21.713 36.7097 19.263 38.2368 19.2777Z" fill="black"/>
<path d="M36.6758 2.60737C36.6794 0.666435 39.5506 0.219654 39.6641 2.30341C39.7739 4.3066 36.8626 4.79733 36.6758 2.60737Z" fill="black"/>
<path d="M20.4024 25.6129C20.3841 23.595 23.5445 23.7488 23.2479 25.6495C22.9952 27.2608 20.4207 27.4146 20.4024 25.6129Z" fill="black"/>
<path d="M50.5549 11.7042C50.5659 13.6708 47.6106 13.1764 47.8852 11.4259C48.1489 9.74861 50.5439 10.0416 50.5549 11.7042Z" fill="black"/>
<path d="M15.3827 4.85603C16.7194 4.84138 16.6571 7.10824 15.2252 6.88119C13.8922 6.66879 14.0057 4.87068 15.3827 4.85603Z" fill="black"/>
<path d="M11.8477 18.3694C11.8477 18.168 11.9539 18.0325 12.126 17.9483C12.2615 17.8823 12.4043 17.8238 12.5361 17.7505C13.0562 17.4539 13.4553 17.0437 13.6604 16.4761C13.7849 16.1282 13.8765 15.7656 13.9863 15.4104C14.001 15.3591 14.012 15.3042 14.0303 15.2493C14.0852 15.0845 14.2171 14.9893 14.3855 14.9856C14.5576 14.9856 14.7005 15.0662 14.7591 15.2273C14.792 15.3152 14.7993 15.4141 14.814 15.5093C14.8836 15.9304 14.9422 16.3552 15.0191 16.7727C15.107 17.2451 15.3743 17.5821 15.8174 17.7835C16.0628 17.8933 16.2935 18.0288 16.5352 18.1497C16.5755 18.1717 16.6267 18.1753 16.6744 18.179C16.7293 18.1826 16.7842 18.1717 16.8391 18.179C17.0186 18.1936 17.1431 18.2925 17.1687 18.439C17.2017 18.6221 17.1138 18.7942 16.9344 18.8491C16.5425 18.97 16.2019 19.1971 15.8504 19.3911C15.2022 19.7464 14.9458 20.3433 14.9678 21.0721C14.9678 21.1563 14.9751 21.2369 14.9641 21.3211C14.9385 21.4969 14.7993 21.6177 14.6236 21.6214C14.4514 21.6287 14.3379 21.5335 14.2903 21.3467C14.2244 21.1014 14.1658 20.8597 14.1255 20.607C14.0742 20.2664 13.8692 19.9881 13.6384 19.7317C13.3125 19.3728 12.9097 19.1238 12.4849 18.9077C12.4263 18.8784 12.353 18.8748 12.2871 18.8675C12.0198 18.8308 11.8477 18.6367 11.8513 18.3767L11.8477 18.3694Z" fill="black"/>
<path d="M20.7511 13.5868C20.9378 13.3634 24.4608 12.371 25.2811 11.9388C26.9511 11.0562 27.548 10.0858 28.0717 8.29866C28.4233 7.1048 28.4342 4.65849 28.7455 3.93705C28.9982 3.35477 29.8808 2.99588 30.4008 3.49393C31.2687 4.32524 31.0014 8.36824 32.7226 10.3861C34.6086 12.5943 37.2563 11.9608 39.0032 13.0192C41.4934 14.5316 36.1613 15.2311 35.4948 15.4618C33.499 16.1539 32.6054 17.2086 31.9938 19.1862C31.6166 20.402 31.6789 23.8664 30.2433 23.7932C29.0238 23.7309 29.1191 21.3578 28.8261 20.4643C28.3024 18.8603 27.4784 17.1793 25.8817 16.3883C24.7611 15.8317 19.1141 15.5094 20.7474 13.5831L20.7511 13.5868Z" fill="#FEEC01"/>
<path d="M30.3133 24.7632C30.2767 24.7632 30.2364 24.7632 30.1961 24.7632C28.5115 24.6753 28.2259 22.7307 28.0574 21.5661C28.0135 21.2512 27.9659 20.9289 27.9109 20.7678C27.3067 18.9038 26.5266 17.7905 25.4573 17.2595C25.2632 17.1606 24.5601 17.0141 23.9924 16.8969C22.0442 16.4904 20.03 16.0693 19.5796 14.7509C19.4368 14.3371 19.4001 13.6925 20.019 12.9638C20.2717 12.6672 20.561 12.5573 22.4617 11.9311C23.3186 11.6491 24.4942 11.2646 24.8311 11.0851C26.1494 10.3856 26.6475 9.73012 27.1455 8.02722C27.2957 7.52185 27.3836 6.64294 27.4605 5.86656C27.574 4.74229 27.6546 4.03183 27.8597 3.55209C28.1233 2.93685 28.7166 2.47176 29.4014 2.3326C30.024 2.20809 30.6319 2.37655 31.0714 2.79403C31.6646 3.36166 31.8477 4.38706 32.0784 5.68712C32.3238 7.06774 32.6314 8.78529 33.4591 9.75575C34.4002 10.8581 35.5978 11.0924 36.8685 11.3378C37.7621 11.5136 38.6886 11.693 39.5053 12.1874C40.5636 12.8319 40.6881 13.5351 40.6076 14.0112C40.3878 15.2929 38.5714 15.78 36.3961 16.2377C36.1654 16.2853 35.8834 16.3476 35.8065 16.3696C34.1659 16.9372 33.4627 17.6916 32.9134 19.4641C32.8328 19.7241 32.7633 20.2185 32.6973 20.6982C32.4593 22.4158 32.1297 24.7522 30.306 24.7522L30.3133 24.7632ZM21.645 14.2455C22.2786 14.5641 23.7141 14.8608 24.388 15.0036C25.3255 15.1977 25.9187 15.3295 26.3179 15.5273C27.8597 16.2927 28.9839 17.8125 29.7493 20.1672C29.8519 20.4822 29.9105 20.874 29.9691 21.2842C30.024 21.665 30.1302 22.3938 30.284 22.7234C30.533 22.2583 30.7088 21.0132 30.7894 20.4419C30.8736 19.834 30.9468 19.3103 31.075 18.9038C31.8038 16.5417 32.9574 15.3222 35.1839 14.5495C35.3487 14.4909 35.5794 14.4433 36.0043 14.3517C37.0736 14.1247 37.85 13.9196 38.3187 13.7402C37.8243 13.4948 37.2054 13.3739 36.506 13.2384C35.1107 12.9674 33.3748 12.6305 31.9942 11.0119C30.8297 9.64589 30.4708 7.63904 30.1815 6.0277C30.0679 5.38682 29.9141 4.52622 29.7603 4.23325C29.7127 4.25156 29.6541 4.29184 29.6358 4.32114C29.5406 4.54453 29.449 5.4564 29.3868 6.05699C29.2952 6.95788 29.2037 7.88806 29.0023 8.56556C28.4529 10.4332 27.7425 11.7223 25.7356 12.7843C25.2852 13.0224 24.3843 13.3263 23.0623 13.7585C22.6008 13.9086 22.0222 14.099 21.645 14.2382V14.2455Z" fill="black"/>
</svg>
