<svg width="150" height="72" viewBox="0 0 150 72" fill="none" xmlns="http://www.w3.org/2000/svg">
<rect width="150" height="72" fill="white" fill-opacity="0.01"/>
<g clip-path="url(#clip0_8331_2145)">
<path d="M8.99397 66.7946C8.5697 66.7946 8.03757 66.7586 7.66723 66.4779C7.42634 66.2943 7.2933 66.0711 7.27892 65.8156C7.23937 65.0993 8.0915 64.2931 8.656 63.7604C8.73869 63.6813 8.8142 63.6093 8.87892 63.5481C9.2888 63.1414 9.74903 62.7418 10.1949 62.3567C11.4785 61.241 12.8052 60.0892 13.3481 58.484C9.89644 58.3544 5.19713 58.1564 2.63714 55.0179C-0.117011 51.6418 0.188606 45.0624 0.389954 40.7109L0.443886 39.5304C0.785458 31.846 1.01198 26.7675 10.0906 25.6805C14.7683 25.119 19.7876 25.0686 24.6416 25.0182C25.9144 25.0038 27.1764 24.993 28.4204 24.9715C29.5207 24.9535 30.664 24.9175 31.8362 24.8815C33.7058 24.8239 35.6366 24.7627 37.5494 24.7627C40.5193 24.7627 42.8456 24.9103 44.8662 25.2234C55.1925 26.8215 54.4195 35.7692 53.7363 43.6623C53.1574 50.3245 52.6145 56.6195 44.2658 58.106C39.4874 58.9555 34.3818 59.2146 29.4487 59.4665C28.0861 59.5349 26.7377 59.6033 25.4038 59.6861C20.6829 64.0664 15.0236 66.593 9.49734 66.7874H9.44341C9.29959 66.7946 9.14858 66.8018 8.99038 66.8018L8.99397 66.7946ZM36.762 27.1634C30.5454 27.1634 23.8146 27.3146 15.5773 27.6349C14.7935 27.6637 14.0169 27.6745 13.269 27.6853C7.86499 27.7573 3.59354 27.8184 2.94995 34.8945C2.64792 38.2202 2.55444 42.8993 2.70905 46.8152C2.97152 53.3334 4.1041 55.493 10.6731 56.292C11.0218 56.3352 11.4173 56.3532 11.8308 56.3748C13.154 56.4396 14.6569 56.5152 15.2573 57.3898C15.5953 57.8793 15.6169 58.5523 15.3256 59.4521C14.8259 60.9962 12.291 63.5049 11.0758 64.3543C11.0434 64.3759 11.0146 64.3939 10.9859 64.4083C10.9032 64.4515 10.8636 64.4731 10.8816 64.5847C14.8402 64.0808 18.5508 62.5475 21.6142 60.1576C21.9306 59.9092 22.2398 59.6141 22.5382 59.3298C23.3256 58.5811 24.1382 57.8073 25.26 57.6957C27.5971 57.4654 29.9809 57.3358 32.2892 57.2062C35.766 57.0155 39.3615 56.8175 42.8707 56.274C46.3008 55.7413 48.6523 55.1367 50.0545 51.721C51.6006 47.9598 52.2622 37.1369 51.5107 33.1777C50.4536 27.6097 45.9017 27.1454 41.3283 27.1454C40.8572 27.1454 40.3898 27.149 39.9224 27.1562C39.4658 27.1598 39.0128 27.167 38.5669 27.167C38.5669 27.167 37.2905 27.167 36.762 27.167V27.1634Z" fill="black"/>
<path d="M37.5496 24.8059C40.0773 24.8059 42.5797 24.9103 44.8593 25.263C54.9554 26.8251 54.4053 35.4273 53.6934 43.6515C53.0714 50.814 52.2984 56.6232 44.2588 58.0557C38.1681 59.139 31.5775 59.2614 25.4005 59.6357C21.0931 63.6201 15.4949 66.5247 9.49399 66.737C9.33938 66.7442 9.1668 66.7514 8.99062 66.7514C8.5268 66.7514 8.03062 66.701 7.68905 66.4455C6.56726 65.5997 8.2931 64.1888 8.90792 63.5805C10.5043 62.004 12.6904 60.6615 13.4059 58.4408C9.7277 58.3004 5.18299 58.0701 2.66615 54.9891C-0.120361 51.5663 0.249975 44.7025 0.447727 40.495C0.825254 32.4039 0.681433 26.8575 10.098 25.7273C16.0018 25.0183 22.4522 25.1227 28.4207 25.0183C31.2755 24.9679 34.4359 24.8095 37.5496 24.8095M38.5672 27.1202C38.4952 27.1202 38.4197 27.1202 38.3478 27.1202C37.8193 27.1202 37.2908 27.1202 36.7622 27.1202C29.6827 27.1202 22.6319 27.3146 15.5812 27.5917C9.22433 27.8401 3.64772 26.7747 2.90705 34.891C2.57986 38.4938 2.52233 43.1908 2.66615 46.8189C2.92502 53.2867 4.00727 55.529 10.6697 56.3388C12.7227 56.5872 16.3758 56.0653 15.2863 59.4414C14.8045 60.9351 12.3344 63.4257 11.0544 64.322C10.9214 64.4155 10.7956 64.4083 10.8495 64.6387C14.7542 64.1492 18.5474 62.6123 21.6468 60.1972C22.7901 59.3046 23.7357 57.8973 25.271 57.7461C31.1317 57.1667 37.0391 57.2315 42.8853 56.3244C46.2795 55.7954 48.6957 55.1799 50.1051 51.7462C51.6512 47.9778 52.3199 37.1621 51.5649 33.1777C50.5006 27.5809 45.9056 27.1094 41.3357 27.1094C40.4045 27.1094 39.4732 27.1274 38.5708 27.1274M37.5496 24.7159C35.6332 24.7159 33.7025 24.7771 31.8328 24.8347C30.6427 24.8707 29.5173 24.9067 28.4171 24.9247C27.1766 24.9463 25.8894 24.9607 24.6418 24.9715C19.7879 25.0219 14.765 25.0723 10.0837 25.6337C5.86973 26.1412 3.28457 27.5773 1.94705 30.1544C0.706603 32.5407 0.562783 35.78 0.39739 39.5268C0.383008 39.8435 0.368626 40.1603 0.354244 40.4842L0.343458 40.7002C0.14211 45.0588 -0.167102 51.649 2.60143 55.0395C5.16142 58.1781 9.83197 58.3904 13.2872 58.52C12.7371 60.0856 11.432 61.2194 10.1663 62.3172C9.72051 62.7023 9.26028 63.1018 8.8468 63.5121C8.78208 63.5733 8.70658 63.6453 8.62388 63.7245C8.0522 64.2644 7.18928 65.0814 7.23242 65.8156C7.24681 66.0856 7.38344 66.3195 7.63512 66.5103C8.01624 66.7982 8.55916 66.8342 8.99062 66.8342C9.14882 66.8342 9.30343 66.827 9.44725 66.8234H9.49759C15.0239 66.6255 20.6832 64.1024 25.4364 59.7149C26.756 59.6357 28.1258 59.5674 29.4454 59.499C34.382 59.247 39.4876 58.9879 44.2696 58.1385C48.0089 57.4726 50.4107 55.8529 51.8309 53.0383C53.093 50.5369 53.4597 47.3084 53.7761 43.6551C54.0925 39.9947 54.488 35.4417 53.4094 31.9288C52.23 28.0884 49.4363 25.8785 44.8665 25.1694C42.8422 24.8563 40.5159 24.7087 37.5424 24.7087L37.5496 24.7159ZM38.5672 27.2102C39.013 27.2102 39.466 27.2066 39.9263 27.1994C40.3901 27.1958 40.8611 27.1886 41.3321 27.1886C45.8876 27.1886 50.4215 27.6529 51.4714 33.1849C52.2192 37.1369 51.5577 47.949 50.0152 51.703C48.6238 55.0971 46.2795 55.6982 42.8674 56.2273C39.3582 56.7708 35.7627 56.9687 32.2894 57.1595C29.9811 57.2854 27.5973 57.415 25.2602 57.649C24.1241 57.7605 23.3043 58.5416 22.5133 59.2938C22.2148 59.5782 21.9056 59.8697 21.5892 60.118C18.5438 62.4971 14.8585 64.0196 10.925 64.5307C10.925 64.4911 10.9538 64.4767 11.0113 64.4443C11.0401 64.4299 11.0724 64.4119 11.1048 64.3867C12.3236 63.5337 14.8693 61.0143 15.3726 59.4594C15.6675 58.5452 15.6423 57.8577 15.2971 57.3574C14.6823 56.4684 13.1722 56.3928 11.8383 56.3244C11.4212 56.3028 11.0293 56.2849 10.6805 56.2417C4.14389 55.4462 3.01491 53.2975 2.75603 46.8081C2.59783 42.8921 2.69491 38.2131 2.99693 34.8946C3.63693 27.8581 7.8904 27.8005 13.2729 27.7249C14.0243 27.7141 14.7973 27.7033 15.5848 27.6745C23.8148 27.3542 30.5456 27.203 36.7622 27.203C37.2908 27.203 37.8193 27.203 38.3478 27.203H38.5708L38.5672 27.2102Z" fill="#231F20"/>
<path d="M50.0913 51.7389C48.6818 55.1762 46.2693 55.7917 42.8715 56.3172C37.0252 57.2242 31.1178 57.1594 25.2572 57.7389C23.7255 57.89 22.7799 59.2973 21.6329 60.1899C18.5372 62.6086 14.7404 64.1419 10.8357 64.6314C10.7853 64.401 10.9076 64.4082 11.0406 64.3147C12.3242 63.4184 14.7907 60.9278 15.2725 59.4341C16.3619 56.058 12.7089 56.5835 10.6559 56.3316C3.98984 55.5217 2.91119 53.2794 2.65231 46.8116C2.50849 43.1871 2.56602 38.4865 2.89321 34.8837C3.63388 26.7638 9.2069 27.8292 15.5673 27.5844C23.1466 27.2893 30.7223 27.0841 38.334 27.1165C43.6805 27.1381 50.2495 26.3355 51.5474 33.1669C52.3025 37.1548 51.6337 47.9669 50.0877 51.7353L50.0913 51.7389Z" fill="#4AC0B4"/>
<path d="M86.3623 65.92C85.4778 65.92 84.223 65.3622 83.4715 65.0274L83.2522 64.9302C79.6027 63.3358 76.4351 60.9171 72.9619 58.1493C70.7111 58.0377 68.4495 58.0197 66.5403 58.0197C65.7889 58.0197 65.0374 58.0197 64.2859 58.0269C63.5345 58.0269 62.783 58.0341 62.0316 58.0341C60.1331 58.0341 57.886 58.0197 55.6172 57.8973C55.5633 57.8973 55.5093 57.8937 55.4482 57.8937C55.3044 57.8937 55.1462 57.9009 54.9772 57.9081C54.7902 57.9153 54.5889 57.9225 54.3947 57.9225C53.9129 57.9225 53.3233 57.8793 53.0177 57.5338C52.8523 57.3466 52.7876 57.0803 52.8307 56.7492C52.9062 56.1589 53.5031 55.9861 53.8554 55.9357C54.9341 55.9249 56.0127 55.9177 57.0878 55.9177C61.0356 55.9177 64.9907 55.9897 68.3417 56.0581C68.4172 56.0581 68.4927 56.0581 68.5754 56.0581C69.0068 56.0581 69.5138 56.0365 70.0531 56.0149C70.6428 55.9897 71.2504 55.9681 71.8149 55.9681C72.4873 55.9681 72.9906 56.0041 73.3502 56.0761C73.965 56.2021 74.7129 56.85 75.3709 57.4222C75.6117 57.631 75.8383 57.8289 76.0324 57.9765C78.5061 59.8409 81.174 61.7737 84.2014 63.1414C83.9173 62.3964 83.4967 61.6765 83.0868 60.9819C82.6733 60.28 82.2454 59.553 81.965 58.7971C81.6486 57.9549 81.6198 57.361 81.8787 56.9903C82.1879 56.544 82.8675 56.4828 83.4931 56.4828C83.7555 56.4828 84.0288 56.4936 84.3093 56.508C84.5897 56.5188 84.8737 56.5332 85.147 56.5332C85.3088 56.5332 85.4706 56.5296 85.6216 56.5188C87.9119 56.3461 88.6778 55.6046 88.9079 53.3443C89.0409 52.0342 89.0301 50.6485 89.0193 49.3095C89.0122 48.5969 89.005 47.8627 89.0193 47.15C89.0481 45.9083 89.0877 44.6161 89.1308 43.2988C89.2674 39.0661 89.4113 34.6894 89.1452 30.7915C88.836 26.242 85.4994 26.0945 81.9686 25.9397C81.5515 25.9217 81.1308 25.9037 80.7138 25.8749C73.7996 25.443 66.7668 25.2198 59.9642 25.0039L57.6055 24.9283C57.0338 24.9103 56.4621 24.9067 55.779 24.9067H54.988C52.5502 24.9067 50.3678 24.8491 48.3363 24.1437C48.2644 24.1185 48.1925 24.0969 48.117 24.0753C47.7826 23.9745 47.4015 23.8593 47.2325 23.5066L47.2109 23.4562L47.2649 23.4418C49.6918 22.7904 52.1763 22.704 54.2869 22.704C55.0887 22.704 55.8869 22.7184 56.6815 22.7328C63.5057 22.8623 70.3623 23.2187 76.9888 23.5606C77.7007 23.5966 78.4378 23.6146 79.218 23.6326C84.6364 23.7622 90.7739 23.9133 91.227 30.6619C91.4283 33.6853 91.3384 36.8742 91.2486 39.9587C91.1659 42.8057 91.0796 45.7463 91.227 48.5537C91.1227 49.3131 91.1047 50.1554 91.0868 51.048C91.0292 53.8014 90.9645 56.9183 88.1564 58.0593C86.9376 58.5524 85.5892 58.5704 84.2877 58.5884H84.1295L87.3295 64.4623C87.4337 64.9842 87.3834 65.3621 87.1892 65.5997C87.0203 65.8049 86.7434 65.9092 86.3659 65.9092L86.3623 65.92Z" fill="black"/>
<path d="M54.2813 22.7543C55.0795 22.7543 55.8813 22.7687 56.6723 22.7831C63.439 22.9127 70.2381 23.2618 76.9796 23.611C82.6821 23.9061 90.6605 23.0027 91.1746 30.6727C91.563 36.4782 90.869 42.7157 91.1746 48.5645C90.7432 51.685 91.8003 56.5368 88.1329 58.0269C86.8493 58.5488 85.4183 58.538 84.0484 58.556L87.2843 64.4911C87.4893 65.5349 87.0398 65.8696 86.3603 65.8696C85.3895 65.8696 83.9513 65.1822 83.2682 64.887C79.4821 63.2314 76.1922 60.6651 72.9886 58.1133C70.8457 57.9981 68.692 57.9765 66.5383 57.9765C65.0354 57.9765 63.5289 57.9873 62.0224 57.9873C59.8831 57.9873 57.7473 57.9657 55.6188 57.8505C55.5649 57.8505 55.5073 57.8469 55.4462 57.8469C55.1442 57.8469 54.7631 57.8757 54.3927 57.8757C53.5586 57.8757 52.7532 57.7245 52.8718 56.7563C52.933 56.2561 53.4076 56.0473 53.857 55.9825C54.9321 55.9717 56.0035 55.9645 57.0786 55.9645C60.8359 55.9645 64.5932 56.0293 68.3325 56.1049C68.408 56.1049 68.4835 56.1049 68.5662 56.1049C69.4686 56.1049 70.7235 56.0149 71.8057 56.0149C72.3954 56.0149 72.9311 56.0401 73.3338 56.1229C74.1644 56.292 75.2933 57.4798 75.9981 58.0125C78.6264 59.9921 81.2475 61.8745 84.2749 63.2242C83.7176 61.6765 82.5742 60.3088 82.0025 58.7791C81.2691 56.8139 82.2147 56.526 83.4875 56.526C84.0124 56.526 84.5949 56.5764 85.1378 56.5764C85.3032 56.5764 85.4614 56.5728 85.616 56.562C87.8956 56.3892 88.7117 55.637 88.9418 53.3479C89.1468 51.3323 89.0102 49.1872 89.0569 47.15C89.172 41.9707 89.5351 35.9168 89.1827 30.7878C88.834 25.6589 84.6632 26.0764 80.7082 25.8317C73.0066 25.353 65.2943 25.1334 57.5999 24.8887C56.9995 24.8707 56.3882 24.8671 55.7698 24.8671C55.5073 24.8671 55.2449 24.8671 54.9824 24.8671C52.7244 24.8671 50.4233 24.8275 48.3415 24.1077C47.9532 23.9745 47.457 23.9025 47.2629 23.4922C49.5388 22.8803 51.9119 22.7543 54.2741 22.7543M54.2813 22.6644C52.1671 22.6644 49.679 22.7507 47.2449 23.4058L47.1406 23.4346L47.1874 23.5318C47.3635 23.9025 47.7555 24.0177 48.097 24.1221C48.1725 24.1437 48.2444 24.1652 48.3164 24.1904C50.355 24.8995 52.5447 24.9571 54.986 24.9571H55.3815H55.7734C56.4566 24.9571 57.0282 24.9607 57.5999 24.9787L59.9514 25.0543C66.754 25.2702 73.7904 25.4934 80.7046 25.9253C81.1216 25.9505 81.5423 25.9685 81.9594 25.9901C85.4722 26.1448 88.7872 26.2924 89.0929 30.8022C89.3589 34.6966 89.2151 39.0697 89.0785 43.3024C89.0353 44.6449 88.9922 45.9154 88.967 47.1572C88.9526 47.8698 88.9562 48.6041 88.967 49.3167C88.9778 50.6556 88.9886 52.0377 88.8556 53.3479C88.629 55.5794 87.8704 56.3136 85.6124 56.4828C85.4722 56.4936 85.3176 56.4972 85.1414 56.4972C84.8681 56.4972 84.5841 56.4864 84.3073 56.472C84.034 56.4612 83.7535 56.4468 83.4911 56.4468C82.8547 56.4468 82.1607 56.508 81.8407 56.9723C81.5747 57.3574 81.5998 57.9621 81.9234 58.8187C82.2075 59.5782 82.6353 60.3052 83.0488 61.0107C83.4371 61.6729 83.8398 62.3532 84.1203 63.0586C81.136 61.6945 78.5041 59.7869 76.0592 57.9441C75.8686 57.8001 75.6385 57.6022 75.3976 57.3934C74.736 56.8175 73.981 56.1661 73.3554 56.0365C72.9922 55.9609 72.4853 55.9249 71.8093 55.9249C71.2448 55.9249 70.6336 55.9501 70.0439 55.9717C69.5082 55.9933 68.9976 56.0149 68.5698 56.0149C68.4907 56.0149 68.4116 56.0149 68.3397 56.0149C64.9851 55.9465 61.0264 55.8745 57.0822 55.8745C55.9784 55.8745 54.8925 55.8817 53.8606 55.8925C53.2206 55.9825 52.8431 56.2848 52.7856 56.7456C52.7424 57.0911 52.8107 57.3646 52.9833 57.5662C53.2961 57.9225 53.9002 57.9693 54.3927 57.9693C54.5905 57.9693 54.7882 57.9621 54.9788 57.9513C55.1478 57.9441 55.306 57.9369 55.4498 57.9369C55.5073 57.9369 55.5649 57.9369 55.6152 57.9405C57.8804 58.0593 60.1276 58.0773 62.026 58.0773C62.7774 58.0773 63.5325 58.0773 64.2839 58.0701C65.0354 58.0701 65.7905 58.0629 66.5419 58.0629C68.4439 58.0629 70.6911 58.0809 72.9599 58.1996C76.4259 60.9603 79.5936 63.3754 83.2358 64.9698L83.4551 65.067C84.2066 65.4017 85.4686 65.9632 86.3639 65.9632C86.7558 65.9632 87.0434 65.8552 87.2196 65.6393C87.4245 65.3909 87.4785 64.9986 87.3742 64.4767V64.4623L87.3634 64.4515L84.1994 58.6459H84.2821C85.5908 58.628 86.9427 58.61 88.1688 58.1133C91.0057 56.9615 91.0704 53.8266 91.1279 51.0624C91.1459 50.1697 91.1639 49.3311 91.2681 48.5825C91.1243 45.7607 91.207 42.8201 91.2897 39.9731C91.3796 36.885 91.4731 33.696 91.2681 30.6691C90.8115 23.8773 84.6524 23.7297 79.216 23.5966C78.4358 23.5786 77.7023 23.5606 76.9868 23.5246C70.3603 23.1827 63.5073 22.8263 56.6759 22.6968C55.8273 22.6788 55.0615 22.668 54.2813 22.668V22.6644Z" fill="#231F20"/>
<path d="M79.9798 34.351C79.2966 34.351 78.5955 34.3042 77.916 34.2574C77.3012 34.2142 76.6683 34.171 76.0643 34.1674C75.7012 34.1674 75.338 34.1638 74.9749 34.1638C73.3605 34.1638 71.685 34.1962 70.0706 34.225C68.4383 34.2538 66.7484 34.2862 65.098 34.2862C63.4477 34.2862 61.8729 34.2502 60.521 34.1782C60.467 34.1782 59.1547 34.1026 58.8167 34.0019C58.4356 33.8867 58.1875 33.5484 58.1875 33.1381C58.1875 32.7277 58.4356 32.3858 58.8167 32.267C59.0756 32.1879 59.6796 32.1663 60.165 32.1483C60.316 32.1411 60.4563 32.1375 60.5605 32.1303C61.5601 32.0727 62.6315 32.0439 63.836 32.0439C65.3605 32.0439 66.9102 32.0907 68.4095 32.1339C69.578 32.1699 70.7861 32.2058 71.9654 32.2166C72.1488 32.2166 72.3322 32.2166 72.5155 32.2166C73.4252 32.2166 74.378 32.1951 75.3021 32.1699C76.2441 32.1483 77.2185 32.1231 78.1605 32.1231C79.1025 32.1231 79.9834 32.1483 80.7348 32.2023C81.2921 32.2418 82.4571 32.3246 82.4571 33.246C82.4571 33.8651 81.8243 34.2142 81.1987 34.2862C80.8247 34.3294 80.422 34.3474 79.9762 34.3474L79.9798 34.351Z" fill="black"/>
<path d="M63.8323 32.0907C66.5469 32.0907 69.2795 32.2347 71.9653 32.2635C72.1487 32.2635 72.332 32.2635 72.5154 32.2635C74.3455 32.2635 76.2871 32.1735 78.1603 32.1735C79.0376 32.1735 79.9006 32.1951 80.7311 32.2527C81.3603 32.2959 82.4102 32.3966 82.4102 33.2497C82.4102 33.8831 81.7307 34.1855 81.1949 34.2431C80.7922 34.2862 80.386 34.3042 79.9761 34.3042C78.6709 34.3042 77.3298 34.1315 76.0642 34.1207C75.701 34.1207 75.3379 34.1171 74.9711 34.1171C71.7316 34.1171 68.3806 34.2395 65.0979 34.2395C63.5518 34.2395 62.0202 34.2107 60.5244 34.1315C60.1505 34.1099 59.1114 34.0415 58.831 33.9587C58.0364 33.7176 58.0328 32.555 58.831 32.3103C59.1689 32.2059 60.1217 32.2023 60.564 32.1771C61.6498 32.1123 62.7393 32.0907 63.8359 32.0907M63.8323 32.0007C62.6278 32.0007 61.5563 32.0295 60.5568 32.0871C60.4489 32.0943 60.3123 32.0979 60.1577 32.1051C59.6723 32.1231 59.0683 32.1447 58.8022 32.2275C58.3995 32.3499 58.1406 32.7098 58.1406 33.1417C58.1406 33.5736 58.3995 33.9299 58.8022 34.0487C59.1438 34.1531 60.4633 34.2251 60.5172 34.2251C61.8692 34.297 63.3649 34.333 65.0943 34.333C66.8237 34.333 68.4309 34.3006 70.0669 34.2719C71.6849 34.2431 73.3568 34.2107 74.9711 34.2107C75.3379 34.2107 75.701 34.2107 76.0606 34.2143C76.661 34.2215 77.2938 34.2647 77.9087 34.3042C78.5882 34.351 79.2893 34.3978 79.9761 34.3978C80.4255 34.3978 80.8282 34.3762 81.2057 34.3366C81.8493 34.2647 82.5001 33.9011 82.5037 33.2533C82.5037 32.2923 81.3136 32.2059 80.7419 32.1663C79.9904 32.1123 79.1491 32.0871 78.1639 32.0871C77.1788 32.0871 76.2475 32.1123 75.3055 32.1339C74.3815 32.1555 73.4287 32.1807 72.519 32.1807C72.3356 32.1807 72.1523 32.1807 71.9689 32.1807C70.7896 32.1663 69.5815 32.1303 68.413 32.0979C66.9136 32.0547 65.3604 32.0079 63.8359 32.0079L63.8323 32.0007Z" fill="#231F20"/>
<path d="M67.1016 41.3731C65.3254 41.3731 63.7434 41.3515 62.2621 41.3083C62.0463 41.3011 61.7982 41.2975 61.5394 41.2939C60.7448 41.2795 59.8423 41.2615 59.2239 41.1896C58.5084 41.1068 58.2459 40.6641 58.2423 40.3114C58.2351 39.8902 58.5839 39.3827 59.3749 39.2568L80.9514 39.3432C81.6238 39.4187 82.1308 39.7427 82.2494 40.1746C82.3465 40.5273 82.1667 40.9052 81.7353 41.2364C81.4224 41.2436 81.124 41.2436 80.8328 41.2436H80.6314C78.3879 41.2436 76.0975 41.2759 73.8827 41.3083C71.6607 41.3407 69.3596 41.3731 67.1016 41.3731Z" fill="black"/>
<path d="M59.3863 39.3036L80.9556 39.39C82.0846 39.516 82.7642 40.3942 81.7107 41.2004C81.3511 41.2004 80.9916 41.2004 80.632 41.2004C76.1413 41.2004 71.6146 41.3336 67.1022 41.3336C65.4878 41.3336 63.8735 41.3156 62.2663 41.2688C61.3854 41.2436 60.0514 41.2436 59.2317 41.15C57.9193 40.9952 57.9804 39.5268 59.3827 39.3072M59.3791 39.2136H59.3719C58.5557 39.3432 58.1926 39.8723 58.2034 40.315C58.2105 40.6857 58.4838 41.15 59.2281 41.2364C59.8465 41.3084 60.749 41.3264 61.5436 41.3408C61.8024 41.3444 62.0505 41.3516 62.2663 41.3552C63.7476 41.3984 65.3296 41.42 67.1058 41.42C69.3638 41.42 71.6649 41.3876 73.8869 41.3552C76.1017 41.3228 78.3921 41.2904 80.6356 41.2904C80.9952 41.2904 81.3547 41.2904 81.7143 41.2904H81.7467L81.7718 41.2724C82.2177 40.9305 82.4046 40.5381 82.304 40.1638C82.1817 39.7175 81.6568 39.3792 80.9736 39.3L59.3935 39.2136H59.3863H59.3791Z" fill="#231F20"/>
<path d="M73.8765 47.9921C73.1574 47.9921 72.4276 47.9526 71.7228 47.9166C71.0756 47.8842 70.4033 47.8482 69.7525 47.841H69.4289C68.379 47.841 67.286 47.8698 66.1282 47.9058C64.9669 47.9382 63.7624 47.9742 62.6083 47.9742C61.375 47.9742 60.3503 47.9346 59.4658 47.8518C58.6065 47.7726 58.2146 47.2975 58.211 46.8656C58.2074 46.4445 58.5597 45.9766 59.3543 45.8866C60.2568 45.9334 61.2168 45.9586 62.2919 45.9586C63.8307 45.9586 65.4199 45.9082 66.9552 45.8614C68.4905 45.8146 70.0761 45.7642 71.615 45.7642C72.9705 45.7642 74.1606 45.8038 75.2464 45.8794C75.5161 45.8974 76.1237 45.9694 76.3682 46.0558C76.6882 46.1709 76.9363 46.4409 77.0154 46.7612C77.0873 47.0491 77.0118 47.3407 76.8105 47.5602C76.6163 47.769 75.9511 47.9022 74.779 47.967C74.4806 47.9814 74.1786 47.9886 73.8801 47.9886L73.8765 47.9921Z" fill="black"/>
<path d="M71.6148 45.8111C72.8409 45.8111 74.0526 45.8434 75.2427 45.9262C75.5159 45.9442 76.12 46.0198 76.3537 46.1026C76.9434 46.3113 77.2274 47.042 76.778 47.5315C76.5119 47.823 75.2499 47.8986 74.7789 47.9238C74.4804 47.9382 74.182 47.9454 73.88 47.9454C72.4993 47.9454 71.1151 47.805 69.756 47.7978C69.6481 47.7978 69.5402 47.7978 69.4324 47.7978C67.3002 47.7978 64.8805 47.931 62.6081 47.931C61.5115 47.931 60.4508 47.8986 59.4692 47.8086C57.8585 47.6575 57.8836 46.099 59.3578 45.9334C60.325 45.9874 61.303 46.0054 62.2917 46.0054C65.3731 46.0054 68.5371 45.8111 71.6148 45.8111ZM71.6148 45.7211C70.076 45.7211 68.4868 45.7715 66.9515 45.8182C65.4162 45.865 63.8306 45.9154 62.2917 45.9154C61.2167 45.9154 60.2567 45.8902 59.3614 45.8434C58.5236 45.937 58.1605 46.4229 58.1641 46.8656C58.1677 47.3191 58.5704 47.8122 59.4585 47.895C60.343 47.9778 61.3713 48.0174 62.6045 48.0174C63.7587 48.0174 64.9632 47.9814 66.1281 47.949C67.2859 47.9166 68.3825 47.8842 69.4288 47.8842C69.5366 47.8842 69.6445 47.8842 69.7524 47.8842C70.4032 47.8878 71.0719 47.9238 71.7227 47.9562C72.4274 47.9922 73.1573 48.0318 73.8764 48.0318C74.1964 48.0318 74.4912 48.0246 74.7789 48.0102C75.9798 47.9454 76.6377 47.8122 76.8427 47.5891C77.0548 47.3587 77.1339 47.0528 77.0584 46.7505C76.9757 46.4157 76.7168 46.1314 76.3825 46.0162C76.1344 45.9298 75.5231 45.8542 75.2499 45.8362C74.1604 45.7571 72.9739 45.7211 71.6184 45.7211H71.6148Z" fill="#231F20"/>
<path d="M49.0379 68.3603C45.3381 68.3603 40.5777 67.7988 38.9022 65.1174C38.6074 64.6423 38.0501 63.3573 38.3233 62.6303C38.4132 62.3927 38.5822 62.238 38.8231 62.1624C38.9561 62.1228 39.082 62.1012 39.1934 62.1012C39.8406 62.1012 40.0707 62.7383 40.2793 63.3033C40.3692 63.5445 40.4518 63.7748 40.5633 63.9512C41.5341 65.4881 44.4464 66.2655 49.2213 66.2655C49.9943 66.2655 50.6882 66.2475 51.1916 66.2331C51.4181 66.2259 51.7201 66.1899 52.0401 66.1467C52.4608 66.0927 52.9354 66.0316 53.3453 66.0316C53.7192 66.0316 53.9925 66.082 54.1759 66.1863C54.4671 66.3519 54.6648 66.6542 54.69 66.9746C54.7116 67.2625 54.5965 67.5324 54.37 67.716C53.9637 68.0399 51.4648 68.2847 50.9579 68.3099C50.3179 68.3459 49.6707 68.3639 49.0307 68.3639L49.0379 68.3603Z" fill="black"/>
<path d="M39.1803 62.148C40.0576 62.148 40.1331 63.3753 40.5107 63.9728C41.7978 66.0099 46.1484 66.3087 49.2082 66.3087C49.9668 66.3087 50.6463 66.2907 51.1821 66.2763C51.7142 66.2619 52.6203 66.0747 53.3358 66.0747C53.6594 66.0747 53.947 66.1143 54.1448 66.2223C54.6877 66.5282 54.8315 67.2769 54.3317 67.6764C53.9506 67.9823 51.556 68.2307 50.9448 68.2631C50.3803 68.2919 49.7295 68.3171 49.0212 68.3171C45.4832 68.3171 40.5969 67.7736 38.925 65.0921C38.5295 64.4551 37.7493 62.5259 38.8208 62.2055C38.9538 62.166 39.0725 62.148 39.1803 62.148ZM39.1803 62.058C39.0617 62.058 38.9322 62.0796 38.7956 62.1192C38.5367 62.1984 38.3605 62.3639 38.2635 62.6123C37.983 63.3573 38.5475 64.6602 38.8459 65.1389C39.7772 66.629 42.2976 68.4034 49.0176 68.4034C49.6576 68.4034 50.3048 68.3854 50.9448 68.3495C51.2864 68.3315 53.9398 68.0975 54.3821 67.7448C54.6194 67.554 54.7416 67.2697 54.72 66.9673C54.6913 66.629 54.4863 66.3159 54.1843 66.1431C53.9938 66.0351 53.7133 65.9812 53.3322 65.9812C52.9187 65.9812 52.4405 66.0423 52.0198 66.0963C51.6998 66.1359 51.4014 66.1755 51.1749 66.1827C50.6679 66.1971 49.9776 66.2151 49.2046 66.2151C44.4477 66.2151 41.5462 65.4449 40.5826 63.9224C40.4747 63.7532 40.392 63.5229 40.3021 63.2853C40.09 62.7094 39.8527 62.0544 39.1767 62.0544L39.1803 62.058Z" fill="#231F20"/>
<path d="M30.643 42.9821C26.7706 42.9821 22.8371 42.9101 19.0331 42.8417L17.9077 42.8201C17.7998 42.8201 17.692 42.8201 17.5769 42.8201C17.0628 42.8201 16.4803 42.8381 15.8655 42.8561C15.1823 42.8777 14.4776 42.8993 13.7909 42.8993C12.5037 42.8993 11.5976 42.8201 10.9432 42.6545C10.5513 42.5538 10.2817 42.2478 10.2529 41.8699C10.2241 41.5208 10.4111 41.2148 10.7383 41.0745C10.9828 40.9701 11.6587 40.9377 12.1549 40.9161C12.27 40.9125 12.3706 40.9053 12.4497 40.9017C14.4129 40.7793 16.563 40.7217 19.0187 40.7217C21.4744 40.7217 24.0812 40.7829 26.5585 40.8405C29.0358 40.8981 31.5958 40.9593 34.091 40.9593C35.9068 40.9593 37.5283 40.9269 39.042 40.8621C39.3261 40.9665 39.8798 40.9701 40.4658 40.9773C41.4618 40.9881 42.5908 40.9989 42.8173 41.4776C42.9575 41.7763 42.9719 42.0283 42.8497 42.2298C42.5512 42.7301 41.5229 42.7913 40.9081 42.8237L40.8002 42.8309C39.4879 42.9101 38.1036 42.9209 36.7625 42.9317C36.1944 42.9353 35.6299 42.9389 35.0762 42.9497C33.6668 42.9749 32.2178 42.9857 30.643 42.9857V42.9821Z" fill="black"/>
<path d="M19.0185 40.7613C24.0162 40.7613 29.0931 40.9988 34.0872 40.9988C35.7483 40.9988 37.4023 40.9737 39.0418 40.9017C39.7681 41.1752 42.4288 40.7685 42.7739 41.4919C43.3456 42.6941 41.5766 42.7373 40.7928 42.7841C38.9267 42.8956 36.9384 42.8705 35.0724 42.9028C33.5946 42.928 32.1169 42.9388 30.6355 42.9388C26.3892 42.9388 22.1322 42.8525 17.9075 42.7769C17.7996 42.7769 17.6882 42.7769 17.5731 42.7769C16.4909 42.7769 15.0994 42.8561 13.7906 42.8561C12.7192 42.8561 11.7017 42.8021 10.9538 42.6113C10.1628 42.4098 10.0693 41.4128 10.7524 41.1176C11.0473 40.9917 12.0396 40.9737 12.4495 40.9485C14.614 40.8153 16.8073 40.7685 19.0149 40.7685M19.0185 40.6713C16.5592 40.6713 14.4091 40.7289 12.4459 40.8513C12.3668 40.8549 12.2661 40.8621 12.1511 40.8657C11.6513 40.8873 10.9682 40.9197 10.7165 41.0276C10.3713 41.1752 10.1772 41.4955 10.2059 41.8663C10.2383 42.2622 10.5223 42.5861 10.9322 42.6905C11.5902 42.8597 12.4999 42.9352 13.7906 42.9352C14.4774 42.9352 15.1821 42.9136 15.8652 42.892C16.4801 42.8741 17.0625 42.8561 17.5767 42.8561C17.6917 42.8561 17.8032 42.8561 17.9075 42.8561L19.0221 42.8777C22.8261 42.946 26.7632 43.018 30.6355 43.018C32.2104 43.018 33.6629 43.0072 35.0724 42.982C35.6225 42.9712 36.1834 42.9676 36.7479 42.964C38.089 42.9532 39.4804 42.9424 40.7964 42.8633L40.9043 42.8561C41.5299 42.8201 42.5726 42.7625 42.8818 42.2406C43.0076 42.0246 43.0004 41.7583 42.8494 41.4452C42.6121 40.9449 41.5191 40.9341 40.4584 40.9197C39.8759 40.9125 39.3258 40.9089 39.067 40.8081L39.049 40.8009H39.031C37.5137 40.8657 35.8957 40.8981 34.08 40.8981C31.5847 40.8981 29.0247 40.8369 26.5475 40.7793C24.0702 40.7217 21.5102 40.6605 19.0077 40.6605L19.0185 40.6713Z" fill="#231F20"/>
<path d="M41.7902 35.9455C41.7291 35.9455 41.668 35.9419 41.6032 35.9311C39.6509 35.9383 37.6878 35.9419 35.7282 35.9419C28.8249 35.9419 22.7269 35.8987 17.0892 35.8051C16.9777 35.8051 16.8662 35.8051 16.7548 35.8051C16.1615 35.8051 15.5323 35.8267 14.8672 35.8483C14.1984 35.8699 13.5117 35.8951 12.8537 35.8951C12.1669 35.8951 11.5988 35.8663 11.1206 35.8123C10.7647 35.7727 10.4663 35.5963 10.3189 35.3408C10.193 35.1248 10.1858 34.8693 10.2973 34.6102C10.531 34.0631 11.2429 34.0163 11.8182 33.9767L11.944 33.9695C12.4761 33.9299 13.0334 33.9191 13.5728 33.9083C13.8604 33.9011 14.1481 33.8975 14.4285 33.8867C16.9669 33.7967 19.7283 33.7499 22.6298 33.7499C27.2213 33.7499 32.1363 33.8543 38.5615 34.0883C38.6837 34.0919 38.8096 34.0955 38.9462 34.0955C39.1799 34.0955 39.4352 34.0919 39.694 34.0847C39.9745 34.0775 40.2621 34.0739 40.5462 34.0739C41.1143 34.0739 41.8406 34.0955 42.3799 34.2574C42.8185 34.387 43.0379 34.6641 42.9875 35.0205C42.9228 35.4596 42.4122 35.9491 41.783 35.9491L41.7902 35.9455Z" fill="black"/>
<path d="M22.6357 33.7932C27.9714 33.7932 33.3682 33.9443 38.5637 34.1315C38.686 34.1351 38.8154 34.1387 38.952 34.1387C39.4374 34.1387 39.9983 34.1171 40.552 34.1171C41.2244 34.1171 41.8788 34.1495 42.3714 34.2971C43.5327 34.6426 42.7597 35.8987 41.7889 35.8987C41.7314 35.8987 41.6702 35.8951 41.6091 35.8843C39.646 35.8915 37.6792 35.8951 35.7125 35.8951C29.4995 35.8951 23.2865 35.8591 17.0878 35.7584C16.98 35.7584 16.8649 35.7584 16.7535 35.7584C15.5454 35.7584 14.1431 35.8519 12.8523 35.8519C12.2411 35.8519 11.6515 35.8303 11.1229 35.7691C10.5225 35.7008 10.0802 35.2329 10.3355 34.6282C10.5764 34.0667 11.3746 34.0559 11.9427 34.0127C12.7517 33.9551 13.611 33.9587 14.4272 33.9299C17.1202 33.8328 19.8672 33.7932 22.6285 33.7932M22.6393 33.7032C19.7341 33.7032 16.9728 33.75 14.4344 33.84C14.1503 33.8508 13.8627 33.8544 13.575 33.8616C13.0357 33.8723 12.4784 33.8831 11.9463 33.9227L11.8204 33.9299C11.2667 33.9659 10.5081 34.0163 10.2636 34.5886C10.1449 34.8657 10.1521 35.1321 10.2852 35.3624C10.4398 35.6288 10.7526 35.8123 11.1193 35.8555C11.5975 35.9095 12.1692 35.9383 12.8559 35.9383C13.5427 35.9383 14.2043 35.9131 14.8694 35.8915C15.5346 35.8699 16.1602 35.8483 16.7535 35.8483C16.8649 35.8483 16.9764 35.8483 17.0878 35.8483C22.7256 35.9383 28.8199 35.9851 35.7125 35.9851C37.6792 35.9851 39.6424 35.9851 41.6091 35.9743C41.6595 35.9851 41.7242 35.9887 41.7853 35.9887C42.4361 35.9887 42.9682 35.4776 43.0329 35.0205C43.0581 34.8405 43.0473 34.405 42.3929 34.2107C41.8464 34.0487 41.1201 34.0271 40.5484 34.0271C40.2644 34.0271 39.9768 34.0343 39.6963 34.0379C39.4374 34.0451 39.1822 34.0487 38.9484 34.0487C38.8154 34.0487 38.686 34.0487 38.5637 34.0415C32.1386 33.8076 27.2235 33.7032 22.6321 33.7032H22.6393Z" fill="#231F20"/>
<path d="M24.1674 49.9214C21.3486 49.9214 18.3104 49.853 14.8803 49.7126C14.7149 49.7054 14.4704 49.7054 14.1792 49.7054C12.8884 49.7054 10.936 49.7054 10.5261 49.2303C10.3104 48.982 10.2565 48.6905 10.3715 48.4097C10.5118 48.0678 10.8785 47.8158 11.2812 47.7834C12.1657 47.805 13.0825 47.8158 14.0929 47.8158C15.9913 47.8158 17.9329 47.7762 19.8133 47.7403C21.6938 47.7043 23.6389 47.6647 25.5409 47.6647C27.1697 47.6647 28.6115 47.6935 29.9454 47.7511C30.625 47.7798 32.1746 47.8446 32.6996 48.0498C33.0915 48.201 33.336 48.5285 33.3216 48.8848C33.3072 49.2087 33.0843 49.4643 32.7247 49.5687C32.0703 49.7594 30.6178 49.799 29.6578 49.8242L29.2443 49.835C27.6407 49.889 25.9328 49.9178 24.1674 49.9178V49.9214Z" fill="black"/>
<path d="M25.5331 47.715C27.0073 47.715 28.4778 47.7366 29.934 47.8014C30.5848 47.8302 32.1488 47.895 32.6738 48.0966C33.436 48.3881 33.4828 49.3023 32.7025 49.5291C31.9475 49.7486 30.1102 49.7666 29.2329 49.7954C27.5574 49.853 25.8603 49.8782 24.1596 49.8782C21.0495 49.8782 17.9251 49.7954 14.8725 49.6694C14.0347 49.6334 11.0433 49.7702 10.5507 49.2051C10.0401 48.6149 10.5795 47.8878 11.277 47.8338C12.2082 47.8554 13.1466 47.8662 14.0851 47.8662C17.8855 47.8662 21.7327 47.715 25.5367 47.715M25.5331 47.6251C23.6311 47.6251 21.6824 47.6647 19.8019 47.7006C17.9215 47.7366 15.9799 47.7762 14.0815 47.7762C13.0711 47.7762 12.1543 47.7654 11.277 47.7438C10.8491 47.7762 10.468 48.039 10.3206 48.3953C10.1983 48.694 10.2559 49.0036 10.4824 49.2627C10.8707 49.7126 12.5174 49.7522 14.1678 49.7522C14.4554 49.7522 14.7071 49.7522 14.8689 49.7594C18.299 49.8998 21.3408 49.9682 24.1596 49.9682C25.925 49.9682 27.6329 49.9394 29.2365 49.8854C29.3587 49.8818 29.5025 49.8782 29.6572 49.8746C30.6172 49.8494 32.0697 49.8062 32.7277 49.6154C33.1088 49.5039 33.3425 49.2339 33.3569 48.8884C33.3713 48.5141 33.116 48.1685 32.7061 48.0102C32.174 47.805 30.6243 47.7402 29.9628 47.7114H29.9376C28.6037 47.6539 27.1619 47.6251 25.5331 47.6251Z" fill="#231F20"/>
<path d="M91.5938 22.308C91.6621 22.1604 91.7088 22.002 91.7987 21.8689C92.8594 20.3104 94.1897 19.0075 95.6639 17.8449C96.9582 16.8263 98.2562 15.8077 99.5398 14.7748C100.011 14.3968 100.532 14.4904 100.956 14.7388C101.258 14.9151 101.327 15.3039 101.129 15.599C101.057 15.7034 100.971 15.8041 100.877 15.8905C100.058 16.6536 99.2414 17.4238 98.4072 18.1688C97.8104 18.6979 97.1847 19.1946 96.5735 19.7057C95.8077 20.3428 95.0454 20.9906 94.2724 21.6169C93.7475 22.0416 93.2189 22.4663 92.6688 22.8551C92.2122 23.1754 91.6872 22.8874 91.5938 22.308Z" fill="black"/>
<path d="M96.2335 25.9505C95.5216 26.0476 94.8097 26.0584 94.1014 25.9181C93.731 25.8425 93.5369 25.6553 93.5045 25.335C93.4721 25.0183 93.6124 24.7591 93.9791 24.6583C94.6982 24.4604 95.4209 24.266 96.1544 24.1473C97.3876 23.9457 98.6281 23.7981 99.8649 23.6362C100.3 23.5786 100.739 23.557 101.174 23.5174C101.717 23.467 102.083 23.9853 101.979 24.4244C101.918 24.6799 101.763 24.8491 101.508 24.9067C100.052 25.2342 98.5957 25.5654 97.136 25.8749C96.8411 25.9361 96.5355 25.9289 96.2335 25.9541V25.9505Z" fill="black"/>
<path d="M89.3983 20.6775C89.3228 19.7237 89.4235 18.7843 89.6032 17.8521C89.7686 16.9991 89.97 16.1569 90.1569 15.3111C90.2145 15.0591 90.3583 14.8755 90.6208 14.8288C90.8365 14.7892 91.0414 14.8288 91.1637 15.0303C91.2248 15.1311 91.2751 15.2571 91.2751 15.3722C91.2608 16.5636 91.2751 17.7549 91.2032 18.9427C91.1421 19.9469 90.9803 20.9475 90.8473 21.9481C90.8041 22.2612 90.5453 22.4699 90.254 22.4951C90.0167 22.5131 89.7291 22.3332 89.65 22.0416C89.5277 21.5953 89.4486 21.1382 89.3516 20.6883C89.3659 20.6883 89.3839 20.6811 89.3983 20.6811V20.6775Z" fill="black"/>
</g>
<defs>
<clipPath id="clip0_8331_2145">
<rect width="101.781" height="53.8281" fill="white" transform="translate(0.21875 14.5228)"/>
</clipPath>
</defs>
</svg>
