<svg width="150" height="72" viewBox="0 0 150 72" fill="none" xmlns="http://www.w3.org/2000/svg">
<rect width="150" height="72" fill="white" fill-opacity="0.01"/>
<g clip-path="url(#clip0_8331_2145)">
<path d="M9.42275 66.7181C8.97764 66.7181 8.41937 66.6804 8.03084 66.3858C7.77811 66.1932 7.63854 65.9591 7.62345 65.691C7.58196 64.9396 8.47595 64.0938 9.06817 63.5349C9.15493 63.4518 9.23415 63.3763 9.30204 63.3121C9.73207 62.8854 10.2149 62.4663 10.6826 62.0622C12.0293 60.8917 13.4212 59.6833 13.9908 57.9992C10.3696 57.8633 5.43939 57.6556 2.75364 54.3629C-0.135808 50.8209 0.184823 43.9183 0.396062 39.3531L0.452643 38.1145C0.810995 30.0527 1.04864 24.7247 10.5733 23.5843C15.4808 22.9952 20.7467 22.9424 25.839 22.8895C27.1744 22.8744 28.4984 22.8631 29.8035 22.8404C30.9578 22.8215 32.1573 22.7838 33.3871 22.746C35.3486 22.6856 37.3742 22.6214 39.381 22.6214C42.4967 22.6214 44.9373 22.7762 47.0572 23.1047C57.8908 24.7813 57.0798 34.1686 56.3631 42.4494C55.7557 49.4389 55.1862 56.0432 46.4273 57.6027C41.4141 58.4939 36.0577 58.7658 30.8824 59.0301C29.4527 59.1018 28.0382 59.1736 26.6387 59.2604C21.6859 63.8559 15.7486 66.5067 9.95085 66.7106H9.89427C9.74338 66.7181 9.58495 66.7257 9.41898 66.7257L9.42275 66.7181ZM38.5549 25.14C32.0329 25.14 24.9714 25.2986 16.3295 25.6347C15.5072 25.6649 14.6924 25.6762 13.9078 25.6876C8.23831 25.7631 3.75702 25.8273 3.08181 33.251C2.76495 36.74 2.66688 41.6489 2.82908 45.7573C3.10445 52.5957 4.29266 54.8613 11.1843 55.6996C11.5502 55.7449 11.9652 55.7638 12.399 55.7864C13.7871 55.8544 15.3638 55.9337 15.9938 56.8513C16.3484 57.3648 16.371 58.071 16.0655 59.015C15.5411 60.6349 12.8818 63.2668 11.6068 64.158C11.5729 64.1806 11.5427 64.1995 11.5125 64.2146C11.4258 64.2599 11.3843 64.2826 11.4031 64.3996C15.5562 63.871 19.4491 62.2624 22.6629 59.7551C22.9949 59.4945 23.3193 59.1849 23.6323 58.8866C24.4584 58.1012 25.3109 57.2893 26.4878 57.1723C28.9397 56.9306 31.4406 56.7947 33.8623 56.6587C37.51 56.4586 41.2821 56.2509 44.9637 55.6807C48.5623 55.1219 51.0293 54.4875 52.5004 50.904C54.1224 46.958 54.8165 35.6035 54.0281 31.4498C52.9191 25.6083 48.1436 25.1211 43.3455 25.1211C42.8513 25.1211 42.3609 25.1249 41.8706 25.1325C41.3915 25.1362 40.9162 25.1438 40.4485 25.1438C40.4485 25.1438 39.1094 25.1438 38.5549 25.1438V25.14Z" fill="black"/>
<path d="M39.3835 22.6668C42.0353 22.6668 44.6607 22.7763 47.0522 23.1463C57.6444 24.7851 57.0672 33.8099 56.3204 42.4382C55.6678 49.9525 54.8568 56.0471 46.4223 57.5499C40.0323 58.6865 33.118 58.8149 26.6375 59.2076C22.1185 63.3877 16.2453 66.435 9.94964 66.6578C9.78744 66.6653 9.60637 66.6729 9.42154 66.6729C8.93494 66.6729 8.41438 66.62 8.05603 66.3519C6.87913 65.4645 8.68975 63.9843 9.33478 63.3462C11.0096 61.6923 13.3031 60.2838 14.0537 57.954C10.1948 57.8067 5.42686 57.565 2.78638 54.3327C-0.13702 50.7417 0.251509 43.5408 0.458976 39.1266C0.855048 30.638 0.704163 24.8191 10.5834 23.6334C16.7772 22.8896 23.5444 22.9991 29.8061 22.8896C32.8012 22.8367 36.1169 22.6705 39.3835 22.6705M40.451 25.0948C40.3756 25.0948 40.2964 25.0948 40.2209 25.0948C39.6664 25.0948 39.1119 25.0948 38.5574 25.0948C31.1301 25.0948 23.733 25.2987 16.3358 25.5894C9.66673 25.85 3.81617 24.7323 3.03911 33.2473C2.69584 37.0271 2.63549 41.9548 2.78638 45.7611C3.05797 52.5467 4.19338 54.8991 11.1831 55.7488C13.337 56.0093 17.1695 55.4618 16.0265 59.0037C15.5211 60.5708 12.9296 63.1838 11.5867 64.124C11.4472 64.2222 11.3151 64.2147 11.3717 64.4563C15.4683 63.9428 19.4478 62.3304 22.6994 59.7967C23.8989 58.8602 24.891 57.3838 26.5017 57.2252C32.6503 56.6172 38.8479 56.6852 44.9813 55.7336C48.5422 55.1786 51.0771 54.5329 52.5558 50.9305C54.1778 46.977 54.8794 35.63 54.0873 31.4499C52.9707 25.5781 48.1499 25.0834 43.3556 25.0834C42.3786 25.0834 41.4016 25.1023 40.4548 25.1023M39.3835 22.5724C37.373 22.5724 35.3473 22.6366 33.3858 22.697C32.1373 22.7347 30.9566 22.7725 29.8023 22.7914C28.5009 22.814 27.1505 22.8291 25.8416 22.8405C20.7492 22.8933 15.4796 22.9462 10.5683 23.5353C6.14734 24.0677 3.43518 25.5743 2.03195 28.278C0.730569 30.7815 0.579684 34.18 0.406166 38.1108C0.391077 38.4431 0.375989 38.7754 0.3609 39.1152L0.349584 39.3418C0.138345 43.9146 -0.186057 50.8286 2.71848 54.3856C5.40423 57.6783 10.3042 57.9011 13.9292 58.037C13.3521 59.6796 11.9828 60.8691 10.655 62.0208C10.1873 62.4248 9.70445 62.8439 9.27065 63.2744C9.20276 63.3386 9.12354 63.4141 9.03678 63.4972C8.43702 64.0636 7.53171 64.9208 7.57697 65.6911C7.59206 65.9743 7.7354 66.2197 7.99945 66.4199C8.39929 66.722 8.96888 66.7597 9.42154 66.7597C9.58751 66.7597 9.74971 66.7522 9.9006 66.7484H9.95341C15.7512 66.5407 21.6885 63.8937 26.6752 59.2907C28.0596 59.2076 29.4968 59.1359 30.8811 59.0641C36.0603 58.7998 41.4167 58.5279 46.4336 57.6368C50.3566 56.9382 52.8764 55.239 54.3664 52.2861C55.6904 49.6618 56.0752 46.2746 56.4071 42.4419C56.7391 38.6017 57.154 33.825 56.0223 30.1396C54.7851 26.1105 51.8542 23.792 47.0598 23.0482C44.9361 22.7196 42.4955 22.5648 39.376 22.5648L39.3835 22.5724ZM40.451 25.1892C40.9188 25.1892 41.3941 25.1854 41.8769 25.1778C42.3635 25.1741 42.8576 25.1665 43.3518 25.1665C48.1311 25.1665 52.8877 25.6536 53.9892 31.4574C54.7738 35.6035 54.0797 46.9468 52.4615 50.8852C51.0017 54.446 48.5422 55.0766 44.9625 55.6317C41.2809 56.2019 37.5088 56.4096 33.8649 56.6097C31.4432 56.7419 28.9423 56.8778 26.4904 57.1232C25.2984 57.2403 24.4384 58.0597 23.6085 58.8489C23.2954 59.1472 22.971 59.4531 22.6391 59.7136C19.4441 62.2096 15.5776 63.8068 11.4509 64.343C11.4509 64.3015 11.4811 64.2864 11.5415 64.2524C11.5717 64.2373 11.6056 64.2184 11.6395 64.192C12.9183 63.2971 15.589 60.6538 16.1171 59.0226C16.4264 58.0635 16.4 57.3422 16.0378 56.8174C15.3928 55.8847 13.8085 55.8054 12.4091 55.7336C11.9715 55.711 11.5603 55.6921 11.1944 55.6468C4.33672 54.8123 3.15227 52.558 2.88068 45.7498C2.71471 41.6414 2.81655 36.7326 3.13341 33.251C3.80485 25.8689 8.26727 25.8084 13.9141 25.7291C14.7025 25.7178 15.5135 25.7065 16.3396 25.6763C24.974 25.3402 32.0354 25.1816 38.5574 25.1816C39.1119 25.1816 39.6664 25.1816 40.2209 25.1816H40.4548L40.451 25.1892Z" fill="#231F20"/>
<path d="M52.5425 50.9229C51.0639 54.529 48.5328 55.1747 44.9681 55.726C38.8346 56.6776 32.637 56.6096 26.4885 57.2176C24.8816 57.3762 23.8895 58.8526 22.6862 59.7891C19.4384 62.3266 15.455 63.9352 11.3585 64.4487C11.3057 64.207 11.4339 64.2146 11.5735 64.1164C12.9202 63.1762 15.5078 60.5631 16.0133 58.9961C17.1562 55.4541 13.3238 56.0055 11.1699 55.7411C4.17637 54.8915 3.04474 52.539 2.77314 45.7535C2.62226 41.951 2.68261 37.0195 3.02588 33.2396C3.80293 24.7209 9.64972 25.8386 16.3226 25.5818C24.2742 25.2722 32.2221 25.0569 40.2077 25.0909C45.8168 25.1136 52.7085 24.2715 54.0702 31.4385C54.8624 35.6223 54.1608 46.9656 52.5388 50.9191L52.5425 50.9229Z" fill="#4AC0B4"/>
<path d="M90.5981 65.8006C89.6701 65.8006 88.3537 65.2153 87.5653 64.8641L87.3352 64.7622C83.5065 63.0894 80.1833 60.5519 76.5394 57.6481C74.178 57.531 71.8054 57.5121 69.8024 57.5121C69.014 57.5121 68.2256 57.5121 67.4373 57.5197C66.6489 57.5197 65.8605 57.5273 65.0721 57.5273C63.0804 57.5273 60.7229 57.5121 58.3427 57.3838C58.2861 57.3838 58.2295 57.38 58.1654 57.38C58.0145 57.38 57.8485 57.3875 57.6712 57.3951C57.4751 57.4026 57.2638 57.4102 57.0601 57.4102C56.5547 57.4102 55.936 57.3649 55.6154 57.0024C55.4419 56.806 55.374 56.5266 55.4193 56.1792C55.4985 55.5599 56.1247 55.3787 56.4943 55.3258C57.626 55.3145 58.7576 55.3069 59.8855 55.3069C64.0273 55.3069 68.1766 55.3825 71.6922 55.4542C71.7714 55.4542 71.8506 55.4542 71.9374 55.4542C72.39 55.4542 72.9219 55.4315 73.4877 55.4089C74.1064 55.3825 74.7439 55.3598 75.3361 55.3598C76.0415 55.3598 76.5696 55.3976 76.9468 55.4731C77.5918 55.6052 78.3764 56.2849 79.0667 56.8853C79.3194 57.1043 79.5571 57.312 79.7608 57.4668C82.356 59.4228 85.1549 61.4506 88.331 62.8855C88.033 62.1038 87.5917 61.3486 87.1617 60.6198C86.7279 59.8835 86.279 59.1207 85.9848 58.3278C85.6528 57.4442 85.6227 56.8211 85.8942 56.4322C86.2186 55.964 86.9316 55.8998 87.5879 55.8998C87.8633 55.8998 88.15 55.9111 88.4442 55.9262C88.7384 55.9375 89.0364 55.9526 89.3231 55.9526C89.4929 55.9526 89.6626 55.9489 89.821 55.9375C92.2239 55.7563 93.0273 54.9784 93.2687 52.6071C93.4083 51.2326 93.397 49.7788 93.3857 48.3741C93.3781 47.6265 93.3706 46.8561 93.3857 46.1085C93.4159 44.8057 93.4574 43.4501 93.5026 42.0681C93.646 37.6275 93.7968 33.0358 93.5177 28.9463C93.1933 24.1734 89.6928 24.0186 85.9885 23.8562C85.551 23.8373 85.1096 23.8185 84.6721 23.7882C77.4183 23.3351 70.04 23.101 62.9032 22.8744L60.4286 22.7951C59.8289 22.7763 59.2291 22.7725 58.5124 22.7725H57.6825C55.125 22.7725 52.8354 22.7121 50.7041 21.972C50.6287 21.9455 50.5532 21.9229 50.474 21.9002C50.1232 21.7945 49.7234 21.6737 49.5461 21.3036L49.5234 21.2507L49.58 21.2356C52.1262 20.5522 54.7327 20.4615 56.947 20.4615C57.7882 20.4615 58.6256 20.4767 59.4592 20.4918C66.6187 20.6277 73.8121 21.0015 80.7642 21.3602C81.511 21.398 82.2843 21.4169 83.1029 21.4358C88.7875 21.5717 95.2265 21.7303 95.7018 28.8104C95.913 31.9823 95.8187 35.3279 95.7244 38.5639C95.6376 41.5508 95.5471 44.6358 95.7018 47.5811C95.5924 48.3779 95.5735 49.2615 95.5547 50.1979C95.4943 53.0866 95.4264 56.3567 92.4804 57.5537C91.2016 58.071 89.7871 58.0899 88.4216 58.1088H88.2556L91.6128 64.2713C91.7222 64.8188 91.6694 65.2153 91.4657 65.4645C91.2884 65.6797 90.9979 65.7893 90.6019 65.7893L90.5981 65.8006Z" fill="black"/>
<path d="M56.9367 20.5144C57.7742 20.5144 58.6153 20.5295 59.4452 20.5446C66.5443 20.6805 73.6774 21.0468 80.7502 21.4131C86.7327 21.7227 95.1031 20.7749 95.6425 28.8217C96.0499 34.9125 95.3219 41.4564 95.6425 47.5924C95.1898 50.8663 96.2989 55.9564 92.4513 57.5197C91.1046 58.0672 89.6033 58.0559 88.1662 58.0748L91.5611 64.3015C91.7761 65.3965 91.3046 65.7477 90.5916 65.7477C89.5732 65.7477 88.0643 65.0265 87.3476 64.7168C83.3756 62.9798 79.9241 60.2875 76.5631 57.6103C74.3149 57.4895 72.0554 57.4668 69.7959 57.4668C68.2192 57.4668 66.6386 57.4781 65.0581 57.4781C62.8137 57.4781 60.5731 57.4555 58.34 57.3347C58.2834 57.3347 58.223 57.3309 58.1589 57.3309C57.8421 57.3309 57.4422 57.3611 57.0537 57.3611C56.1786 57.3611 55.3336 57.2025 55.4581 56.1867C55.5222 55.6619 56.0201 55.4429 56.4916 55.3749C57.6195 55.3636 58.7436 55.356 59.8715 55.356C63.8133 55.356 67.7552 55.424 71.6782 55.5033C71.7574 55.5033 71.8366 55.5033 71.9234 55.5033C72.8702 55.5033 74.1867 55.4089 75.3221 55.4089C75.9407 55.4089 76.5028 55.4353 76.9252 55.5221C77.7966 55.6996 78.981 56.9457 79.7204 57.5046C82.4778 59.5814 85.2277 61.5563 88.4038 62.9723C87.8191 61.3486 86.6196 59.9137 86.0198 58.3089C85.2503 56.2471 86.2424 55.9451 87.5777 55.9451C88.1284 55.9451 88.7395 55.9979 89.3091 55.9979C89.4826 55.9979 89.6486 55.9942 89.8108 55.9828C92.2023 55.8016 93.0586 55.0124 93.3 52.6108C93.515 50.4962 93.3717 48.2457 93.4207 46.1085C93.5414 40.6747 93.9224 34.3234 93.5527 28.9425C93.1869 23.5617 88.8112 23.9997 84.6619 23.7429C76.582 23.2407 68.4908 23.0104 60.4184 22.7536C59.7885 22.7347 59.1472 22.7309 58.4984 22.7309C58.223 22.7309 57.9477 22.7309 57.6723 22.7309C55.3034 22.7309 52.8893 22.6894 50.7052 21.9342C50.2978 21.7945 49.7773 21.7189 49.5736 21.2885C51.9613 20.6465 54.4509 20.5144 56.9292 20.5144M56.9367 20.42C54.7187 20.42 52.1084 20.5106 49.5547 21.1978L49.4453 21.2281L49.4944 21.33C49.6792 21.7189 50.0903 21.8398 50.4487 21.9493C50.5279 21.9719 50.6034 21.9946 50.6788 22.021C52.8176 22.7649 55.1148 22.8253 57.6761 22.8253H58.091H58.5022C59.2189 22.8253 59.8187 22.8291 60.4184 22.848L62.8854 22.9273C70.0222 23.1538 77.4043 23.388 84.6581 23.8411C85.0956 23.8675 85.537 23.8864 85.9746 23.9091C89.6599 24.0714 93.1378 24.2262 93.4584 28.9576C93.7376 33.0433 93.5867 37.6312 93.4434 42.0719C93.3981 43.4803 93.3528 44.8133 93.3264 46.116C93.3113 46.8637 93.3151 47.634 93.3264 48.3816C93.3377 49.7863 93.3491 51.2363 93.2095 52.6108C92.9718 54.952 92.1759 55.7223 89.807 55.8998C89.6599 55.9111 89.4977 55.9149 89.3129 55.9149C89.0262 55.9149 88.7282 55.9035 88.4378 55.8884C88.1511 55.8771 87.8568 55.862 87.5815 55.862C86.9138 55.862 86.1858 55.9262 85.8501 56.4133C85.5709 56.8173 85.5973 57.4517 85.9368 58.3504C86.2348 59.1472 86.6837 59.9099 87.1175 60.65C87.5249 61.3448 87.9474 62.0585 88.2416 62.7986C85.1107 61.3675 82.3495 59.3662 79.7845 57.4328C79.5846 57.2818 79.3432 57.0741 79.0904 56.8551C78.3964 56.2509 77.6042 55.5675 76.9479 55.4315C76.5669 55.3522 76.035 55.3145 75.3258 55.3145C74.7336 55.3145 74.0924 55.3409 73.4737 55.3636C72.9117 55.3862 72.376 55.4089 71.9272 55.4089C71.8442 55.4089 71.7612 55.4089 71.6858 55.4089C68.1664 55.3371 64.0133 55.2616 59.8752 55.2616C58.7172 55.2616 57.578 55.2692 56.4954 55.2805C55.824 55.3749 55.4279 55.6921 55.3675 56.1754C55.3223 56.5379 55.394 56.8249 55.575 57.0363C55.9032 57.4102 56.5369 57.4593 57.0537 57.4593C57.2612 57.4593 57.4686 57.4517 57.6685 57.4404C57.8458 57.4328 58.0118 57.4253 58.1627 57.4253C58.223 57.4253 58.2834 57.4253 58.3362 57.4291C60.7126 57.5537 63.0702 57.5725 65.0619 57.5725C65.8503 57.5725 66.6424 57.5725 67.4308 57.565C68.2192 57.565 69.0113 57.5574 69.7997 57.5574C71.7951 57.5574 74.1527 57.5763 76.5329 57.7009C80.1693 60.5972 83.4925 63.1309 87.3137 64.8037L87.5438 64.9056C88.3321 65.2568 89.6561 65.8459 90.5954 65.8459C91.0066 65.8459 91.3083 65.7326 91.4932 65.506C91.7082 65.2455 91.7648 64.8339 91.6554 64.2864V64.2713L91.6441 64.2599L88.3246 58.1692H88.4113C89.7844 58.1503 91.2027 58.1314 92.489 57.6103C95.4652 56.402 95.5331 53.113 95.5935 50.213C95.6123 49.2766 95.6312 48.3967 95.7406 47.6113C95.5897 44.6509 95.6765 41.5659 95.7632 38.579C95.8575 35.3392 95.9556 31.9936 95.7406 28.8179C95.2615 21.6925 88.7999 21.5377 83.0964 21.398C82.2779 21.3791 81.5084 21.3602 80.7577 21.3225C73.8057 20.9637 66.616 20.5899 59.449 20.454C58.5588 20.4351 57.7553 20.4238 56.9367 20.4238V20.42Z" fill="#231F20"/>
<path d="M83.8941 32.6808C83.1774 32.6808 82.4418 32.6317 81.7289 32.5826C81.0839 32.5373 80.42 32.492 79.7862 32.4882C79.4053 32.4882 79.0243 32.4844 78.6433 32.4844C76.9496 32.4844 75.1918 32.5184 73.4981 32.5486C71.7856 32.5788 70.0127 32.6128 68.2813 32.6128C66.5499 32.6128 64.8977 32.575 63.4794 32.4995C63.4228 32.4995 62.046 32.4202 61.6914 32.3145C61.2915 32.1937 61.0312 31.8387 61.0312 31.4082C61.0312 30.9778 61.2915 30.619 61.6914 30.4944C61.963 30.4114 62.5967 30.3887 63.1059 30.3698C63.2643 30.3623 63.4115 30.3585 63.5209 30.3509C64.5695 30.2905 65.6936 30.2603 66.9573 30.2603C68.5566 30.2603 70.1824 30.3094 71.7554 30.3547C72.9813 30.3925 74.2488 30.4302 75.486 30.4416C75.6784 30.4416 75.8708 30.4416 76.0632 30.4416C77.0175 30.4416 78.0171 30.4189 78.9866 30.3925C79.9749 30.3698 80.9971 30.3434 81.9854 30.3434C82.9737 30.3434 83.8979 30.3698 84.6862 30.4265C85.2709 30.468 86.4931 30.5548 86.4931 31.5215C86.4931 32.171 85.8292 32.5373 85.1728 32.6128C84.7805 32.6581 84.3581 32.677 83.8903 32.677L83.8941 32.6808Z" fill="black"/>
<path d="M66.9556 30.3094C69.8036 30.3094 72.6704 30.4605 75.4882 30.4907C75.6806 30.4907 75.8729 30.4907 76.0653 30.4907C77.9853 30.4907 80.0223 30.3963 81.9876 30.3963C82.908 30.3963 83.8133 30.4189 84.6846 30.4793C85.3447 30.5247 86.4462 30.6304 86.4462 31.5253C86.4462 32.1899 85.7333 32.5071 85.1712 32.5675C84.7488 32.6128 84.3225 32.6317 83.8925 32.6317C82.5232 32.6317 81.1162 32.4504 79.7884 32.4391C79.4074 32.4391 79.0264 32.4353 78.6417 32.4353C75.243 32.4353 71.7274 32.5637 68.2834 32.5637C66.6614 32.5637 65.0545 32.5335 63.4853 32.4504C63.093 32.4278 62.0028 32.356 61.7086 32.2692C60.875 32.0162 60.8712 30.7965 61.7086 30.5398C62.0632 30.4303 63.0628 30.4265 63.5268 30.4001C64.666 30.3321 65.8089 30.3094 66.9594 30.3094M66.9556 30.215C65.692 30.215 64.5679 30.2452 63.5192 30.3057C63.4061 30.3132 63.2627 30.317 63.1005 30.3245C62.5913 30.3434 61.9576 30.3661 61.6784 30.4529C61.256 30.5813 60.9844 30.9589 60.9844 31.412C60.9844 31.8652 61.256 32.239 61.6784 32.3636C62.0368 32.4731 63.4212 32.5486 63.4777 32.5486C64.8961 32.6241 66.4653 32.6619 68.2797 32.6619C70.0941 32.6619 71.7802 32.6279 73.4965 32.5977C75.194 32.5675 76.948 32.5335 78.6417 32.5335C79.0264 32.5335 79.4074 32.5335 79.7846 32.5373C80.4146 32.5448 81.0785 32.5902 81.7235 32.6317C82.4364 32.6808 83.172 32.7299 83.8925 32.7299C84.364 32.7299 84.7865 32.7072 85.1825 32.6657C85.8578 32.5902 86.5405 32.2088 86.5443 31.5291C86.5443 30.5209 85.2957 30.4303 84.6959 30.3887C83.9076 30.3321 83.0249 30.3057 81.9913 30.3057C80.9578 30.3057 79.9808 30.3321 78.9925 30.3547C78.0231 30.3774 77.0234 30.4038 76.0691 30.4038C75.8767 30.4038 75.6843 30.4038 75.492 30.4038C74.2547 30.3887 72.9873 30.351 71.7613 30.317C70.1884 30.2717 68.5588 30.2226 66.9594 30.2226L66.9556 30.215Z" fill="#231F20"/>
<path d="M70.3884 40.0478C68.5249 40.0478 66.8652 40.0252 65.3111 39.9799C65.0848 39.9723 64.8245 39.9685 64.5529 39.9648C63.7193 39.9497 62.7725 39.9308 62.1237 39.8553C61.373 39.7684 61.0976 39.304 61.0939 38.9339C61.0863 38.4921 61.4522 37.9597 62.2821 37.8275L84.9186 37.9181C85.624 37.9974 86.1559 38.3373 86.2803 38.7904C86.3822 39.1605 86.1936 39.5569 85.7409 39.9043C85.4127 39.9119 85.0997 39.9119 84.7941 39.9119H84.5829C82.2291 39.9119 79.8262 39.9459 77.5026 39.9799C75.1714 40.0138 72.7573 40.0478 70.3884 40.0478Z" fill="black"/>
<path d="M62.296 37.8766L84.9249 37.9673C86.1094 38.0994 86.8223 39.0208 85.7171 39.8666C85.3399 39.8666 84.9626 39.8666 84.5854 39.8666C79.874 39.8666 75.125 40.0063 70.3909 40.0063C68.6973 40.0063 67.0036 39.9874 65.3174 39.9384C64.3933 39.9119 62.9938 39.9119 62.1338 39.8137C60.7569 39.6514 60.8211 38.1107 62.2922 37.8804M62.2884 37.7822H62.2809C61.4246 37.9182 61.0436 38.4732 61.0549 38.9377C61.0625 39.3266 61.3492 39.8137 62.13 39.9044C62.7788 39.9799 63.7256 39.9988 64.5592 40.0139C64.8308 40.0176 65.0911 40.0252 65.3174 40.029C66.8715 40.0743 68.5313 40.0969 70.3947 40.0969C72.7636 40.0969 75.1778 40.063 77.5089 40.029C79.8326 39.995 82.2354 39.961 84.5892 39.961C84.9664 39.961 85.3436 39.961 85.7208 39.961H85.7548L85.7812 39.9421C86.2489 39.5834 86.4451 39.1718 86.3395 38.7791C86.2112 38.3109 85.6605 37.9559 84.9438 37.8729L62.3035 37.7822H62.296H62.2884Z" fill="#231F20"/>
<path d="M77.4977 46.992C76.7432 46.992 75.9775 46.9505 75.2382 46.9127C74.5592 46.8788 73.8538 46.841 73.171 46.8334H72.8316C71.7301 46.8334 70.5834 46.8637 69.3687 46.9014C68.1503 46.9354 66.8867 46.9732 65.6758 46.9732C64.382 46.9732 63.3069 46.9316 62.379 46.8448C61.4775 46.7617 61.0663 46.2633 61.0625 45.8101C61.0588 45.3683 61.4284 44.8774 62.2621 44.783C63.2089 44.8321 64.216 44.8586 65.3439 44.8586C66.9584 44.8586 68.6256 44.8057 70.2363 44.7566C71.847 44.7075 73.5105 44.6547 75.125 44.6547C76.5471 44.6547 77.7957 44.6962 78.9349 44.7755C79.2178 44.7944 79.8552 44.8699 80.1118 44.9605C80.4475 45.0814 80.7077 45.3646 80.7907 45.7006C80.8662 46.0027 80.787 46.3086 80.5757 46.5389C80.372 46.7579 79.6742 46.8976 78.4445 46.9656C78.1314 46.9807 77.8145 46.9883 77.5014 46.9883L77.4977 46.992Z" fill="black"/>
<path d="M75.1194 44.7038C76.4056 44.7038 77.6769 44.7378 78.9254 44.8246C79.2121 44.8435 79.8458 44.9228 80.091 45.0096C80.7096 45.2286 81.0076 45.9952 80.5361 46.5087C80.257 46.8146 78.933 46.8939 78.4388 46.9203C78.1257 46.9354 77.8126 46.943 77.4958 46.943C76.0473 46.943 74.595 46.7957 73.1692 46.7882C73.056 46.7882 72.9428 46.7882 72.8297 46.7882C70.5928 46.7882 68.0542 46.9279 65.6702 46.9279C64.5197 46.9279 63.4069 46.8939 62.3771 46.7995C60.6872 46.6409 60.7136 45.0059 62.2602 44.8322C63.2749 44.8888 64.3009 44.9077 65.3382 44.9077C68.5709 44.9077 71.8904 44.7038 75.1194 44.7038ZM75.1194 44.6094C73.5049 44.6094 71.8376 44.6622 70.2269 44.7113C68.6162 44.7604 66.9527 44.8133 65.3382 44.8133C64.2104 44.8133 63.2032 44.7868 62.264 44.7378C61.3851 44.8359 61.0041 45.3457 61.0078 45.8102C61.0116 46.2859 61.4341 46.8033 62.3658 46.8901C63.2937 46.977 64.3726 47.0185 65.6664 47.0185C66.8773 47.0185 68.1409 46.9807 69.3631 46.9468C70.5777 46.9128 71.7282 46.8788 72.8259 46.8788C72.9391 46.8788 73.0522 46.8788 73.1654 46.8788C73.8481 46.8826 74.5498 46.9203 75.2325 46.9543C75.9718 46.9921 76.7376 47.0336 77.492 47.0336C77.8277 47.0336 78.137 47.026 78.4388 47.0109C79.6987 46.943 80.389 46.8033 80.604 46.5691C80.8266 46.3275 80.9096 46.0065 80.8303 45.6893C80.7436 45.3382 80.472 45.0398 80.1212 44.919C79.8609 44.8284 79.2196 44.7491 78.933 44.7302C77.79 44.6471 76.5452 44.6094 75.1231 44.6094H75.1194Z" fill="#231F20"/>
<path d="M51.435 68.3607C47.5535 68.3607 42.5592 67.7717 40.8014 64.9585C40.4921 64.4601 39.9074 63.112 40.1941 62.3493C40.2884 62.1 40.4657 61.9377 40.7184 61.8584C40.858 61.8168 40.99 61.7942 41.107 61.7942C41.7859 61.7942 42.0274 62.4625 42.2461 63.0554C42.3404 63.3084 42.4272 63.5501 42.5441 63.7351C43.5626 65.3475 46.618 66.1631 51.6274 66.1631C52.4384 66.1631 53.1664 66.1442 53.6945 66.1291C53.9322 66.1215 54.249 66.0838 54.5848 66.0385C55.0261 65.9818 55.524 65.9176 55.954 65.9176C56.3463 65.9176 56.633 65.9705 56.8254 66.08C57.1309 66.2537 57.3384 66.5709 57.3648 66.907C57.3874 67.209 57.2667 67.4922 57.0291 67.6848C56.6028 68.0247 53.9812 68.2814 53.4493 68.3079C52.7779 68.3456 52.0989 68.3645 51.4275 68.3645L51.435 68.3607Z" fill="black"/>
<path d="M41.0963 61.8432C42.0167 61.8432 42.0959 63.1309 42.492 63.7577C43.8424 65.8949 48.4067 66.2084 51.6167 66.2084C52.4126 66.2084 53.1256 66.1895 53.6876 66.1744C54.2459 66.1593 55.1965 65.9629 55.9471 65.9629C56.2866 65.9629 56.5884 66.0044 56.7959 66.1177C57.3654 66.4387 57.5163 67.2241 56.992 67.6432C56.5922 67.9642 54.0799 68.2248 53.4387 68.2587C52.8464 68.289 52.1637 68.3154 51.4206 68.3154C47.7088 68.3154 42.5825 67.7452 40.8285 64.932C40.4135 64.2637 39.595 62.2397 40.7191 61.9036C40.8586 61.8621 40.9831 61.8432 41.0963 61.8432ZM41.0963 61.7488C40.9718 61.7488 40.836 61.7715 40.6927 61.813C40.4211 61.8961 40.2362 62.0698 40.1344 62.3303C39.8402 63.112 40.4324 64.4789 40.7455 64.9811C41.7225 66.5444 44.3667 68.406 51.4168 68.406C52.0882 68.406 52.7672 68.3871 53.4387 68.3494C53.797 68.3305 56.5808 68.085 57.0448 67.715C57.2938 67.5149 57.422 67.2166 57.3994 66.8994C57.3692 66.5444 57.1542 66.2159 56.8373 66.0346C56.6374 65.9214 56.3432 65.8647 55.9434 65.8647C55.5096 65.8647 55.0079 65.9289 54.5665 65.9856C54.2308 66.0271 53.9177 66.0686 53.6801 66.0762C53.1482 66.0913 52.424 66.1102 51.613 66.1102C46.6224 66.1102 43.5783 65.3021 42.5674 63.7048C42.4542 63.5274 42.3675 63.2857 42.2732 63.0365C42.0506 62.4323 41.8017 61.7451 41.0925 61.7451L41.0963 61.7488Z" fill="#231F20"/>
<path d="M32.1369 41.7358C28.0744 41.7358 23.9477 41.6603 19.9568 41.5885L18.7761 41.5659C18.6629 41.5659 18.5498 41.5659 18.429 41.5659C17.8896 41.5659 17.2785 41.5848 16.6335 41.6036C15.9168 41.6263 15.1775 41.6489 14.457 41.6489C13.1066 41.6489 12.156 41.5659 11.4695 41.3922C11.0583 41.2865 10.7754 40.9655 10.7452 40.569C10.7151 40.2027 10.9112 39.8818 11.2545 39.7345C11.511 39.625 12.2201 39.591 12.7407 39.5683C12.8614 39.5646 12.967 39.557 13.05 39.5532C15.1096 39.4249 17.3653 39.3644 19.9417 39.3644C22.518 39.3644 25.2528 39.4286 27.8518 39.4891C30.4508 39.5495 33.1365 39.6137 35.7544 39.6137C37.6593 39.6137 39.3606 39.5797 40.9486 39.5117C41.2466 39.6212 41.8275 39.625 42.4424 39.6325C43.4873 39.6439 44.6717 39.6552 44.9093 40.1574C45.0565 40.4708 45.0715 40.7351 44.9433 40.9466C44.6302 41.4715 43.5514 41.5357 42.9063 41.5697L42.7932 41.5772C41.4164 41.6603 39.9641 41.6716 38.5571 41.6829C37.9611 41.6867 37.3689 41.6905 36.788 41.7018C35.3093 41.7282 33.7891 41.7396 32.1369 41.7396V41.7358Z" fill="black"/>
<path d="M19.9437 39.406C25.187 39.406 30.5132 39.6552 35.7527 39.6552C37.4954 39.6552 39.2306 39.6287 40.9507 39.5532C41.7126 39.8402 44.504 39.4135 44.8661 40.1725C45.4659 41.4337 43.61 41.479 42.7877 41.5281C40.83 41.6452 38.744 41.6187 36.7863 41.6527C35.2359 41.6791 33.6856 41.6905 32.1315 41.6905C27.6766 41.6905 23.2104 41.5998 18.7781 41.5205C18.665 41.5205 18.548 41.5205 18.4273 41.5205C17.2919 41.5205 15.8321 41.6036 14.4591 41.6036C13.335 41.6036 12.2675 41.547 11.4829 41.3469C10.653 41.1354 10.5549 40.0894 11.2716 39.7798C11.5809 39.6476 12.622 39.6287 13.0521 39.6023C15.3229 39.4626 17.6239 39.4135 19.94 39.4135M19.9437 39.3116C17.3636 39.3116 15.1079 39.372 13.0483 39.5004C12.9653 39.5041 12.8597 39.5117 12.739 39.5155C12.2146 39.5381 11.4979 39.5721 11.2339 39.6854C10.8718 39.8402 10.6681 40.1763 10.6983 40.5652C10.7322 40.9806 11.0302 41.3204 11.4602 41.4299C12.1505 41.6074 13.1049 41.6867 14.4591 41.6867C15.1795 41.6867 15.9189 41.664 16.6356 41.6414C17.2806 41.6225 17.8917 41.6036 18.4311 41.6036C18.5518 41.6036 18.6687 41.6036 18.7781 41.6036L19.9475 41.6263C23.9384 41.698 28.0689 41.7735 32.1315 41.7735C33.7836 41.7735 35.3076 41.7622 36.7863 41.7358C37.3634 41.7245 37.9518 41.7207 38.5441 41.7169C39.9511 41.7056 41.4109 41.6942 42.7915 41.6112L42.9046 41.6036C43.561 41.5659 44.6549 41.5054 44.9793 40.9579C45.1113 40.7314 45.1038 40.4519 44.9454 40.1234C44.6964 39.5985 43.5497 39.5872 42.4369 39.5721C41.8258 39.5646 41.2487 39.5608 40.9771 39.455L40.9582 39.4475H40.9394C39.3475 39.5155 37.6501 39.5494 35.7452 39.5494C33.1273 39.5494 30.4415 39.4853 27.8426 39.4248C25.2436 39.3644 22.5578 39.3002 19.9324 39.3002L19.9437 39.3116Z" fill="#231F20"/>
<path d="M43.8333 34.3536C43.7692 34.3536 43.7051 34.3498 43.6372 34.3385C41.5889 34.346 39.5294 34.3498 37.4735 34.3498C30.2311 34.3498 23.8336 34.3045 17.9189 34.2063C17.8019 34.2063 17.685 34.2063 17.5681 34.2063C16.9457 34.2063 16.2855 34.229 15.5877 34.2516C14.8861 34.2743 14.1656 34.3007 13.4753 34.3007C12.7548 34.3007 12.1588 34.2705 11.6571 34.2138C11.2837 34.1723 10.9706 33.9873 10.816 33.7192C10.6839 33.4926 10.6764 33.2245 10.7933 32.9526C11.0385 32.3787 11.7854 32.3296 12.3889 32.2881L12.521 32.2805C13.0792 32.239 13.6639 32.2276 14.2297 32.2163C14.5315 32.2088 14.8333 32.205 15.1275 32.1937C17.7906 32.0993 20.6876 32.0502 23.7317 32.0502C28.5487 32.0502 33.7052 32.1597 40.446 32.4051C40.5742 32.4089 40.7063 32.4127 40.8496 32.4127C41.0948 32.4127 41.3626 32.4089 41.6342 32.4013C41.9284 32.3938 42.2302 32.39 42.5282 32.39C43.1242 32.39 43.8862 32.4127 44.452 32.5826C44.9122 32.7185 45.1423 33.0093 45.0895 33.3831C45.0216 33.8438 44.4859 34.3573 43.8258 34.3573L43.8333 34.3536Z" fill="black"/>
<path d="M23.7398 32.0955C29.3376 32.0955 34.9996 32.2541 40.4503 32.4504C40.5785 32.4542 40.7143 32.458 40.8577 32.458C41.3669 32.458 41.9554 32.4353 42.5363 32.4353C43.2417 32.4353 43.9282 32.4693 44.445 32.6241C45.6634 32.9866 44.8524 34.3045 43.8339 34.3045C43.7735 34.3045 43.7094 34.3007 43.6453 34.2894C41.5857 34.2969 39.5223 34.3007 37.459 34.3007C30.9408 34.3007 24.4225 34.263 17.9194 34.1572C17.8062 34.1572 17.6855 34.1572 17.5686 34.1572C16.3011 34.1572 14.83 34.2554 13.4758 34.2554C12.8346 34.2554 12.2159 34.2327 11.6614 34.1686C11.0315 34.0968 10.5675 33.6059 10.8353 32.9715C11.0881 32.3825 11.9255 32.3712 12.5215 32.3258C13.3702 32.2654 14.2717 32.2692 15.128 32.239C17.9533 32.137 20.8352 32.0955 23.7322 32.0955M23.7435 32.0011C20.6957 32.0011 17.7987 32.0502 15.1356 32.1446C14.8376 32.1559 14.5358 32.1597 14.234 32.1672C13.6682 32.1786 13.0835 32.1899 12.5253 32.2314L12.3932 32.239C11.8123 32.2767 11.0164 32.3296 10.7599 32.93C10.6354 33.2208 10.643 33.5002 10.7825 33.7419C10.9447 34.0213 11.2729 34.2139 11.6577 34.2592C12.1594 34.3158 12.7591 34.346 13.4796 34.346C14.2001 34.346 14.8941 34.3196 15.592 34.2969C16.2898 34.2743 16.9462 34.2516 17.5686 34.2516C17.6855 34.2516 17.8025 34.2516 17.9194 34.2516C23.8341 34.346 30.2278 34.3951 37.459 34.3951C39.5223 34.3951 41.5819 34.3951 43.6453 34.3838C43.6981 34.3951 43.766 34.3989 43.8301 34.3989C44.5129 34.3989 45.0711 33.8627 45.139 33.3831C45.1654 33.1943 45.1541 32.7374 44.4676 32.5335C43.8942 32.3636 43.1323 32.3409 42.5325 32.3409C42.2345 32.3409 41.9327 32.3485 41.6385 32.3523C41.3669 32.3598 41.0991 32.3636 40.8539 32.3636C40.7143 32.3636 40.5785 32.3636 40.4503 32.356C33.7095 32.1106 28.553 32.0011 23.736 32.0011H23.7435Z" fill="#231F20"/>
<path d="M25.3403 49.016C22.3829 49.016 19.1955 48.9443 15.5969 48.797C15.4234 48.7895 15.1668 48.7895 14.8613 48.7895C13.5071 48.7895 11.4588 48.7895 11.0288 48.291C10.8025 48.0305 10.7459 47.7246 10.8666 47.4301C11.0137 47.0714 11.3985 46.807 11.821 46.773C12.7489 46.7957 13.7108 46.807 14.7708 46.807C16.7625 46.807 18.7994 46.7655 20.7722 46.7277C22.745 46.69 24.7858 46.6484 26.7812 46.6484C28.49 46.6484 30.0026 46.6786 31.4021 46.7391C32.115 46.7693 33.7408 46.8372 34.2915 47.0525C34.7027 47.2111 34.9592 47.5547 34.9441 47.9285C34.929 48.2684 34.6951 48.5365 34.3179 48.646C33.6314 48.8461 32.1075 48.8876 31.1003 48.9141L30.6665 48.9254C28.9841 48.982 27.1924 49.0122 25.3403 49.0122V49.016Z" fill="black"/>
<path d="M26.7757 46.7013C28.3223 46.7013 29.8651 46.7239 31.3928 46.7919C32.0755 46.8221 33.7164 46.8901 34.2671 47.1015C35.0668 47.4074 35.1159 48.3665 34.2973 48.6044C33.5052 48.8347 31.5776 48.8536 30.6572 48.8838C28.8994 48.9442 27.119 48.9707 25.3348 48.9707C22.0719 48.9707 18.7939 48.8838 15.5914 48.7517C14.7125 48.7139 11.5741 48.8574 11.0573 48.2646C10.5216 47.6453 11.0875 46.8825 11.8192 46.8259C12.7962 46.8485 13.7807 46.8599 14.7653 46.8599C18.7524 46.8599 22.7886 46.7013 26.7795 46.7013M26.7757 46.6069C24.7803 46.6069 22.7358 46.6484 20.7629 46.6862C18.7901 46.7239 16.7532 46.7655 14.7615 46.7655C13.7015 46.7655 12.7396 46.7541 11.8192 46.7315C11.3704 46.7655 10.9705 47.0411 10.8159 47.4149C10.6876 47.7284 10.748 48.0531 10.9856 48.325C11.393 48.797 13.1206 48.8385 14.852 48.8385C15.1538 48.8385 15.4179 48.8385 15.5876 48.8461C19.1862 48.9933 22.3774 49.0651 25.3348 49.0651C27.1869 49.0651 28.9786 49.0349 30.661 48.9782C30.7893 48.9745 30.9401 48.9707 31.1023 48.9669C32.1095 48.9405 33.6334 48.8952 34.3237 48.695C34.7236 48.578 34.9688 48.2948 34.9839 47.9323C34.9989 47.5396 34.7311 47.1771 34.3011 47.0109C33.7428 46.7957 32.117 46.7277 31.423 46.6975H31.3966C29.9971 46.6371 28.4845 46.6069 26.7757 46.6069Z" fill="#231F20"/>
<path d="M96.0859 20.0461C96.1576 19.8913 96.2066 19.7252 96.301 19.5855C97.4137 17.9504 98.8094 16.5835 100.356 15.3638C101.714 14.2952 103.076 13.2266 104.422 12.1429C104.916 11.7464 105.463 11.8446 105.909 12.1051C106.225 12.2901 106.297 12.6979 106.09 13.0076C106.014 13.1171 105.924 13.2228 105.826 13.3134C104.966 14.114 104.109 14.922 103.234 15.7037C102.608 16.2588 101.952 16.7798 101.31 17.316C100.507 17.9844 99.7072 18.6641 98.8962 19.3211C98.3454 19.7667 97.7909 20.2123 97.2138 20.6201C96.7348 20.9562 96.184 20.6541 96.0859 20.0461Z" fill="black"/>
<path d="M100.954 23.8675C100.207 23.9695 99.4599 23.9808 98.7168 23.8335C98.3283 23.7542 98.1246 23.5579 98.0907 23.2218C98.0567 22.8895 98.2038 22.6177 98.5886 22.5119C99.343 22.3042 100.101 22.1003 100.871 21.9757C102.165 21.7643 103.466 21.6094 104.764 21.4395C105.22 21.3791 105.68 21.3565 106.137 21.3149C106.706 21.2621 107.091 21.8058 106.982 22.2665C106.917 22.5346 106.755 22.7121 106.487 22.7725C104.96 23.1161 103.432 23.4635 101.901 23.7882C101.591 23.8524 101.271 23.8449 100.954 23.8713V23.8675Z" fill="black"/>
<path d="M93.7756 18.3356C93.6964 17.3349 93.802 16.3494 93.9906 15.3714C94.1641 14.4764 94.3754 13.5929 94.5715 12.7055C94.6319 12.4412 94.7828 12.2486 95.0581 12.1995C95.2844 12.158 95.4995 12.1995 95.6277 12.4109C95.6918 12.5167 95.7446 12.6488 95.7446 12.7697C95.7296 14.0195 95.7446 15.2694 95.6692 16.5155C95.6051 17.569 95.4353 18.6188 95.2958 19.6685C95.2505 19.997 94.9789 20.216 94.6734 20.2425C94.4244 20.2614 94.1226 20.0726 94.0396 19.7667C93.9114 19.2985 93.8284 18.8189 93.7266 18.3469C93.7417 18.3469 93.7605 18.3393 93.7756 18.3393V18.3356Z" fill="black"/>
</g>
<defs>
<clipPath id="clip0_8331_2145">
<rect width="106.781" height="56.4725" fill="white" transform="translate(0.21875 11.8785)"/>
</clipPath>
</defs>
</svg>
