<svg width="80" height="80" viewBox="0 0 80 80" fill="none" xmlns="http://www.w3.org/2000/svg">
<path d="M19.4886 8.30239C18.281 8.59499 18.0416 10.2468 17.9086 11.2975C17.7357 12.6567 17.725 14.133 17.6931 15.5055C17.6452 17.6095 17.866 19.7667 17.624 21.8441L6.91242 30.1856C4.24983 32.5902 5.09302 36.9871 5.17547 40.2402C5.38827 48.5312 6.02665 57.2159 7.93648 65.3153C9.18665 70.6219 11.4263 70.7416 16.4004 71.2417C26.0134 72.2046 36.1344 72.2551 45.7979 72.2152C52.7191 72.1886 60.8159 72.4945 67.5828 71.0635C69.3596 70.6884 72.8015 69.8798 73.4905 68.0524C74.5066 65.3659 74.5677 59.264 74.7007 56.1971C74.9933 49.5287 75.1237 42.5224 74.9135 35.854C74.7965 32.1434 74.8736 31.4092 71.977 28.9727C69.2266 26.6586 66.0054 24.7674 63.4599 22.2085C62.9917 21.7377 62.1698 21.0302 62.1485 20.3865C62.0581 17.668 63.2497 12.8402 62.3773 10.3825C61.8479 8.89024 59.1082 8.83438 57.7118 8.73064C53.7884 8.43805 49.7985 8.64552 45.8644 8.56041C38.6135 8.40081 31.0273 7.90606 23.8109 8.0231C22.6964 8.04172 20.4914 8.06566 19.4859 8.30771L19.4886 8.30239Z" fill="#FEFFFF"/>
<path d="M19.4859 8.30234C20.4887 8.06029 22.6938 8.03369 23.8109 8.01773C31.0273 7.90069 38.6135 8.39544 45.8644 8.55504C49.7985 8.64281 53.7857 8.43268 57.7118 8.72527C59.1082 8.82901 61.8453 8.88487 62.3773 10.3771C63.2497 12.8349 62.0607 17.6653 62.1485 20.3811C62.1698 21.0248 62.9891 21.7323 63.4599 22.2031C66.0054 24.7647 69.2266 26.6559 71.977 28.9673C74.8736 31.4038 74.7965 32.138 74.9135 35.8486C75.1263 42.517 74.9933 49.5233 74.7007 56.1917C74.5651 59.2586 74.5039 65.3605 73.4905 68.047C72.7989 69.8771 69.3596 70.683 67.5828 71.0581C60.8159 72.4865 52.7191 72.1806 45.7979 72.2098C36.1344 72.2471 26.0134 72.1992 16.4004 71.2363C11.4263 70.7389 9.18665 70.6192 7.93649 65.31C6.02666 57.2131 5.38827 48.5258 5.17548 40.2348C5.09302 36.9817 4.24982 32.5848 6.91241 30.1803L17.624 21.8387C17.8633 19.7613 17.6426 17.6015 17.6931 15.5001C17.725 14.1276 17.7357 12.6513 17.9086 11.2921C18.0416 10.2414 18.281 8.58961 19.4886 8.29702L19.4859 8.30234ZM21.175 10.6032C20.4275 10.7814 20.3929 11.1219 20.2466 11.7762C19.8211 13.6807 19.8796 16.8833 19.8663 18.9048C19.8344 23.8842 20.1057 28.8742 20.1828 33.851C20.2094 35.4815 19.9647 37.6361 20.2041 39.2134C20.3211 39.9874 20.6563 40.1603 21.2149 40.6258C23.928 42.8761 28.3781 45.669 31.4423 47.5656C31.7375 47.7491 33.1819 48.6854 33.3707 48.6455C37.1505 46.1691 38.8874 43.6555 43.6567 45.9749C44.17 46.225 45.8352 47.4326 46.2342 47.2916L59.6695 38.0297C59.9355 37.6095 59.5418 34.3165 59.5285 33.5052C59.4859 30.808 59.5258 27.8794 59.611 25.1796C59.7386 21.1525 60.6164 16.2928 60.3983 12.4146C60.3823 12.1353 60.2281 11.5581 60.0099 11.3825C59.3955 10.8958 55.7035 10.7521 54.738 10.7149C45.5585 10.3531 35.8046 10.2308 26.6252 10.393C25.0398 10.4223 22.6911 10.2361 21.1723 10.6005L21.175 10.6032ZM17.6559 24.6104L8.48709 31.8534L17.5388 38.1654C17.8234 38.2691 17.8341 37.5483 17.8421 37.3701C17.9086 35.665 17.8181 33.6275 17.8075 31.8746C17.7968 29.4541 17.6931 27.0283 17.6559 24.6104ZM61.973 36.5455C62.9173 35.8486 70.5725 31.4038 70.5406 30.8931C70.5273 30.6724 70.0432 30.3079 69.857 30.151C67.3327 28.0284 64.7313 26.0015 62.0182 24.1236C61.9038 24.3311 61.8666 24.6716 61.8533 24.9083C61.7575 26.7516 61.7602 28.8476 61.7708 30.7016C61.7841 32.6434 61.8772 34.6064 61.973 36.5455ZM10.8278 66.9299L30.9954 50.175L7.48164 33.9574C7.36726 42.0489 7.79285 50.1962 9.04568 58.2133C9.50319 61.1445 10.1283 64.0545 10.8278 66.9325V66.9299ZM72.3307 32.6912L48.019 48.8689C55.5838 54.9043 64.2472 59.5007 71.5301 65.9085C71.8333 64.0571 71.977 62.158 72.0993 60.2827C72.5063 53.9813 72.5542 47.672 72.5595 41.36C72.5595 40.1922 72.8441 33.1089 72.3307 32.6912ZM39.8477 47.3315C39.1667 47.4672 37.999 48.2199 37.3713 48.6029C30.2214 52.9812 24.1035 59.0059 17.6293 64.246C16.0732 65.5068 14.1288 66.7038 12.6712 67.9699C12.5249 68.0976 12.3413 68.1508 12.5967 68.3104C12.9717 68.5418 15.0013 68.7998 15.5678 68.869C26.1676 70.159 38.8874 70.2388 49.6043 70.0234C54.7513 69.9196 65.3511 69.917 69.8384 68.0045C70.5433 67.7039 70.3491 67.6401 69.841 67.2038C66.6358 64.4561 62.6326 62.025 59.1614 59.5725C54.331 56.1598 49.4261 52.4678 44.4919 49.2307C43.3508 48.4832 41.2282 47.0549 39.845 47.3315H39.8477Z" fill="black"/>
<path d="M21.168 10.6031C22.6868 10.2387 25.0355 10.4249 26.6209 10.3957C35.8003 10.2334 45.5542 10.3531 54.7337 10.7175C55.6992 10.7547 59.3912 10.8984 60.0057 11.3851C60.2264 11.558 60.378 12.1352 60.394 12.4172C60.6121 16.2954 59.7343 21.1551 59.6067 25.1822C59.5215 27.882 59.4816 30.8106 59.5242 33.5078C59.5375 34.3191 59.9312 37.6121 59.6652 38.0323L46.2299 47.2942C45.8309 47.4352 44.1658 46.2276 43.6524 45.9775C38.8831 43.6607 37.1462 46.1717 33.3664 48.6481C33.1776 48.688 31.7332 47.7517 31.438 47.5682C28.3738 45.6716 23.9237 42.8787 21.2106 40.6284C20.6493 40.1629 20.3168 39.99 20.1998 39.216C19.9604 37.6387 20.2051 35.4841 20.1785 33.8536C20.1014 28.8742 19.8301 23.8842 19.862 18.9074C19.8753 16.8859 19.8141 13.6833 20.2423 11.7788C20.3886 11.1245 20.4232 10.784 21.1707 10.6058L21.168 10.6031ZM42.3543 29.5099C43.7854 33.2205 47.5811 32.4837 49.0866 29.1615C51.2013 24.4933 48.6052 19.4341 44.0141 17.6732C31.6827 12.9385 24.8706 31.7469 36.1354 36.2794C38.6916 37.3088 42.3144 37.4764 44.9132 36.5188C45.5223 36.2954 46.307 36.0161 46.3575 35.2607C46.5038 33.0822 43.5566 34.8218 42.4448 34.992C34.9225 36.1331 29.8287 29.7387 33.5739 22.8388C37.9176 14.8351 50.2996 20.1097 47.2353 28.0523C46.0251 31.183 43.8546 30.0339 43.8918 26.9457C43.9077 25.7142 44.9478 23.831 44.3945 22.7909C43.9264 21.9105 43.0353 22.7031 42.6097 22.6845C42.3118 22.6712 41.7239 22.2536 41.3569 22.1605C37.6064 21.1923 34.4464 25.6158 35.5955 29.0896C36.2206 30.9782 38.1969 31.8932 40.0455 31.1245C40.9472 30.7494 41.5165 29.9488 42.3517 29.5099H42.3543Z" fill="#FEFFFF"/>
<path d="M39.8456 47.3314C41.2288 47.0548 43.3514 48.4832 44.4925 49.2306C49.4267 52.4678 54.3316 56.1598 59.162 59.5724C62.6332 62.0249 66.6364 64.4561 69.8416 67.2038C70.3497 67.64 70.5439 67.7039 69.839 68.0044C65.3517 69.9169 54.7519 69.9169 49.6049 70.0233C38.888 70.2414 26.1683 70.1616 15.5684 68.8689C15.0045 68.7997 12.975 68.5417 12.5973 68.3103C12.3393 68.1534 12.5255 68.0975 12.6718 67.9699C14.1294 66.7037 16.0738 65.5041 17.6299 64.2459C24.1041 59.0059 30.222 52.9785 37.3719 48.6029C37.997 48.2199 39.1673 47.4671 39.8483 47.3314H39.8456Z" fill="#FEEC01"/>
<path d="M72.3274 32.6912C72.8408 33.1088 72.5588 40.1922 72.5561 41.3599C72.5508 47.6719 72.5029 53.9812 72.096 60.2826C71.9736 62.1579 71.83 64.0571 71.5268 65.9084C64.2439 59.5006 55.5805 54.9042 48.0156 48.8689L72.3274 32.6912Z" fill="#FEEC01"/>
<path d="M10.825 66.9297C10.1228 64.0517 9.50041 61.1417 9.0429 58.2105C7.78741 50.1961 7.36448 42.0488 7.47886 33.9546L30.9926 50.1722L10.825 66.9271V66.9297Z" fill="#FEEC01"/>
<path d="M17.6532 24.6104C17.6877 27.0282 17.7915 29.4567 17.8048 31.8746C17.8127 33.6275 17.9058 35.665 17.8393 37.37C17.8314 37.5483 17.8207 38.2691 17.5361 38.1654L8.48438 31.8533L17.6532 24.6104Z" fill="#FEFFFF"/>
<path d="M61.9729 36.5454C61.8771 34.6037 61.784 32.6433 61.7707 30.7015C61.7601 28.8476 61.7574 26.7515 61.8532 24.9082C61.8665 24.6688 61.9037 24.3283 62.0181 24.1235C64.7312 26.0014 67.3326 28.0283 69.8569 30.1509C70.0431 30.3079 70.5272 30.6723 70.5405 30.8931C70.5724 31.4064 62.9172 35.8485 61.9729 36.5454Z" fill="#FEFFFF"/>
<path d="M42.3559 29.5099C41.5207 29.9488 40.9515 30.7494 40.0498 31.1245C38.2011 31.8932 36.2248 30.9755 35.5997 29.0896C34.4506 25.6158 37.6106 21.1923 41.3611 22.1605C41.7282 22.2563 42.316 22.6739 42.6139 22.6845C43.0395 22.7031 43.9333 21.9105 44.3987 22.7909C44.952 23.831 43.912 25.7142 43.896 26.9457C43.8588 30.0339 46.0293 31.183 47.2396 28.0523C50.3065 20.1097 37.9218 14.8377 33.5781 22.8388C29.833 29.7387 34.9267 36.1305 42.449 34.992C43.5609 34.8244 46.5081 33.0849 46.3618 35.2607C46.3112 36.0161 45.5266 36.2927 44.9174 36.5188C42.316 37.4764 38.6959 37.3088 36.1397 36.2794C24.8722 31.7469 31.6869 12.9385 44.0184 17.6732C48.6068 19.4341 51.2028 24.4933 49.0909 29.1615C47.5853 32.4837 43.7923 33.2205 42.3586 29.5099H42.3559ZM39.7412 24.0491C38.0069 24.5172 36.5094 27.8847 37.9537 29.1402C40.3051 31.183 44.295 22.8228 39.7412 24.0491Z" fill="black"/>
<path d="M39.7432 24.049C44.297 22.8228 40.3098 31.1829 37.9557 29.1401C36.5114 27.8846 38.0089 24.5172 39.7432 24.049Z" fill="#FEFFFF"/>
</svg>
