<svg width="80" height="80" viewBox="0 0 80 80" fill="none" xmlns="http://www.w3.org/2000/svg">
<path d="M63.3328 20.1521C63.2382 18.481 64.8594 14.8839 62.6444 14.2192C61.4462 13.8618 59.6989 13.9275 58.4404 13.8171C49.1075 12.9895 39.5854 12.4797 30.2209 12.2091C28.0743 12.1461 25.6938 11.857 23.5471 12.0883C22.3121 12.2223 21.9706 12.9737 21.7026 14.0457C21.3452 15.483 21.2401 17.0674 21.072 18.5388C19.4088 18.6702 17.7245 18.6281 16.0639 18.77C15.2941 18.8357 13.9015 18.9592 13.1921 19.1221C12.5457 19.2692 12.3802 19.8525 12.3224 20.4411C12.2435 21.2267 12.4564 25.4202 12.2698 25.6856C9.98914 26.0534 7.11728 26.0587 5.34897 27.7482C3.58065 29.4377 4.00894 31.9759 4.14557 34.1409C4.75252 43.839 5.76411 54.2755 7.51929 63.816C8.20769 67.5575 8.31279 71.2939 12.7533 72.1688C16.5369 72.915 21.3636 73.2041 25.2734 73.5824C35.1607 74.5362 45.0664 75.1169 54.9878 75.4217C58.4115 75.5268 65.3428 76.1048 68.396 75.0197C71.3362 73.9765 71.5516 69.8514 72.0482 67.1555C73.6852 58.2535 74.5706 49.1808 76 40.2499C75.9133 38.253 74.9122 36.4452 72.8917 35.9276C73.1912 34.1777 74.7046 31.3768 74.4944 29.6636C74.2474 27.6562 70.4743 27.7114 68.9898 27.1649C68.8269 25.3283 71.0971 21.634 68.5431 20.8746C66.9929 20.4148 64.9461 20.3991 63.3328 20.1547V20.1521Z" fill="#FEFFFF"/>
<path d="M63.3347 20.1521C64.948 20.3991 66.9948 20.4122 68.545 20.872C71.099 21.6314 68.8288 25.3256 68.9917 27.1623C70.4763 27.7088 74.2494 27.6536 74.4963 29.661C74.7065 31.3768 73.1957 34.1751 72.8936 35.925C74.9141 36.4426 75.9152 38.2503 76.0019 40.2472C74.5725 49.1808 73.6897 58.2535 72.0501 67.1529C71.5535 69.8487 71.3381 73.9739 68.3979 75.017C65.3447 76.0996 58.4134 75.5215 54.9897 75.419C45.0683 75.1169 35.1626 74.5336 25.2753 73.5798C21.3655 73.2041 16.5388 72.9124 12.7552 72.1662C8.3147 71.2912 8.2096 67.5523 7.52119 63.8134C5.76601 54.2755 4.75442 43.839 4.14747 34.1409C4.01084 31.9759 3.63511 29.3878 5.35087 27.7482C7.06663 26.1086 9.98842 26.0534 12.2717 25.6856C12.4583 25.4176 12.2454 21.2267 12.3243 20.4411C12.3821 19.8525 12.5476 19.2692 13.194 19.1221C13.906 18.9592 15.296 18.8357 16.0658 18.77C17.7264 18.6281 19.4133 18.6702 21.0739 18.5388C21.242 17.0674 21.3471 15.483 21.7045 14.0457C21.9725 12.9737 22.3114 12.2223 23.549 12.0883C25.6957 11.857 28.0788 12.1461 30.2228 12.2091C39.5847 12.4797 49.1094 12.9895 58.4423 13.8145C59.7009 13.9249 61.4481 13.8592 62.6463 14.2165C64.8613 14.8787 63.2401 18.4783 63.3347 20.1494V20.1521ZM61.724 16.0059L36.4527 14.3899C33.4521 14.3978 30.4541 14.0957 27.4718 14.0457C26.9569 14.0379 23.9037 13.9827 23.7408 14.1824L21.6519 32.7063C25.7981 32.906 30.8272 32.5381 33.4573 36.3901C33.4731 35.1762 33.8987 35.1945 34.9576 35.234C35.8983 35.2707 36.9861 35.5046 37.9477 35.5834C41.5264 35.8803 45.1156 36.0695 48.6837 36.4768C49.6322 36.9602 49.3616 38.2188 48.3132 38.2398C43.4944 37.8142 38.6598 37.5619 33.8593 36.9655L35.3596 39.6692C36.1768 40.6519 37.2146 40.7307 38.4102 40.8805C43.4812 41.519 48.9412 41.5347 54.0701 41.8027C55.5021 41.8789 56.9315 42.1679 58.3766 42.0182L61.7293 16.0059H61.724ZM20.8427 20.6119L14.4 21.077L14.2713 32.3069L19.5893 32.4041L20.8427 20.6119ZM63.5607 42.6015L67.7042 22.9609L67.5151 22.706L63.0509 22.1069L60.4549 42.2625L63.5607 42.6015ZM12.206 27.8664C10.4535 28.0871 7.06663 28.1581 6.30991 30.0893C5.83433 31.298 6.23108 32.8193 6.21794 34.0857L7.14545 33.2292C7.87327 32.7089 9.4235 32.2439 10.3037 32.2439H12.2034V27.8691L12.206 27.8664ZM72.4232 30.063L68.4032 29.1303L65.3973 43.2426C65.3763 43.6262 66.0095 43.8312 66.2696 44.1018C66.8661 44.7114 67.3705 45.7019 67.5965 46.5191L72.4232 30.063ZM66.782 73.2303C66.7925 71.6433 66.5166 70.0484 66.4378 68.4614C66.1566 62.8018 66.5219 57.0712 66.2144 51.4141C65.928 46.1434 65.8886 44.8979 60.2815 44.333C52.8825 43.5894 45.0341 43.9389 37.727 42.9352C31.4079 42.0681 33.7201 36.3428 27.8896 35.2681C24.0587 34.5613 19.0848 34.5561 15.1357 34.4326C12.1666 34.3406 7.21377 33.308 6.90372 37.5908C6.82227 38.7259 6.96153 40.6571 7.01933 41.8605C7.32413 48.2401 8.18857 55.1005 9.24746 61.396C9.50233 62.9069 10.1697 67.7047 10.887 68.7373C12.0247 70.369 15.9686 70.4688 17.9051 70.7C28.4151 71.9639 39.2221 72.6628 49.8004 73.12C54.6902 73.3328 60.1344 73.7585 65.0058 73.4694C65.576 73.4353 66.2039 73.2724 66.7794 73.2277L66.782 73.2303ZM68.976 71.7405C70.7548 63.2143 71.7742 54.5277 73.0249 45.9043C73.2772 44.157 74.2756 40.5047 73.5715 38.9913C73.3324 38.4737 72.8069 38.0375 72.2603 37.8825L68.4032 50.9543C68.411 56.7165 68.3454 62.4838 68.5135 68.2302C68.7316 69.3048 68.6134 70.4951 68.7474 71.5671C68.7684 71.7274 68.8183 71.9087 68.976 71.7379V71.7405Z" fill="black"/>
<path d="M66.7756 73.2304C66.2001 73.2751 65.5695 73.438 65.002 73.4722C60.1306 73.7612 54.6864 73.3355 49.7966 73.1227C39.2183 72.6655 28.4113 71.9666 17.9013 70.7028C15.9648 70.4689 12.0209 70.3717 10.8832 68.74C10.1633 67.7074 9.49591 62.9096 9.24367 61.3988C8.18479 55.1033 7.32034 48.2428 7.01554 41.8632C6.95774 40.6598 6.81848 38.7286 6.89993 37.5935C7.21261 33.3133 12.1655 34.3433 15.1319 34.4353C19.0811 34.5561 24.0523 34.564 27.8858 35.2708C33.7136 36.3455 31.4014 42.0708 37.7232 42.9379C45.0303 43.9416 52.8787 43.5921 60.2777 44.3357C65.8848 44.898 65.9242 46.1461 66.2106 51.4169C66.5181 57.0739 66.1528 62.8045 66.434 68.4641C66.5128 70.0511 66.7887 71.6434 66.7782 73.233L66.7756 73.2304Z" fill="#FEEC01"/>
<path d="M61.7258 16.006L58.3731 42.0183C56.928 42.1681 55.4986 41.8764 54.0666 41.8028C48.9404 41.5322 43.4804 41.5191 38.4067 40.8806C37.2112 40.7308 36.1733 40.652 35.3561 39.6693L33.8558 36.9656C38.6537 37.562 43.4909 37.8169 48.3098 38.2399C49.3581 38.2189 49.6288 36.9603 48.6802 36.4769C45.1121 36.067 41.5229 35.8804 37.9442 35.5835C36.9826 35.5047 35.8948 35.2709 34.9541 35.2341C33.8952 35.1947 33.4696 35.1736 33.4538 36.3902C30.8263 32.5409 25.7946 32.9061 21.6484 32.7064L23.7373 14.1825C23.9002 13.9828 26.9534 14.038 27.4684 14.0459C30.4506 14.0958 33.4512 14.4006 36.4492 14.3901L61.7205 16.006H61.7258ZM27.3764 19.7134C26.3044 19.984 26.2045 21.4108 27.3764 21.621C27.7889 21.6945 28.2041 21.6078 28.614 21.6499C32.2977 22.0177 35.9867 22.3488 39.6731 22.6877C40.7635 22.6352 40.8555 21.1401 39.8755 20.8669L27.3764 19.7134ZM26.688 24.7845C25.6554 24.9658 25.6449 26.403 26.667 26.5922C31.7801 26.9417 36.8722 27.5539 41.9775 27.9795C45.3669 28.2607 49.0901 28.6889 52.4507 28.7914C52.9736 28.8072 53.7303 28.9018 54.064 28.4393C54.5107 27.8219 54.0509 27.1124 53.3703 26.9522C45.1436 26.5081 36.9458 25.4098 28.7322 24.8738C28.2119 24.8397 27.1294 24.7083 26.688 24.7845ZM26.2308 29.6138C25.0432 29.8818 25.1956 31.4741 26.441 31.5398L52.117 33.7416C53.8696 33.563 53.3808 31.7001 51.7518 31.7947L26.2334 29.6138H26.2308Z" fill="#FEFFFF"/>
<path d="M68.9767 71.7407C68.8164 71.9115 68.7665 71.7302 68.7481 71.5699C68.6141 70.4979 68.7323 69.3076 68.5142 68.233C68.3487 62.4866 68.4118 56.7192 68.4039 50.9571L72.2611 37.8853C72.805 38.0403 73.3304 38.4764 73.5722 38.9941C74.2764 40.5075 73.2779 44.1597 73.0257 45.907C71.775 54.5305 70.7581 63.217 68.9767 71.7433V71.7407Z" fill="#FEEC01"/>
<path d="M63.5588 42.6017L60.4531 42.2601L63.0491 22.1045L67.5159 22.7062L67.7024 22.9611L63.5588 42.6017Z" fill="#FEFFFF"/>
<path d="M20.8448 20.6121L19.5915 32.4043L14.2734 32.3071L14.4022 21.0771L20.8448 20.6121ZM17.2425 23.3998C16.0785 23.6679 16.1784 25.783 17.7706 25.423C19.0082 25.1445 18.6719 23.0714 17.2425 23.3998ZM16.8957 28.0059C15.7895 28.3343 16.202 30.4626 17.6261 30.0028C18.8427 29.6113 18.4564 27.5408 16.8957 28.0059Z" fill="#FEFFFF"/>
<path d="M72.4171 30.0631L67.5904 46.5192C67.3644 45.7021 66.8599 44.7115 66.2635 44.1019C66.0007 43.8339 65.3701 43.6263 65.3911 43.2427L68.397 29.1304L72.4171 30.0631Z" fill="#FEFFFF"/>
<path d="M12.2063 27.8664V32.2412H10.3066C9.42373 32.2412 7.87612 32.7063 7.14831 33.2265L6.2208 34.0831C6.23393 32.8192 5.83718 31.2979 6.31276 30.0866C7.06948 28.1554 10.4563 28.0845 12.2089 27.8638L12.2063 27.8664Z" fill="#FEEC01"/>
<path d="M26.6795 24.7844C27.1209 24.7082 28.2035 24.8396 28.7237 24.8737C36.9373 25.4097 45.1351 26.508 53.3618 26.9521C54.0424 27.1124 54.5022 27.8218 54.0555 28.4392C53.7218 28.9017 52.9651 28.8071 52.4422 28.7913C49.0816 28.6889 45.3585 28.2606 41.969 27.9794C36.8637 27.5538 31.7716 26.9416 26.6585 26.5921C25.6364 26.4029 25.6469 24.9657 26.6795 24.7844Z" fill="black"/>
<path d="M26.2271 29.6138L51.7454 31.7946C53.3745 31.7 53.8632 33.5629 52.1107 33.7416L26.4347 31.5397C25.1918 31.4714 25.0395 29.8791 26.2245 29.6138H26.2271Z" fill="black"/>
<path d="M27.3731 19.7134L39.8722 20.8669C40.8522 21.1375 40.7629 22.6325 39.6699 22.6877C35.9835 22.3488 32.2944 22.0177 28.6107 21.6499C28.2008 21.6078 27.783 21.6945 27.3731 21.6209C26.2013 21.4107 26.3011 19.984 27.3731 19.7134Z" fill="black"/>
<path d="M16.8891 28.0059C18.4499 27.5408 18.8361 29.6113 17.6196 30.0028C16.1955 30.4626 15.783 28.3343 16.8891 28.0059Z" fill="black"/>
<path d="M17.2428 23.3997C18.6696 23.0712 19.0085 25.1443 17.771 25.4228C16.1787 25.7828 16.0815 23.665 17.2428 23.3997Z" fill="black"/>
</svg>
