<svg width="150" height="72" viewBox="0 0 150 72" fill="none" xmlns="http://www.w3.org/2000/svg">
<rect width="150" height="72" fill="white" fill-opacity="0.01"/>
<g clip-path="url(#clip0_8331_2233)">
<path d="M94.3887 68.3096L31.0859 63.5834V54.6304L81.935 41.08L81.6462 39.1326L81.6072 33.5243L95.2942 34.6639L98.5257 35.8074V40.5961L99.2008 45.7829L96.3948 47.0435L91.169 47.1059L89.8576 52.7181L92.0276 55.5086L95.7274 58.0805L96.4221 63.0019L94.3887 68.3096Z" fill="#4AC0B4"/>
<path d="M83.8496 38.6057L81.3479 29.8323C80.4581 28.3102 79.6112 29.0283 78.3896 29.1688C76.7778 29.3522 75.0411 28.88 74.0459 27.5414C73.5268 26.8389 72.8672 25.1958 73.0702 24.3489C73.0936 24.263 73.2731 24.2748 73.3004 24.1772C73.6946 22.7488 74.2605 21.7575 75.6265 21.0081C76.4226 20.571 77.7457 20.5515 78.1555 19.8217C78.3935 19.3963 78.3584 19.0841 78.2921 18.6236C78.1438 17.6245 76.7114 12.4572 76.3056 11.6415C76.2704 11.5713 76.1338 11.5518 76.1104 11.5127C75.2674 10.0024 74.5766 9.3545 72.7619 9.15546C51.9055 14.4281 31.0999 20.0598 10.3216 25.6407C8.819 26.4213 8.12822 27.6467 8.28823 29.3601L10.5635 37.5207C11.5158 39.2262 12.9013 37.95 14.2243 37.9266C18.8452 37.8525 20.6639 43.7612 16.687 46.1536C14.9698 47.1879 13.2135 46.3488 13.8145 49.1393C14.2634 51.2194 15.1883 54.931 15.9298 56.855C16.4879 58.3068 17.8461 59.1889 19.3838 59.2786C28.6528 57.0423 37.8165 54.3612 47.0309 51.9024C58.0133 48.9714 69.6045 46.4034 80.4074 43.0548C82.8037 42.3133 84.0525 41.3298 83.8496 38.6018V38.6057ZM80.7352 40.6312C76.8168 41.6928 72.8984 42.7582 68.984 43.812C68.4025 43.9681 67.7312 44.0579 67.3058 44.171C51.3903 48.4485 35.4788 52.7766 19.5672 57.0736C18.8374 57.175 18.213 56.6911 17.9476 56.0432L16.0781 48.8036C24.7579 45.9663 21.343 34.0043 12.4837 35.9674C11.7149 33.5633 11.0163 31.1007 10.4504 28.6537C10.4972 28.2946 10.7938 28.0331 11.0553 27.8068C27.0761 23.381 43.1867 19.1426 59.27 14.912C59.8476 14.7598 60.5345 14.6584 60.9482 14.553C62.0605 14.2603 63.1767 13.8075 64.3046 13.5305C66.8882 13.2221 69.8153 11.7742 72.3169 11.4698C73.1873 11.3644 73.8078 11.4698 74.1395 12.344L75.8333 18.5533C71.9774 19.8724 69.7723 23.7752 71.5247 27.6702C72.8867 30.6987 76.2743 31.9632 79.4161 31.2334L81.6562 39.1365C81.7187 39.7141 81.3557 40.4907 80.743 40.6351L80.7352 40.6312Z" fill="#101111" stroke="black" stroke-width="0.097569" stroke-miterlimit="10"/>
<path d="M97.056 44.8892L97.661 38.0008C97.7546 37.0758 97.5127 36.2289 96.5096 36.026L85.3868 35.0347C84.9419 34.902 84.7935 33.0989 84.4657 32.6618L96.8258 33.7936C98.1566 34.0083 99.6514 35.2454 99.8855 36.6114C100.046 37.552 99.8933 38.8204 99.8192 39.7961C99.6865 41.5289 99.5265 44.1398 99.2143 45.7868C99.1128 46.3215 98.6132 47.0318 98.0551 47.145C97.4112 47.2776 96.9507 47.0435 96.4082 47.0474C92.1815 47.0864 90.0584 52.2693 93.5279 54.9622C94.7729 55.9301 95.5105 55.6803 96.857 55.9496C97.4619 56.0706 97.9537 56.695 98.0278 57.2999C98.1527 58.3264 97.8795 60.2621 97.7858 61.3783C97.6492 62.9511 97.5087 64.6176 97.3058 66.1748C97.0053 68.454 95.6901 69.8902 93.2821 69.8395L32.6214 64.2898C31.0954 63.9346 29.7412 62.6545 29.6514 61.0154C29.6163 60.3519 29.9051 59.5831 29.7646 58.8728C30.0534 58.7674 31.9541 58.1937 32.0516 58.26C32.1999 58.3576 32.1687 58.4552 32.1648 58.6035C32.1297 59.5167 31.5872 61.0193 32.3014 61.7296C32.8907 62.315 33.5854 62.0847 34.2723 62.1589C53.7393 64.3132 73.3389 65.4177 92.8137 67.5525C93.524 67.533 94.2577 67.7437 94.7261 67.0686C95.1632 66.4363 94.9563 65.8782 95.0305 65.2147C95.2959 62.838 95.4832 60.4534 95.7486 58.0805C90.3238 57.6395 87.4943 51.3365 91.1863 47.1059C91.9434 46.2395 94.1914 44.8892 95.3271 44.8892H97.0677H97.056Z" fill="#101111" stroke="black" stroke-width="0.097569" stroke-miterlimit="10"/>
<path d="M81.787 51.5082C82.0797 51.4809 82.3802 51.6682 82.5246 51.918C82.9305 52.6322 82.2827 55.2314 82.2397 56.1642C81.4358 57.296 80.2923 56.3749 80.6201 55.1416C80.9752 54.205 80.4757 51.6253 81.787 51.5043V51.5082Z" fill="#101111" stroke="black" stroke-width="0.097569" stroke-miterlimit="10"/>
<path d="M80.8335 59.06C81.4189 58.939 81.9184 59.3449 81.9497 59.9342C81.6335 61.0114 81.8677 62.5803 81.5321 63.6028C81.2433 64.4888 79.8344 64.438 79.9007 62.8106C79.9319 62.0417 80.049 60.7187 80.1739 59.9655C80.2363 59.5908 80.4276 59.142 80.8335 59.06Z" fill="#101111" stroke="black" stroke-width="0.097569" stroke-miterlimit="10"/>
<path d="M83.3747 44.292C83.402 45.7126 83.1795 47.1332 83.0117 48.546C82.7932 49.1861 82.0555 49.4085 81.5716 48.9129C80.9784 48.3118 81.6653 46.056 81.5911 45.2052L83.3747 44.292Z" fill="#101111" stroke="black" stroke-width="0.097569" stroke-miterlimit="10"/>
<path d="M60.9516 14.553C61.0219 15.3726 62.4074 18.1006 61.1038 18.3699C59.734 18.6548 59.6325 15.8097 59.2734 14.912C59.8471 14.7598 60.5379 14.6623 60.9516 14.553Z" fill="#101111" stroke="black" stroke-width="0.097569" stroke-miterlimit="10"/>
<path d="M68.9912 43.812C68.4097 43.9681 67.7384 44.0578 67.313 44.171C66.3763 41.845 68.8468 41.3844 68.9912 43.812Z" fill="#101111" stroke="black" stroke-width="0.097569" stroke-miterlimit="10"/>
<path d="M62.5924 20.8208C62.7368 20.9535 63.6891 24.2357 63.7086 24.5714C63.771 25.6056 62.5456 25.9373 62.0928 25.0982C61.6128 24.2162 61.4957 22.4327 61.0781 21.4453C61.1015 20.7506 62.1358 20.3915 62.5924 20.8208Z" fill="#101111" stroke="black" stroke-width="0.097569" stroke-miterlimit="10"/>
<path d="M63.6754 27.8848C64.0774 27.7638 64.5692 27.9199 64.7604 28.3102C64.9282 28.6576 65.7244 31.5339 65.7439 31.8929C65.7985 32.8491 64.6316 33.0755 64.2062 32.4627C64.0774 32.2793 63.1252 29.0127 63.1173 28.7473C63.1095 28.4468 63.3866 27.9707 63.6754 27.8848Z" fill="#101111" stroke="black" stroke-width="0.097569" stroke-miterlimit="10"/>
<path d="M65.7065 35.0815C66.4012 34.8707 66.6432 35.3742 66.854 35.9245C67.0413 36.4084 67.7321 38.793 67.7243 39.1989C67.7009 40.0614 66.4715 40.3931 66.0149 39.2847C65.847 38.8827 65.1367 36.2913 65.1406 35.9557C65.1406 35.6552 65.4138 35.1712 65.7104 35.0854L65.7065 35.0815Z" fill="#101111" stroke="black" stroke-width="0.097569" stroke-miterlimit="10"/>
<path d="M92.4566 12.0864C92.6907 12.3205 92.8234 13.9987 92.9834 14.4983C93.2839 15.4428 93.8733 16.1726 94.7943 16.5355C95.329 16.7463 96.4296 16.758 96.4296 17.4605C96.4296 18.202 95.4305 18.1005 94.9621 18.2293C94.0333 18.4869 93.5142 18.9084 93.1044 19.7904C92.8702 20.2939 92.718 21.3789 92.4917 21.7145C92.3902 21.8667 92.0702 21.9213 91.9024 21.8979C91.3169 21.816 91.274 20.4617 91.0711 19.9426C90.6964 18.9826 89.9822 18.4049 88.987 18.1786C88.6201 18.0966 87.8513 18.2683 87.6952 17.7571C87.3713 16.6994 88.5655 16.8165 89.2797 16.4965C90.2203 16.0789 90.7628 15.4076 91.0633 14.4319C91.2584 13.7919 91.2077 12.863 91.3872 12.4064C91.5472 12.0044 92.1326 11.7585 92.4566 12.0825V12.0864Z" fill="#060707"/>
<path d="M82.3404 22.4482C83.9913 24.2669 81.4194 27.0301 79.589 25.1997C77.6805 23.2912 80.7598 20.7076 82.3404 22.4482Z" fill="#060707"/>
<path d="M93.0372 26.1402C94.6061 25.9529 94.9145 28.3219 93.4392 28.5365C91.6166 28.8019 91.6517 26.3081 93.0372 26.1402Z" fill="#060707"/>
<path d="M45.8948 42.7465L45.1298 39.3277L43.5765 39.675C43.4634 39.6984 42.8662 39.6321 42.714 39.6048C42.4369 39.5501 42.2028 39.3784 41.9218 39.3628C41.6876 39.7335 41.309 40.1394 41.2661 40.5883C41.231 40.9356 41.3715 41.9152 41.59 42.1767C42.0076 42.6723 42.835 42.5084 43.0887 42.7621C43.358 43.0314 42.5931 43.008 42.4799 43.0041C42.1833 42.9963 41.8906 42.8948 41.59 42.9182C41.4183 42.9806 41.3129 43.7378 40.9734 43.7222C40.8993 43.4802 40.8602 43.2695 40.9578 43.0314L40.2319 43.1953C41.3559 43.9095 39.2328 43.5231 39.1001 43.7261L39.2757 44.5183C38.6005 44.0188 38.7527 43.7456 37.8083 44.011C37.5858 44.0734 36.7623 44.5652 36.7779 44.1515C36.7896 43.8197 37.9605 43.7261 38.179 43.0548C38.3078 42.6645 38.2649 41.6849 38.0307 41.3454C37.8707 41.1151 36.657 40.4907 36.3525 40.4165C35.5525 40.2253 34.5612 40.5375 33.8157 40.2175C33.1484 39.9326 31.798 38.3247 31.5326 37.6495C31.236 36.8884 31.4038 36.3928 31.2789 35.7215C31.2126 35.3703 30.194 34.1604 29.8622 34.0277C29.4759 33.8716 29.031 34.1292 28.7031 33.8053C28.8905 33.3369 29.4173 33.134 29.7217 32.8101C30.0027 32.5095 30.2291 31.9436 30.4945 31.6002C31.3414 30.5074 33.1874 30.0937 34.3855 30.8313C35.2051 31.3348 35.5915 32.5369 36.575 32.6539C37.4531 32.7593 38.4288 32.6188 39.3108 32.8569L38.9635 31.3036C38.5966 29.6644 39.6465 28.0448 41.2115 27.5725C44.0956 26.7022 47.3856 26.351 50.3166 25.5587C51.9168 25.4104 53.2242 26.4368 53.6808 27.9394C54.1686 29.5473 54.8048 32.3612 55.0351 34.0199C55.2497 35.5693 54.4223 37.1187 52.8885 37.5909C51.8894 37.8993 50.7537 37.9695 49.7585 38.3247L46.7807 42.9026C46.5426 43.2655 45.9846 43.168 45.8909 42.7426L45.8948 42.7465ZM47.2959 38.4456L48.6345 36.4786C49.778 36.0806 51.2689 36.0337 52.3773 35.6239C52.8495 35.4483 53.1539 34.9605 53.1305 34.457C52.5256 32.5642 52.4046 30.1445 51.7567 28.3102C51.5421 27.7052 50.8942 27.5413 50.3205 27.6233C47.5535 28.0175 44.6459 29.0673 41.8632 29.5161C41.3012 29.6683 40.8134 30.1406 40.8641 30.7533C40.95 31.7836 41.4574 32.9974 41.5978 34.0511C41.8788 34.5351 43.5102 35.2142 43.6156 35.6122C43.6429 35.7176 43.2916 35.9674 43.198 36.0884C42.9911 36.3538 42.5306 37.0641 42.7023 37.3958C42.8038 37.5558 43.2526 37.669 43.4048 37.6378L46.5426 36.9353L46.8627 38.3637C46.9095 38.5744 47.1827 38.6252 47.3037 38.4495L47.2959 38.4456ZM40.8056 40.7795C40.0914 41.1073 39.424 41.0644 38.6708 41.1268C38.6122 41.6459 38.5459 42.7816 39.0064 43.125C39.3577 43.3826 39.4943 43.0899 39.7011 43.0002C40.3334 42.727 40.79 42.7426 40.8719 41.9308C40.911 41.5561 40.8485 41.1542 40.8056 40.7834V40.7795Z" fill="#101111"/>
<path d="M43.728 32.5173C44.8013 32.006 45.3086 33.7154 44.2354 33.9223C43.3416 34.094 43.0958 32.8178 43.728 32.5173Z" fill="#101111"/>
<path d="M46.6347 31.8695C47.79 31.3153 48.2193 33.4462 46.8377 33.2979C46.2132 33.2316 46.0337 32.1583 46.6347 31.8695Z" fill="#101111"/>
<path d="M50.4919 32.3534C49.9495 33.1964 48.6655 32.1934 49.3094 31.4051C49.9221 30.6557 50.9876 31.5846 50.4919 32.3534Z" fill="#101111"/>
<path d="M35.1084 15.7394L37.9105 14.9901C38.4023 14.8574 38.7535 14.2876 38.5935 13.788C38.4335 13.2885 37.9222 12.9645 37.3915 13.105L34.5893 13.8544C34.0975 13.9871 33.7463 14.5569 33.9063 15.0564C34.0663 15.556 34.5776 15.8799 35.1084 15.7394Z" fill="#101111"/>
<path d="M28.2314 17.7493C28.7271 17.6088 29.2227 17.4449 29.7184 17.3005C29.9564 17.2303 30.175 17.0663 30.2999 16.8517C30.4248 16.637 30.4755 16.3326 30.3974 16.0985C30.3194 15.8643 30.175 15.634 29.9486 15.5169C29.7223 15.3999 29.453 15.3452 29.1954 15.4194C28.6997 15.5638 28.208 15.7277 27.7084 15.8682C27.4704 15.9345 27.2518 16.1024 27.1269 16.317C27.002 16.5317 26.9513 16.8361 27.0294 17.0702C27.1074 17.3044 27.2518 17.5347 27.4782 17.6517C27.7045 17.7688 27.9738 17.8235 28.2314 17.7493Z" fill="#101111"/>
<path d="M9.38536 23.0727C12.3671 22.2297 15.3293 21.3203 18.311 20.4812C19.6926 20.091 21.078 19.7124 22.4635 19.3299C23.6734 18.9982 23.1582 17.1132 21.9444 17.4488C18.9549 18.2684 16.1449 19.5212 13.1671 20.3876C11.7895 20.7896 10.5445 21.1369 9.1629 21.5272C7.95695 21.8667 8.1716 23.4161 9.38536 23.0727Z" fill="#101111"/>
</g>
<defs>
<clipPath id="clip0_8331_2233">
<rect width="91.7812" height="60.7816" fill="white" transform="translate(8.21875 9.10468)"/>
</clipPath>
</defs>
</svg>
