<svg width="572" height="274" viewBox="0 0 572 274" fill="none" xmlns="http://www.w3.org/2000/svg">
<g clip-path="url(#clip0_8331_2338)">
<path d="M607.005 0L607.229 0.478062L607.252 7.49056C616.127 9.34444 624.569 12.0711 632.495 16.8961L638.127 20.565C639.333 21.3988 640.521 22.43 641.856 23.0025C644.655 25.8932 647.601 28.4613 650.246 31.5409C663.825 47.3503 671.495 66.8814 671.977 88.4914C672.634 118.012 659.135 143.393 640.801 164.172C626.604 180.265 609.52 192.965 592.652 205.503L555.077 230.178L534.416 241.988L526.759 246.252C525.568 246.899 524.327 247.797 523 248C523.559 246.252 523.195 243.097 523.198 241.202V225.509L523.236 127.509L523.223 98.5001C523.218 94.2587 523.629 89.4281 523.113 85.245C523.041 84.6725 523.031 84.175 523.054 83.5968C523.562 82.7297 523.436 81.1732 523.529 80.1448C525.379 59.5993 534.919 39.24 549.747 26.1516C565.915 11.8793 586.324 5.23923 607.026 7.55449L607.011 0.00278214L607.005 0Z" fill="#44AAA7"/>
<path d="M439.335 7.65369C445.168 7.02904 450.97 6.72229 456.819 7.32742C470.92 8.78585 485.201 15.1578 496.166 24.943C508.918 36.3232 517.827 51.535 521.737 68.9917C522.779 73.6403 523.255 78.3084 523.68 83.0546C523.655 83.6346 523.667 84.1337 523.739 84.7082C524.256 88.905 523.844 93.7516 523.849 98.007L523.862 127.112L523.826 225.435V241.179C523.824 243.081 524.185 246.246 523.626 248C522.205 247.543 520.592 246.31 519.271 245.552L508.127 239.11L473.619 219.027L452.622 205.203C437.184 194.219 422.066 182.446 409.104 168.062C404.676 163.149 400.536 157.736 396.677 152.287C381.567 130.968 372.397 104.195 375.657 77.0674C377.79 59.3041 385.582 42.0315 397.422 29.547C400.014 26.8141 402.915 24.4661 405.77 22.0763C416.02 14.3965 426.975 9.4579 439.337 7.6481L439.335 7.65369Z" fill="#44AAA7"/>
</g>
<defs>
<clipPath id="clip0_8331_2338">
<rect width="572" height="274" fill="white"/>
</clipPath>
</defs>
</svg>
