<?xml version="1.0" encoding="UTF-8"?><svg id="b" xmlns="http://www.w3.org/2000/svg" viewBox="0 0 32 21.64"><defs><style>.d{fill:#e5dad2;}</style></defs><g id="c"><path class="d" d="M14.61,8.43c0,7.27-4.79,12.21-13.53,13.22l-.85-2.09c4.48-1.55,7.5-2.94,7.5-6.26,0-1.85-1-2.32-2.47-2.32C1.62,10.98,0,8.89,0,5.87S2.16,0,6.72,0c4.1,0,7.88,2.4,7.88,8.43ZM32,8.43c0,7.27-4.79,12.21-13.53,13.22l-.85-2.09c4.48-1.55,7.5-2.94,7.5-6.26,0-1.85-1-2.32-2.47-2.32-3.63,0-5.26-2.09-5.26-5.1S19.56,0,24.12,0c4.1,0,7.88,2.4,7.88,8.43Z"/></g></svg>