<?xml version="1.0" encoding="UTF-8"?>
<svg id="Layer_1" xmlns="http://www.w3.org/2000/svg" version="1.1" viewBox="0 0 36 32">
  <!-- Generator: Adobe Illustrator 30.0.0, SVG Export Plug-In . SVG Version: 2.1.1 Build 123)  -->
  <defs>
    <style>
      .st0 {
        fill: #d9c9be;
      }
    </style>
  </defs>
  <path class="st0" d="M21.2,32v-10.7c0-5.9,1.1-10.7,3.4-14.4C27,3.1,30.8.8,36,0v5.6c-3.1.4-5.3,1.6-6.6,3.6-1.3,2-1.9,5.2-1.9,9.6l-4.1-.5h12.5v13.7h-14.7ZM0,32v-10.7c0-5.9,1.1-10.7,3.4-14.4C5.8,3.1,9.6.8,14.8,0v5.6c-3.1.4-5.3,1.6-6.6,3.6-1.3,2-1.9,5.2-1.9,9.6l-4.1-.5h12.5v13.7H0Z"/>
</svg>