<svg width="67" height="46" viewBox="0 0 67 46" fill="none" xmlns="http://www.w3.org/2000/svg">
<path d="M66.096 24.739C65.9672 28.6486 63.4778 31.6306 60.0011 32.492C59.4431 32.6246 58.8422 32.6687 58.2628 32.6687C55.945 32.6908 53.6487 32.6687 51.3524 32.7129C50.9017 32.7129 50.3223 32.978 50.0004 33.3093C46.2662 37.0643 42.5535 40.8414 38.8408 44.6406C38.6905 44.7732 38.5832 44.972 38.4759 45.1266C38.3901 45.0824 38.3042 45.0382 38.2184 44.9941V32.6908C35.3856 32.6908 32.5313 33.0442 30.3423 30.9458C30.1491 31.0342 29.956 31.1446 29.7843 31.2772C30.7071 30.3494 32.1021 28.6486 33.1966 25.998C33.1751 26.1306 33.1751 26.2852 33.1966 26.3956C33.4326 27.235 34.5701 27.3454 35.4714 27.3454C37.6604 27.3454 39.8494 27.3454 42.0384 27.3454H43.1329V32.7792C43.4334 32.5362 43.6051 32.4037 43.7553 32.249C45.1502 30.8354 46.5667 29.4438 47.9187 27.986C48.3908 27.5 48.8844 27.3233 49.5282 27.3233C52.3181 27.3454 55.1295 27.3454 57.9194 27.3233C59.9153 27.3233 61.1815 26.0864 61.2029 24.0543C61.2244 18.9298 61.2244 13.7832 61.2029 8.65865C61.2029 6.60443 59.9367 5.38957 57.9194 5.38957C50.4296 5.38957 42.9183 5.38957 35.4285 5.38957C33.3897 5.38957 32.1879 6.64861 32.1879 8.76909C32.1879 10.6024 32.3811 12.4579 32.145 14.2691C31.9518 15.6386 32.2308 16.743 32.7674 17.7149L31.1149 15.749C31.1149 15.749 29.677 13.5623 27.2305 12.4137C27.2305 11.3093 27.2305 10.1607 27.2305 9.01206C27.2305 6.86949 27.7026 4.90362 28.9903 3.20282C30.5784 1.10442 32.6386 0 35.2139 0C42.8539 0 50.494 0 58.1555 0C62.276 0 65.6453 3.13655 66.096 7.37752C66.1818 8.15062 66.2247 8.92371 66.2247 9.71889C66.2247 14.733 66.2891 19.747 66.1389 24.7611" fill="#FEEC01"/>
<path d="M46.6528 19.6144C45.6441 19.5703 44.8501 18.6646 44.8715 17.5602C44.893 16.4337 45.7729 15.5723 46.8459 15.6164C47.876 15.6606 48.6271 16.5662 48.5842 17.6927C48.5413 18.7972 47.7043 19.6365 46.6742 19.5923" fill="#FEEC01"/>
<path d="M54.3793 15.6386C55.4094 15.6386 56.2035 16.5001 56.225 17.6266C56.225 18.7752 55.4095 19.6587 54.315 19.6366C53.2634 19.6145 52.5337 18.7752 52.5551 17.6045C52.5551 16.4338 53.3278 15.6386 54.3793 15.6386Z" fill="#FEEC01"/>
<path d="M39.1 19.6145C38.0484 19.6145 37.2758 18.8193 37.2543 17.6707C37.2329 16.478 38.0055 15.6165 39.1 15.6165C40.1516 15.6165 40.9027 16.4559 40.9241 17.6045C40.9241 18.731 40.1516 19.5924 39.1214 19.6145" fill="#FEEC01"/>
<path d="M36.5048 22.1547L34.8523 20.1667L32.7706 17.6928L31.1182 15.727C31.1182 15.727 29.6803 13.5402 27.2338 12.3916C26.6758 12.1266 26.0749 11.9278 25.4096 11.8173C25.4096 11.8173 23.3279 11.0442 20.8599 10.5141C20.8599 10.5141 19.1001 10.227 18.0271 7.64262C18.0271 7.64262 16.2029 3.15868 12.2327 2.49602C12.2327 2.49602 7.81174 1.74502 5.85881 3.95386C5.85881 3.95386 5.85881 3.95386 5.81588 3.99804C5.42959 4.39563 3.34789 6.58238 2.89721 6.82535L1.13743 7.8635L0 8.52616C0 8.52616 0 8.52616 0 8.54824C0.0643824 8.68077 0.321912 9.2109 0.729668 9.27716L2.53238 9.69684C2.53238 9.69684 5.21498 12.9438 5.32229 14.4238C5.32229 14.4238 5.45104 15.4177 4.8716 17.8254C4.8716 17.8254 4.59261 20.1446 5.90172 23.1708C5.90172 23.1708 7.81173 26.9258 8.58432 27.721C8.58432 27.721 10.4943 29.4218 12.2327 29.4218L14.1641 29.6206C14.1641 29.6206 15.2586 29.7973 16.2029 30.725L17.6193 32.0503L17.7052 32.1166L18.1988 32.5804L18.9284 33.2652C18.9284 33.2652 19.3576 33.9278 19.3576 34.7009C19.3576 34.7009 19.3791 36.2692 18.9284 37.4399C18.9284 37.4399 18.864 38.1246 18.1773 38.721C17.9198 38.9419 17.5764 39.1407 17.1472 39.2953C17.1472 39.2953 15.881 39.7371 15.0011 39.8033C15.0011 39.8033 14.3573 39.9358 14.3787 40.4439C14.3787 40.4439 14.3787 40.466 14.4002 40.4881C14.4646 40.5985 14.7007 40.8415 15.4947 40.7089C15.4947 40.7089 17.7481 40.3776 18.07 40.3776C18.07 40.3776 19.186 40.2672 19.5079 41.0403L20.1302 42.3214C20.1302 42.3214 20.2375 42.4981 20.3448 42.5865C20.4522 42.6748 20.5809 42.6748 20.6238 42.3214L20.5165 40.4881V40.3776C20.5165 40.3776 21.9759 40.5322 22.2334 40.5985L23.843 40.974C23.843 40.974 24.0361 41.0182 24.1863 40.974C24.3151 40.9298 24.4224 40.8194 24.3366 40.5543C24.3366 40.5543 24.1863 40.3555 23.8859 40.1567C23.7786 40.0905 23.6498 40.0242 23.4996 39.9579C23.4996 39.9579 23.2421 39.8254 23.9288 39.8254H25.4954C25.4954 39.8254 25.9032 39.8033 25.6027 40.2009L25.3452 40.6427L25.2164 40.8415C25.2164 40.8415 25.0877 41.1949 25.2594 41.4379C25.2808 41.482 25.3238 41.5262 25.3881 41.5704C25.3881 41.5704 25.5169 41.6367 25.7315 41.5704H25.7744C25.9461 41.482 26.1393 41.3053 26.3968 40.974L26.9977 40.1788L27.1908 39.9358C27.1908 39.9358 27.5342 39.4278 28.4356 40.0905C28.4356 40.0905 28.8219 40.3114 29.2511 40.5101C29.6374 40.6869 30.0666 40.8415 30.3027 40.8194C30.3027 40.8194 30.6246 40.9077 30.8821 40.8857C30.8821 40.8857 31.0538 40.8856 31.1182 40.8194C31.2255 40.7531 31.2684 40.6648 31.2469 40.466C31.2469 40.4439 31.2469 40.4218 31.2469 40.3776C31.2469 40.3776 31.1396 40.0242 30.1953 39.8696C30.1953 39.8696 30.1739 39.8696 30.1095 39.8475C29.9164 39.7812 29.4228 39.6045 28.9077 39.229C28.3497 38.8314 27.7703 38.213 27.4913 37.2632L27.6415 34.1266V33.8395C27.6415 33.8395 27.7703 32.8897 28.6073 32.1607C28.6073 32.1607 28.7146 32.0724 28.8004 32.0061C28.8004 32.0061 29.2082 31.719 29.8091 31.1226C30.7319 30.1949 32.1268 28.4941 33.2213 25.8435C33.3286 25.6005 33.4359 25.3354 33.5218 25.0704C33.5218 25.0704 33.6076 24.8274 33.8437 24.4519C34.2085 23.8334 34.9811 22.8836 36.4619 22.0663C36.4834 22.0663 36.5263 22.0222 36.5477 22.0222L36.5048 22.1547ZM24.5297 38.9198C24.4224 38.9198 24.1863 38.9198 23.9503 38.964C23.9073 38.964 23.8644 38.964 23.8215 38.964C23.4567 38.986 23.1133 39.0302 23.1133 39.0302L22.0832 39.2953C20.8384 39.5824 20.817 39.0302 20.817 39.0302C20.1088 38.3013 20.3234 35.8495 20.3234 35.8495C20.3234 35.4077 20.6882 34.3917 20.9243 33.8174C21.0101 33.5744 21.0745 33.4419 21.0745 33.4419C21.3106 33.5523 21.5466 33.6407 21.8042 33.7069C22.7485 33.9941 23.7142 34.0382 24.5297 34.0382C25.71 34.0162 26.5685 33.8174 26.5685 33.8174V34.2812L26.547 34.3254L26.4612 36.2692C25.4954 38.986 24.5512 38.8977 24.5512 38.8977" fill="#4ABBB7"/>
</svg>
