<svg width="572" height="274" viewBox="0 0 572 274" fill="none" xmlns="http://www.w3.org/2000/svg">
<g clip-path="url(#clip0_8331_2332)">
<path d="M508.032 -20.99C509.285 -20.8702 509.161 -21.01 510.404 -20.221C515.189 -17.1747 517.54 -9.46411 519.735 -4.53014C527.368 12.6488 533.458 29.4683 538.356 47.5262L582.704 29.2685C588.358 27.1711 594.645 24.3046 600.61 23.3258C603.873 22.7864 604.183 23.0661 606.897 24.8539C607.466 25.9925 608.347 27.0313 608.595 28.2697C609.092 30.7867 605.954 36.7394 604.919 39.1065L585.604 77.8092C583.708 81.4347 580.342 86.2388 579.721 90.194L640.473 113.286C646.024 115.643 649.659 116.622 652 122.395L650.778 124.342C644.699 128.257 637.294 129.905 630.448 132.213C613.359 137.976 596.851 142.999 579.245 147.024L601.149 192.229C604.411 199.011 610.169 207.84 611.309 215.231C611.702 217.808 610.915 218.098 609.31 220.035C601.677 221.364 592.46 215.421 585.593 212.355L539.278 190.441L538.584 191.051C533.965 205.603 527.202 219.716 521.361 233.858C518.586 240.58 515.437 252.645 509.368 257L508.125 256.91C503.185 253.564 500.876 245.194 498.701 239.911L479.344 190.881L430.419 213.623C424.268 216.41 417.629 220.245 410.959 221.354C408.598 220.335 408.204 219.975 406.63 217.978C408.09 208.959 413.414 201.148 417.308 192.958L439.523 147.184C424.475 143.379 377.134 131.973 367.586 122.215C367.285 120.946 366.591 119.758 367.327 118.559C371.614 111.638 428.245 93.6298 438.746 90.6534C432.294 79.4571 410.069 37.2188 409.924 26.8615C409.892 24.5842 410.462 24.6841 411.964 23.116C420.819 19.9599 469.05 43.0317 479.852 47.4663C485.123 29.718 490.602 11.9597 498.079 -5.06948C500.43 -10.4229 502.781 -17.734 508.011 -21L508.032 -20.99Z" fill="#44AAA7"/>
<path d="M357.446 70.9983C357.985 67.0366 359.014 63.4273 361.084 59.9609C364.389 54.4244 369.498 50.6346 375.578 48.4435C377.015 47.9259 378.52 47.6059 380 47.2262C376.081 46.2966 372.241 44.8563 368.921 42.5562C362.994 38.4498 358.696 32.0535 357.436 25C356.569 28.4169 355.628 31.5257 353.781 34.5919C349.496 41.7101 343.001 45.6139 335 47.6365C335.934 47.9804 336.91 48.0553 337.863 48.3277C341.031 49.2301 344.163 50.6823 346.811 52.6248C352.997 57.162 356.369 63.5737 357.445 71L357.446 70.9983Z" fill="#44AAA7"/>
</g>
<defs>
<clipPath id="clip0_8331_2332">
<rect width="572" height="274" fill="white"/>
</clipPath>
</defs>
</svg>
